<svg width="157" height="18" viewBox="0 0 157 18" fill="none" xmlns="http://www.w3.org/2000/svg">
<g clip-path="url(#clip0_1299_1458)">
<path d="M7.52028 17.3573V10.9467C7.52028 10.2833 7.31663 9.74329 6.90933 9.32672C6.50203 8.91014 5.97405 8.70186 5.32538 8.70186C4.903 8.70186 4.52587 8.79443 4.194 8.97957C3.86212 9.16472 3.59813 9.427 3.40203 9.76643C3.221 10.1059 3.13049 10.4993 3.13049 10.9467L1.97648 10.345C1.97648 9.46557 2.1575 8.70186 2.51954 8.05386C2.88159 7.39043 3.3794 6.87357 4.01298 6.50329C4.66164 6.133 5.40081 5.94786 6.23049 5.94786C7.06018 5.94786 7.79181 6.133 8.42538 6.50329C9.07405 6.87357 9.5794 7.38272 9.94144 8.03072C10.3035 8.67872 10.4845 9.427 10.4845 10.2756V17.3573H7.52028ZM0.16626 17.3573V0.625H3.13049V17.3573H0.16626ZM18.0087 17.5887C16.9075 17.5887 15.9119 17.3341 15.0219 16.825C14.1469 16.3004 13.4455 15.5984 12.9175 14.719C12.4046 13.8241 12.1482 12.829 12.1482 11.7336C12.1482 10.6381 12.4046 9.65843 12.9175 8.79443C13.4304 7.915 14.1318 7.22072 15.0219 6.71157C15.9119 6.187 16.9 5.92472 17.9861 5.92472C19.1024 5.92472 20.098 6.187 20.973 6.71157C21.863 7.22072 22.5645 7.915 23.0773 8.79443C23.5902 9.65843 23.8467 10.6381 23.8467 11.7336C23.8467 12.829 23.5902 13.8241 23.0773 14.719C22.5645 15.5984 21.863 16.3004 20.973 16.825C20.098 17.3341 19.11 17.5887 18.0087 17.5887ZM17.9861 14.7653C18.5443 14.7653 19.0345 14.6419 19.4569 14.395C19.8944 14.1327 20.2263 13.7779 20.4525 13.3304C20.6939 12.8676 20.8146 12.343 20.8146 11.7567C20.8146 11.1704 20.6939 10.6536 20.4525 10.2061C20.2112 9.75872 19.8793 9.41157 19.4569 9.16472C19.0345 8.90243 18.5443 8.77129 17.9861 8.77129C17.443 8.77129 16.9603 8.90243 16.5379 9.16472C16.1155 9.41157 15.7837 9.75872 15.5423 10.2061C15.3009 10.6536 15.1803 11.1704 15.1803 11.7567C15.1803 12.343 15.3009 12.8676 15.5423 13.3304C15.7837 13.7779 16.1155 14.1327 16.5379 14.395C16.9603 14.6419 17.443 14.7653 17.9861 14.7653ZM25.755 17.3573V6.17929H28.7193V17.3573H25.755ZM32.8828 17.3573V10.7616C32.8828 10.1136 32.6791 9.61214 32.2718 9.25729C31.8796 8.887 31.3893 8.70186 30.801 8.70186C30.4088 8.70186 30.0543 8.78672 29.7375 8.95643C29.4207 9.11072 29.1718 9.34214 28.9908 9.65072C28.8098 9.95929 28.7193 10.3296 28.7193 10.7616L27.5652 10.183C27.5652 9.319 27.7463 8.57072 28.1083 7.93814C28.4854 7.30557 28.9908 6.81957 29.6244 6.48014C30.2579 6.12529 30.9745 5.94786 31.774 5.94786C32.5283 5.94786 33.2146 6.12529 33.8331 6.48014C34.4516 6.81957 34.9419 7.30557 35.3039 7.93814C35.666 8.55529 35.847 9.30357 35.847 10.183V17.3573H32.8828ZM40.0105 17.3573V10.7616C40.0105 10.1136 39.8069 9.61214 39.3996 9.25729C39.0073 8.887 38.5171 8.70186 37.9288 8.70186C37.5516 8.70186 37.1971 8.78672 36.8652 8.95643C36.5485 9.11072 36.2996 9.34214 36.1185 9.65072C35.9375 9.95929 35.847 10.3296 35.847 10.7616L34.1499 10.345C34.2103 9.45014 34.4441 8.67872 34.8514 8.03072C35.2587 7.36729 35.7942 6.85814 36.4579 6.50329C37.1217 6.133 37.8609 5.94786 38.6755 5.94786C39.4901 5.94786 40.2217 6.12529 40.8704 6.48014C41.519 6.81957 42.0319 7.31329 42.409 7.96129C42.7862 8.60929 42.9747 9.38072 42.9747 10.2756V17.3573H40.0105ZM50.6046 17.5887C49.4581 17.5887 48.4398 17.3419 47.5498 16.8481C46.6598 16.339 45.9508 15.6447 45.4228 14.7653C44.9099 13.8859 44.6535 12.883 44.6535 11.7567C44.6535 10.6459 44.9024 9.65843 45.4002 8.79443C45.9131 7.915 46.607 7.22072 47.4819 6.71157C48.3569 6.187 49.3299 5.92472 50.4009 5.92472C51.4569 5.92472 52.3846 6.17157 53.1841 6.66529C53.9987 7.14357 54.6323 7.807 55.0849 8.65557C55.5525 9.48872 55.7863 10.4376 55.7863 11.5021C55.7863 11.7027 55.7712 11.911 55.7411 12.127C55.726 12.3276 55.6883 12.559 55.6279 12.8213L46.4411 12.8444V10.5764L54.2476 10.5533L53.0484 11.5021C53.0182 10.8387 52.8975 10.2833 52.6863 9.83586C52.4902 9.38843 52.196 9.049 51.8038 8.81757C51.4267 8.57072 50.9591 8.44729 50.4009 8.44729C49.8126 8.44729 49.2997 8.58614 48.8622 8.86386C48.4248 9.12614 48.0853 9.50414 47.844 9.99786C47.6177 10.4761 47.5046 11.047 47.5046 11.7104C47.5046 12.3893 47.6252 12.9833 47.8666 13.4924C48.1231 13.9861 48.4851 14.3719 48.9527 14.6496C49.4204 14.9119 49.9634 15.043 50.5819 15.043C51.1401 15.043 51.6454 14.9504 52.098 14.7653C52.5505 14.5647 52.9428 14.2716 53.2746 13.8859L55.017 15.6679C54.489 16.3004 53.8403 16.7787 53.071 17.1027C52.3167 17.4267 51.4946 17.5887 50.6046 17.5887ZM60.4059 17.3573L56.3103 6.17929H59.2971L61.9672 14.3024L61.0621 14.3256L63.7999 6.17929H65.9495L68.6875 14.3256L67.7823 14.3024L70.4524 6.17929H73.4393L69.3663 17.3573H67.2167L64.4561 9.62757H65.2933L62.5329 17.3573H60.4059ZM79.7713 17.5887C78.6701 17.5887 77.6744 17.3341 76.7844 16.825C75.9095 16.3004 75.208 15.5984 74.68 14.719C74.1671 13.8241 73.9107 12.829 73.9107 11.7336C73.9107 10.6381 74.1671 9.65843 74.68 8.79443C75.1929 7.915 75.8944 7.22072 76.7844 6.71157C77.6744 6.187 78.6625 5.92472 79.7486 5.92472C80.8649 5.92472 81.8606 6.187 82.7355 6.71157C83.6255 7.22072 84.327 7.915 84.8399 8.79443C85.3528 9.65843 85.6092 10.6381 85.6092 11.7336C85.6092 12.829 85.3528 13.8241 84.8399 14.719C84.327 15.5984 83.6255 16.3004 82.7355 16.825C81.8606 17.3341 80.8725 17.5887 79.7713 17.5887ZM79.7486 14.7653C80.3068 14.7653 80.7971 14.6419 81.2195 14.395C81.6569 14.1327 81.9888 13.7779 82.2151 13.3304C82.4564 12.8676 82.5771 12.343 82.5771 11.7567C82.5771 11.1704 82.4564 10.6536 82.2151 10.2061C81.9737 9.75872 81.6418 9.41157 81.2195 9.16472C80.7971 8.90243 80.3068 8.77129 79.7486 8.77129C79.2056 8.77129 78.7229 8.90243 78.3005 9.16472C77.8781 9.41157 77.5462 9.75872 77.3049 10.2061C77.0635 10.6536 76.9428 11.1704 76.9428 11.7567C76.9428 12.343 77.0635 12.8676 77.3049 13.3304C77.5462 13.7779 77.8781 14.1327 78.3005 14.395C78.7229 14.6419 79.2056 14.7653 79.7486 14.7653ZM87.5175 17.3573V6.17929H90.4817V17.3573H87.5175ZM90.4817 11.1781L89.3277 10.3913C89.4635 9.01814 89.8557 7.93814 90.5044 7.15129C91.153 6.349 92.0883 5.94786 93.3102 5.94786C93.8382 5.94786 94.3134 6.04043 94.7358 6.22557C95.1581 6.39529 95.5428 6.68072 95.8898 7.08186L94.0343 9.25729C93.8684 9.07214 93.6647 8.93329 93.4233 8.84072C93.1971 8.74814 92.9331 8.70186 92.6314 8.70186C91.9978 8.70186 91.4774 8.91014 91.0701 9.32672C90.6778 9.72786 90.4817 10.345 90.4817 11.1781ZM103.9 17.3573L99.6686 11.5947L103.877 6.17929H107.294L102.361 12.289L102.474 10.8079L107.52 17.3573H103.9ZM96.9306 17.3573V0.625H99.8949V17.3573H96.9306ZM120.718 17.5887C119.602 17.5887 118.599 17.3341 117.709 16.825C116.819 16.3159 116.117 15.6216 115.604 14.7421C115.091 13.8627 114.835 12.8753 114.835 11.7799C114.835 10.669 115.091 9.67386 115.604 8.79443C116.117 7.915 116.819 7.22072 117.709 6.71157C118.614 6.187 119.617 5.92472 120.718 5.92472C121.578 5.92472 122.37 6.08672 123.094 6.41072C123.818 6.73472 124.444 7.19757 124.972 7.79929L123.071 9.76643C122.785 9.44243 122.438 9.19557 122.03 9.02586C121.638 8.85614 121.201 8.77129 120.718 8.77129C120.175 8.77129 119.685 8.90243 119.247 9.16472C118.825 9.41157 118.485 9.75872 118.229 10.2061C117.988 10.6381 117.867 11.155 117.867 11.7567C117.867 12.343 117.988 12.8676 118.229 13.3304C118.485 13.7779 118.825 14.1327 119.247 14.395C119.685 14.6419 120.175 14.7653 120.718 14.7653C121.216 14.7653 121.661 14.6804 122.053 14.5107C122.46 14.3256 122.807 14.0633 123.094 13.7239L125.017 15.691C124.459 16.3081 123.818 16.7787 123.094 17.1027C122.37 17.4267 121.578 17.5887 120.718 17.5887ZM131.589 17.5887C130.488 17.5887 129.493 17.3341 128.603 16.825C127.728 16.3004 127.026 15.5984 126.498 14.719C125.985 13.8241 125.729 12.829 125.729 11.7336C125.729 10.6381 125.985 9.65843 126.498 8.79443C127.011 7.915 127.713 7.22072 128.603 6.71157C129.493 6.187 130.481 5.92472 131.567 5.92472C132.683 5.92472 133.679 6.187 134.554 6.71157C135.444 7.22072 136.145 7.915 136.658 8.79443C137.171 9.65843 137.427 10.6381 137.427 11.7336C137.427 12.829 137.171 13.8241 136.658 14.719C136.145 15.5984 135.444 16.3004 134.554 16.825C133.679 17.3341 132.691 17.5887 131.589 17.5887ZM131.567 14.7653C132.125 14.7653 132.615 14.6419 133.038 14.395C133.475 14.1327 133.807 13.7779 134.033 13.3304C134.275 12.8676 134.395 12.343 134.395 11.7567C134.395 11.1704 134.275 10.6536 134.033 10.2061C133.792 9.75872 133.46 9.41157 133.038 9.16472C132.615 8.90243 132.125 8.77129 131.567 8.77129C131.024 8.77129 130.541 8.90243 130.119 9.16472C129.696 9.41157 129.364 9.75872 129.123 10.2061C128.882 10.6536 128.761 11.1704 128.761 11.7567C128.761 12.343 128.882 12.8676 129.123 13.3304C129.364 13.7779 129.696 14.1327 130.119 14.395C130.541 14.6419 131.024 14.7653 131.567 14.7653ZM139.336 17.3573V6.17929H142.3V17.3573H139.336ZM146.463 17.3573V10.7616C146.463 10.1136 146.26 9.61214 145.852 9.25729C145.46 8.887 144.97 8.70186 144.382 8.70186C143.989 8.70186 143.635 8.78672 143.318 8.95643C143.001 9.11072 142.752 9.34214 142.571 9.65072C142.39 9.95929 142.3 10.3296 142.3 10.7616L141.146 10.183C141.146 9.319 141.327 8.57072 141.689 7.93814C142.066 7.30557 142.571 6.81957 143.205 6.48014C143.839 6.12529 144.555 5.94786 145.355 5.94786C146.109 5.94786 146.795 6.12529 147.414 6.48014C148.032 6.81957 148.523 7.30557 148.885 7.93814C149.247 8.55529 149.428 9.30357 149.428 10.183V17.3573H146.463ZM153.591 17.3573V10.7616C153.591 10.1136 153.387 9.61214 152.98 9.25729C152.588 8.887 152.098 8.70186 151.509 8.70186C151.132 8.70186 150.778 8.78672 150.446 8.95643C150.129 9.11072 149.88 9.34214 149.699 9.65072C149.518 9.95929 149.428 10.3296 149.428 10.7616L147.731 10.345C147.791 9.45014 148.025 8.67872 148.432 8.03072C148.839 7.36729 149.375 6.85814 150.039 6.50329C150.702 6.133 151.441 5.94786 152.256 5.94786C153.071 5.94786 153.802 6.12529 154.451 6.48014C155.1 6.81957 155.613 7.31329 155.99 7.96129C156.367 8.60929 156.555 9.38072 156.555 10.2756V17.3573H153.591Z" fill="white"/>
<path d="M110.922 17.5888C110.379 17.5888 109.934 17.4036 109.587 17.0334C109.24 16.6631 109.067 16.2079 109.067 15.6679C109.067 15.1279 109.24 14.6728 109.587 14.3025C109.934 13.9322 110.379 13.7471 110.922 13.7471C111.45 13.7471 111.888 13.9322 112.235 14.3025C112.581 14.6728 112.755 15.1279 112.755 15.6679C112.755 16.2079 112.581 16.6631 112.235 17.0334C111.888 17.4036 111.45 17.5888 110.922 17.5888Z" fill="#FF8100"/>
</g>
<defs>
<clipPath id="clip0_1299_1458">
<rect width="156.509" height="18" fill="white" transform="translate(0.11084)"/>
</clipPath>
</defs>
</svg>
