<svg width="420" height="315" viewBox="0 0 420 315" fill="none" xmlns="http://www.w3.org/2000/svg">
<path d="M91.2426 271L39.2322 205.428C36.7251 202.264 36.2837 197.567 38.1428 193.848L105.258 59.6841C107.086 56.0302 110.304 53.615 113.917 53.1898L267.472 35.0675C270.664 34.6905 273.845 35.9038 276.225 38.4097L379.227 146.834C381.793 149.533 382.679 153.785 381.459 157.552L344.809 271H91.2426Z" fill="#F4F4F4"/>
<path d="M163.414 220C160.593 220 158.901 218.977 157.97 218.087C155.904 216.115 155.964 213.404 156.017 212.717V191H160.719V212.91V213.019C160.687 213.389 160.74 214.532 161.402 215.154C161.856 215.579 162.655 215.767 163.759 215.724L164 220C163.793 219.994 163.602 220 163.414 220Z" fill="#868A91"/>
<path opacity="0.2" d="M163.414 220C160.593 220 158.901 218.977 157.97 218.087C155.904 216.115 155.964 213.404 156.017 212.717V191H160.719V212.91V213.019C160.687 213.389 160.74 214.532 161.402 215.154C161.856 215.579 162.655 215.767 163.759 215.724L164 220C163.793 219.994 163.602 220 163.414 220Z" fill="black"/>
<path d="M163.659 220C161.125 220 159.605 218.977 158.769 218.09C156.914 216.115 156.968 213.404 157.016 212.719V191H161.238V212.913V213.022C161.21 213.389 161.258 214.535 161.852 215.154C162.26 215.579 165.792 215.767 166.783 215.724L167 220C166.814 219.994 163.828 220 163.659 220Z" fill="#868A91"/>
<path d="M146.256 170H177V191H146.256C145.658 191 145.084 190.761 144.661 190.335C144.238 189.909 144 189.332 144 188.73V172.27C144 171.668 144.238 171.091 144.661 170.665C145.084 170.239 145.658 170 146.256 170Z" fill="#8F8AD9"/>
<path opacity="0.2" d="M148.667 188.73V172.27C148.667 171.668 148.913 171.091 149.35 170.665C149.788 170.239 150.381 170 151 170H146.333C145.714 170 145.121 170.239 144.683 170.665C144.246 171.091 144 171.668 144 172.27V188.73C144 189.332 144.246 189.909 144.683 190.335C145.121 190.761 145.714 191 146.333 191H151C150.381 191 149.788 190.761 149.35 190.335C148.913 189.909 148.667 189.332 148.667 188.73Z" fill="black"/>
<path d="M154.344 218H206V224H154.344C153.722 224 153.126 223.762 152.686 223.338C152.247 222.914 152 222.339 152 221.739V220.258C152.001 219.659 152.248 219.085 152.688 218.661C153.127 218.238 153.723 218 154.344 218Z" fill="#3F4249"/>
<path opacity="0.3" d="M180.82 221.734V219.266C180.84 218.644 181.081 218.057 181.489 217.632C181.898 217.207 182.441 216.981 183 217.001H154.451C153.097 217.001 152 218.14 152 219.546V221.454C152 222.86 153.097 223.999 154.451 223.999H183C182.441 224.019 181.898 223.793 181.489 223.368C181.081 222.944 180.84 222.356 180.82 221.734Z" fill="black"/>
<path d="M194 224H168V225H194V224Z" fill="#61656D"/>
<path d="M185 225H177V228H185V225Z" fill="#61656D"/>
<path opacity="0.2" d="M180 225H177V228H180V225Z" fill="black"/>
<path d="M184 228H179V262H184V228Z" fill="#B2B6BB"/>
<path opacity="0.2" d="M181 228H179V262H181V228Z" fill="black"/>
<path opacity="0.2" d="M185 225H177V226H185V225Z" fill="black"/>
<path opacity="0.2" d="M179 224H168V225H179V224Z" fill="black"/>
<path d="M195.878 262H165.046C164.768 262 164.502 262.103 164.307 262.286C164.11 262.47 164 262.718 164 262.977V266.541H166.398V264.241H179.801V267H182.199V264.241H195.602V266.541H198V262.977C198 262.718 197.89 262.47 197.693 262.286C197.498 262.103 197.232 262 196.954 262H195.878Z" fill="#61656D"/>
<path d="M165 270C166.657 270 168 268.658 168 267C168 265.343 166.657 264 165 264C163.343 264 162 265.343 162 267C162 268.658 163.343 270 165 270Z" fill="#21252B"/>
<path d="M165 268C165.552 268 166 267.553 166 267C166 266.447 165.552 266 165 266C164.448 266 164 266.447 164 267C164 267.553 164.448 268 165 268Z" fill="#B2B6BB"/>
<path d="M181 270C182.657 270 184 268.658 184 267C184 265.343 182.657 264 181 264C179.343 264 178 265.343 178 267C178 268.658 179.343 270 181 270Z" fill="#21252B"/>
<path d="M181 268C181.552 268 182 267.553 182 267C182 266.447 181.552 266 181 266C180.448 266 180 266.447 180 267C180 267.553 180.448 268 181 268Z" fill="#B2B6BB"/>
<path d="M197.5 270C198.881 270 200 268.658 200 267C200 265.343 198.881 264 197.5 264C196.119 264 195 265.343 195 267C195 268.658 196.119 270 197.5 270Z" fill="#21252B"/>
<path d="M197.5 268C198.329 268 199 267.553 199 267C199 266.447 198.329 266 197.5 266C196.672 266 196 266.447 196 267C196 267.553 196.672 268 197.5 268Z" fill="#B2B6BB"/>
<path d="M184 235H178V258H184V235Z" fill="#61656D"/>
<path opacity="0.2" d="M180 235H178V258H180V235Z" fill="black"/>
<path d="M224 202H218V270H224V202Z" fill="#61656D"/>
<path opacity="0.2" d="M224 222H221V270H224V222Z" fill="white"/>
<path d="M327.774 93H247V270H339V104.893L327.774 93Z" fill="#B2B6BB"/>
<path opacity="0.2" d="M314 97H251V131H314V97Z" fill="black"/>
<path opacity="0.2" d="M314 172H251V206H314V172Z" fill="black"/>
<path opacity="0.2" d="M314 134H251V168H314V134Z" fill="black"/>
<path opacity="0.1" d="M273 97H251V131H273V97Z" fill="black"/>
<path opacity="0.1" d="M273 135H251V168H273V135Z" fill="black"/>
<path opacity="0.1" d="M273 172H251V206H273V172Z" fill="black"/>
<path d="M279 99H254V131H279V99Z" fill="#8F8AD9"/>
<path opacity="0.2" d="M279 99H261V131H279V99Z" fill="black"/>
<path d="M260 106H256V120H260V106Z" fill="white"/>
<path d="M260.415 106.496V119.527H255.585V106.496H260.415ZM261 106H255V120H261V106Z" fill="#8F8AD9"/>
<path opacity="0.2" d="M260.415 106.496V119.527H255.585V106.496H260.415ZM261 106H255V120H261V106Z" fill="black"/>
<path d="M260 108H256V110H260V108Z" fill="#B2B6BB"/>
<path d="M260 117H256V118H260V117Z" fill="#B2B6BB"/>
<path opacity="0.4" d="M258 127C257.604 127 257.218 126.912 256.889 126.747C256.56 126.583 256.304 126.348 256.152 126.074C256.001 125.8 255.961 125.498 256.038 125.207C256.116 124.916 256.306 124.649 256.586 124.439C256.866 124.23 257.222 124.087 257.61 124.029C257.998 123.971 258.4 124.001 258.765 124.114C259.131 124.228 259.443 124.42 259.663 124.667C259.883 124.913 260 125.203 260 125.5C259.999 125.898 259.788 126.279 259.413 126.56C259.038 126.841 258.53 127 258 127Z" fill="black"/>
<path d="M258.003 123.618C258.3 123.619 258.591 123.73 258.838 123.937C259.086 124.144 259.278 124.438 259.392 124.782C259.505 125.126 259.535 125.504 259.476 125.869C259.418 126.234 259.274 126.569 259.064 126.832C258.853 127.095 258.585 127.274 258.293 127.346C258.001 127.419 257.698 127.381 257.423 127.238C257.148 127.096 256.913 126.855 256.748 126.545C256.583 126.236 256.495 125.872 256.495 125.5C256.495 125.252 256.533 125.007 256.609 124.779C256.685 124.55 256.796 124.343 256.936 124.168C257.076 123.993 257.243 123.855 257.426 123.76C257.609 123.666 257.805 123.617 258.003 123.618ZM258.003 123C257.607 122.999 257.22 123.145 256.891 123.419C256.561 123.694 256.305 124.084 256.153 124.541C256.001 124.998 255.961 125.5 256.038 125.985C256.115 126.471 256.305 126.916 256.585 127.266C256.865 127.616 257.221 127.855 257.609 127.952C257.997 128.048 258.399 127.999 258.765 127.81C259.13 127.621 259.443 127.3 259.663 126.889C259.883 126.478 260 125.995 260 125.5C259.999 124.838 259.789 124.203 259.414 123.734C259.04 123.266 258.533 123.002 258.003 123Z" fill="#B2B6BB"/>
<path d="M289 99H264V131H289V99Z" fill="#3F4249"/>
<path opacity="0.2" d="M289 99H271V131H289V99Z" fill="black"/>
<path d="M270 106H265V120H270V106Z" fill="white"/>
<path d="M269.512 106.496V119.527H265.487V106.496H269.512ZM270 106H265V120H270V106Z" fill="#B2B6BB"/>
<path d="M270 108H266V110H270V108Z" fill="#8F8AD9"/>
<path d="M270 117H266V118H270V117Z" fill="#8F8AD9"/>
<path opacity="0.4" d="M267.5 127C267.203 127 266.913 126.912 266.666 126.747C266.421 126.583 266.228 126.348 266.114 126.074C266.001 125.8 265.971 125.498 266.029 125.207C266.087 124.916 266.231 124.649 266.44 124.439C266.649 124.23 266.915 124.087 267.208 124.029C267.498 123.971 267.8 124.001 268.073 124.114C268.349 124.228 268.582 124.42 268.748 124.667C268.912 124.913 269 125.203 269 125.5C269 125.898 268.841 126.279 268.56 126.56C268.28 126.841 267.897 127 267.5 127Z" fill="black"/>
<path d="M268.003 123.618C268.3 123.619 268.592 123.73 268.839 123.937C269.086 124.144 269.278 124.438 269.392 124.782C269.506 125.126 269.533 125.504 269.475 125.869C269.417 126.234 269.275 126.569 269.064 126.832C268.853 127.095 268.583 127.274 268.292 127.346C268 127.419 267.697 127.381 267.422 127.238C267.147 127.096 266.914 126.855 266.747 126.545C266.583 126.236 266.495 125.872 266.495 125.5C266.495 125.252 266.533 125.007 266.608 124.779C266.686 124.55 266.797 124.343 266.936 124.168C267.078 123.993 267.242 123.855 267.425 123.76C267.608 123.666 267.806 123.617 268.003 123.618ZM268.003 123C267.608 122.999 267.22 123.145 266.892 123.419C266.561 123.694 266.305 124.084 266.153 124.541C266.001 124.998 265.961 125.5 266.038 125.985C266.115 126.471 266.305 126.916 266.583 127.266C266.864 127.616 267.22 127.855 267.608 127.952C267.997 128.048 268.4 127.999 268.764 127.81C269.131 127.621 269.442 127.3 269.664 126.889C269.883 126.478 270 125.995 270 125.5C270 124.838 269.789 124.203 269.414 123.734C269.039 123.266 268.533 123.002 268.003 123Z" fill="#B2B6BB"/>
<path d="M298 99H274V131H298V99Z" fill="#8F8AD9"/>
<path opacity="0.2" d="M298 99H281V131H298V99Z" fill="black"/>
<path d="M280 106H275V120H280V106Z" fill="white"/>
<path d="M279.512 106.496V119.527H275.488V106.496H279.512ZM280 106H275V120H280V106Z" fill="#8F8AD9"/>
<path opacity="0.2" d="M279.512 106.496V119.527H275.488V106.496H279.512ZM280 106H275V120H280V106Z" fill="black"/>
<path d="M279 108H275V110H279V108Z" fill="#B2B6BB"/>
<path d="M279 117H275V118H279V117Z" fill="#B2B6BB"/>
<path opacity="0.4" d="M277 127C276.604 127 276.217 126.912 275.887 126.747C275.561 126.583 275.304 126.348 275.152 126.074C275 125.8 274.962 125.498 275.038 125.207C275.114 124.916 275.307 124.649 275.586 124.439C275.865 124.23 276.223 124.087 276.61 124.029C276.997 123.971 277.399 124.001 277.764 124.114C278.132 124.228 278.442 124.42 278.664 124.667C278.883 124.913 279 125.203 279 125.5C279 125.898 278.788 126.279 278.414 126.56C278.04 126.841 277.529 127 277 127Z" fill="black"/>
<path d="M277.003 123.618C277.3 123.619 277.592 123.73 277.839 123.937C278.086 124.144 278.278 124.438 278.392 124.782C278.506 125.126 278.533 125.504 278.475 125.869C278.417 126.234 278.275 126.569 278.064 126.832C277.853 127.095 277.583 127.274 277.292 127.346C277 127.419 276.697 127.381 276.422 127.238C276.147 127.096 275.914 126.855 275.747 126.545C275.583 126.236 275.495 125.872 275.495 125.5C275.495 125.252 275.533 125.007 275.608 124.779C275.686 124.55 275.797 124.343 275.936 124.168C276.078 123.993 276.242 123.855 276.425 123.76C276.608 123.666 276.806 123.617 277.003 123.618ZM277.003 123C276.608 122.999 276.22 123.145 275.892 123.419C275.561 123.694 275.306 124.084 275.153 124.541C275 124.998 274.961 125.5 275.039 125.985C275.114 126.471 275.306 126.916 275.583 127.266C275.864 127.616 276.22 127.855 276.608 127.952C276.997 128.048 277.4 127.999 277.764 127.81C278.131 127.621 278.442 127.3 278.664 126.889C278.883 126.478 279 125.995 279 125.5C279 124.838 278.789 124.203 278.414 123.734C278.039 123.266 277.533 123.002 277.003 123Z" fill="#B2B6BB"/>
<path d="M307.759 129L287 128.711L296.432 99H311L307.759 129Z" fill="#3F4249"/>
<path opacity="0.2" d="M307.759 129L287 128.711L296.432 99H311L307.759 129Z" fill="white"/>
<path d="M305.263 131H294L303.366 101.246L311 101L305.263 131Z" fill="#3F4249"/>
<path opacity="0.2" d="M305.263 131H294L303.366 101.246L311 101L305.263 131Z" fill="black"/>
<path d="M293.702 131L287 128.879L296.297 99L303 101.121L293.702 131Z" fill="#3F4249"/>
<path d="M295.856 108L292 120.645L296.144 122L300 109.355L295.856 108Z" fill="white"/>
<path d="M295.487 106.624L299.38 107.856L295.51 120.373L291.618 119.144L295.487 106.624ZM295.163 106L295.016 106.476L291.147 118.996L291 119.472L291.471 119.62L295.363 120.849L295.834 121L295.981 120.521L299.853 108.004L300 107.528L299.529 107.377L295.637 106.148L295.163 106Z" fill="#B2B6BB"/>
<path d="M295.761 107L295 108.945L299.239 110L300 108.055L295.761 107Z" fill="#8F8AD9"/>
<path d="M292.313 117L292 117.808L296.691 119L297 118.192L292.313 117Z" fill="#8F8AD9"/>
<path opacity="0.4" d="M291.999 127C291.797 127 291.596 126.968 291.403 126.907C291.089 126.809 290.804 126.635 290.573 126.401C290.342 126.166 290.176 125.878 290.083 125.563C289.99 125.248 289.974 124.914 290.041 124.592C290.109 124.271 290.253 123.97 290.464 123.718C290.676 123.465 290.945 123.269 291.249 123.146C291.554 123.022 291.887 122.976 292.214 123.011C292.541 123.046 292.852 123.161 293.124 123.347C293.397 123.531 293.618 123.781 293.772 124.072C293.932 124.377 294.009 124.717 293.999 125.061C293.99 125.406 293.89 125.741 293.711 126.036C293.534 126.33 293.281 126.574 292.983 126.743C292.682 126.912 292.342 127 291.999 127Z" fill="black"/>
<path d="M292.001 123.491C292.152 123.491 292.303 123.515 292.449 123.561C292.792 123.67 293.083 123.897 293.274 124.202C293.465 124.508 293.538 124.871 293.484 125.226C293.431 125.581 293.252 125.906 292.979 126.14C292.707 126.375 292.36 126.505 292.001 126.506C291.849 126.506 291.698 126.483 291.552 126.439C291.207 126.332 290.912 126.105 290.722 125.799C290.528 125.493 290.452 125.129 290.508 124.772C290.562 124.415 290.744 124.089 291.016 123.854C291.291 123.619 291.639 123.49 292.001 123.491ZM292.001 123C291.524 122.999 291.061 123.17 290.696 123.482C290.334 123.793 290.096 124.225 290.023 124.698C289.95 125.171 290.051 125.654 290.306 126.059C290.559 126.465 290.949 126.766 291.406 126.907C291.599 126.969 291.799 127 292.001 127C292.477 127.001 292.94 126.83 293.305 126.518C293.667 126.207 293.905 125.775 293.978 125.302C294.048 124.829 293.95 124.346 293.695 123.941C293.442 123.535 293.052 123.234 292.595 123.093C292.402 123.031 292.203 123 292.001 123Z" fill="#B2B6BB"/>
<path d="M311 100H299L303.453 101L310.857 100.812L311 100Z" fill="white"/>
<path d="M314 99H304V131H314V99Z" fill="#8F8AD9"/>
<path opacity="0.2" d="M314 99H311V131H314V99Z" fill="black"/>
<path d="M310 106H305V120H310V106Z" fill="white"/>
<path d="M309.512 106.496V119.527H305.488V106.496H309.512ZM310 106H305V120H310V106Z" fill="#8F8AD9"/>
<path opacity="0.2" d="M309.512 106.496V119.527H305.488V106.496H309.512ZM310 106H305V120H310V106Z" fill="black"/>
<path d="M309 108H305V110H309V108Z" fill="#B2B6BB"/>
<path d="M309 117H305V118H309V117Z" fill="#B2B6BB"/>
<path opacity="0.4" d="M307 127C306.604 127 306.217 126.912 305.887 126.747C305.561 126.583 305.304 126.348 305.152 126.074C305 125.8 304.962 125.498 305.038 125.207C305.114 124.916 305.307 124.649 305.586 124.439C305.865 124.23 306.223 124.087 306.61 124.029C306.997 123.971 307.399 124.001 307.764 124.114C308.132 124.228 308.442 124.42 308.664 124.667C308.883 124.913 309 125.203 309 125.5C309 125.898 308.788 126.279 308.414 126.56C308.04 126.841 307.529 127 307 127Z" fill="black"/>
<path d="M307.003 123.618C307.3 123.619 307.592 123.73 307.839 123.937C308.086 124.144 308.278 124.438 308.392 124.782C308.506 125.126 308.533 125.504 308.475 125.869C308.417 126.234 308.275 126.569 308.064 126.832C307.853 127.095 307.583 127.274 307.292 127.346C307 127.419 306.697 127.381 306.422 127.238C306.147 127.096 305.914 126.855 305.747 126.545C305.583 126.236 305.495 125.872 305.495 125.5C305.495 125.252 305.533 125.007 305.608 124.779C305.686 124.55 305.797 124.343 305.936 124.168C306.078 123.993 306.242 123.855 306.425 123.76C306.608 123.666 306.806 123.617 307.003 123.618ZM307.003 123C306.608 122.999 306.22 123.145 305.892 123.419C305.561 123.694 305.306 124.084 305.153 124.541C305 124.998 304.961 125.5 305.039 125.985C305.114 126.471 305.306 126.916 305.583 127.266C305.864 127.616 306.22 127.855 306.608 127.952C306.997 128.048 307.4 127.999 307.764 127.81C308.131 127.621 308.442 127.3 308.664 126.889C308.883 126.478 309 125.995 309 125.5C309 124.838 308.789 124.203 308.414 123.734C308.039 123.266 307.533 123.002 307.003 123Z" fill="#B2B6BB"/>
<path d="M305 174H295V206H305V174Z" fill="#8F8AD9"/>
<path opacity="0.2" d="M305 174H302V206H305V174Z" fill="black"/>
<path d="M300 182H296V195H300V182Z" fill="white"/>
<path d="M300.512 181.531V195.493H296.488V181.531H300.512ZM301 181H296V196H301V181Z" fill="#8F8AD9"/>
<path opacity="0.2" d="M300.512 181.531V195.493H296.488V181.531H300.512ZM301 181H296V196H301V181Z" fill="black"/>
<path d="M300 183H296V186H300V183Z" fill="#B2B6BB"/>
<path opacity="0.4" d="M298 203C297.604 203 297.217 202.883 296.887 202.663C296.561 202.443 296.304 202.131 296.152 201.765C296 201.4 295.962 200.998 296.038 200.61C296.114 200.222 296.307 199.866 296.586 199.586C296.865 199.306 297.223 199.116 297.61 199.039C297.997 198.961 298.399 199.001 298.764 199.152C299.132 199.304 299.442 199.56 299.664 199.889C299.883 200.218 300 200.604 300 201C300 201.53 299.788 202.038 299.414 202.413C299.04 202.788 298.529 202.999 298 203Z" fill="black"/>
<path d="M298.003 199.494C298.3 199.495 298.592 199.584 298.839 199.749C299.086 199.915 299.278 200.151 299.392 200.426C299.506 200.701 299.533 201.003 299.475 201.295C299.417 201.587 299.275 201.855 299.064 202.066C298.853 202.276 298.583 202.419 298.292 202.477C298 202.535 297.697 202.505 297.422 202.391C297.147 202.277 296.914 202.084 296.747 201.836C296.583 201.589 296.495 201.298 296.495 201C296.495 200.802 296.533 200.606 296.608 200.423C296.686 200.24 296.797 200.074 296.936 199.934C297.078 199.794 297.242 199.684 297.425 199.608C297.608 199.533 297.806 199.494 298.003 199.494ZM298.003 199C297.608 198.999 297.22 199.116 296.892 199.336C296.561 199.555 296.306 199.867 296.153 200.233C296 200.598 295.961 201 296.039 201.388C296.114 201.777 296.306 202.133 296.583 202.413C296.864 202.693 297.22 202.884 297.608 202.961C297.997 203.039 298.4 202.999 298.764 202.848C299.131 202.697 299.442 202.44 299.664 202.111C299.883 201.783 300 201.396 300 201C300 200.47 299.789 199.962 299.414 199.588C299.039 199.213 298.533 199.001 298.003 199Z" fill="#B2B6BB"/>
<path d="M314 174H304V206H314V174Z" fill="#3F4249"/>
<path opacity="0.2" d="M314 174H311V206H314V174Z" fill="black"/>
<path d="M310 182H305V195H310V182Z" fill="white"/>
<path d="M309.512 181.531V195.493H305.488V181.531H309.512ZM310 181H305V196H310V181Z" fill="#B2B6BB"/>
<path d="M309 183H305V186H309V183Z" fill="#8F8AD9"/>
<path opacity="0.4" d="M307 203C306.604 203 306.217 202.883 305.887 202.663C305.561 202.443 305.304 202.131 305.152 201.765C305 201.4 304.962 200.998 305.038 200.61C305.114 200.222 305.307 199.866 305.586 199.586C305.865 199.306 306.223 199.116 306.61 199.039C306.997 198.961 307.399 199.001 307.764 199.152C308.132 199.304 308.442 199.56 308.664 199.889C308.883 200.218 309 200.604 309 201C309 201.53 308.788 202.038 308.414 202.413C308.04 202.788 307.529 202.999 307 203Z" fill="black"/>
<path d="M307.003 199.494C307.3 199.495 307.592 199.584 307.839 199.749C308.086 199.915 308.278 200.151 308.392 200.426C308.506 200.701 308.533 201.003 308.475 201.295C308.417 201.587 308.275 201.855 308.064 202.066C307.853 202.276 307.583 202.419 307.292 202.477C307 202.535 306.697 202.505 306.422 202.391C306.147 202.277 305.914 202.084 305.747 201.836C305.583 201.589 305.495 201.298 305.495 201C305.495 200.802 305.533 200.606 305.608 200.423C305.686 200.24 305.797 200.074 305.936 199.934C306.078 199.794 306.242 199.684 306.425 199.608C306.608 199.533 306.806 199.494 307.003 199.494ZM307.003 199C306.608 198.999 306.22 199.116 305.892 199.336C305.561 199.555 305.306 199.867 305.153 200.233C305 200.598 304.961 201 305.039 201.388C305.114 201.777 305.306 202.133 305.583 202.413C305.864 202.693 306.22 202.884 306.608 202.961C306.997 203.039 307.4 202.999 307.764 202.848C308.131 202.697 308.442 202.44 308.664 202.111C308.883 201.783 309 201.396 309 201C309 200.47 308.789 199.962 308.414 199.588C308.039 199.213 307.533 199.001 307.003 199Z" fill="#B2B6BB"/>
<path d="M294 163H280V168H294V163Z" fill="white"/>
<path d="M280 163H257V168H280V163Z" fill="#8F8AD9"/>
<path opacity="0.3" d="M280 163H257V168H280V163Z" fill="white"/>
<path d="M271 164H260V167H271V164Z" fill="white"/>
<path d="M271.534 164.294V166.706H259.46V164.294H271.534ZM271.994 164H259V167H272V164H271.994Z" fill="#8F8AD9"/>
<path d="M262 164H260V167H262V164Z" fill="#B2B6BB"/>
<path d="M270 164H269V167H270V164Z" fill="#B2B6BB"/>
<path d="M275.5 167C275.202 167 274.912 166.912 274.668 166.747C274.421 166.582 274.229 166.348 274.113 166.074C274 165.8 273.971 165.499 274.029 165.208C274.087 164.916 274.229 164.649 274.44 164.439C274.65 164.229 274.915 164.087 275.206 164.029C275.5 163.971 275.801 164.001 276.074 164.114C276.346 164.228 276.582 164.42 276.746 164.667C276.913 164.913 277 165.203 277 165.5C277 165.697 276.96 165.892 276.887 166.074C276.811 166.256 276.699 166.421 276.561 166.561C276.423 166.7 276.255 166.81 276.074 166.886C275.892 166.961 275.696 167 275.5 167Z" fill="#8F8AD9"/>
<path d="M275.503 164.369C275.726 164.369 275.946 164.436 276.131 164.56C276.318 164.684 276.462 164.861 276.548 165.068C276.634 165.275 276.656 165.502 276.611 165.722C276.567 165.941 276.459 166.143 276.303 166.301C276.143 166.459 275.943 166.566 275.723 166.609C275.503 166.653 275.274 166.63 275.067 166.544C274.863 166.458 274.685 166.312 274.561 166.126C274.436 165.94 274.373 165.72 274.373 165.497C274.373 165.348 274.401 165.202 274.459 165.065C274.516 164.928 274.599 164.803 274.704 164.698C274.809 164.594 274.933 164.511 275.07 164.454C275.207 164.398 275.354 164.369 275.503 164.369ZM275.503 164C275.207 163.999 274.917 164.087 274.669 164.252C274.42 164.416 274.229 164.65 274.115 164.925C274 165.199 273.971 165.501 274.029 165.792C274.086 166.083 274.229 166.351 274.44 166.561C274.65 166.771 274.917 166.914 275.207 166.971C275.5 167.029 275.803 166.999 276.076 166.885C276.35 166.771 276.583 166.579 276.748 166.331C276.914 166.084 277 165.794 277 165.497C277 165.1 276.841 164.72 276.561 164.439C276.28 164.159 275.901 164.001 275.503 164Z" fill="#DADDDF"/>
<path d="M294.553 167.648H294.068H279.45V163.352H294.194H294.553H295V163H279V168H295V167.648H294.553Z" fill="#8F8AD9"/>
<path opacity="0.15" d="M294 163H280V164H294V163Z" fill="black"/>
<path opacity="0.15" d="M294 164H280V165H294V164Z" fill="black"/>
<path opacity="0.15" d="M294 167H280V168H294V167Z" fill="black"/>
<path d="M293 152H279V157H293V152Z" fill="white"/>
<path d="M278 152H256V157H278V152Z" fill="#8F8AD9"/>
<path opacity="0.3" d="M278 152H256V157H278V152Z" fill="white"/>
<path d="M270 153H259V156H270V153Z" fill="white"/>
<path d="M270.53 153.392V156.608H258.449V153.392H270.53ZM270.988 153H258V157H271V153H270.988Z" fill="#8F8AD9"/>
<path d="M261 153H259V156H261V153Z" fill="#B2B6BB"/>
<path d="M269 153H268V156H269V153Z" fill="#B2B6BB"/>
<path d="M274.5 156C274.202 156 273.912 155.912 273.668 155.747C273.421 155.582 273.229 155.348 273.113 155.074C273 154.8 272.971 154.499 273.029 154.207C273.087 153.916 273.229 153.649 273.44 153.439C273.65 153.229 273.915 153.087 274.206 153.029C274.5 152.971 274.802 153.001 275.074 153.114C275.35 153.228 275.582 153.42 275.746 153.667C275.913 153.913 276 154.203 276 154.5C276 154.898 275.844 155.279 275.561 155.561C275.281 155.842 274.9 156 274.5 156Z" fill="#8F8AD9"/>
<path d="M274.5 153.369C274.723 153.369 274.943 153.435 275.131 153.559C275.315 153.682 275.462 153.859 275.548 154.066C275.634 154.273 275.656 154.5 275.611 154.72C275.57 154.939 275.462 155.141 275.303 155.299C275.143 155.458 274.943 155.565 274.723 155.609C274.503 155.653 274.277 155.63 274.07 155.544C273.863 155.458 273.685 155.312 273.561 155.126C273.436 154.94 273.373 154.721 273.373 154.497C273.373 154.198 273.49 153.911 273.704 153.7C273.914 153.488 274.201 153.369 274.5 153.369ZM274.5 153C274.204 153 273.914 153.088 273.666 153.253C273.42 153.418 273.226 153.652 273.115 153.927C273 154.201 272.971 154.503 273.029 154.794C273.086 155.085 273.229 155.352 273.439 155.562C273.65 155.771 273.917 155.914 274.21 155.972C274.5 156.029 274.803 155.999 275.076 155.885C275.35 155.771 275.583 155.578 275.748 155.331C275.914 155.084 276 154.794 276 154.497C276 154.099 275.841 153.719 275.561 153.438C275.277 153.158 274.898 153 274.5 153Z" fill="#DADDDF"/>
<path d="M293.55 156.65H293.066H278.45V152.352H293.191H293.55H294V152H278V157H294V156.65H293.55Z" fill="#8F8AD9"/>
<path opacity="0.15" d="M293 153H279V154H293V153Z" fill="black"/>
<path opacity="0.15" d="M293 154H279V155H293V154Z" fill="black"/>
<path opacity="0.15" d="M293 156H279V157H293V156Z" fill="black"/>
<path d="M297 158H282V163H297V158Z" fill="white"/>
<path d="M282 157H260V163H282V157Z" fill="#3F4249"/>
<path d="M274 158H262V162H274V158Z" fill="white"/>
<path d="M273.578 158.389V161.611H262.425V158.389H273.578ZM274 158H262V162H274V158Z" fill="#B2B6BB"/>
<path d="M265 159H263V162H265V159Z" fill="#8F8AD9"/>
<path d="M272 159H271V162H272V159Z" fill="#8F8AD9"/>
<path opacity="0.4" d="M278 161C277.802 161 277.608 160.941 277.443 160.831C277.281 160.721 277.153 160.565 277.075 160.382C277 160.199 276.981 159.998 277.019 159.804C277.058 159.61 277.153 159.432 277.293 159.292C277.433 159.152 277.613 159.057 277.806 159.019C278 158.981 278.201 159.001 278.385 159.077C278.567 159.153 278.724 159.281 278.833 159.446C278.942 159.611 279 159.805 279 160.002C279 160.267 278.893 160.521 278.707 160.708C278.518 160.895 278.264 161 278 161Z" fill="black"/>
<path d="M278 159.246C278.149 159.246 278.295 159.29 278.418 159.372C278.544 159.455 278.641 159.572 278.699 159.71C278.756 159.848 278.771 159.999 278.741 160.146C278.713 160.292 278.641 160.427 278.535 160.532C278.431 160.638 278.297 160.71 278.151 160.739C278.004 160.768 277.851 160.754 277.713 160.696C277.575 160.64 277.459 160.543 277.376 160.419C277.293 160.295 277.248 160.149 277.248 160C277.248 159.8 277.327 159.609 277.469 159.468C277.609 159.327 277.8 159.247 278 159.246ZM278 159C277.803 159 277.609 159.059 277.444 159.168C277.28 159.278 277.151 159.435 277.076 159.617C277 159.8 276.981 160.001 277.019 160.195C277.057 160.389 277.153 160.567 277.293 160.707C277.433 160.847 277.611 160.942 277.805 160.981C277.998 161.019 278.2 161 278.382 160.924C278.565 160.848 278.722 160.72 278.832 160.555C278.941 160.391 279 160.198 279 160C279 159.735 278.894 159.48 278.707 159.293C278.52 159.105 278.265 159 278 159Z" fill="#DADDDF"/>
<path d="M296.578 162.58H296.124H282.422V157.423H296.242H296.578H297V157H282V163H297V162.58H296.578Z" fill="#3F4249"/>
<path opacity="0.2" d="M296.578 162.58H296.124H282.422V157.423H296.242H296.578H297V157H282V163H297V162.58H296.578Z" fill="black"/>
<path opacity="0.15" d="M297 158H282V159H297V158Z" fill="black"/>
<path opacity="0.15" d="M297 159H282V160H297V159Z" fill="black"/>
<path d="M291 183H254V206H291V183Z" fill="white"/>
<path opacity="0.1" d="M291 183H254V206H291V183Z" fill="black"/>
<path opacity="0.1" d="M292 205H275V206H292V205Z" fill="black"/>
<path opacity="0.1" d="M292 203H275V204H292V203Z" fill="black"/>
<path opacity="0.1" d="M292 202H275V203H292V202Z" fill="black"/>
<path opacity="0.1" d="M292 199H275V200H292V199Z" fill="black"/>
<path opacity="0.1" d="M292 198H275V199H292V198Z" fill="black"/>
<path opacity="0.1" d="M292 196H275V197H292V196Z" fill="black"/>
<path opacity="0.1" d="M292 195H275V196H292V195Z" fill="black"/>
<path opacity="0.1" d="M292 193H275V194H292V193Z" fill="black"/>
<path opacity="0.1" d="M292 192H275V193H292V192Z" fill="black"/>
<path opacity="0.1" d="M292 190H275V191H292V190Z" fill="black"/>
<path opacity="0.1" d="M292 189H275V190H292V189Z" fill="black"/>
<path opacity="0.1" d="M292 186H275V187H292V186Z" fill="black"/>
<path opacity="0.1" d="M292 185H275V186H292V185Z" fill="black"/>
<path opacity="0.1" d="M292 183H275V184H292V183Z" fill="black"/>
<path d="M278 205H254V206H278V205Z" fill="white"/>
<path d="M278 203H254V204H278V203Z" fill="white"/>
<path d="M278 202H254V203H278V202Z" fill="white"/>
<path d="M278 199H254V200H278V199Z" fill="white"/>
<path d="M278 198H254V199H278V198Z" fill="white"/>
<path d="M278 196H254V197H278V196Z" fill="white"/>
<path d="M278 195H254V196H278V195Z" fill="white"/>
<path d="M278 193H254V194H278V193Z" fill="white"/>
<path d="M278 192H254V193H278V192Z" fill="white"/>
<path d="M278 190H254V191H278V190Z" fill="white"/>
<path d="M278 189H254V190H278V189Z" fill="white"/>
<path d="M278 186H254V187H278V186Z" fill="white"/>
<path d="M278 185H254V186H278V185Z" fill="white"/>
<path d="M278 183H254V184H278V183Z" fill="white"/>
<path opacity="0.2" d="M281 209H251V262H281V209Z" stroke="black" stroke-width="1.96" stroke-miterlimit="10"/>
<path opacity="0.2" d="M314 209H284V262H314V209Z" stroke="black" stroke-width="1.95" stroke-miterlimit="10"/>
<path opacity="0.3" d="M288 228H286V236H288V228Z" fill="black"/>
<path opacity="0.3" d="M279 228H277V236H279V228Z" fill="black"/>
<path d="M303.081 159C301.124 157.913 300.078 155.391 300.001 153.325C299.986 152.274 300.238 151.234 300.733 150.295C301.231 149.357 301.958 148.547 302.85 147.935C303.758 147.335 304.831 147.009 305.931 147C307.034 146.991 308.114 147.299 309.03 147.883C309.979 148.492 310.75 149.323 311.268 150.298C311.787 151.272 312.039 152.357 311.995 153.45C311.927 154.54 311.607 155.602 311.058 156.559C310.509 157.516 309.747 158.345 308.822 158.986" fill="#66B47D"/>
<path opacity="0.3" d="M302.914 159C300.033 149.645 304.877 147.025 304.925 147L305 147.225C304.955 147.251 300.288 149.789 303.098 158.915L302.914 159Z" fill="white"/>
<path opacity="0.3" d="M307.781 159C311.622 149.645 305.167 147.025 305.1 147L305 147.225C305.064 147.251 311.282 149.789 307.535 158.915L307.781 159Z" fill="white"/>
<path d="M301 152.768C301 153.002 300.54 153.071 299.989 152.92C299.439 152.768 298.996 152.466 299 152.232C299.004 151.998 299.46 151.929 300.011 152.08C300.561 152.232 301.004 152.534 301 152.768Z" fill="#8F8AD9"/>
<path d="M300.999 150.973C300.98 151.063 300.734 150.922 300.47 150.657C300.205 150.392 299.983 150.094 300.001 150.02C300.02 149.947 300.266 150.077 300.53 150.342C300.795 150.606 301.017 150.888 300.999 150.973Z" fill="#8F8AD9"/>
<path d="M301.998 148.992C301.975 149.037 301.705 148.885 301.426 148.606C301.146 148.327 300.972 148.039 301.004 148.004C301.035 147.969 301.268 148.187 301.531 148.457C301.795 148.726 302.022 148.948 301.998 148.992Z" fill="#8F8AD9"/>
<path d="M302.97 147.999C302.883 148.015 302.596 147.811 302.334 147.54C302.071 147.269 301.936 147.032 302.03 147.003C302.123 146.973 302.404 147.191 302.666 147.462C302.929 147.733 303.064 147.98 302.97 147.999Z" fill="#8F8AD9"/>
<path d="M306.935 146.001C307.071 146.022 306.986 146.26 306.747 146.535C306.509 146.81 306.202 147.016 306.065 146.999C305.929 146.982 306.014 146.737 306.253 146.462C306.491 146.187 306.798 145.981 306.935 146.001Z" fill="#8F8AD9"/>
<path d="M310.999 149.026C311.017 149.118 310.808 149.405 310.531 149.663C310.254 149.921 310.014 150.064 310.001 149.972C309.988 149.88 310.195 149.6 310.469 149.336C310.743 149.072 310.976 148.94 310.999 149.026Z" fill="#8F8AD9"/>
<path d="M311.999 154.985C311.985 155.04 311.712 154.944 311.429 154.663C311.146 154.382 310.974 154.045 311.003 154.004C311.033 153.964 311.249 154.208 311.51 154.471C311.771 154.733 312.014 154.922 311.999 154.985Z" fill="#8F8AD9"/>
<path d="M310.996 156.994C310.963 157.034 310.667 156.874 310.393 156.592C310.12 156.309 309.962 156.03 310.008 156.002C310.054 155.975 310.275 156.196 310.542 156.463C310.808 156.73 311.032 156.951 310.996 156.994Z" fill="#8F8AD9"/>
<path d="M301.999 157.01C302.017 157.073 301.807 157.345 301.533 157.617C301.258 157.888 301.019 158.041 301.001 157.99C300.983 157.939 301.193 157.655 301.467 157.383C301.742 157.112 301.981 156.959 301.999 157.01Z" fill="#8F8AD9"/>
<path d="M300.999 155.027C301.018 155.12 300.809 155.406 300.533 155.663C300.258 155.919 300.021 156.065 300.001 155.972C299.982 155.878 300.188 155.598 300.464 155.336C300.74 155.073 300.976 154.939 300.999 155.027Z" fill="#8F8AD9"/>
<path d="M302 153.097C302.012 153.288 301.797 153.778 301.517 153.945C301.237 154.113 300.995 153.862 301 153.658C301.005 153.455 301.227 153.36 301.5 153.205C301.773 153.049 301.987 152.894 302 153.097Z" fill="#8F8AD9"/>
<path d="M303.999 150.945C303.981 151.081 303.743 150.945 303.469 150.738C303.195 150.53 302.985 150.186 303.001 150.058C303.016 149.931 303.257 150.018 303.531 150.266C303.805 150.514 304.015 150.794 303.999 150.945Z" fill="#8F8AD9"/>
<path d="M308 155.971C307.98 156.064 307.74 155.925 307.462 155.663C307.184 155.401 306.981 155.121 307.001 155.028C307.021 154.935 307.262 155.081 307.536 155.337C307.811 155.593 308 155.884 308 155.971Z" fill="#8F8AD9"/>
<path d="M309 151.123C309 151.311 308.804 151.769 308.518 151.934C308.231 152.099 307.997 151.934 308 151.675C308.003 151.417 308.225 151.358 308.494 151.205C308.763 151.052 308.982 150.876 309 151.123Z" fill="#8F8AD9"/>
<path d="M308.999 149.037C309.018 149.151 308.82 149.537 308.537 149.795C308.255 150.052 308.009 150.037 308 149.916C307.992 149.794 308.213 149.582 308.484 149.347C308.755 149.113 308.976 148.916 308.999 149.037Z" fill="#8F8AD9"/>
<path d="M310 154.857C310 155.002 309.532 155.088 308.968 154.857C308.404 154.626 307.978 154.182 308.001 154.002C308.342 153.983 308.684 154.084 309.01 154.302C309.555 154.567 310.004 154.703 310 154.857Z" fill="#8F8AD9"/>
<path d="M308.998 157.993C308.964 158.036 308.687 157.872 308.408 157.594C308.128 157.315 307.963 157.034 308.007 157.003C308.05 156.972 308.274 157.189 308.544 157.458C308.815 157.727 309.023 157.953 308.998 157.993Z" fill="#8F8AD9"/>
<g opacity="0.3">
<path opacity="0.3" d="M300.605 152.545C300.605 152.593 300.302 152.608 299.94 152.576C299.578 152.545 299.286 152.483 299.289 152.435C299.292 152.387 299.592 152.373 299.954 152.404C300.316 152.435 300.607 152.497 300.605 152.545Z" fill="black"/>
</g>
<g opacity="0.3">
<path opacity="0.3" d="M300.707 150.695C300.687 150.741 300.424 150.67 300.141 150.537C299.858 150.404 299.62 150.254 299.64 150.217C299.66 150.18 299.923 150.245 300.206 150.378C300.489 150.511 300.726 150.653 300.707 150.695Z" fill="black"/>
</g>
<g opacity="0.3">
<path opacity="0.3" d="M301.66 149.321C301.635 149.36 301.346 149.224 301.046 148.975C300.746 148.726 300.56 148.469 300.594 148.438C300.628 148.407 300.876 148.602 301.159 148.842C301.442 149.083 301.686 149.281 301.66 149.321Z" fill="black"/>
</g>
<g opacity="0.3">
<path opacity="0.3" d="M302.613 148.03C302.571 148.047 302.432 147.832 302.305 147.547C302.178 147.261 302.113 147.012 302.158 146.981C302.203 146.95 302.339 147.179 302.466 147.465C302.594 147.75 302.659 148.011 302.613 148.03Z" fill="black"/>
</g>
<g opacity="0.3">
<path opacity="0.3" d="M304.116 147.111C304.073 147.131 303.923 146.901 303.833 146.582C303.742 146.262 303.725 145.988 303.773 145.982C303.821 145.976 303.903 146.222 304 146.531C304.096 146.839 304.161 147.091 304.116 147.111Z" fill="black"/>
</g>
<g opacity="0.3">
<path opacity="0.3" d="M306.62 146.075C306.665 146.092 306.636 146.287 306.557 146.514C306.478 146.74 306.376 146.91 306.331 146.895C306.286 146.881 306.314 146.68 306.393 146.454C306.472 146.228 306.574 146.058 306.62 146.075Z" fill="black"/>
</g>
<g opacity="0.3">
<path opacity="0.3" d="M308.478 146.873C308.509 146.907 308.39 147.071 308.212 147.238C308.034 147.405 307.858 147.521 307.827 147.476C307.796 147.43 307.912 147.275 308.093 147.108C308.274 146.941 308.45 146.836 308.478 146.873Z" fill="black"/>
</g>
<g opacity="0.3">
<path opacity="0.3" d="M310.113 147.928C310.139 147.968 309.994 148.112 309.788 148.254C309.581 148.395 309.392 148.474 309.366 148.435C309.341 148.395 309.482 148.248 309.689 148.109C309.895 147.971 310.085 147.889 310.113 147.928Z" fill="black"/>
</g>
<g opacity="0.3">
<path opacity="0.3" d="M311.279 149.501C311.298 149.546 311.069 149.688 310.767 149.815C310.464 149.942 310.201 150.013 310.187 149.968C310.173 149.923 310.399 149.784 310.699 149.654C310.999 149.524 311.253 149.459 311.279 149.501Z" fill="black"/>
</g>
<g opacity="0.3">
<path opacity="0.3" d="M311.731 151.218C311.731 151.266 311.502 151.337 311.211 151.371C310.919 151.405 310.673 151.399 310.668 151.351C310.662 151.303 310.897 151.235 311.188 151.199C311.48 151.162 311.726 151.173 311.731 151.218Z" fill="black"/>
</g>
<g opacity="0.3">
<path opacity="0.3" d="M311.969 153.335C311.949 153.377 311.686 153.312 311.403 153.188C311.12 153.063 310.9 152.927 310.919 152.882C310.939 152.837 311.185 152.902 311.485 153.026C311.785 153.151 311.989 153.281 311.969 153.335Z" fill="black"/>
</g>
<g opacity="0.3">
<path opacity="0.3" d="M311.76 155.148C311.743 155.19 311.429 155.117 311.103 154.902C310.778 154.687 310.58 154.429 310.614 154.398C310.648 154.367 310.897 154.554 311.197 154.755C311.497 154.956 311.777 155.1 311.76 155.148Z" fill="black"/>
</g>
<g opacity="0.3">
<path opacity="0.3" d="M310.815 156.8C310.786 156.837 310.532 156.69 310.297 156.43C310.062 156.17 309.926 155.912 309.966 155.887C310.006 155.861 310.195 156.065 310.424 156.311C310.654 156.557 310.846 156.761 310.815 156.8Z" fill="black"/>
</g>
<g opacity="0.3">
<path opacity="0.3" d="M301.847 156.993C301.87 157.035 301.606 157.217 301.261 157.398C300.916 157.579 300.616 157.681 300.594 157.647C300.571 157.613 300.834 157.423 301.179 157.242C301.524 157.061 301.824 156.959 301.847 156.993Z" fill="black"/>
</g>
<g opacity="0.3">
<path opacity="0.3" d="M301.029 155.499C301.049 155.544 300.837 155.683 300.557 155.808C300.276 155.932 300.036 156.003 300.016 155.957C299.996 155.912 300.206 155.776 300.486 155.649C300.766 155.522 301.006 155.457 301.029 155.499Z" fill="black"/>
</g>
<g opacity="0.3">
<path opacity="0.3" d="M300.426 154.175C300.426 154.223 300.175 154.299 299.846 154.347C299.518 154.396 299.252 154.393 299.244 154.347C299.235 154.302 299.496 154.223 299.81 154.178C300.124 154.132 300.418 154.13 300.426 154.175Z" fill="black"/>
</g>
<g opacity="0.3">
<path opacity="0.3" d="M302.401 153.448C302.415 153.493 302.164 153.609 301.835 153.649C301.507 153.689 301.224 153.629 301.23 153.581C301.236 153.533 301.496 153.51 301.816 153.474C302.135 153.437 302.387 153.4 302.401 153.448Z" fill="black"/>
</g>
<g opacity="0.3">
<path opacity="0.3" d="M304.042 151.816C304.042 151.861 303.855 151.963 303.584 151.988C303.312 152.014 303.094 151.954 303.1 151.906C303.106 151.858 303.315 151.838 303.567 151.813C303.819 151.787 304.028 151.768 304.042 151.816Z" fill="black"/>
</g>
<g opacity="0.3">
<path opacity="0.3" d="M304.356 150.506C304.339 150.554 304.122 150.506 303.87 150.432C303.618 150.359 303.426 150.237 303.44 150.192C303.454 150.147 303.675 150.178 303.926 150.265C304.178 150.353 304.37 150.452 304.356 150.506Z" fill="black"/>
</g>
<g opacity="0.3">
<path opacity="0.3" d="M304.956 149.184C304.922 149.218 304.772 149.119 304.673 148.933C304.574 148.746 304.554 148.57 304.599 148.556C304.645 148.542 304.73 148.681 304.823 148.839C304.916 148.998 304.993 149.15 304.956 149.184Z" fill="black"/>
</g>
<g opacity="0.3">
<path opacity="0.3" d="M304.232 154.599C304.232 154.645 304.053 154.732 303.81 154.792C303.694 154.823 303.575 154.84 303.457 154.843L303.423 154.741C303.485 154.741 303.527 154.741 303.536 154.741C303.544 154.741 303.516 154.792 303.465 154.828L303.431 154.727C303.539 154.676 303.652 154.638 303.768 154.611C304.014 154.562 304.22 154.551 304.232 154.599Z" fill="black"/>
</g>
<g opacity="0.3">
<path opacity="0.3" d="M304.568 156.917C304.588 156.962 304.348 157.1 304.034 157.222C303.72 157.344 303.451 157.409 303.431 157.364C303.411 157.318 303.655 157.182 303.969 157.061C304.283 156.939 304.551 156.874 304.568 156.917Z" fill="black"/>
</g>
<g opacity="0.3">
<path opacity="0.3" d="M302.715 155.887C302.732 155.935 302.571 156.028 302.359 156.102C302.147 156.175 301.96 156.195 301.943 156.15C301.926 156.105 302.087 156.008 302.302 155.938C302.517 155.867 302.701 155.842 302.715 155.887Z" fill="black"/>
</g>
<g opacity="0.3">
<path opacity="0.3" d="M302.856 151.168C302.856 151.213 302.574 151.187 302.245 151.071C301.917 150.955 301.68 150.788 301.708 150.76C301.736 150.732 301.991 150.797 302.305 150.907C302.619 151.018 302.868 151.119 302.856 151.168Z" fill="black"/>
</g>
<g opacity="0.3">
<path opacity="0.3" d="M307.344 150.656C307.369 150.695 307.214 150.845 306.993 150.992C306.772 151.139 306.571 151.221 306.546 151.182C306.52 151.142 306.676 150.989 306.897 150.845C307.117 150.701 307.318 150.616 307.344 150.656Z" fill="black"/>
</g>
<g opacity="0.3">
<path opacity="0.3" d="M307.601 152.998C307.601 153.043 307.445 153.119 307.233 153.162C307.021 153.204 306.837 153.204 306.829 153.162C306.82 153.119 306.984 153.04 307.196 152.995C307.409 152.95 307.576 152.936 307.601 152.998Z" fill="black"/>
</g>
<g opacity="0.3">
<path opacity="0.3" d="M307.884 155.601C307.864 155.646 307.627 155.578 307.352 155.451C307.078 155.324 306.877 155.188 306.897 155.143C306.916 155.097 307.154 155.168 307.426 155.292C307.697 155.417 307.884 155.558 307.884 155.601Z" fill="black"/>
</g>
<g opacity="0.3">
<path opacity="0.3" d="M307.27 158.15C307.233 158.181 307.077 158.053 306.925 157.867C306.772 157.68 306.679 157.505 306.715 157.474C306.752 157.442 306.908 157.567 307.06 157.756C307.213 157.946 307.318 158.119 307.27 158.15Z" fill="black"/>
</g>
<g opacity="0.3">
<path opacity="0.3" d="M307.148 148.941C307.177 148.977 307.075 149.105 306.899 149.192C306.724 149.28 306.563 149.286 306.549 149.241C306.535 149.195 306.665 149.116 306.832 149.037C306.998 148.958 307.117 148.901 307.148 148.941Z" fill="black"/>
</g>
<g opacity="0.3">
<path opacity="0.3" d="M309.346 151.3C309.346 151.346 309.157 151.456 308.88 151.496C308.602 151.535 308.376 151.496 308.379 151.433C308.382 151.371 308.597 151.357 308.857 151.32C309.117 151.283 309.33 151.241 309.346 151.3Z" fill="black"/>
</g>
<g opacity="0.3">
<path opacity="0.3" d="M308.908 149.181C308.928 149.224 308.727 149.368 308.441 149.464C308.155 149.561 307.906 149.555 307.898 149.51C307.889 149.464 308.113 149.385 308.387 149.297C308.662 149.21 308.885 149.136 308.908 149.181Z" fill="black"/>
</g>
<g opacity="0.3">
<path opacity="0.3" d="M309.825 154.554C309.825 154.602 309.48 154.631 309.064 154.554C308.648 154.478 308.334 154.331 308.351 154.271C308.603 154.265 308.854 154.298 309.095 154.37C309.497 154.458 309.828 154.503 309.825 154.554Z" fill="black"/>
</g>
<g opacity="0.3">
<path opacity="0.3" d="M309.016 157.615C308.985 157.655 308.733 157.505 308.478 157.25C308.224 156.996 308.074 156.738 308.113 156.71C308.153 156.682 308.357 156.88 308.603 157.126C308.849 157.372 309.038 157.579 309.016 157.615Z" fill="black"/>
</g>
<path opacity="0.3" d="M306 147H305V159H306V147Z" fill="white"/>
<path d="M309.643 168H302.354L301 158H311L309.643 168Z" fill="#3F4249"/>
<path d="M311.832 160H300.171L300 158H312L311.832 160Z" fill="#3F4249"/>
<path opacity="0.2" d="M301 160H310L308.921 168L307.842 167.925L308.445 160.64L301.07 160.517L301 160Z" fill="black"/>
<path opacity="0.2" d="M309.338 158.013L309 160H311.832L312 158L309.338 158.013Z" fill="black"/>
<path opacity="0.2" d="M310 162H301V163H310V162Z" fill="white"/>
<path opacity="0.2" d="M327.871 93H318V270H339V104.893L327.871 93Z" fill="black"/>
<path d="M200.525 265.591L217 266L210.431 261.392C209.339 260.605 209.26 259.459 209.227 258.144L208.943 253L200 253.03L200.525 265.591Z" fill="#FC9D9D"/>
<path opacity="0.15" d="M202.708 259.794V259.706C202.677 259.457 202.754 259.207 202.923 259.009C203.092 258.811 203.339 258.681 203.612 258.648L209 257.942L208.935 257H200L200.24 265L207.467 264.264L205.08 263.411C203.465 262.793 202.869 261.411 202.708 259.794Z" fill="black"/>
<path d="M223 269V268.617C223 268.323 222.945 268.032 222.838 267.759C222.732 267.488 222.575 267.242 222.377 267.031C222.179 266.823 221.944 266.66 221.686 266.547C221.427 266.435 221.15 266.377 220.871 266.377H217.903C217.276 266.383 216.673 266.126 216.226 265.664L208.926 259L206.289 261.376C206.104 261.63 205.868 261.837 205.597 261.981C205.326 262.126 205.027 262.204 204.724 262.21C204.42 262.216 204.119 262.151 203.843 262.017C203.566 261.884 203.322 261.687 203.129 261.441C202.938 261.204 202.701 261.012 202.434 260.878C202.168 260.744 201.877 260.671 201.581 260.663H200V268.872L223 269Z" fill="#3F4249"/>
<path d="M223 268.201V270H200V268L223 268.201Z" fill="black"/>
<path d="M208.057 259.853L212.693 264.58C212.941 264.831 213.27 264.979 213.618 264.998C213.966 265.016 214.308 264.903 214.58 264.68L215 264.331L209.748 258.058C209.602 257.997 209.441 257.984 209.287 258.021C209.133 258.058 208.995 258.143 208.891 258.264L208.197 259.08C208.11 259.171 208.048 259.285 208.019 259.409C207.99 259.533 207.994 259.662 208.031 259.784L208.057 259.853Z" fill="black"/>
<path d="M213 262L211 264" stroke="white" stroke-width="1.35" stroke-linecap="round" stroke-linejoin="round"/>
<path d="M212 261L210 263" stroke="white" stroke-width="1.35" stroke-linecap="round" stroke-linejoin="round"/>
<path d="M211 260L209 261" stroke="white" stroke-width="1.35" stroke-linecap="round" stroke-linejoin="round"/>
<path d="M228.627 265.607L243 266L238.573 261.403C237.476 260.615 235.425 259.467 235.391 258.15L233.982 253L225 253.03L228.627 265.607Z" fill="#FC9D9D"/>
<path opacity="0.15" d="M228.868 259.689V259.599C228.799 259.058 229.334 258.147 229.914 258.086L234.633 255.961L234.565 255L226 256.839L228.347 265L236 264.249L233.473 263.379C231.763 262.749 229.038 261.338 228.868 259.689Z" fill="black"/>
<path d="M250 269V268.617C250 268.323 249.945 268.032 249.838 267.759C249.732 267.488 249.575 267.242 249.377 267.031C249.179 266.823 248.944 266.66 248.686 266.547C248.427 266.435 248.15 266.377 247.871 266.377H244.903C244.276 266.383 243.673 266.126 243.226 265.664L235.926 259L233.289 261.376C233.104 261.63 232.868 261.837 232.597 261.981C232.326 262.126 232.027 262.204 231.724 262.21C231.42 262.216 231.119 262.151 230.843 262.017C230.566 261.884 230.322 261.687 230.129 261.441C229.938 261.204 229.701 261.012 229.434 260.878C229.168 260.744 228.877 260.671 228.581 260.663H227V268.872L250 269Z" fill="#3F4249"/>
<path d="M250 268.201V270H227V268L250 268.201Z" fill="black"/>
<path d="M234.102 260.137L239.563 264.656C239.854 264.896 240.221 265.017 240.595 264.998C240.968 264.979 241.322 264.82 241.588 264.552L242 264.129L235.716 258.037C235.553 257.986 235.378 257.988 235.217 258.043C235.055 258.098 234.914 258.203 234.814 258.344L234.162 259.288C234.078 259.395 234.025 259.523 234.007 259.659C233.989 259.794 234.007 259.932 234.06 260.058L234.102 260.137Z" fill="black"/>
<path d="M240 262L238 264" stroke="white" stroke-width="1.35" stroke-linecap="round" stroke-linejoin="round"/>
<path d="M239 261L237 263" stroke="white" stroke-width="1.35" stroke-linecap="round" stroke-linejoin="round"/>
<path d="M238 260L236 262" stroke="white" stroke-width="1.35" stroke-linecap="round" stroke-linejoin="round"/>
<path d="M235 256.473L225.747 259L213.971 217.718H177.271L172 203.157L185.683 202L218.867 203.606C221.527 203.511 222.739 205.086 223.695 207.698L235 256.473Z" fill="#FF9B35"/>
<path opacity="0.2" d="M231 257.722L226.095 259L214.294 217.712H177.305L172 203.157L185.771 202L208.63 203.404C213.187 203.427 214.288 203.404 216.06 206.494L231 257.722Z" fill="black"/>
<path d="M210.119 257H199.217C197.791 236.489 195.897 222.352 196.416 218.028L167.458 217.749C162.55 217.749 158.57 214.423 158.57 209.977L158 203.246L176.786 203L204.283 204.363C204.388 204.363 204.494 204.363 204.596 204.363C208.173 204.503 210.957 207.237 211 210.479L210.119 257Z" fill="#FF9B35"/>
<path opacity="0.2" d="M199.836 214.053C199.213 213.86 170.819 213.494 170.819 213.494C169.359 213.385 167.023 212.283 165.754 211.191C163.073 208.881 162.396 206.156 164.811 203.61L165.383 203H158L158.572 209.742C158.572 214.196 162.573 217.528 167.478 217.528L196.495 217.808C196.063 225.823 198.041 239.929 199.23 257H203C203 257 200.228 214.4 199.836 214.053Z" fill="black"/>
<path d="M185 169.533L186.973 179L197 176.981L193.399 163.824C192.88 162.335 191.8 161.098 190.381 160.367L186.232 159L185 169.533Z" fill="#3F4249"/>
<path d="M186.114 200.236C186.107 200.6 186.031 200.958 185.888 201.291C185.746 201.624 185.541 201.925 185.284 202.177C185.028 202.428 184.725 202.625 184.394 202.757C184.063 202.888 183.709 202.952 183.354 202.943C174.759 202.724 162.611 202.579 158.352 202.994C158.181 203.011 158.008 202.991 157.845 202.936C157.682 202.881 157.532 202.791 157.404 202.673C157.277 202.555 157.175 202.411 157.105 202.25C157.036 202.089 157 201.915 157 201.739L160.266 157.779L169.148 156L180.389 156.262L190 159.962L186.52 183.063L185.407 195.899L186.114 200.236Z" fill="#3F4249"/>
<path d="M179.467 189.493L182.726 189.423L188.763 189C189.291 189.019 189.792 189.244 190.157 189.628L193.813 193.037C193.924 193.141 193.991 193.285 193.999 193.438C194.007 193.592 193.957 193.742 193.857 193.858C193.758 193.976 193.618 194.05 193.466 194.066C193.313 194.082 193.161 194.037 193.04 193.942L189.563 191.265L191.794 194.029C191.852 194.101 191.893 194.187 191.911 194.278C191.93 194.369 191.927 194.463 191.902 194.553C191.877 194.643 191.83 194.725 191.767 194.793C191.703 194.861 191.625 194.912 191.537 194.943C191.436 194.977 191.327 194.983 191.222 194.96C191.117 194.937 191.021 194.886 190.943 194.811L187.938 191.728L190.221 194.071C190.284 194.135 190.329 194.213 190.353 194.299C190.378 194.385 190.38 194.476 190.361 194.563C190.342 194.651 190.301 194.731 190.242 194.799C190.184 194.866 190.109 194.917 190.026 194.949C189.943 194.988 189.852 195.005 189.76 194.998C189.669 194.992 189.581 194.961 189.505 194.909L186.287 192.448L188.465 194.13C188.525 194.173 188.573 194.23 188.607 194.297C188.641 194.362 188.658 194.436 188.658 194.51C188.658 194.584 188.641 194.657 188.607 194.723C188.573 194.789 188.525 194.846 188.465 194.89C188.398 194.936 188.322 194.965 188.241 194.974C188.161 194.983 188.079 194.971 188.004 194.94L185.066 193.645C184.925 193.581 184.773 193.547 184.618 193.547C184.464 193.547 184.311 193.581 184.171 193.645L183.025 194.18C182.339 194.492 181.391 194.405 180.376 194.385L178 194.22C178.449 192.625 179.467 189.493 179.467 189.493Z" fill="#FC9D9D"/>
<path opacity="0.15" d="M185.41 193.118C186.004 193.511 187.002 194.182 187.349 194.436C187.846 194.804 187.99 194.346 187.99 194.346C188.008 194.45 188.002 194.559 187.971 194.659C187.94 194.758 187.886 194.844 187.816 194.906C187.757 194.957 187.689 194.988 187.618 194.997C187.547 195.006 187.475 194.993 187.409 194.958L184.797 193.511C184.672 193.439 184.536 193.401 184.398 193.401C184.261 193.401 184.125 193.439 184 193.511L184.521 193.152C184.657 193.058 184.808 193.006 184.963 193.001C185.117 192.995 185.271 193.035 185.41 193.118Z" fill="black"/>
<g opacity="0.15">
<path opacity="0.15" d="M188.118 193.595C188.106 193.597 188.095 193.595 188.084 193.591C188.073 193.588 188.063 193.581 188.056 193.572L186.027 192.019C186.017 192.011 186.008 192.001 186.001 191.99C185.995 191.978 185.99 191.965 185.989 191.952C185.987 191.939 185.988 191.925 185.992 191.913C185.996 191.9 186.002 191.888 186.01 191.878C186.027 191.857 186.051 191.844 186.077 191.84C186.104 191.837 186.131 191.845 186.152 191.861L188.18 193.414C188.22 193.456 188.24 193.516 188.197 193.555C188.175 193.576 188.148 193.59 188.118 193.595Z" fill="black"/>
</g>
<g opacity="0.15">
<path opacity="0.15" d="M189.861 193.494C189.841 193.494 189.801 193.494 189.801 193.474L187.623 191.253C187.613 191.244 187.606 191.233 187.601 191.221C187.596 191.209 187.593 191.195 187.593 191.182C187.593 191.169 187.596 191.156 187.601 191.144C187.606 191.132 187.613 191.121 187.623 191.112C187.632 191.102 187.643 191.094 187.655 191.089C187.667 191.083 187.68 191.08 187.694 191.08C187.707 191.08 187.72 191.083 187.732 191.089C187.744 191.094 187.755 191.102 187.764 191.112L189.943 193.332C189.952 193.342 189.959 193.352 189.965 193.365C189.97 193.377 189.973 193.39 189.973 193.403C189.973 193.416 189.97 193.429 189.965 193.441C189.959 193.453 189.952 193.464 189.943 193.474C189.919 193.491 189.89 193.498 189.861 193.494Z" fill="black"/>
</g>
<path opacity="0.15" d="M179.306 193L181.142 193.32C181.142 193.32 182.87 193.692 184 193.32C184 193.32 182.843 194.181 180.715 193.965L179 193.851L179.306 193Z" fill="black"/>
<path opacity="0.3" d="M179 188.161L159.826 184.516L160.902 170.226C160.899 170.163 160.871 170.104 160.825 170.062C160.779 170.019 160.718 169.997 160.656 170C160.594 170.003 160.535 170.031 160.493 170.078C160.451 170.124 160.43 170.186 160.433 170.249L158 185.583L179 189V188.161Z" fill="black"/>
<path opacity="0.3" d="M157 201.722L157.74 193L163 193.511L162.724 202.743C161.259 202.728 159.795 202.812 158.341 202.994C158.172 203.011 158 202.991 157.838 202.935C157.676 202.879 157.527 202.788 157.401 202.669C157.275 202.549 157.174 202.403 157.105 202.239C157.036 202.076 157 201.9 157 201.722Z" fill="black"/>
<path opacity="0.3" d="M177 163L176.001 195.29C176.001 195.29 176.132 200.43 175 203" stroke="black" stroke-miterlimit="10"/>
<path d="M179 188.552L158.029 185.18L162.178 158L159.284 159.008C154.86 160.333 152.588 163.14 151.704 167.517L148.126 187.256C147.803 188.887 148.107 190.581 148.978 191.995L149.165 192.281C149.784 193.137 150.598 193.831 151.54 194.304C152.482 194.778 153.523 195.016 154.576 194.999L178.418 194.594L179 188.552Z" fill="#3F4249"/>
<path d="M158.607 184L163 158L159.553 158.611C158.702 158.835 157.878 159.144 157.096 159.533C153.815 161.157 152.202 164.459 151.62 168.348L149 182.349L158.607 184Z" fill="#3F4249"/>
<path opacity="0.3" d="M188 179L188.47 172L188.774 172.038L189 178.491L188 179Z" fill="black"/>
<path opacity="0.3" d="M149.835 190.828C151.419 192.388 153.546 193.278 155.773 193.313L178.933 193.603L179 194.864L155.105 195C151.531 194.977 147.954 192.503 148.107 188.771C148.107 188.655 148.087 188.536 148.084 188.417L148 187C148.067 188.571 148.862 189.85 149.835 190.828Z" fill="black"/>
<path d="M183 144.203C183 144.203 173.539 136.854 172.252 144.419L171.873 146.368L170.01 155.973C169.973 156.248 170.041 156.527 170.199 156.758L176.815 160.885C176.894 160.951 176.994 160.992 177.099 160.999C177.204 161.006 177.309 160.98 177.397 160.924L181.011 157.654C181.171 157.549 181.302 157.407 181.392 157.241C181.482 157.075 181.528 156.889 181.527 156.701L181.544 151.572C181.749 151.014 181.885 150.435 181.949 149.846C182.4 146.856 183 144.203 183 144.203Z" fill="#FC9D9D"/>
<path d="M185 145C187.209 145 189 143.209 189 141C189 138.791 187.209 137 185 137C182.791 137 181 138.791 181 141C181 143.209 182.791 145 185 145Z" fill="black"/>
<path d="M186 138.817C186 138.817 186.125 154.739 178.312 153.973C171.546 153.326 173.171 142.703 173.171 142.703L175.015 136L186 138.817Z" fill="#FC9D9D"/>
<path d="M184.988 132.187C182.828 131.716 180.725 132.162 179.354 133.22C179.011 133.473 178.604 133.635 178.174 133.689C177.744 133.743 177.306 133.688 176.906 133.53C176.655 133.467 176.4 133.419 176.143 133.385C169.097 132.327 167.682 142.416 174.158 142.986C175.523 143.106 176.927 142.475 177.939 141.199C178.269 140.778 178.747 140.484 179.286 140.371C179.826 140.257 180.389 140.332 180.875 140.582C181.477 140.889 182.12 141.118 182.786 141.263C186.11 141.989 189.295 140.548 189.9 138.041C190.505 135.535 188.309 132.916 184.988 132.187Z" fill="black"/>
<path d="M180.96 134.562C181.205 133.502 180.303 132.392 178.944 132.081C177.586 131.771 176.286 132.378 176.04 133.438C175.795 134.498 176.697 135.608 178.056 135.919C179.415 136.229 180.715 135.622 180.96 134.562Z" fill="black"/>
<path opacity="0.2" d="M172.288 146C172.519 146.074 172.768 146.074 173 146L172 147L172.288 146Z" fill="black"/>
<path d="M173 141.446C172.982 141.212 172.923 140.986 172.828 140.784C172.733 140.581 172.603 140.408 172.449 140.276C172.294 140.144 172.119 140.056 171.934 140.02C171.75 139.983 171.561 139.998 171.382 140.063C169.716 140.463 169.241 144.866 171.75 145.861C173.058 146.39 172.972 145.333 172.99 143.94L173 141.446Z" fill="#FC9D9D"/>
<path opacity="0.2" d="M171.14 141.137C171.31 141.055 171.493 141.009 171.68 141.001C171.867 140.993 172.053 141.023 172.229 141.089C172.392 141.176 172.535 141.298 172.648 141.446C172.761 141.595 172.842 141.767 172.885 141.95C173.022 142.412 173.037 142.903 172.927 143.373L172.864 143.796C172.86 143.828 172.85 143.859 172.834 143.887C172.818 143.915 172.797 143.939 172.771 143.958C172.745 143.976 172.716 143.989 172.685 143.995C172.654 144.002 172.622 144.001 172.592 143.994C172.561 143.987 172.532 143.973 172.507 143.954C172.482 143.934 172.461 143.909 172.446 143.881C172.431 143.853 172.421 143.821 172.419 143.789C172.416 143.757 172.42 143.724 172.431 143.693L172.491 143.27C172.564 142.879 172.555 142.476 172.463 142.089C172.447 141.96 172.4 141.837 172.327 141.731C172.253 141.625 172.155 141.54 172.042 141.482C171.928 141.425 171.802 141.398 171.676 141.403C171.549 141.408 171.426 141.446 171.317 141.512C171.26 141.531 171.199 141.527 171.144 141.502C171.089 141.477 171.045 141.433 171.02 141.377C170.966 141.33 171.027 141.21 171.14 141.137Z" fill="black"/>
<path opacity="0.15" d="M181 153.798L180.97 153.815C180.326 154.143 179.625 154.338 178.907 154.386C178.188 154.434 177.468 154.336 176.788 154.096C175.77 153.707 174.899 153.001 174.3 152.079C174.289 152.061 174.275 152.044 174.257 152.032C174.24 152.019 174.221 152.01 174.2 152.005C174.179 151.999 174.158 151.999 174.137 152.002C174.116 152.005 174.096 152.013 174.078 152.024C174.059 152.035 174.044 152.05 174.031 152.068C174.019 152.085 174.009 152.105 174.004 152.126C174 152.147 173.999 152.169 174.002 152.19C174.005 152.212 174.013 152.232 174.024 152.251C174.809 153.429 175.999 154.265 177.36 154.594C178.361 155.473 179.631 155.97 180.953 156H180.978L181 153.798Z" fill="black"/>
<path d="M178.5 146C178.776 146 179 145.776 179 145.5C179 145.224 178.776 145 178.5 145C178.224 145 178 145.224 178 145.5C178 145.776 178.224 146 178.5 146Z" fill="black"/>
<path d="M183.5 147C183.776 147 184 146.776 184 146.5C184 146.224 183.776 146 183.5 146C183.224 146 183 146.224 183 146.5C183 146.776 183.224 147 183.5 147Z" fill="black"/>
<path opacity="0.2" d="M181.062 148.993L180.176 148.811C180.123 148.795 180.076 148.757 180.044 148.702C180.011 148.647 179.996 148.58 180.001 148.513C180.015 148.451 180.046 148.396 180.089 148.358C180.132 148.321 180.184 148.302 180.237 148.305L181.119 148.487C181.226 148.509 181.335 148.477 181.423 148.399C181.511 148.32 181.57 148.203 181.587 148.071C181.605 147.939 181.579 147.804 181.515 147.696C181.451 147.588 181.356 147.516 181.249 147.495C181.198 147.477 181.154 147.44 181.123 147.388C181.092 147.336 181.077 147.273 181.08 147.208C181.08 147.071 181.203 147.004 181.315 147C181.522 147.045 181.708 147.186 181.834 147.393C181.96 147.6 182.018 147.858 181.995 148.116C181.962 148.382 181.846 148.622 181.672 148.786C181.498 148.95 181.279 149.024 181.062 148.993Z" fill="black"/>
<path d="M186.22 143.555C186.131 143.644 186.065 143.758 186.03 143.884C185.994 144.011 185.99 144.146 186.019 144.274C186.114 144.63 186.186 144.63 186.573 145.086C187.103 145.761 187.597 146.468 188.052 147.204C188.052 147.204 188.264 151.27 188.76 152.116C189.209 152.871 189.764 152.801 189.764 152.801L190.517 156L195 154.691C195 154.691 194.037 151.801 193.7 150.914C193.344 149.995 191.794 144.222 191.794 144.222L190.56 141.281L189.448 140.151C189.411 140.107 189.363 140.076 189.309 140.063C189.256 140.05 189.2 140.055 189.149 140.078C189.099 140.1 189.056 140.14 189.027 140.19C188.998 140.24 188.983 140.299 188.986 140.359C188.986 140.553 189.046 140.741 189.156 140.893C189.484 141.445 189.771 142.025 190.013 142.627L187.216 140.122C187.141 140.054 187.05 140.012 186.953 140.002C186.856 139.992 186.759 140.015 186.675 140.068C186.59 140.12 186.523 140.199 186.481 140.294C186.439 140.39 186.425 140.497 186.441 140.602C186.452 140.675 186.467 140.747 186.486 140.818C186.413 140.912 186.358 141.021 186.324 141.138C186.29 141.255 186.278 141.378 186.288 141.5C186.298 141.623 186.33 141.741 186.383 141.85C186.436 141.959 186.508 142.055 186.595 142.133C187.311 142.829 188.527 145.233 188.352 145.291L186.297 143.491L186.22 143.555Z" fill="#FC9D9D"/>
<path opacity="0.15" d="M190.226 142.683L191 144L190 142L190.226 142.683Z" fill="black"/>
<path opacity="0.15" d="M186 141L188.411 142.829C188.411 142.829 189.644 144.208 190 145" stroke="black" stroke-width="0.5" stroke-miterlimit="10"/>
<path opacity="0.2" d="M178.108 150.045H178.127C178.245 150.02 178.365 150.005 178.486 150.002H178.605C179.544 149.967 179.883 150.518 179.997 150.758V150.781C180.003 150.819 180 150.858 179.987 150.894C179.973 150.93 179.95 150.962 179.92 150.986L179.901 151H179.878H179.823C179.793 150.999 179.765 150.991 179.739 150.978C179.713 150.965 179.69 150.947 179.672 150.924L179.658 150.903C179.567 150.673 179.243 150.195 178.25 150.396C178.204 150.412 178.154 150.409 178.111 150.388C178.067 150.367 178.034 150.33 178.018 150.285C178.007 150.264 178.001 150.24 178 150.216C177.999 150.192 178.003 150.169 178.011 150.146C178.02 150.124 178.033 150.103 178.049 150.086C178.066 150.069 178.086 150.055 178.108 150.045Z" fill="black"/>
<path d="M174 143.366C174 143.366 173.344 145.777 173 144.742L173.013 143L174 143.366Z" fill="black"/>
<path opacity="0.3" d="M189.699 160.252L191 169L189 168.804L189.045 160L189.699 160.252Z" fill="black"/>
<path opacity="0.3" d="M158.76 185L157 184.807L159 184L158.76 185Z" fill="black"/>
<path opacity="0.3" d="M176 188L175 194" stroke="black" stroke-miterlimit="10"/>
<path opacity="0.3" d="M176.5 194C176.776 194 177 193.776 177 193.5C177 193.224 176.776 193 176.5 193C176.224 193 176 193.224 176 193.5C176 193.776 176.224 194 176.5 194Z" stroke="black" stroke-miterlimit="10"/>
<path d="M175 131H174V136H175V131Z" fill="#8F8AD9"/>
<path d="M178 132H177V138H178V132Z" fill="#8F8AD9"/>
<path d="M189 153.131L190.872 169L199 168.742L194.983 152L189 153.131Z" fill="#3F4249"/>
<path d="M169.726 155L168 156.516L172.748 164L177 160.71L169.726 155Z" fill="#3F4249"/>
<path d="M182 157.121L179.454 163L177 161.001L181.08 156L182 157.121Z" fill="#3F4249"/>
<path opacity="0.3" d="M168 156.115L173.071 164L176.131 161.179L177 162.533L176.12 160.53L173.068 162.957L168.581 156L168 156.115Z" fill="black"/>
<path opacity="0.3" d="M181.8 157L180.34 163.317L177.894 160.945L177 162.75L178.002 161.401L180.48 164L182 157.077L181.8 157Z" fill="black"/>
<path opacity="0.3" d="M190 156L195 155" stroke="black" stroke-miterlimit="10"/>
<path opacity="0.3" d="M194.5 155C194.776 155 195 154.776 195 154.5C195 154.224 194.776 154 194.5 154C194.224 154 194 154.224 194 154.5C194 154.776 194.224 155 194.5 155Z" stroke="black" stroke-miterlimit="10"/>
<path d="M178.006 143.049C178.081 142.891 178.484 143.156 179.005 143.278C179.526 143.399 179.96 143.366 179.999 143.554C180.013 143.643 179.913 143.779 179.719 143.882C179.465 144.002 179.196 144.031 178.933 143.967C178.671 143.903 178.421 143.748 178.202 143.514C178.045 143.307 177.978 143.127 178.006 143.049Z" fill="black"/>
<path d="M185 145.801C185 145.572 184.527 145.369 184.021 144.886C183.516 144.402 183.144 143.888 183.027 144.022C182.973 144.086 182.997 144.324 183.123 144.639C183.29 145.038 183.514 145.367 183.775 145.598C184.034 145.838 184.325 145.975 184.623 146C184.853 146 185 145.901 185 145.801Z" fill="black"/>
<path d="M260 270V206.746V202H254V270H260Z" fill="#61656D"/>
<path d="M260 198H124V203H260V198Z" fill="#61656D"/>
<path d="M267 195H118V199H267V195Z" fill="#8F8AD9"/>
<path opacity="0.2" d="M172 195H118V199H172V195Z" fill="black"/>
<path d="M172 202H166V270H172V202Z" fill="#61656D"/>
<path d="M130 202H124V270H130V202Z" fill="#61656D"/>
<path opacity="0.2" d="M172 205H169V270H172V205Z" fill="white"/>
<path opacity="0.2" d="M130 222H127V270H130V222Z" fill="white"/>
<path opacity="0.2" d="M260 204H257V270H260V204Z" fill="white"/>
<path opacity="0.2" d="M260 199H125V201H260V199Z" fill="black"/>
<path d="M169.31 194H189.69C189.772 194.002 189.85 194.031 189.907 194.082C189.965 194.132 189.998 194.2 190 194.272V194.728C189.998 194.8 189.965 194.868 189.907 194.918C189.85 194.969 189.772 194.998 189.69 195H169.31C169.228 194.998 169.151 194.969 169.093 194.918C169.036 194.868 169.002 194.8 169 194.728V194.272C168.999 194.236 169.007 194.2 169.022 194.167C169.037 194.134 169.06 194.104 169.089 194.078C169.118 194.053 169.152 194.033 169.19 194.019C169.228 194.006 169.269 193.999 169.31 194Z" fill="#B2B6BB"/>
<path opacity="0.3" d="M169.31 194H189.69C189.772 194.002 189.85 194.031 189.907 194.082C189.965 194.132 189.998 194.2 190 194.272V194.728C189.998 194.8 189.965 194.868 189.907 194.918C189.85 194.969 189.772 194.998 189.69 195H169.31C169.228 194.998 169.151 194.969 169.093 194.918C169.036 194.868 169.002 194.8 169 194.728V194.272C168.999 194.236 169.007 194.2 169.022 194.167C169.037 194.134 169.06 194.104 169.089 194.078C169.118 194.053 169.152 194.033 169.19 194.019C169.228 194.006 169.269 193.999 169.31 194Z" fill="black"/>
<path d="M182.308 194H217.689C217.771 194.002 217.849 194.032 217.907 194.083C217.965 194.134 217.998 194.203 218 194.275V194.727C217.998 194.8 217.964 194.868 217.906 194.919C217.848 194.97 217.771 194.999 217.689 195H182.308C182.227 194.998 182.15 194.969 182.093 194.918C182.035 194.867 182.002 194.799 182 194.727V194.273C182.006 194.202 182.041 194.136 182.097 194.086C182.153 194.036 182.229 194.005 182.308 194Z" fill="#B2B6BB"/>
<path d="M182.829 194H187.912C188.105 194.003 188.293 193.935 188.442 193.808C188.592 193.681 188.693 193.504 188.729 193.306L192.987 170C193.008 169.876 193.003 169.749 192.972 169.628C192.94 169.507 192.884 169.395 192.806 169.299C192.728 169.204 192.63 169.127 192.521 169.076C192.411 169.024 192.291 168.998 192.171 169H187.088C186.895 168.997 186.707 169.064 186.557 169.192C186.408 169.318 186.307 169.496 186.271 169.694L182.013 193C181.991 193.124 181.997 193.25 182.028 193.372C182.059 193.493 182.116 193.605 182.194 193.701C182.272 193.796 182.37 193.872 182.48 193.924C182.589 193.976 182.709 194.002 182.829 194Z" fill="#B2B6BB"/>
<path opacity="0.3" d="M182.829 194H187.912C188.105 194.003 188.293 193.935 188.442 193.808C188.592 193.681 188.693 193.504 188.729 193.306L192.987 170C193.008 169.876 193.003 169.749 192.972 169.628C192.94 169.507 192.884 169.395 192.806 169.299C192.728 169.204 192.63 169.127 192.521 169.076C192.411 169.024 192.291 168.998 192.171 169H187.088C186.895 168.997 186.707 169.064 186.557 169.192C186.408 169.318 186.307 169.496 186.271 169.694L182.013 193C181.991 193.124 181.997 193.25 182.028 193.372C182.059 193.493 182.116 193.605 182.194 193.701C182.272 193.796 182.37 193.872 182.48 193.924C182.589 193.976 182.709 194.002 182.829 194Z" fill="black"/>
<path d="M182.867 194H217.6C217.802 194 217.999 193.93 218.155 193.804C218.311 193.677 218.416 193.501 218.454 193.306L222.986 170C223.009 169.876 223.003 169.749 222.97 169.628C222.937 169.507 222.876 169.395 222.793 169.299C222.71 169.204 222.607 169.127 222.49 169.076C222.373 169.024 222.246 168.998 222.118 169H187.417C187.212 168.997 187.012 169.064 186.853 169.192C186.694 169.318 186.586 169.496 186.549 169.694L182.019 193C181.992 193.123 181.994 193.249 182.025 193.371C182.055 193.492 182.113 193.605 182.195 193.701C182.276 193.797 182.379 193.874 182.496 193.926C182.612 193.978 182.739 194.003 182.867 194Z" fill="#B2B6BB"/>
<path opacity="0.3" d="M203.78 181.359C203.572 182.01 203.801 182.58 204.275 182.58H204.359C203.801 183.432 202.952 184.027 202.207 183.999C201.194 183.971 200.717 182.834 201.174 181.443C201.63 180.053 202.806 178.972 203.821 179.001C204.462 179.029 204.895 179.483 205 180.194C204.74 180.224 204.491 180.348 204.277 180.552C204.063 180.757 203.891 181.035 203.78 181.359Z" fill="black"/>
<path d="M159 174H124V179H159V174Z" fill="white"/>
<path opacity="0.1" d="M159 174H140V179H159V174Z" fill="black"/>
<path d="M163 179H128V184H163V179Z" fill="#8F8AD9"/>
<path opacity="0.8" d="M163 179H128V184H163V179Z" fill="white"/>
<path d="M163 179H145V184H163V179Z" fill="#8F8AD9"/>
<path opacity="0.7" d="M163 179H145V184H163V179Z" fill="white"/>
<path d="M134 225H99V230H134V225Z" fill="white"/>
<path opacity="0.1" d="M134 225H115V230H134V225Z" fill="black"/>
<path d="M139 230H104V236H139V230Z" fill="#8F8AD9"/>
<path opacity="0.8" d="M139 230H104V236H139V230Z" fill="white"/>
<path d="M139 230H120V236H139V230Z" fill="#8F8AD9"/>
<path opacity="0.7" d="M139 230H120V236H139V230Z" fill="white"/>
<path d="M140 220H105V225H140V220Z" fill="#8F8AD9"/>
<path opacity="0.8" d="M140 220H105V225H140V220Z" fill="white"/>
<path d="M140 220H122V225H140V220Z" fill="#8F8AD9"/>
<path opacity="0.7" d="M140 220H122V225H140V220Z" fill="white"/>
<path d="M163 189H128V195H163V189Z" fill="#8F8AD9"/>
<path opacity="0.8" d="M163 189H128V195H163V189Z" fill="white"/>
<path d="M163 189H145V195H163V189Z" fill="#8F8AD9"/>
<path opacity="0.7" d="M163 189H145V195H163V189Z" fill="white"/>
<path opacity="0.15" d="M159 190H137V191H159V190Z" fill="black"/>
<path d="M159 184H123V190H159V184Z" fill="white"/>
<path opacity="0.1" d="M159 184H140V190H159V184Z" fill="black"/>
<path opacity="0.15" d="M131 188H123V189H131V188Z" fill="black"/>
<path d="M259 190H245V194H259V190Z" fill="white"/>
<path d="M245 189H222V195H245V189Z" fill="#8F8AD9"/>
<path opacity="0.3" d="M245 189H222V195H245V189Z" fill="white"/>
<path d="M237 190H225V194H237V190Z" fill="white"/>
<path d="M236.575 190.389V193.611H225.425V190.389H236.575ZM237 190H225V194H237V190Z" fill="#8F8AD9"/>
<path d="M227 191H225V194H227V191Z" fill="#B2B6BB"/>
<path d="M235 191H234V194H235V191Z" fill="#B2B6BB"/>
<path d="M241 193C240.802 193 240.609 192.941 240.444 192.831C240.28 192.721 240.152 192.565 240.076 192.382C240 192.199 239.981 191.998 240.019 191.804C240.058 191.61 240.154 191.432 240.294 191.292C240.434 191.152 240.612 191.057 240.806 191.019C241 190.981 241.202 191.001 241.384 191.077C241.567 191.153 241.723 191.282 241.833 191.446C241.942 191.611 242 191.805 242 192.002C241.999 192.267 241.894 192.521 241.706 192.708C241.519 192.895 241.265 193 241 193Z" fill="#8F8AD9"/>
<path d="M240.503 191.246C240.726 191.248 240.944 191.294 241.128 191.377C241.312 191.461 241.455 191.58 241.539 191.717C241.622 191.855 241.643 192.007 241.598 192.152C241.553 192.298 241.444 192.431 241.285 192.536C241.127 192.641 240.925 192.711 240.706 192.74C240.488 192.768 240.261 192.753 240.055 192.696C239.849 192.638 239.673 192.542 239.55 192.418C239.426 192.294 239.36 192.149 239.36 192C239.36 191.8 239.479 191.608 239.691 191.467C239.903 191.326 240.191 191.246 240.49 191.246H240.503ZM240.503 191C240.206 191 239.916 191.058 239.669 191.168C239.422 191.277 239.229 191.433 239.115 191.616C239.001 191.799 238.971 192 239.028 192.194C239.086 192.388 239.229 192.566 239.438 192.706C239.648 192.846 239.915 192.942 240.206 192.981C240.497 193.019 240.799 193 241.073 192.924C241.347 192.848 241.582 192.72 241.747 192.556C241.912 192.391 242 192.198 242 192C242 191.735 241.842 191.481 241.562 191.294C241.281 191.106 240.901 191.001 240.503 191Z" fill="#DADDDF"/>
<path d="M259.581 194.58H259.127H245.422V189.423H259.244H259.581H260V189H245V195H260V194.58H259.581Z" fill="#8F8AD9"/>
<path opacity="0.15" d="M259 190H245V191H259V190Z" fill="black"/>
<path opacity="0.15" d="M259 193H245V194H259V193Z" fill="black"/>
<path d="M258 179H244V184H258V179Z" fill="white"/>
<path d="M244 178H221V184H244V178Z" fill="#8F8AD9"/>
<path opacity="0.3" d="M244 178H221V184H244V178Z" fill="white"/>
<path d="M236 179H224V183H236V179Z" fill="white"/>
<path d="M235.578 179.388V182.612H224.425V179.388H235.578ZM236 179H224V183H236V179.012V179Z" fill="#8F8AD9"/>
<path d="M226 180H224V183H226V180Z" fill="#B2B6BB"/>
<path d="M234 180H233V183H234V180Z" fill="#B2B6BB"/>
<path d="M240 182C239.802 182 239.609 181.941 239.444 181.831C239.28 181.721 239.152 181.565 239.076 181.382C239 181.199 238.981 180.998 239.019 180.804C239.058 180.61 239.154 180.432 239.294 180.292C239.434 180.152 239.612 180.057 239.807 180.019C240 179.981 240.202 180.001 240.385 180.077C240.567 180.153 240.723 180.282 240.833 180.446C240.942 180.611 241 180.805 241 181.002C240.999 181.267 240.894 181.521 240.706 181.708C240.519 181.895 240.265 182 240 182Z" fill="#8F8AD9"/>
<path d="M239.5 180.246C239.724 180.246 239.943 180.29 240.129 180.372C240.315 180.455 240.461 180.572 240.547 180.71C240.633 180.848 240.656 180.999 240.612 181.146C240.569 181.292 240.462 181.427 240.304 181.532C240.146 181.638 239.944 181.71 239.725 181.739C239.505 181.768 239.278 181.754 239.071 181.697C238.865 181.64 238.688 181.543 238.563 181.419C238.439 181.295 238.373 181.149 238.373 181C238.373 180.8 238.491 180.609 238.702 180.468C238.914 180.327 239.201 180.247 239.5 180.246ZM239.5 180C239.203 180 238.913 180.059 238.666 180.169C238.42 180.278 238.228 180.435 238.114 180.617C238.001 180.8 237.971 181.001 238.029 181.195C238.087 181.389 238.23 181.567 238.439 181.707C238.649 181.847 238.917 181.942 239.207 181.981C239.498 182.019 239.8 182 240.074 181.924C240.348 181.848 240.582 181.72 240.747 181.556C240.912 181.391 241 181.198 241 181C241 180.735 240.842 180.48 240.56 180.293C240.279 180.105 239.898 180 239.5 180Z" fill="#DADDDF"/>
<path d="M258.578 183.58H258.124H244.422V178.423H258.242H258.578H259V178H244V184H259V183.58H258.578Z" fill="#8F8AD9"/>
<path opacity="0.15" d="M258 179H244V180H258V179Z" fill="black"/>
<path opacity="0.15" d="M258 180H244V181H258V180Z" fill="black"/>
<path d="M262 184H248V189H262V184Z" fill="white"/>
<path d="M247 184H225V189H247V184Z" fill="#3F4249"/>
<path d="M239 185H227V188H239V185Z" fill="white"/>
<path d="M238.578 185.292V187.708H227.425V185.292H238.578ZM239 185H227V188H239V185Z" fill="#B2B6BB"/>
<path d="M230 185H228V188H230V185Z" fill="#8F8AD9"/>
<path opacity="0.4" d="M243 188C242.802 188 242.609 187.912 242.444 187.747C242.28 187.582 242.152 187.348 242.076 187.074C242 186.8 241.981 186.498 242.019 186.207C242.058 185.916 242.153 185.649 242.293 185.439C242.433 185.23 242.611 185.087 242.805 185.029C242.999 184.971 243.2 185.001 243.383 185.114C243.565 185.228 243.722 185.42 243.831 185.666C243.941 185.913 244 186.203 244 186.5C244 186.898 243.895 187.279 243.707 187.561C243.52 187.842 243.265 188 243 188Z" fill="black"/>
<path d="M243.5 185.369C243.724 185.369 243.943 185.434 244.129 185.558C244.315 185.682 244.461 185.859 244.547 186.065C244.633 186.272 244.656 186.499 244.612 186.719C244.569 186.938 244.462 187.14 244.304 187.298C244.146 187.457 243.944 187.565 243.725 187.609C243.505 187.653 243.278 187.63 243.071 187.545C242.865 187.459 242.688 187.314 242.563 187.128C242.439 186.942 242.373 186.724 242.373 186.5C242.373 186.201 242.491 185.914 242.702 185.702C242.914 185.49 243.201 185.37 243.5 185.369ZM243.5 185C243.203 185 242.913 185.088 242.666 185.253C242.42 185.418 242.228 185.652 242.114 185.926C242.001 186.2 241.971 186.502 242.029 186.793C242.087 187.083 242.23 187.351 242.439 187.561C242.649 187.77 242.917 187.913 243.207 187.971C243.498 188.029 243.8 187.999 244.074 187.886C244.348 187.772 244.582 187.58 244.747 187.333C244.912 187.087 245 186.797 245 186.5C244.999 186.102 244.841 185.721 244.56 185.44C244.279 185.159 243.898 185.001 243.5 185Z" fill="#DADDDF"/>
<path d="M262.55 188.648H262.066H247.45V184.35H262.191H262.55H263V184H247V189H263V188.648H262.55Z" fill="#3F4249"/>
<path opacity="0.2" d="M262.55 188.648H262.066H247.45V184.35H262.191H262.55H263V184H247V189H263V188.648H262.55Z" fill="black"/>
<path opacity="0.15" d="M262 184H248V185H262V184Z" fill="black"/>
<path opacity="0.15" d="M262 185H248V186H262V185Z" fill="black"/>
<path opacity="0.15" d="M262 188H248V189H262V188Z" fill="black"/>
<path d="M263 173H249V178H263V173Z" fill="white"/>
<path d="M249 173H226V178H249V173Z" fill="#3F4249"/>
<path d="M241 174H229V177H241V174Z" fill="white"/>
<path d="M240.542 174.292V176.708H228.461V174.292H240.542ZM241 174H228V177H241V174Z" fill="#B2B6BB"/>
<path d="M231 174H229V177H231V174Z" fill="#8F8AD9"/>
<path d="M239 174H238V177H239V174Z" fill="#8F8AD9"/>
<path opacity="0.4" d="M244.5 177C244.203 177 243.913 176.912 243.667 176.747C243.42 176.582 243.228 176.348 243.114 176.074C243.001 175.8 242.971 175.498 243.029 175.207C243.087 174.916 243.229 174.649 243.439 174.439C243.649 174.23 243.916 174.087 244.208 174.029C244.499 173.971 244.8 174.001 245.074 174.114C245.348 174.228 245.582 174.42 245.747 174.666C245.912 174.913 246 175.203 246 175.5C246 175.898 245.842 176.279 245.561 176.561C245.279 176.842 244.898 177 244.5 177Z" fill="black"/>
<path d="M244.5 174.369C244.724 174.369 244.943 174.434 245.129 174.558C245.315 174.682 245.461 174.859 245.547 175.065C245.633 175.272 245.656 175.499 245.612 175.719C245.569 175.938 245.462 176.14 245.304 176.298C245.146 176.457 244.944 176.565 244.725 176.609C244.505 176.653 244.278 176.63 244.071 176.545C243.865 176.459 243.688 176.314 243.563 176.128C243.439 175.942 243.373 175.724 243.373 175.5C243.373 175.201 243.491 174.914 243.702 174.702C243.914 174.49 244.201 174.37 244.5 174.369ZM244.5 174C244.203 174 243.913 174.088 243.666 174.253C243.42 174.418 243.228 174.652 243.114 174.926C243.001 175.2 242.971 175.502 243.029 175.793C243.087 176.083 243.23 176.351 243.439 176.561C243.649 176.77 243.917 176.913 244.207 176.971C244.498 177.029 244.8 176.999 245.074 176.886C245.348 176.772 245.582 176.58 245.747 176.333C245.912 176.087 246 175.797 246 175.5C245.999 175.102 245.841 174.721 245.56 174.44C245.279 174.159 244.898 174.001 244.5 174Z" fill="#DADDDF"/>
<path d="M263.578 177.648H263.124H249.422V173.35H263.242H263.578H264V173H249V178H264V177.648H263.578Z" fill="#3F4249"/>
<path opacity="0.2" d="M263.578 177.648H263.124H249.422V173.35H263.242H263.578H264V173H249V178H264V177.648H263.578Z" fill="black"/>
<path opacity="0.15" d="M263 173H249V174H263V173Z" fill="black"/>
<path opacity="0.15" d="M263 174H249V175H263V174Z" fill="black"/>
<path opacity="0.15" d="M263 177H249V178H263V177Z" fill="black"/>
<path d="M149 240H95V270H149V240Z" fill="#DADDDF"/>
<path opacity="0.15" d="M149 240H126V270H149V240Z" fill="black"/>
<path opacity="0.4" d="M115.08 243H106.92C106.412 243 106 243.421 106 243.94V244.06C106 244.579 106.412 245 106.92 245H115.08C115.588 245 116 244.579 116 244.06V243.94C116 243.421 115.588 243 115.08 243Z" fill="black"/>
<path d="M150 235H94V242H150V235Z" fill="#8F8AD9"/>
<path opacity="0.2" d="M150 235H127V242H150V235Z" fill="black"/>
<path d="M120 251H102V260H120V251Z" fill="white"/>
<path d="M363.525 270.998H71.4762C71.4163 271.004 71.3557 270.998 71.2983 270.978C71.2409 270.954 71.188 270.921 71.1431 270.875C71.0981 270.825 71.0622 270.769 71.0376 270.706C71.0127 270.64 71 270.57 71 270.501C71 270.431 71.0127 270.362 71.0376 270.295C71.0622 270.232 71.0981 270.173 71.1431 270.126C71.188 270.08 71.2409 270.044 71.2983 270.024C71.3557 270.004 71.4163 269.994 71.4762 270.004H363.525C363.584 269.994 363.647 270.004 363.703 270.024C363.76 270.044 363.813 270.08 363.859 270.126C363.904 270.173 363.938 270.232 363.963 270.295C363.989 270.362 364 270.431 364 270.501C364 270.57 363.989 270.64 363.963 270.706C363.938 270.769 363.904 270.825 363.859 270.875C363.813 270.921 363.76 270.954 363.703 270.978C363.647 270.998 363.584 271.004 363.525 270.998Z" fill="#B2B6BB"/>
<path d="M65 139.733L65.0817 158.882L140 160V95H87.5389L65 139.733Z" fill="#F4F4F4"/>
<path d="M94 96.014L86.6547 96L75 119L94 96.014Z" fill="white"/>
<path d="M138.994 135.891L120.36 159L105 158.9L139 120L138.994 135.891Z" fill="white"/>
<path d="M138.994 100.403L86.9501 158.773L65.2267 159L65 155.606L116.823 96L139 96.0992L138.994 100.403Z" fill="white"/>
<path d="M103 159H104V96H103V159Z" fill="#B2B6BB"/>
<path opacity="0.2" d="M103 159H104V96H103V159Z" fill="black"/>
<path d="M65 139.83V159H66V138L65 139.83Z" fill="#B2B6BB"/>
<path opacity="0.2" d="M65 139.83V159H66V138L65 139.83Z" fill="black"/>
<path d="M137.348 125.161H137.389V96H137.611V125.161H137.652C137.698 125.161 137.744 125.171 137.786 125.19C137.828 125.209 137.867 125.238 137.899 125.274C137.931 125.309 137.957 125.352 137.974 125.399C137.992 125.446 138 125.496 138 125.546V129.615C138 129.666 137.992 129.716 137.974 129.763C137.957 129.81 137.931 129.852 137.899 129.888C137.867 129.924 137.828 129.952 137.786 129.972C137.744 129.991 137.698 130.001 137.652 130H137.348C137.302 130.001 137.257 129.991 137.215 129.972C137.172 129.952 137.134 129.924 137.102 129.888C137.069 129.852 137.044 129.81 137.026 129.763C137.009 129.716 137 129.666 137 129.615V125.546C136.998 125.496 137.006 125.444 137.022 125.396C137.039 125.349 137.065 125.305 137.097 125.269C137.13 125.233 137.169 125.204 137.213 125.186C137.256 125.167 137.302 125.159 137.348 125.161Z" fill="#B2B6BB"/>
<path d="M82 107H139V106H82.5276L82 107Z" fill="#B2B6BB"/>
<path d="M83 105H139V104H83.5156L83 105Z" fill="#B2B6BB"/>
<path d="M83 103H139V102H83.5241L83 103Z" fill="#B2B6BB"/>
<path d="M84 102H139V101H84.5233L84 102Z" fill="#B2B6BB"/>
<path d="M85 100H139V99H85.5254L85 100Z" fill="#B2B6BB"/>
<path d="M86 98H139V97H86.5218L86 98Z" fill="#B2B6BB"/>
<path opacity="0.2" d="M101 103H104V104H101V103Z" fill="black"/>
<path opacity="0.2" d="M101 105H104V106H101V105Z" fill="black"/>
<path opacity="0.2" d="M101 107H104V108H101V107Z" fill="black"/>
<path d="M142 162H143V93H142V162Z" fill="#B2B6BB"/>
<path opacity="0.2" d="M142 162H143V93H142V162Z" fill="black"/>
<path d="M142 93H88.3283L86.9065 95.8683H99.9868V159.132H65.0426L64.9857 139.718L62 145.691V162H142V93ZM139.117 159.132H102.825V95.8769H139.117V159.132Z" fill="#B2B6BB"/>
</svg>
