<svg width="398" height="363" viewBox="0 0 398 363" fill="none" xmlns="http://www.w3.org/2000/svg">
<g opacity="0.5">
<path d="M386.837 148.981L342.512 59.7739C339.549 53.8449 333.351 50.2451 326.76 50.6081L99.6638 63.6761C94.6145 63.9786 89.9584 66.5499 87.0558 70.7244L24.8924 159.78C22.8364 162.745 21.7782 166.284 21.9294 169.884L27.4322 312.029H380.79L388.59 157.179C388.711 154.335 388.107 151.522 386.837 148.981Z" fill="#F3F3F3"/>
<path d="M143.263 235.526C142.809 232.592 140.36 230.535 137.488 230.475H134.343L133.104 230.777V230.959L106.436 234.347C103.08 234.77 100.329 237.19 99.4824 240.457L80.8878 311.999H85.3626L103.685 241.546C104.078 239.973 105.378 238.854 106.981 238.642L137.155 234.8C138.032 234.679 138.818 235.284 138.939 236.162L150.489 311.999H154.873L143.263 235.526Z" fill="#858990"/>
<path d="M82.5507 312.029H78.0759L96.6705 240.488C97.5171 237.19 100.268 234.801 103.625 234.377L133.799 230.535C137.034 230.112 139.937 232.32 140.421 235.527L152.091 312.029H147.707L136.158 236.192C136.037 235.315 135.25 234.74 134.374 234.831L104.169 238.673C102.566 238.884 101.266 240.004 100.873 241.577L82.5507 312.029Z" fill="#B1B5BA"/>
<path d="M54.0089 256.762L38.8611 193.6C38.4076 191.694 39.8588 189.879 41.7939 189.879H37.6819C35.7166 189.879 34.2956 191.694 34.7491 193.6L49.8969 256.762L99.0894 256.852L54.0089 256.762Z" fill="#858990"/>
<path d="M86.3906 192.149C86.058 190.787 84.8486 189.85 83.4578 189.85H41.7939C39.8286 189.85 38.4075 191.665 38.8611 193.57L54.0088 256.732L102.325 256.823L86.3906 192.149Z" fill="#61656D"/>
<path d="M151.91 261.118H86.5116C85.3022 261.118 84.3347 260.15 84.3347 258.94C84.3347 257.73 85.3022 256.762 86.5116 256.762H151.91C153.12 256.762 154.087 257.73 154.087 258.94C154.087 260.15 153.089 261.118 151.91 261.118Z" fill="#61656D"/>
<path d="M103.322 261.118H47.5385C46.3291 261.118 45.3616 260.15 45.3616 258.94C45.3616 257.73 46.3291 256.762 47.5385 256.762H103.322C104.532 256.762 105.499 257.73 105.499 258.94C105.499 260.15 104.532 261.118 103.322 261.118Z" fill="#858990"/>
<path d="M111.728 258.183C112.03 259.061 111.758 259.908 111.214 260.482C110.821 260.876 110.276 261.118 109.672 261.118H47.5386C47.2664 261.118 46.9943 261.057 46.7524 260.966L47.8409 256.762H109.672C110.579 256.762 111.456 257.306 111.728 258.183Z" fill="#858990"/>
<path d="M55.0066 257.971L58.6953 243.845H59.179L55.5811 257.971H55.0066Z" fill="#858990"/>
<path d="M98.8474 235.526C98.3939 232.592 95.9448 230.535 93.0725 230.475H89.9281L88.6884 230.777V230.959L62.0211 234.347C58.665 234.77 55.9136 237.19 55.067 240.457L36.4724 311.999H40.9472L59.2697 241.546C59.6627 239.973 60.9628 238.854 62.5653 238.642L92.7399 234.8C93.6167 234.679 94.4028 235.284 94.5238 236.162L106.074 311.999H110.458L98.8474 235.526Z" fill="#858990"/>
<path d="M38.1353 312.029H33.6605L52.2249 240.488C53.0715 237.19 55.8228 234.801 59.1789 234.377L89.3536 230.535C92.5887 230.112 95.4913 232.32 95.9751 235.527L107.646 312.029H103.262L91.7119 236.192C91.591 235.315 90.8049 234.74 89.928 234.831L59.7534 238.673C58.1509 238.884 56.8508 240.004 56.4578 241.577L38.1353 312.029Z" fill="#B1B5BA"/>
<g opacity="0.1">
<path opacity="0.1" d="M254.891 97.375H239.773V111.532H254.891V97.375Z" fill="black"/>
</g>
<path d="M335.286 75.8975H217.853V153.821H335.286V75.8975Z" fill="white"/>
<path d="M337.04 75.8975H335.286V153.821H337.04V75.8975Z" fill="#E2E2E2"/>
<path d="M332.353 78.9824H221.209V151.038H332.353V78.9824Z" fill="#ECECEC"/>
<path d="M223.356 78.9824H221.209V151.038H223.356V78.9824Z" fill="#E2E2E2"/>
<path d="M253.712 95.499H238.594V109.656H253.712V95.499Z" fill="white"/>
<path d="M240.469 100.007H251.504C251.625 100.007 251.716 100.098 251.716 100.219C251.716 100.34 251.625 100.43 251.504 100.43H240.499C240.378 100.43 240.287 100.34 240.287 100.219C240.257 100.098 240.348 100.007 240.469 100.007Z" fill="#ECECEC"/>
<path d="M240.469 102.245H251.504C251.625 102.245 251.716 102.336 251.716 102.457C251.716 102.578 251.625 102.669 251.504 102.669H240.499C240.378 102.669 240.287 102.578 240.287 102.457C240.257 102.336 240.348 102.245 240.469 102.245Z" fill="#ECECEC"/>
<path d="M240.469 104.453H251.504C251.625 104.453 251.716 104.544 251.716 104.665C251.716 104.786 251.625 104.877 251.504 104.877H240.499C240.378 104.877 240.287 104.786 240.287 104.665C240.257 104.574 240.348 104.453 240.469 104.453Z" fill="#ECECEC"/>
<path d="M241.618 106.691H250.023C250.144 106.691 250.235 106.782 250.235 106.903C250.235 107.024 250.144 107.115 250.023 107.115H241.618C241.497 107.115 241.406 107.024 241.406 106.903C241.406 106.782 241.497 106.691 241.618 106.691Z" fill="#ECECEC"/>
<g opacity="0.1">
<path opacity="0.1" d="M249.448 123.299H266.501V139.271C266.501 139.271 256.13 142.235 253.137 139.21C250.295 136.397 249.448 123.299 249.448 123.299Z" fill="black"/>
</g>
<path d="M248.693 122.301H265.745V138.273C265.745 138.273 255.012 138.273 252.109 135.429C249.358 132.767 248.693 122.301 248.693 122.301Z" fill="white"/>
<path d="M250.809 127.413H263.236C263.357 127.413 263.478 127.534 263.478 127.655C263.478 127.776 263.357 127.897 263.236 127.897H250.809C250.688 127.897 250.567 127.776 250.567 127.655C250.567 127.504 250.688 127.413 250.809 127.413Z" fill="#ECECEC"/>
<path d="M250.809 128.169H263.236C263.357 128.169 263.478 128.29 263.478 128.411C263.478 128.532 263.357 128.653 263.236 128.653H250.809C250.688 128.653 250.567 128.532 250.567 128.411C250.567 128.26 250.688 128.169 250.809 128.169Z" fill="#ECECEC"/>
<path d="M250.809 132.435H263.236C263.357 132.435 263.478 132.556 263.478 132.677C263.478 132.798 263.357 132.919 263.236 132.919H250.809C250.688 132.919 250.567 132.798 250.567 132.677C250.567 132.556 250.688 132.435 250.809 132.435Z" fill="#ECECEC"/>
<path d="M252.109 134.945H261.573C261.694 134.945 261.815 135.066 261.815 135.187C261.815 135.308 261.694 135.429 261.573 135.429H252.109C251.988 135.429 251.867 135.308 251.867 135.187C251.867 135.066 251.958 134.945 252.109 134.945Z" fill="#ECECEC"/>
<path opacity="0.1" d="M309.556 116.311H291.929V133.946H309.556V116.311Z" fill="black"/>
<path d="M307.621 114.678H289.994V132.313H307.621V114.678Z" fill="white"/>
<path opacity="0.15" d="M299.578 117.067C299.578 117.49 299.246 117.823 298.822 117.823C298.399 117.823 298.067 117.49 298.067 117.067C298.067 116.643 298.399 116.311 298.822 116.311C299.215 116.311 299.578 116.643 299.578 117.067Z" fill="black"/>
<path opacity="0.15" d="M257.793 124.085C257.793 124.509 257.461 124.841 257.037 124.841C256.614 124.841 256.282 124.509 256.282 124.085C256.282 123.662 256.614 123.329 257.037 123.329C257.461 123.299 257.793 123.662 257.793 124.085Z" fill="black"/>
<path opacity="0.1" d="M259.728 88.6625C259.728 88.6625 271.853 86.424 274.876 89.449C277.9 92.474 276.841 105.784 276.841 105.784H259.728V88.6625Z" fill="black"/>
<path d="M257.763 86.212C257.763 86.212 267.983 84.7298 271.006 87.785C274.03 90.81 274.876 103.364 274.876 103.364H257.763V86.212Z" fill="#E2E2E2"/>
<path opacity="0.15" d="M246.395 97.2232C246.395 97.5257 246.153 97.7677 245.851 97.7677C245.548 97.7677 245.306 97.5257 245.306 97.2232C245.306 96.9207 245.548 96.6787 245.851 96.6787C246.123 96.6787 246.395 96.9207 246.395 97.2232Z" fill="black"/>
<path opacity="0.15" d="M266.924 87.7857C266.924 88.1184 266.652 88.3604 266.35 88.3604C266.017 88.3604 265.775 88.0882 265.775 87.7857C265.775 87.4832 266.047 87.2109 266.35 87.2109C266.652 87.2109 266.924 87.4529 266.924 87.7857Z" fill="black"/>
<path d="M271.399 92.081H261.452C261.059 92.081 260.756 91.7785 260.756 91.3852C260.756 90.992 261.059 90.6895 261.452 90.6895H271.399C271.792 90.6895 272.095 90.992 272.095 91.3852C272.095 91.7482 271.792 92.081 271.399 92.081Z" fill="#B1B5BA"/>
<path d="M271.883 94.5612H260.938C260.817 94.5612 260.726 94.4704 260.726 94.3494C260.726 94.2284 260.817 94.1377 260.938 94.1377H271.883C272.004 94.1377 272.095 94.2284 272.095 94.3494C272.095 94.4704 272.004 94.5612 271.883 94.5612Z" fill="#B1B5BA"/>
<path d="M271.883 97.0124H260.938C260.817 97.0124 260.726 96.9216 260.726 96.8006C260.726 96.6796 260.817 96.5889 260.938 96.5889H271.883C272.004 96.5889 272.095 96.6796 272.095 96.8006C272.095 96.9216 272.004 97.0124 271.883 97.0124Z" fill="#B1B5BA"/>
<path d="M271.883 99.4919H260.938C260.817 99.4919 260.726 99.4011 260.726 99.2801C260.726 99.1591 260.817 99.0684 260.938 99.0684H271.883C272.004 99.0684 272.095 99.1591 272.095 99.2801C272.095 99.4011 272.004 99.4919 271.883 99.4919Z" fill="#B1B5BA"/>
<path d="M303.509 121.212H292.564C292.443 121.212 292.352 121.121 292.352 121C292.352 120.879 292.443 120.788 292.564 120.788H303.509C303.63 120.788 303.72 120.879 303.72 121C303.72 121.121 303.63 121.212 303.509 121.212Z" fill="#B1B5BA"/>
<path d="M303.509 123.692H292.564C292.443 123.692 292.352 123.601 292.352 123.48C292.352 123.359 292.443 123.269 292.564 123.269H303.509C303.63 123.269 303.72 123.359 303.72 123.48C303.72 123.601 303.63 123.692 303.509 123.692Z" fill="#B1B5BA"/>
<path d="M301.997 126.173H292.564C292.443 126.173 292.352 126.083 292.352 125.962C292.352 125.841 292.443 125.75 292.564 125.75H301.997C302.118 125.75 302.209 125.841 302.209 125.962C302.178 126.083 302.088 126.173 301.997 126.173Z" fill="#B1B5BA"/>
<path opacity="0.1" d="M324.008 91.1123H293.592V105.239H324.008V91.1123Z" fill="black"/>
<path d="M322.769 89.873H292.352V104H322.769V89.873Z" fill="#E2E2E2"/>
<path d="M385.567 312.391H22.8364C22.7457 312.391 22.655 312.331 22.655 312.21C22.655 312.119 22.7155 312.028 22.8364 312.028H385.597C385.688 312.028 385.779 312.089 385.779 312.21C385.779 312.331 385.688 312.391 385.567 312.391Z" fill="#B2B6BB"/>
<path d="M79.718 158.376H113.007V112.306H79.718V158.376Z" fill="white"/>
<path d="M84.1626 154.112H108.562V116.571H84.1626V154.112Z" fill="#DDDDDD"/>
<path d="M113.995 112.288H113.028V158.359H113.995V112.288Z" fill="#DADDDF"/>
<path d="M90.6631 148.002H102.092V129.852H90.6631V148.002Z" fill="#B1B5BA"/>
<path d="M96.3682 127.594C99.4824 127.594 101.992 125.084 101.992 121.968H90.7142C90.7445 125.053 93.254 127.594 96.3682 127.594Z" fill="#8F8AD9"/>
<path d="M300.425 216.922L295.617 193.327" stroke="#868A91" stroke-width="0.4628" stroke-miterlimit="10"/>
<path d="M301.755 185.372L301.09 216.046" stroke="#868A91" stroke-width="0.4628" stroke-miterlimit="10"/>
<path d="M308.739 191.06L301.423 200.256" stroke="#868A91" stroke-width="0.4628" stroke-miterlimit="10"/>
<path d="M304.053 222.791L303.327 221.702C302.602 220.613 302.209 219.312 302.209 218.012V215.41H299.397V218.012C299.397 219.343 299.004 220.613 298.278 221.702L297.552 222.791C296.041 225.09 295.557 227.903 296.222 230.596L297.038 233.832H304.537L305.353 230.596C306.049 227.934 305.565 225.09 304.053 222.791Z" fill="#61656D"/>
<path opacity="0.2" d="M304.053 222.791L303.327 221.702C302.602 220.613 302.209 219.312 302.209 218.012V215.41H301.392V218.012C301.392 219.343 301.725 220.432 302.33 221.702L303.146 223.275C305.202 227.903 301.332 233.832 301.332 233.832H304.537L305.353 230.596C306.049 227.934 305.565 225.09 304.053 222.791Z" fill="black"/>
<path d="M298.55 207.697L307.258 200.497" stroke="#868A91" stroke-width="0.4628" stroke-miterlimit="10"/>
<path d="M291.989 206.094L299.699 213.354" stroke="#868A91" stroke-width="0.4628" stroke-miterlimit="10"/>
<path d="M304.386 196.535L305.595 191.241C306.018 189.365 308.286 188.579 309.798 189.758C311.31 190.968 311.037 193.328 309.284 194.175L304.386 196.535Z" fill="#8F8AD9"/>
<path opacity="0.3" d="M304.386 196.535L305.595 191.241C306.018 189.365 308.286 188.579 309.798 189.758C311.31 190.968 311.037 193.328 309.284 194.175L304.386 196.535Z" fill="white"/>
<path d="M310.765 191.875C310.765 192.813 310.251 193.751 309.284 194.205L304.386 196.564L309.768 189.818C310.463 190.302 310.765 191.089 310.765 191.875Z" fill="#8F8AD9"/>
<path d="M301.604 194.175L298.157 187.006C296.918 184.465 298.792 181.5 301.604 181.5C304.446 181.5 306.29 184.465 305.051 187.006L301.604 194.175Z" fill="#8F8AD9"/>
<path opacity="0.3" d="M301.604 194.175L298.157 187.006C296.918 184.465 298.792 181.5 301.604 181.5C304.446 181.5 306.29 184.465 305.051 187.006L301.604 194.175Z" fill="white"/>
<path opacity="0.3" d="M301.755 181.53L301.604 194.175L305.051 187.006C306.26 184.525 304.507 181.651 301.755 181.53Z" fill="white"/>
<path d="M297.764 203.734L292.715 197.744C290.931 195.596 291.989 192.329 294.68 191.634C297.371 190.938 299.881 193.328 299.306 196.05L297.764 203.734Z" fill="#8F8AD9"/>
<path opacity="0.3" d="M299.336 196.05C299.881 193.328 297.401 190.938 294.71 191.634L297.794 203.703L299.336 196.05Z" fill="white"/>
<path d="M297.069 210.872L294.771 205.125C293.954 203.068 291.294 202.584 289.812 204.217C288.331 205.851 289.056 208.452 291.143 209.087L297.069 210.872Z" fill="#8F8AD9"/>
<path opacity="0.3" d="M297.069 210.872L294.771 205.125C293.954 203.068 291.294 202.584 289.812 204.217C288.331 205.851 289.056 208.452 291.143 209.087L297.069 210.872Z" fill="white"/>
<path opacity="0.3" d="M289.903 204.127L297.038 210.873L294.741 205.125C293.985 203.129 291.415 202.615 289.903 204.127Z" fill="white"/>
<path d="M300.878 205.851L303.388 199.801C304.265 197.653 307.107 197.169 308.649 198.893C310.191 200.618 309.405 203.401 307.167 204.036L300.878 205.851Z" fill="#8F8AD9"/>
<path opacity="0.3" d="M300.878 205.851L303.388 199.801C304.265 197.653 307.107 197.169 308.649 198.893C310.191 200.618 309.405 203.401 307.167 204.036L300.878 205.851Z" fill="white"/>
<path d="M301.12 213.202L313.003 206.668" stroke="#868A91" stroke-width="0.4628" stroke-miterlimit="10"/>
<path d="M303.055 212.113L307.349 206.214C308.891 204.127 312.096 204.339 313.305 206.638C314.514 208.937 312.942 211.72 310.342 211.841L303.055 212.113Z" fill="#8F8AD9"/>
<path opacity="0.3" d="M303.055 212.113L307.349 206.214C308.891 204.127 312.096 204.339 313.305 206.638C314.514 208.937 312.942 211.72 310.342 211.841L303.055 212.113Z" fill="white"/>
<path d="M313.456 209.753C312.942 210.903 311.793 211.78 310.372 211.841L303.085 212.143L313.365 206.668C313.879 207.666 313.879 208.816 313.456 209.753Z" fill="#8F8AD9"/>
<path opacity="0.3" d="M303.388 199.801L300.878 205.851L308.649 198.893C307.077 197.169 304.265 197.653 303.388 199.801Z" fill="white"/>
<path d="M345.505 236.494H341.998L352.55 312.028H353.911L345.505 236.494Z" fill="#B1B5BA"/>
<path d="M275.693 312.028H277.083L287.605 236.494H284.098L275.693 312.028Z" fill="#B1B5BA"/>
<path d="M353.911 312.028H353.306L344.266 238.581C344.205 238.067 343.782 237.674 343.268 237.613L342.119 237.492L341.968 236.464H345.475L353.911 312.028Z" fill="#858990"/>
<path d="M276.569 312.028L285.972 238.672C286.033 238.128 285.67 237.613 285.156 237.523L284.037 237.281L284.128 236.464H287.635L277.083 312.028H276.569Z" fill="#858990"/>
<path d="M356.299 236.494H352.792L363.344 312.028H364.705L356.299 236.494Z" fill="#B1B5BA"/>
<path d="M286.486 312.028H287.877L298.429 236.494H294.922L286.486 312.028Z" fill="#B1B5BA"/>
<path d="M364.705 312.028H364.1L360.562 285.227C360.562 285.227 360.562 285.227 359.474 284.592L352.883 237.492L352.732 236.464H356.239L364.705 312.028Z" fill="#858990"/>
<path d="M287.363 312.028L290.78 285.469C289.54 284.622 289.54 284.622 289.54 284.622L294.892 236.464H298.399L287.847 312.028H287.363Z" fill="#858990"/>
<path d="M288.422 235.133C288.422 235.859 289.026 236.464 289.752 236.464H362.074C362.8 236.464 363.405 235.859 363.405 235.133C363.405 234.407 362.8 233.802 362.074 233.802H289.752C289.026 233.802 288.422 234.407 288.422 235.133Z" fill="#858990"/>
<path d="M277.9 235.133C277.9 235.859 278.504 236.464 279.23 236.464H336.556C337.281 236.464 337.886 235.859 337.886 235.133C337.886 234.407 337.281 233.802 336.556 233.802H279.23C278.504 233.802 277.9 234.407 277.9 235.133Z" fill="#B1B5BA"/>
<path d="M338.823 233.802H317.78C316.268 233.802 315.028 232.562 315.028 231.05C315.028 229.537 316.268 228.297 317.78 228.297H338.823V233.802Z" fill="#858990"/>
<path d="M337.07 233.802H347.682V232.986H344.387V229.083H347.682V228.267H337.07C335.558 228.267 334.318 229.507 334.318 231.019C334.318 232.592 335.558 233.802 337.07 233.802Z" fill="#61656D"/>
<path d="M337.1 232.985H346.926V229.083H337.1C336.042 229.083 335.165 229.96 335.165 231.019C335.165 232.138 336.012 232.985 337.1 232.985Z" fill="white"/>
<path d="M332.202 228.297H314.635C314.242 228.297 313.91 227.964 313.91 227.571V224.788C313.91 224.394 314.242 224.062 314.635 224.062H332.202V228.297Z" fill="#B1B5BA"/>
<path d="M324.613 227.026H318.536C318.385 227.026 318.233 226.905 318.233 226.724V225.756C318.233 225.604 318.354 225.453 318.536 225.453H324.613C324.764 225.453 324.915 225.574 324.915 225.756V226.724C324.915 226.875 324.764 227.026 324.613 227.026Z" fill="#858990"/>
<path d="M329.451 228.297H339.005V224.062H329.451C329.058 224.062 328.725 224.394 328.725 224.788V227.571C328.725 227.964 329.058 228.297 329.451 228.297Z" fill="#858990"/>
<path d="M329.723 227.662H339.005V224.667H329.723C329.541 224.667 329.36 224.818 329.36 225.03V227.299C329.36 227.51 329.511 227.662 329.723 227.662Z" fill="white"/>
<path d="M323.645 224.062H344.417C344.961 224.062 345.415 223.608 345.415 223.064V220.795C345.415 220.251 344.961 219.797 344.417 219.797H323.645V224.062Z" fill="#61656D"/>
<path d="M326.094 223.426H316.54V220.432H326.094C326.276 220.432 326.457 220.583 326.457 220.795V223.063C326.457 223.275 326.306 223.426 326.094 223.426Z" fill="white"/>
<path d="M326.367 219.826H315.845V220.461H326.125C326.306 220.461 326.488 220.613 326.488 220.824V223.093C326.488 223.275 326.336 223.456 326.125 223.456H315.845V224.091H326.367C326.76 224.091 327.092 223.759 327.092 223.365V220.582C327.092 220.159 326.76 219.826 326.367 219.826Z" fill="#858990"/>
<path d="M149.612 294.998C149.945 296.269 150.035 296.753 149.975 297.993L150.005 306.402C149.945 307.854 149.552 309.306 148.826 310.547L148.645 310.849C148.221 311.605 147.405 312.059 146.558 312.059H144.17C143.051 312.059 142.114 311.303 141.842 310.244C141.539 309.004 141.479 307.703 141.721 306.433L143.777 297.448C143.928 296.692 144.109 295.815 144.502 294.998H149.612Z" fill="#8F8AD9"/>
<path d="M182.175 275.275L183.657 291.307C183.748 293.183 184.231 294.332 184.776 295.149L190.581 307.007L188.948 309.215L182.599 306.039L177.005 295.845C177.035 294.121 176.854 293.062 176.521 290.733L173.74 273.43L182.175 275.275Z" fill="#FC9D9D"/>
<path opacity="0.15" d="M183.838 296.693C183.203 295.725 182.357 293.486 182.206 292.458L180.271 286.498C180.21 286.075 179.878 285.742 179.454 285.682L175.584 285.137L175.524 284.29H183.052L183.717 291.308C183.869 292.518 184.141 294.091 184.836 295.15L190.641 307.008L189.643 308.672L183.838 296.693Z" fill="black"/>
<path d="M193.967 309.003L190.641 306.977C188.222 307.37 185.804 306.462 184.231 304.557L177.005 295.845C175.705 298.628 175.252 301.743 175.675 304.799L176.733 312.059H177.549L177.791 304.617C177.822 304.073 178.487 303.831 178.819 304.254L183.203 309.639C184.443 311.181 186.318 312.059 188.313 312.059H195.177C195.721 312.059 196.084 311.514 195.872 311C195.509 310.123 194.814 309.427 193.967 309.003Z" fill="#8F8AD9"/>
<path d="M149.945 291.216C149.582 294.241 149.431 297.266 149.491 300.321L149.552 303.951C149.491 305.555 148.191 306.795 146.589 306.795H146.105C144.321 306.795 142.93 305.192 143.172 303.437L144.019 299.142C144.442 296.964 144.593 294.725 144.472 292.517L143.656 277.876L151.215 277.997L149.945 291.216Z" fill="#FC9D9D"/>
<path d="M177.912 173.061L178.97 185.977L179.938 196.777C180.452 202.554 180.785 208.302 180.936 214.11L183.476 284.32H175.221L161.071 191.695C160.981 191.059 160.436 190.606 159.801 190.606C159.136 190.606 158.592 191.12 158.532 191.785L151.124 284.32L143.626 284.26L139.907 217.498C139.121 203.25 140.179 188.972 143.112 175.027L143.595 173.061H177.912Z" fill="#3F4249"/>
<path opacity="0.15" d="M150.61 284.319C150.61 284.319 149.703 293.727 149.642 294.967V294.998C149.522 296.752 149.491 298.537 149.522 300.322L149.582 303.952C149.522 305.494 148.312 306.735 146.77 306.795C148.161 305.736 148.04 303.982 148.07 302.681L148.312 286.77C148.312 286.255 147.949 285.802 147.435 285.711L144.079 285.106L144.049 284.35L150.61 284.319Z" fill="black"/>
<path opacity="0.2" d="M159.771 190.605C159.439 190.605 159.136 190.726 158.894 190.938C158.652 191.15 158.501 191.452 158.501 191.785L151.124 284.32L148.433 284.29L152.968 197.049C153.18 193.449 156.143 190.605 159.771 190.605Z" fill="black"/>
<path opacity="0.2" d="M178.184 176.207L178.97 185.947L179.575 192.663C180.331 201.133 180.815 209.663 181.057 218.163L183.475 284.29H179.787L175.04 192.239L174.163 175.692H178.154L178.184 176.207Z" fill="black"/>
<path d="M178.124 175.693L177.882 172.395L143.807 172.305L142.961 175.693H178.124Z" fill="#21252B"/>
<path d="M152.938 95.4079C152.938 95.4079 147.133 97.6463 148.312 105.36C148.735 108.264 145.954 108.597 144.412 109.807C140.39 112.983 142.265 120.062 144.382 120.213L170.323 134.188C170.323 134.188 180.512 120.273 177.126 113.528C175.614 110.533 176.007 110.14 177.066 107.266C178.668 102.849 175.645 100.762 175.645 100.762L174.042 100.429L168.267 87.3916L157.08 94.9239L155.417 94.9844L152.938 95.4079Z" fill="#21252B"/>
<path d="M156.717 103.848L155.145 116.251C155.115 117.279 155.962 117.491 155.962 117.491C159.287 119.548 161.736 121.484 165.304 120.123C165.969 119.881 166.574 119.578 167.209 119.185L168.963 117.612L169.174 116.583C168.388 116.372 167.935 115.918 167.693 115.222C167.632 115.01 167.421 114.768 167.421 114.557L167.239 100.521L156.717 103.848Z" fill="#FC9D9D"/>
<path d="M163.974 111.714L163.43 111.684C159.439 111.351 156.476 107.872 156.808 103.91L157.624 93.8061C157.745 92.4751 158.894 91.4768 160.225 91.5978L169.658 92.3541C171.381 92.5053 172.682 93.9876 172.53 95.7118L171.774 105.12C171.442 109.052 167.935 112.017 163.974 111.714Z" fill="#FC9D9D"/>
<path d="M164.669 102.698C165.103 102.698 165.455 102.346 165.455 101.912C165.455 101.477 165.103 101.125 164.669 101.125C164.235 101.125 163.883 101.477 163.883 101.912C163.883 102.346 164.235 102.698 164.669 102.698Z" fill="#21252B"/>
<path d="M165.093 102.306C165.193 102.306 165.275 102.225 165.275 102.124C165.275 102.024 165.193 101.942 165.093 101.942C164.993 101.942 164.911 102.024 164.911 102.124C164.911 102.225 164.993 102.306 165.093 102.306Z" fill="white"/>
<path d="M170.686 103.273C171.12 103.273 171.472 102.921 171.472 102.487C171.472 102.052 171.12 101.7 170.686 101.7C170.252 101.7 169.9 102.052 169.9 102.487C169.9 102.921 170.252 103.273 170.686 103.273Z" fill="#21252B"/>
<path d="M171.049 102.912C171.15 102.912 171.231 102.83 171.231 102.73C171.231 102.629 171.15 102.548 171.049 102.548C170.949 102.548 170.867 102.629 170.867 102.73C170.867 102.83 170.949 102.912 171.049 102.912Z" fill="white"/>
<g opacity="0.3">
<path opacity="0.3" d="M167.239 105.542L166.181 105.482C166.06 105.482 165.969 105.361 165.969 105.24C165.969 105.119 166.09 105.028 166.211 105.028L167.269 105.089C167.542 105.089 167.753 104.907 167.753 104.635C167.753 104.363 167.572 104.151 167.3 104.121C167.179 104.121 167.088 104 167.088 103.879C167.088 103.758 167.209 103.667 167.33 103.667C167.844 103.697 168.237 104.121 168.207 104.635C168.177 105.149 167.753 105.573 167.239 105.542Z" fill="black"/>
</g>
<path d="M175.645 100.732C174.586 99.7945 175.221 98.3122 175.221 98.3122V98.3425C177.187 90.296 172.047 85.1232 167.39 84.1552C164.73 83.6107 157.685 83.9435 155.417 91.99C155.085 93.1395 154.994 94.41 152.938 95.378C152.938 95.378 154.147 99.613 154.48 101.156C154.631 101.821 156.113 99.3407 156.687 99.0987C156.748 99.0685 157.171 99.855 157.443 100.339C157.624 100.641 158.078 100.672 158.229 100.339L158.29 100.218C158.804 99.0987 159.106 97.8887 159.197 96.6485C162.613 95.862 162.613 92.3832 162.613 92.3832C165.637 99.4315 172.379 97.677 172.379 97.677L172.016 101.458C172.016 101.458 172.772 100.883 173.528 99.8852L174.617 100.883L175.645 100.732Z" fill="#21252B"/>
<path d="M157.262 104.333C157.262 104.333 153.815 104.484 153.21 101.035C152.605 97.5868 156.869 97.1331 157.322 100.582L157.655 104.363L157.262 104.333Z" fill="#FC9D9D"/>
<path opacity="0.3" d="M154.359 99.2804C154.722 99.0384 155.085 98.9477 155.417 99.0384C155.75 99.1292 156.022 99.3409 156.234 99.7342C156.445 100.127 156.596 100.581 156.566 101.065V101.428C156.566 101.7 156.113 101.761 156.113 101.458C156.113 101.065 156.113 101.065 156.113 101.065C156.113 100.944 156.052 100.309 155.841 99.9459C155.689 99.6737 155.508 99.5224 155.327 99.4619C155.115 99.4014 154.903 99.4619 154.631 99.6434C154.54 99.7039 154.389 99.6737 154.329 99.5829C154.208 99.4619 154.238 99.3409 154.359 99.2804Z" fill="black"/>
<path d="M171.019 99.4322C170.021 99.402 169.144 99.7952 168.509 100.491C167.693 100.067 166.907 100.188 166.574 100.279C166.09 99.2205 165.093 98.4642 163.853 98.4037C162.13 98.313 160.648 99.6742 160.588 101.398C160.497 103.123 161.857 104.605 163.581 104.665C165.304 104.726 166.786 103.395 166.846 101.671C166.876 101.308 166.816 100.945 166.725 100.642C167.028 100.582 167.632 100.521 168.267 100.824C167.965 101.277 167.753 101.822 167.723 102.427C167.632 104.151 168.993 105.633 170.716 105.694C172.44 105.785 173.921 104.423 173.982 102.699C174.072 100.975 172.742 99.523 171.019 99.4322ZM163.611 104.302C162.099 104.242 160.92 102.941 161.011 101.429C161.071 99.9162 162.371 98.7365 163.883 98.8272C165.395 98.8877 166.574 100.188 166.483 101.701C166.393 103.183 165.093 104.363 163.611 104.302ZM170.747 105.301C169.235 105.24 168.056 103.939 168.146 102.427C168.207 100.914 169.507 99.7347 171.019 99.8255C172.53 99.886 173.71 101.187 173.619 102.699C173.528 104.212 172.258 105.391 170.747 105.301Z" fill="white"/>
<path d="M156.385 103.788C156.769 103.788 157.08 103.476 157.08 103.092C157.08 102.708 156.769 102.396 156.385 102.396C156.001 102.396 155.689 102.708 155.689 103.092C155.689 103.476 156.001 103.788 156.385 103.788Z" fill="#8F8AD9"/>
<path opacity="0.15" d="M156.597 103.667C156.173 103.637 155.871 103.304 155.901 102.881C155.901 102.729 155.962 102.608 156.022 102.487C155.841 102.608 155.72 102.79 155.689 103.032C155.659 103.425 155.962 103.728 156.355 103.758C156.506 103.758 156.627 103.728 156.748 103.637C156.717 103.667 156.657 103.697 156.597 103.667Z" fill="black"/>
<path opacity="0.15" d="M156.657 104.302L157.715 104.423L156.476 105.784L156.657 104.302Z" fill="black"/>
<path opacity="0.15" d="M167.421 113.588C166.997 113.618 164.397 113.891 162.402 111.682C160.92 111.319 159.892 110.714 159.227 110.2C159.136 110.14 159.106 109.988 159.197 109.898C159.257 109.807 159.408 109.777 159.499 109.867C160.013 110.261 160.829 110.745 161.918 111.108C161.978 111.138 162.039 111.138 162.099 111.168C162.25 111.198 162.432 111.259 162.583 111.289C162.613 111.289 162.643 111.289 162.643 111.289C162.734 111.319 162.855 111.319 162.976 111.35C163.248 111.41 163.551 111.44 163.853 111.471C165.123 111.561 166.302 111.501 167.39 111.108L167.421 113.588Z" fill="black"/>
<path d="M167.663 106.842C167.753 106.842 167.814 106.963 167.753 107.054C167.269 107.75 166.453 108.173 165.607 108.083C164.76 107.962 164.065 107.387 163.762 106.57C163.732 106.479 163.792 106.358 163.913 106.389L167.663 106.842Z" fill="white"/>
<path d="M171.593 98.9782C165.637 98.8875 163.309 93.5332 163.278 93.4727C163.218 93.3517 163.278 93.2004 163.399 93.1399C163.52 93.0794 163.672 93.1399 163.732 93.2609C163.762 93.3214 165.969 98.3732 171.563 98.4639C171.684 98.4639 171.805 98.5849 171.805 98.7059C171.805 98.8874 171.714 98.9782 171.593 98.9782Z" fill="#21252B"/>
<path d="M189.764 124.812L207.15 132.374L195.297 136.488L184.201 134.159L189.764 124.812Z" fill="#FC9D9D"/>
<path d="M188.736 135.671L174.586 131.315L177.519 118.942L195.691 127.322L188.736 135.671Z" fill="#8F8AD9"/>
<path d="M142.235 119.095L154.238 116.493L169.326 116.705L176.522 118.58C178.577 119.125 180.119 120.879 180.331 122.997C180.664 126.597 180.089 129.924 180.089 129.924L180.452 133.1C182.024 136.216 183.294 140.905 178.91 145.442C178.184 146.199 177.791 147.167 177.791 148.225C177.791 156.332 177.912 172.365 177.912 172.365L144.2 172.516C143.293 172.516 142.628 171.699 142.779 170.822C143.414 167.192 144.351 162.292 145.047 158.541C145.742 154.88 145.621 151.129 144.684 147.53L141.419 134.855L136.218 127.292C136.006 123.39 138.486 119.972 142.235 119.095Z" fill="#8F8AD9"/>
<path d="M155.175 116.765L165.002 125.749L168.963 121.121L169.719 116.704L168.932 116.493L158.048 111.985L155.175 116.765Z" fill="#FC9D9D"/>
<path d="M164.367 136.216L170.958 136.458C171.351 136.458 171.623 136.307 171.714 135.944C171.774 135.702 171.623 135.278 171.17 135.218L165.093 134.431C164.458 134.371 163.823 134.371 163.067 134.492L157.171 135.43C156.203 135.581 155.296 136.004 154.54 136.67L136.974 152.218C134.646 154.275 134.737 157.936 137.186 159.841C139.362 161.596 142.567 161.172 144.261 158.964L158.32 140.391L162.764 141.601C163.339 141.631 163.853 141.328 164.125 140.844L165.153 138.878C165.486 138.273 166.211 137.729 166.907 137.608L168.781 137.305L164.367 136.216Z" fill="#FC9D9D"/>
<path opacity="0.15" d="M168.811 137.305L167.148 137.547C166.332 137.698 165.606 138.212 165.183 138.938L164.125 140.844C163.883 141.298 163.399 141.6 162.855 141.6H162.795L163.823 140.209C163.823 140.209 162.371 139.695 162.19 139.574C162.099 139.513 162.19 139.301 162.311 139.301C162.492 139.301 164.034 139.906 164.034 139.906L165.153 138.394C165.153 138.394 163.551 137.97 163.309 137.91C163.218 137.88 163.278 137.517 163.52 137.577C164.125 137.698 165.395 138.091 165.395 138.091L166.12 137.123L164.397 136.488L164.367 136.246L168.811 137.305Z" fill="black"/>
<path d="M168.963 121.121L167.451 114.647L169.719 116.704L168.963 121.121Z" fill="white"/>
<path d="M158.441 118.217L155.689 122.512L159.076 120.365L158.441 118.217Z" fill="#8F8AD9"/>
<path opacity="0.15" d="M158.441 118.217L155.689 123.027L159.076 120.365L158.441 118.217Z" fill="black"/>
<path opacity="0.15" d="M169.719 116.704L172.5 121.544L169.144 120.032L169.719 116.704Z" fill="black"/>
<path d="M158.441 118.217L155.387 113.619L153.785 117.279L155.689 123.027L158.441 118.217Z" fill="white"/>
<path d="M135.916 134.703L147.314 134.098L146.407 149.192L135.341 156.604L135.916 134.703Z" fill="#FC9D9D"/>
<path d="M148.614 117.673L141.993 119.064C138.607 119.76 136.127 122.694 136.006 126.173L135.492 140.481L147.314 140.784L148.614 117.673Z" fill="#8F8AD9"/>
<path d="M188.434 136.064L187.013 135.126L194.058 126.565L195.69 127.322L188.434 136.064Z" fill="white"/>
<path d="M167.421 142.629C167.421 142.629 167.723 142.75 168.086 142.719C168.358 142.689 168.539 142.598 168.721 142.477C168.721 142.477 168.872 142.266 168.691 142.175C168.297 141.963 167.602 141.721 167.481 141.661L166 140.935L165.637 142.266L167.269 142.961L167.421 142.629Z" fill="#FC9D9D"/>
<path d="M169.477 143.022C169.416 142.659 169.053 142.417 168.691 142.478L167.693 142.629C167.511 142.659 167.33 142.629 167.179 142.508L166.725 142.206C166.544 142.085 166.423 141.873 166.393 141.661L165.244 142.448L167.149 143.93C167.149 143.93 169.537 143.264 169.477 143.022Z" fill="#FC9D9D"/>
<path opacity="0.15" d="M168.691 142.477C168.691 142.477 168.811 142.326 168.721 142.205L165.969 140.935L165.607 142.205L165.244 142.447L167.149 143.929C167.149 143.929 169.507 143.264 169.477 143.022C169.416 142.659 169.053 142.417 168.691 142.477Z" fill="black"/>
<path d="M209.72 136.639C209.72 137.577 209.508 138.484 209.085 139.21C208.268 140.662 206.756 141.63 204.67 141.6L176.007 141.933H175.252L175.221 141.993L174.979 142.508C174.949 142.568 174.919 142.598 174.919 142.659C174.889 142.689 174.889 142.719 174.858 142.75C174.405 143.506 173.558 143.899 172.682 143.808C172.621 143.808 172.561 143.808 172.5 143.778C172.349 143.748 172.228 143.718 172.077 143.657L167.149 141.57C166.786 141.419 166.362 141.57 166.211 141.933C166.181 142.024 166.151 142.114 166.151 142.235C166.151 142.477 166.272 142.689 166.483 142.84L166.937 143.143C167.088 143.234 167.269 143.294 167.451 143.264L168.449 143.113C168.811 143.052 169.144 143.294 169.235 143.657C169.235 143.687 169.235 143.748 169.235 143.778C169.235 144.081 169.053 144.323 168.781 144.413L166.453 145.17C166.241 145.23 166 145.2 165.818 145.079L163.49 143.415C163.188 143.203 163.097 142.81 163.278 142.508L165.093 139.089C165.486 138.363 166.181 137.849 166.997 137.698L190.097 134.068L203.673 131.95C206.122 131.648 207.845 132.586 208.812 133.977C209.447 134.703 209.72 135.671 209.72 136.639Z" fill="#FC9D9D"/>
<path opacity="0.15" d="M167.421 142.629C167.421 142.629 166.665 142.296 166.423 141.691C166.423 141.691 166.544 141.601 166.574 141.57C166.574 141.57 166.846 142.145 167.481 142.417C167.481 142.417 168.328 142.417 168.781 142.266C168.781 142.387 168.721 142.448 168.721 142.448C168.539 142.508 168.358 142.629 167.421 142.629Z" fill="black"/>
<path d="M176.854 141.934L175.04 136.247L176.612 135.914L178.487 141.934H176.854Z" fill="#3F4249"/>
<path d="M173.468 136.125C173.407 135.853 173.558 135.581 173.831 135.52L177.247 134.915C177.489 134.855 177.731 135.036 177.791 135.278V135.308C177.852 135.581 177.67 135.853 177.398 135.883L173.982 136.458C173.77 136.488 173.528 136.337 173.468 136.125Z" fill="#21252B"/>
<path opacity="0.15" d="M198.956 132.041L194.179 132.797L180.845 128.562C180.361 128.411 179.847 128.804 179.938 129.318L180.452 133.1L185.592 134.703L190.158 133.977H190.188L199.016 132.555C199.168 132.525 199.258 132.404 199.228 132.253C199.228 132.132 199.077 132.011 198.956 132.041Z" fill="black"/>
<path opacity="0.15" d="M146.921 140.754L143.293 140.663L143.051 146.138L141.479 147.5C141.388 147.59 141.358 147.742 141.449 147.863C141.539 147.984 141.691 147.984 141.812 147.893L146.74 143.597L146.921 140.754Z" fill="black"/>
<path d="M135.492 140.481V138.484L146.982 138.787L146.891 140.753L135.492 140.481Z" fill="white"/>
<path opacity="0.15" d="M148.161 131.497L149.945 140.784L146.74 143.627L147.435 131.557C147.466 131.104 148.1 131.073 148.161 131.497Z" fill="black"/>
<path d="M236.387 220.311L264.052 198.682C267.559 195.959 269.615 191.603 269.615 187.005V144.746L229.614 144.716L229.554 145.835V144.716L189.553 144.746V187.005C189.553 191.603 191.609 195.929 195.116 198.682L222.781 220.311C223.93 221.218 224.625 222.64 224.625 224.183C224.625 225.695 223.93 227.147 222.781 228.055L195.116 249.683C191.609 252.406 189.553 256.762 189.553 261.36V303.619L229.554 303.649V302.53L229.614 303.649L269.615 303.619V261.33C269.615 256.732 267.559 252.406 264.052 249.653L236.387 228.024C235.238 227.117 234.543 225.695 234.543 224.152C234.543 222.64 235.208 221.218 236.387 220.311Z" fill="#8F8AD9"/>
<path opacity="0.6" d="M236.387 220.311L264.052 198.682C267.559 195.959 269.615 191.603 269.615 187.005V144.746L229.614 144.716L229.554 145.835V144.716L189.553 144.746V187.005C189.553 191.603 191.609 195.929 195.116 198.682L222.781 220.311C223.93 221.218 224.625 222.64 224.625 224.183C224.625 225.695 223.93 227.147 222.781 228.055L195.116 249.683C191.609 252.406 189.553 256.762 189.553 261.36V303.619L229.554 303.649V302.53L229.614 303.649L269.615 303.619V261.33C269.615 256.732 267.559 252.406 264.052 249.653L236.387 228.024C235.238 227.117 234.543 225.695 234.543 224.152C234.543 222.64 235.208 221.218 236.387 220.311Z" fill="white"/>
<path opacity="0.4" d="M235.026 222.005C235.329 221.339 235.812 220.764 236.387 220.311L254.709 206.002C256.312 203.582 257.189 200.678 257.189 197.684V144.746L229.614 144.716L229.554 145.835V144.716L189.553 144.746V187.005C189.553 191.603 191.609 195.929 195.116 198.682L222.781 220.311C223.93 221.218 224.625 222.64 224.625 224.183C224.625 224.939 224.444 225.695 224.142 226.361C223.839 227.026 223.356 227.601 222.781 228.055L195.116 249.683C193.907 250.621 192.879 251.771 192.032 253.041C190.43 255.461 189.553 258.365 189.553 261.36V303.619L229.554 303.649V302.53L229.614 303.649L257.189 303.619L257.128 256.913C257.128 249.199 256.493 243.785 251.958 240.245L236.387 228.024C233.575 225.695 234.845 222.428 234.845 222.428C234.875 222.307 234.936 222.156 235.026 222.005Z" fill="white"/>
<path opacity="0.5" d="M269.615 303.619H190.248V306.251H269.615V303.619Z" fill="black"/>
<path d="M258.852 162.473C251.504 162.473 244.762 170.61 229.524 174.149C221.572 176.267 211.624 175.994 199.561 173.605C196.658 173.03 193.967 175.268 193.967 178.233V186.673C193.967 190.091 195.539 193.328 198.23 195.415C217.913 210.903 219.334 211.236 225.926 216.681C226.984 217.558 227.619 218.919 227.619 220.341V278.633C227.619 282.505 226.137 286.165 223.477 288.827L215.011 299.656C211.987 303.528 211.987 303.528 211.987 303.528H247.211L234.996 288.282C232.91 286.135 231.731 283.17 231.731 280.085V220.825C231.731 219.403 232.335 218.072 233.394 217.165C239.985 211.568 232.789 218.072 260.908 195.536C263.538 193.418 265.08 190.212 265.08 186.854V169.46C265.11 166.103 263.75 162.473 258.852 162.473Z" fill="#8F8AD9"/>
<path d="M277.476 312.059H192.909C190.702 312.059 188.888 310.153 188.888 307.824C188.888 305.495 190.672 303.589 192.909 303.589H277.476C279.684 303.589 281.498 305.495 281.498 307.824C281.498 310.183 279.684 312.059 277.476 312.059Z" fill="#21252B"/>
<path d="M272.125 312.059H187.557C185.35 312.059 183.536 310.153 183.536 307.824C183.536 305.495 185.32 303.589 187.557 303.589H272.125C274.332 303.589 276.146 305.495 276.146 307.824C276.116 310.183 274.332 312.059 272.125 312.059Z" fill="#3F4249"/>
<path d="M277.476 150.131H192.909C190.702 150.131 188.888 148.225 188.888 145.896C188.888 143.567 190.672 141.661 192.909 141.661H277.476C279.684 141.661 281.498 143.567 281.498 145.896C281.498 148.225 279.684 150.131 277.476 150.131Z" fill="#21252B"/>
<path d="M272.125 150.131H187.557C185.35 150.131 183.536 148.225 183.536 145.896C183.536 143.567 185.32 141.661 187.557 141.661H272.125C274.332 141.661 276.146 143.567 276.146 145.896C276.116 148.225 274.332 150.131 272.125 150.131Z" fill="#3F4249"/>
</g>
</svg>
