<svg width="194" height="190" viewBox="0 0 194 190" fill="none" xmlns="http://www.w3.org/2000/svg">
<g clip-path="url(#clip0_815_4050)">
<path d="M123.159 43.0054H70.8846C69.6934 43.0068 68.5513 43.4798 67.709 44.3205C66.8667 45.1612 66.3928 46.301 66.3914 47.4899V163.445L65.7923 163.627L52.9685 167.547C52.3607 167.732 51.7043 167.668 51.1432 167.371C50.5822 167.073 50.1624 166.565 49.976 165.959L11.8311 41.6032C11.6455 40.9966 11.7088 40.3413 12.007 39.7813C12.3053 39.2212 12.8141 38.8023 13.4218 38.6165L33.1832 32.5774L90.4723 15.0757L110.234 9.03658C110.534 8.9442 110.85 8.91192 111.164 8.94159C111.477 8.97125 111.781 9.06228 112.059 9.20945C112.337 9.35663 112.583 9.55707 112.784 9.7993C112.984 10.0415 113.134 10.3208 113.226 10.6211L122.977 42.4074L123.159 43.0054Z" fill="#F0F0F0"/>
<path d="M134.566 42.4076L122.815 4.09774C122.619 3.45943 122.3 2.86582 121.874 2.35084C121.449 1.83586 120.926 1.4096 120.335 1.09642C119.744 0.783239 119.098 0.58927 118.432 0.525605C117.766 0.46194 117.095 0.529827 116.455 0.725379L88.6719 9.21309L31.3858 26.7177L3.6025 35.2084C2.31183 35.6039 1.23114 36.4944 0.597631 37.6844C-0.0358776 38.8744 -0.170444 40.2666 0.223475 41.5555L40.3873 172.483C40.7073 173.523 41.353 174.434 42.2296 175.081C43.1062 175.728 44.1676 176.078 45.2581 176.079C45.7627 176.08 46.2646 176.004 46.7467 175.855L65.7922 170.037L66.3913 169.852V169.227L65.7922 169.409L46.5701 175.284C45.4308 175.631 44.2003 175.512 43.1485 174.954C42.0967 174.397 41.3095 173.446 40.9595 172.309L0.798736 41.3791C0.625323 40.8161 0.564884 40.2245 0.620878 39.6382C0.676871 39.0519 0.848193 38.4823 1.12504 37.9622C1.4019 37.442 1.77884 36.9815 2.23427 36.6069C2.68971 36.2324 3.2147 35.9512 3.77918 35.7794L31.5625 27.2887L88.8487 9.78712L116.632 1.29641C117.06 1.166 117.505 1.09951 117.953 1.09909C118.914 1.10125 119.848 1.41037 120.62 1.98118C121.392 2.55199 121.961 3.35449 122.243 4.27115L133.94 42.4076L134.126 43.0055H134.749L134.566 42.4076Z" fill="#E5E5E5"/>
<path d="M36.7491 38.7145C36.1718 38.7141 35.6098 38.529 35.1455 38.1865C34.6813 37.8439 34.3393 37.3619 34.1696 36.8111L30.3113 24.2329C30.2076 23.8951 30.1716 23.5401 30.2054 23.1884C30.2392 22.8366 30.3421 22.495 30.5082 22.1829C30.6743 21.8708 30.9003 21.5945 31.1735 21.3696C31.4466 21.1448 31.7614 20.9758 32.1 20.8724L84.8027 4.76888C85.4863 4.56066 86.2249 4.63168 86.8561 4.96634C87.4874 5.301 87.9599 5.87197 88.1698 6.55393L92.0282 19.1322C92.2366 19.8146 92.1654 20.5516 91.8301 21.1816C91.4948 21.8117 90.9228 22.2832 90.2396 22.4928L37.5368 38.5964C37.2816 38.6746 37.0161 38.7144 36.7491 38.7145Z" fill="#E5E5E5"/>
<path d="M56.9607 13.9399C60.2695 13.9399 62.9518 11.2629 62.9518 7.96057C62.9518 4.65826 60.2695 1.9812 56.9607 1.9812C53.652 1.9812 50.9697 4.65826 50.9697 7.96057C50.9697 11.2629 53.652 13.9399 56.9607 13.9399Z" fill="#E5E5E5"/>
<path d="M56.9607 11.747C59.0559 11.747 60.7544 10.0518 60.7544 7.96064C60.7544 5.86951 59.0559 4.17432 56.9607 4.17432C54.8655 4.17432 53.167 5.86951 53.167 7.96064C53.167 10.0518 54.8655 11.747 56.9607 11.747Z" fill="white"/>
<path d="M180.52 174.552H79.272C78.597 174.551 77.9498 174.283 77.4724 173.806C76.9951 173.33 76.7266 172.684 76.7258 172.01V50.9282C76.7266 50.2544 76.9951 49.6085 77.4724 49.1321C77.9498 48.6557 78.597 48.3877 79.272 48.387H180.52C181.195 48.3877 181.842 48.6557 182.32 49.1321C182.797 49.6085 183.066 50.2545 183.066 50.9282V172.01C183.066 172.684 182.797 173.33 182.32 173.806C181.842 174.283 181.195 174.551 180.52 174.552Z" fill="#F0F0F0"/>
<path d="M133.94 42.4075H70.8846C69.5346 42.4094 68.2405 42.9455 67.2859 43.8982C66.3313 44.8509 65.7941 46.1426 65.7922 47.4899V169.409L66.3913 169.227V47.4899C66.3928 46.301 66.8666 45.1612 67.709 44.3205C68.5513 43.4798 69.6934 43.0069 70.8846 43.0054H134.126L133.94 42.4075ZM188.908 42.4075H70.8846C69.5346 42.4094 68.2405 42.9455 67.2859 43.8982C66.3313 44.8509 65.7941 46.1426 65.7922 47.4899V184.417C65.7941 185.765 66.3313 187.056 67.2859 188.009C68.2405 188.962 69.5346 189.498 70.8846 189.5H188.908C190.258 189.498 191.552 188.962 192.506 188.009C193.461 187.056 193.998 185.765 194 184.417V47.4899C193.998 46.1426 193.461 44.8509 192.506 43.8982C191.552 42.9455 190.258 42.4094 188.908 42.4075ZM193.401 184.417C193.399 185.606 192.926 186.746 192.083 187.587C191.241 188.428 190.099 188.901 188.908 188.902H70.8846C69.6934 188.901 68.5513 188.428 67.709 187.587C66.8666 186.746 66.3928 185.606 66.3913 184.417V47.4899C66.3928 46.301 66.8666 45.1612 67.709 44.3205C68.5513 43.4798 69.6934 43.0069 70.8846 43.0054H188.908C190.099 43.0069 191.241 43.4798 192.083 44.3205C192.926 45.1612 193.399 46.301 193.401 47.4899V184.417Z" fill="#E5E5E5"/>
<path d="M157.455 55.5622H102.338C101.623 55.5614 100.938 55.2776 100.432 54.7732C99.9267 54.2688 99.6424 53.5848 99.6416 52.8714V39.7168C99.6424 39.0035 99.9267 38.3195 100.432 37.8151C100.938 37.3107 101.623 37.0269 102.338 37.0261H157.455C158.17 37.0269 158.855 37.3107 159.36 37.8151C159.866 38.3195 160.15 39.0035 160.151 39.7168V52.8714C160.15 53.5848 159.866 54.2688 159.36 54.7732C158.855 55.2776 158.17 55.5614 157.455 55.5622Z" fill="#E5E5E5"/>
<path d="M129.896 37.9231C133.205 37.9231 135.887 35.246 135.887 31.9437C135.887 28.6414 133.205 25.9644 129.896 25.9644C126.587 25.9644 123.905 28.6414 123.905 31.9437C123.905 35.246 126.587 37.9231 129.896 37.9231Z" fill="#E5E5E5"/>
<path d="M129.896 35.5857C131.912 35.5857 133.545 33.9552 133.545 31.9438C133.545 29.9323 131.912 28.3018 129.896 28.3018C127.881 28.3018 126.247 29.9323 126.247 31.9438C126.247 33.9552 127.881 35.5857 129.896 35.5857Z" fill="white"/>
</g>
<defs>
<clipPath id="clip0_815_4050">
<rect width="194" height="189" fill="white" transform="translate(0 0.5)"/>
</clipPath>
</defs>
</svg>
