<svg width="420" height="315" viewBox="0 0 420 315" fill="none" xmlns="http://www.w3.org/2000/svg">
<path d="M367.658 129.281L329.175 51.8701C326.603 46.7251 321.221 43.6013 315.499 43.9163L118.335 55.2563C113.951 55.5188 109.909 57.7501 107.389 61.3726L53.4188 138.653C51.6338 141.225 50.7151 144.296 50.8463 147.42L55.6238 270.769H362.408L369.18 136.395C369.285 133.928 368.76 131.486 367.658 129.281Z" fill="#F3F3F3"/>
<path d="M156.187 204.382C155.794 201.836 153.667 200.051 151.174 199.999H148.444L147.367 200.261V200.419L124.215 203.359C121.301 203.726 118.912 205.826 118.177 208.661L102.034 270.743H105.919L121.826 209.606C122.167 208.241 123.296 207.27 124.687 207.086L150.885 203.752C151.646 203.647 152.329 204.172 152.434 204.934L162.461 270.743H166.267L156.187 204.382Z" fill="#858990"/>
<path d="M103.478 270.769H99.5925L115.736 208.687C116.471 205.826 118.86 203.752 121.774 203.385L147.971 200.051C150.78 199.684 153.3 201.6 153.72 204.382L163.853 270.769H160.046L150.019 204.96C149.914 204.199 149.231 203.7 148.47 203.779L122.246 207.112C120.855 207.296 119.726 208.267 119.385 209.632L103.478 270.769Z" fill="#B1B5BA"/>
<path d="M78.6975 222.81L65.5462 168C65.1525 166.346 66.4125 164.771 68.0925 164.771H64.5225C62.8162 164.771 61.5825 166.346 61.9762 168L75.1275 222.81L117.836 222.889L78.6975 222.81Z" fill="#858990"/>
<path d="M106.811 166.74C106.523 165.559 105.473 164.745 104.265 164.745H68.0925C66.3863 164.745 65.1525 166.32 65.5463 167.974L78.6975 222.784L120.645 222.863L106.811 166.74Z" fill="#61656D"/>
<path d="M163.695 226.59H106.916C105.866 226.59 105.026 225.75 105.026 224.7C105.026 223.65 105.866 222.81 106.916 222.81H163.695C164.745 222.81 165.585 223.65 165.585 224.7C165.585 225.75 164.719 226.59 163.695 226.59Z" fill="#61656D"/>
<path d="M121.511 226.59H73.0799C72.0299 226.59 71.1899 225.75 71.1899 224.7C71.1899 223.65 72.0299 222.81 73.0799 222.81H121.511C122.561 222.81 123.401 223.65 123.401 224.7C123.401 225.75 122.561 226.59 121.511 226.59Z" fill="#858990"/>
<path d="M128.809 224.044C129.071 224.805 128.835 225.54 128.362 226.039C128.021 226.38 127.549 226.59 127.024 226.59H73.08C72.8437 226.59 72.6075 226.538 72.3975 226.459L73.3425 222.81H127.024C127.811 222.81 128.572 223.283 128.809 224.044Z" fill="#858990"/>
<path d="M79.5637 223.86L82.7662 211.601H83.1862L80.0625 223.86H79.5637Z" fill="#858990"/>
<path d="M117.626 204.382C117.232 201.836 115.106 200.051 112.612 199.999H109.882L108.806 200.261V200.419L85.6537 203.359C82.7399 203.726 80.3512 205.826 79.6162 208.661L63.4724 270.743H67.3574L83.2649 209.606C83.6062 208.241 84.7349 207.27 86.1262 207.086L112.324 203.752C113.085 203.647 113.767 204.172 113.872 204.934L123.9 270.743H127.706L117.626 204.382Z" fill="#858990"/>
<path d="M64.9163 270.769H61.0312L77.1488 208.687C77.8837 205.826 80.2725 203.752 83.1863 203.385L109.384 200.051C112.193 199.684 114.713 201.6 115.133 204.382L125.265 270.769H121.459L111.431 204.96C111.326 204.199 110.644 203.7 109.883 203.779L83.685 207.112C82.2937 207.296 81.165 208.267 80.8237 209.632L64.9163 270.769Z" fill="#B1B5BA"/>
<g opacity="0.1">
<path opacity="0.1" d="M253.103 84.4988H239.978V96.7838H253.103V84.4988Z" fill="black"/>
</g>
<path d="M322.901 65.8612H220.946V133.481H322.901V65.8612Z" fill="white"/>
<path d="M324.424 65.8612H322.901V133.481H324.424V65.8612Z" fill="#E2E2E2"/>
<path d="M320.355 68.5387H223.86V131.066H320.355V68.5387Z" fill="#ECECEC"/>
<path d="M225.724 68.5387H223.86V131.066H225.724V68.5387Z" fill="#E2E2E2"/>
<path d="M252.079 82.8712H238.954V95.1562H252.079V82.8712Z" fill="white"/>
<path d="M240.581 86.7825H250.163C250.268 86.7825 250.346 86.8612 250.346 86.9662C250.346 87.0712 250.268 87.15 250.163 87.15H240.608C240.503 87.15 240.424 87.0712 240.424 86.9662C240.398 86.8612 240.476 86.7825 240.581 86.7825Z" fill="#ECECEC"/>
<path d="M240.581 88.725H250.163C250.268 88.725 250.346 88.8037 250.346 88.9087C250.346 89.0137 250.268 89.0925 250.163 89.0925H240.608C240.503 89.0925 240.424 89.0137 240.424 88.9087C240.398 88.8037 240.476 88.725 240.581 88.725Z" fill="#ECECEC"/>
<path d="M240.581 90.6412H250.163C250.268 90.6412 250.346 90.72 250.346 90.825C250.346 90.93 250.268 91.0087 250.163 91.0087H240.608C240.503 91.0087 240.424 90.93 240.424 90.825C240.398 90.7462 240.476 90.6412 240.581 90.6412Z" fill="#ECECEC"/>
<path d="M241.579 92.5837H248.876C248.981 92.5837 249.06 92.6625 249.06 92.7675C249.06 92.8725 248.981 92.9512 248.876 92.9512H241.579C241.474 92.9512 241.395 92.8725 241.395 92.7675C241.395 92.6625 241.474 92.5837 241.579 92.5837Z" fill="#ECECEC"/>
<g opacity="0.1">
<path opacity="0.1" d="M248.377 106.995H263.182V120.855C263.182 120.855 254.179 123.427 251.58 120.802C249.112 118.361 248.377 106.995 248.377 106.995Z" fill="black"/>
</g>
<path d="M247.721 106.129H262.526V119.989C262.526 119.989 253.207 119.989 250.687 117.521C248.299 115.211 247.721 106.129 247.721 106.129Z" fill="white"/>
<path d="M249.559 110.565H260.347C260.452 110.565 260.557 110.67 260.557 110.775C260.557 110.88 260.452 110.985 260.347 110.985H249.559C249.454 110.985 249.349 110.88 249.349 110.775C249.349 110.644 249.454 110.565 249.559 110.565Z" fill="#ECECEC"/>
<path d="M249.559 111.221H260.347C260.452 111.221 260.557 111.326 260.557 111.431C260.557 111.536 260.452 111.641 260.347 111.641H249.559C249.454 111.641 249.349 111.536 249.349 111.431C249.349 111.3 249.454 111.221 249.559 111.221Z" fill="#ECECEC"/>
<path d="M249.559 114.922H260.347C260.452 114.922 260.557 115.027 260.557 115.132C260.557 115.237 260.452 115.342 260.347 115.342H249.559C249.454 115.342 249.349 115.237 249.349 115.132C249.349 115.027 249.454 114.922 249.559 114.922Z" fill="#ECECEC"/>
<path d="M250.688 117.101H258.904C259.009 117.101 259.114 117.206 259.114 117.311C259.114 117.416 259.009 117.521 258.904 117.521H250.688C250.583 117.521 250.478 117.416 250.478 117.311C250.478 117.206 250.556 117.101 250.688 117.101Z" fill="#ECECEC"/>
<path opacity="0.1" d="M300.563 100.931H285.259V116.235H300.563V100.931Z" fill="black"/>
<path d="M298.883 99.5138H283.579V114.818H298.883V99.5138Z" fill="white"/>
<path opacity="0.15" d="M291.9 101.588C291.9 101.955 291.611 102.244 291.244 102.244C290.876 102.244 290.587 101.955 290.587 101.588C290.587 101.22 290.876 100.931 291.244 100.931C291.585 100.931 291.9 101.22 291.9 101.588Z" fill="black"/>
<path opacity="0.15" d="M255.623 107.678C255.623 108.045 255.334 108.334 254.966 108.334C254.599 108.334 254.31 108.045 254.31 107.678C254.31 107.31 254.599 107.021 254.966 107.021C255.334 106.995 255.623 107.31 255.623 107.678Z" fill="black"/>
<path opacity="0.1" d="M257.302 76.9387C257.302 76.9387 267.829 74.9962 270.454 77.6212C273.079 80.2462 272.16 91.7963 272.16 91.7963H257.302V76.9387Z" fill="black"/>
<path d="M255.596 74.8125C255.596 74.8125 264.469 73.5263 267.094 76.1776C269.719 78.8026 270.454 89.6963 270.454 89.6963H255.596V74.8125Z" fill="#E2E2E2"/>
<path opacity="0.15" d="M245.726 84.3675C245.726 84.63 245.516 84.84 245.254 84.84C244.991 84.84 244.781 84.63 244.781 84.3675C244.781 84.105 244.991 83.895 245.254 83.895C245.49 83.895 245.726 84.105 245.726 84.3675Z" fill="black"/>
<path opacity="0.15" d="M263.55 76.1775C263.55 76.4662 263.314 76.6762 263.051 76.6762C262.762 76.6762 262.552 76.44 262.552 76.1775C262.552 75.915 262.789 75.6787 263.051 75.6787C263.314 75.6787 263.55 75.8887 263.55 76.1775Z" fill="black"/>
<path d="M267.435 79.905H258.799C258.458 79.905 258.195 79.6425 258.195 79.3013C258.195 78.96 258.458 78.6975 258.799 78.6975H267.435C267.776 78.6975 268.039 78.96 268.039 79.3013C268.039 79.6163 267.776 79.905 267.435 79.905Z" fill="#B1B5BA"/>
<path d="M267.855 82.0574H258.352C258.247 82.0574 258.169 81.9787 258.169 81.8737C258.169 81.7687 258.247 81.6899 258.352 81.6899H267.855C267.96 81.6899 268.039 81.7687 268.039 81.8737C268.039 81.9787 267.96 82.0574 267.855 82.0574Z" fill="#B1B5BA"/>
<path d="M267.855 84.1838H258.352C258.247 84.1838 258.169 84.105 258.169 84C258.169 83.895 258.247 83.8163 258.352 83.8163H267.855C267.96 83.8163 268.039 83.895 268.039 84C268.039 84.105 267.96 84.1838 267.855 84.1838Z" fill="#B1B5BA"/>
<path d="M267.855 86.3362H258.352C258.247 86.3362 258.169 86.2575 258.169 86.1525C258.169 86.0475 258.247 85.9688 258.352 85.9688H267.855C267.96 85.9688 268.039 86.0475 268.039 86.1525C268.039 86.2575 267.96 86.3362 267.855 86.3362Z" fill="#B1B5BA"/>
<path d="M295.312 105.184H285.81C285.705 105.184 285.626 105.105 285.626 105C285.626 104.895 285.705 104.816 285.81 104.816H295.312C295.417 104.816 295.496 104.895 295.496 105C295.496 105.105 295.417 105.184 295.312 105.184Z" fill="#B1B5BA"/>
<path d="M295.312 107.336H285.81C285.705 107.336 285.626 107.258 285.626 107.153C285.626 107.048 285.705 106.969 285.81 106.969H295.312C295.417 106.969 295.496 107.048 295.496 107.153C295.496 107.258 295.417 107.336 295.312 107.336Z" fill="#B1B5BA"/>
<path d="M294 109.489H285.81C285.705 109.489 285.626 109.41 285.626 109.305C285.626 109.2 285.705 109.121 285.81 109.121H294C294.105 109.121 294.184 109.2 294.184 109.305C294.157 109.41 294.079 109.489 294 109.489Z" fill="#B1B5BA"/>
<path opacity="0.1" d="M313.11 79.0649H286.702V91.3237H313.11V79.0649Z" fill="black"/>
<path d="M312.034 77.9888H285.626V90.2475H312.034V77.9888Z" fill="#E2E2E2"/>
<path d="M366.555 271.084H51.6338C51.5551 271.084 51.4763 271.031 51.4763 270.926C51.4763 270.848 51.5288 270.769 51.6338 270.769H366.581C366.66 270.769 366.739 270.821 366.739 270.926C366.739 271.031 366.66 271.084 366.555 271.084Z" fill="#B2B6BB"/>
<path d="M101.018 137.434H129.919V97.4554H101.018V137.434Z" fill="white"/>
<path d="M104.877 133.733H126.061V101.156H104.877V133.733Z" fill="#DDDDDD"/>
<path d="M130.778 97.4399H129.938V137.419H130.778V97.4399Z" fill="#DADDDF"/>
<path d="M110.521 128.431H120.443V112.681H110.521V128.431Z" fill="#B1B5BA"/>
<path d="M115.474 110.722C118.177 110.722 120.356 108.544 120.356 105.84H110.565C110.591 108.517 112.77 110.722 115.474 110.722Z" fill="#8F8AD9"/>
<path d="M292.635 188.239L288.461 167.764" stroke="#868A91" stroke-width="0.4628" stroke-miterlimit="10"/>
<path d="M293.79 160.86L293.212 187.477" stroke="#868A91" stroke-width="0.4628" stroke-miterlimit="10"/>
<path d="M299.854 165.795L293.501 173.775" stroke="#868A91" stroke-width="0.4628" stroke-miterlimit="10"/>
<path d="M295.785 193.331L295.155 192.386C294.525 191.441 294.184 190.313 294.184 189.184V186.926H291.743V189.184C291.743 190.339 291.401 191.441 290.771 192.386L290.141 193.331C288.829 195.326 288.409 197.768 288.986 200.104L289.695 202.913H296.205L296.914 200.104C297.518 197.794 297.098 195.326 295.785 193.331Z" fill="#61656D"/>
<path opacity="0.2" d="M295.785 193.331L295.155 192.386C294.525 191.441 294.184 190.313 294.184 189.184V186.926H293.475V189.184C293.475 190.339 293.764 191.284 294.289 192.386L294.998 193.751C296.783 197.768 293.423 202.913 293.423 202.913H296.205L296.914 200.104C297.518 197.794 297.098 195.326 295.785 193.331Z" fill="black"/>
<path d="M291.008 180.232L298.568 173.985" stroke="#868A91" stroke-width="0.4628" stroke-miterlimit="10"/>
<path d="M285.311 178.841L292.005 185.141" stroke="#868A91" stroke-width="0.4628" stroke-miterlimit="10"/>
<path d="M296.074 170.546L297.124 165.953C297.491 164.325 299.46 163.642 300.772 164.666C302.085 165.716 301.849 167.764 300.326 168.499L296.074 170.546Z" fill="#78D494"/>
<path d="M301.612 166.504C301.612 167.317 301.166 168.131 300.326 168.525L296.074 170.572L300.746 164.719C301.35 165.139 301.612 165.821 301.612 166.504Z" fill="#66B47D"/>
<path d="M293.659 168.499L290.666 162.278C289.59 160.073 291.217 157.5 293.659 157.5C296.126 157.5 297.727 160.073 296.651 162.278L293.659 168.499Z" fill="#78D494"/>
<path opacity="0.3" d="M293.79 157.526L293.659 168.499L296.651 162.278C297.701 160.125 296.179 157.631 293.79 157.526Z" fill="white"/>
<path d="M290.325 176.794L285.941 171.596C284.393 169.733 285.311 166.898 287.648 166.294C289.984 165.69 292.163 167.764 291.664 170.126L290.325 176.794Z" fill="#66B47D"/>
<path opacity="0.3" d="M291.69 170.126C292.163 167.764 290.01 165.69 287.674 166.294L290.351 176.768L291.69 170.126Z" fill="white"/>
<path d="M289.721 182.989L287.726 178.001C287.018 176.216 284.708 175.796 283.421 177.214C282.135 178.631 282.765 180.889 284.576 181.44L289.721 182.989Z" fill="#78D494"/>
<path opacity="0.3" d="M283.5 177.135L289.695 182.989L287.7 178.001C287.044 176.269 284.812 175.822 283.5 177.135Z" fill="#78D494"/>
<path d="M293.029 178.631L295.208 173.381C295.969 171.517 298.436 171.097 299.775 172.594C301.114 174.09 300.431 176.505 298.489 177.056L293.029 178.631Z" fill="#66B47D"/>
<path d="M293.239 185.01L303.555 179.34" stroke="#868A91" stroke-width="0.4628" stroke-miterlimit="10"/>
<path d="M294.919 184.065L298.646 178.946C299.985 177.135 302.767 177.319 303.817 179.314C304.867 181.309 303.502 183.724 301.245 183.829L294.919 184.065Z" fill="#78D494"/>
<path d="M303.949 182.017C303.503 183.015 302.505 183.776 301.271 183.829L294.945 184.091L303.87 179.34C304.316 180.206 304.316 181.204 303.949 182.017Z" fill="#66B47D"/>
<path opacity="0.3" d="M295.208 173.381L293.029 178.631L299.775 172.594C298.41 171.097 295.969 171.517 295.208 173.381Z" fill="white"/>
<path d="M331.774 205.223H328.729L337.89 270.769H339.071L331.774 205.223Z" fill="#B1B5BA"/>
<path d="M271.163 270.769H272.37L281.505 205.223H278.46L271.163 270.769Z" fill="#B1B5BA"/>
<path d="M339.071 270.769H338.546L330.697 207.034C330.645 206.588 330.277 206.246 329.831 206.194L328.834 206.089L328.702 205.196H331.747L339.071 270.769Z" fill="#858990"/>
<path d="M271.924 270.769L280.088 207.113C280.14 206.64 279.825 206.194 279.379 206.115L278.408 205.905L278.486 205.196H281.531L272.37 270.769H271.924Z" fill="#858990"/>
<path d="M341.145 205.223H338.1L347.261 270.769H348.443L341.145 205.223Z" fill="#B1B5BA"/>
<path d="M280.534 270.769H281.741L290.902 205.223H287.857L280.534 270.769Z" fill="#B1B5BA"/>
<path d="M348.443 270.769H347.918L344.846 247.511C344.846 247.511 344.846 247.511 343.901 246.96L338.179 206.089L338.048 205.196H341.093L348.443 270.769Z" fill="#858990"/>
<path d="M281.295 270.769L284.261 247.721C283.185 246.986 283.185 246.986 283.185 246.986L287.831 205.196H290.876L281.715 270.769H281.295Z" fill="#858990"/>
<path d="M282.214 204.041C282.214 204.671 282.739 205.196 283.369 205.196H346.159C346.789 205.196 347.314 204.671 347.314 204.041C347.314 203.411 346.789 202.886 346.159 202.886H283.369C282.739 202.886 282.214 203.411 282.214 204.041Z" fill="#858990"/>
<path d="M273.079 204.041C273.079 204.671 273.604 205.196 274.234 205.196H324.004C324.634 205.196 325.159 204.671 325.159 204.041C325.159 203.411 324.634 202.886 324.004 202.886H274.234C273.604 202.886 273.079 203.411 273.079 204.041Z" fill="#B1B5BA"/>
<path d="M325.972 202.886H307.702C306.39 202.886 305.314 201.81 305.314 200.498C305.314 199.185 306.39 198.109 307.702 198.109H325.972V202.886Z" fill="#858990"/>
<path d="M324.45 202.886H333.664V202.178H330.803V198.791H333.664V198.083H324.45C323.138 198.083 322.061 199.159 322.061 200.471C322.061 201.836 323.138 202.886 324.45 202.886Z" fill="#61656D"/>
<path d="M324.476 202.178H333.007V198.791H324.476C323.557 198.791 322.796 199.553 322.796 200.471C322.796 201.443 323.531 202.178 324.476 202.178Z" fill="white"/>
<path d="M320.224 198.109H304.973C304.631 198.109 304.343 197.82 304.343 197.479V195.064C304.343 194.722 304.631 194.434 304.973 194.434H320.224V198.109Z" fill="#B1B5BA"/>
<path d="M313.635 197.006H308.359C308.227 197.006 308.096 196.901 308.096 196.744V195.904C308.096 195.772 308.201 195.641 308.359 195.641H313.635C313.766 195.641 313.897 195.746 313.897 195.904V196.744C313.897 196.875 313.766 197.006 313.635 197.006Z" fill="#858990"/>
<path d="M317.835 198.109H326.13V194.434H317.835C317.494 194.434 317.205 194.722 317.205 195.064V197.479C317.205 197.82 317.494 198.109 317.835 198.109Z" fill="#858990"/>
<path d="M318.071 197.557H326.13V194.959H318.071C317.914 194.959 317.756 195.09 317.756 195.274V197.242C317.756 197.426 317.888 197.557 318.071 197.557Z" fill="white"/>
<path d="M312.795 194.434H330.829C331.301 194.434 331.695 194.04 331.695 193.568V191.599C331.695 191.126 331.301 190.733 330.829 190.733H312.795V194.434Z" fill="#61656D"/>
<path d="M314.921 193.882H306.626V191.284H314.921C315.079 191.284 315.236 191.415 315.236 191.599V193.567C315.236 193.751 315.105 193.882 314.921 193.882Z" fill="white"/>
<path d="M315.157 190.759H306.022V191.31H314.947C315.105 191.31 315.262 191.441 315.262 191.625V193.594C315.262 193.751 315.131 193.909 314.947 193.909H306.022V194.46H315.157C315.499 194.46 315.787 194.171 315.787 193.83V191.415C315.787 191.048 315.499 190.759 315.157 190.759Z" fill="#858990"/>
<path d="M161.7 255.99C161.989 257.092 162.068 257.512 162.015 258.589L162.041 265.886C161.989 267.146 161.648 268.406 161.018 269.482L160.86 269.745C160.493 270.401 159.784 270.795 159.049 270.795H156.975C156.004 270.795 155.19 270.139 154.954 269.22C154.691 268.144 154.639 267.015 154.849 265.912L156.634 258.116C156.765 257.46 156.923 256.699 157.264 255.99H161.7Z" fill="#8F8AD9"/>
<path d="M189.971 238.875L191.257 252.788C191.336 254.415 191.756 255.413 192.229 256.121L197.269 266.411L195.851 268.328L190.339 265.571L185.482 256.725C185.509 255.229 185.351 254.31 185.062 252.289L182.647 237.274L189.971 238.875Z" fill="#FC9D9D"/>
<path opacity="0.15" d="M191.415 257.46C190.864 256.62 190.129 254.678 189.998 253.785L188.318 248.614C188.265 248.246 187.976 247.958 187.609 247.905L184.249 247.433L184.196 246.698H190.733L191.31 252.788C191.441 253.838 191.678 255.203 192.281 256.121L197.321 266.411L196.455 267.855L191.415 257.46Z" fill="black"/>
<path d="M200.209 268.144L197.321 266.385C195.221 266.726 193.121 265.939 191.756 264.285L185.483 256.725C184.354 259.14 183.96 261.844 184.328 264.495L185.246 270.795H185.955L186.165 264.337C186.191 263.865 186.769 263.655 187.058 264.022L190.864 268.695C191.94 270.034 193.568 270.795 195.3 270.795H201.259C201.731 270.795 202.046 270.322 201.863 269.876C201.548 269.115 200.944 268.511 200.209 268.144Z" fill="#8F8AD9"/>
<path d="M161.989 252.709C161.674 255.334 161.542 257.959 161.595 260.61L161.647 263.76C161.595 265.151 160.466 266.227 159.075 266.227H158.655C157.106 266.227 155.899 264.836 156.109 263.314L156.844 259.586C157.211 257.696 157.342 255.754 157.237 253.837L156.529 241.132L163.091 241.237L161.989 252.709Z" fill="#FC9D9D"/>
<path d="M186.27 150.176L187.189 161.385L188.029 170.756C188.475 175.77 188.764 180.758 188.895 185.798L191.1 246.724H183.934L171.649 166.346C171.57 165.795 171.098 165.401 170.546 165.401C169.969 165.401 169.496 165.848 169.444 166.425L163.013 246.724L156.503 246.671L153.274 188.738C152.591 176.374 153.51 163.984 156.056 151.883L156.476 150.176H186.27Z" fill="#3F4249"/>
<path opacity="0.15" d="M162.566 246.724C162.566 246.724 161.779 254.887 161.726 255.964V255.99C161.621 257.513 161.595 259.061 161.621 260.61L161.674 263.76C161.621 265.099 160.571 266.175 159.233 266.228C160.44 265.309 160.335 263.786 160.361 262.657L160.571 248.85C160.571 248.404 160.256 248.01 159.81 247.931L156.896 247.406L156.87 246.75L162.566 246.724Z" fill="black"/>
<path opacity="0.2" d="M170.52 165.401C170.231 165.401 169.969 165.506 169.759 165.69C169.549 165.874 169.418 166.136 169.418 166.425L163.013 246.724L160.676 246.697L164.614 170.993C164.798 167.869 167.37 165.401 170.52 165.401Z" fill="black"/>
<path opacity="0.2" d="M186.506 152.906L187.189 161.359L187.714 167.186C188.37 174.536 188.79 181.939 189 189.315L191.1 246.697H187.897L183.776 166.819L183.015 152.46H186.48L186.506 152.906Z" fill="black"/>
<path d="M186.454 152.46L186.244 149.599L156.66 149.52L155.925 152.46H186.454Z" fill="#21252B"/>
<path d="M164.587 82.7926C164.587 82.7926 159.547 84.7351 160.571 91.4288C160.939 93.9488 158.524 94.2376 157.185 95.2876C153.694 98.0438 155.321 104.186 157.159 104.318L179.681 116.445C179.681 116.445 188.527 104.37 185.587 98.5163C184.275 95.9176 184.616 95.5763 185.535 93.0826C186.926 89.2501 184.301 87.4388 184.301 87.4388L182.91 87.1501L177.896 75.8363L168.184 82.3726L166.74 82.4251L164.587 82.7926Z" fill="#21252B"/>
<path d="M167.869 90.1163L166.504 100.879C166.477 101.771 167.212 101.955 167.212 101.955C170.1 103.74 172.226 105.42 175.324 104.239C175.901 104.029 176.426 103.766 176.977 103.425L178.5 102.06L178.684 101.168C178.001 100.984 177.607 100.59 177.397 99.9863C177.345 99.8025 177.161 99.5925 177.161 99.4088L177.004 87.2288L167.869 90.1163Z" fill="#FC9D9D"/>
<path d="M174.169 96.9412L173.696 96.9149C170.231 96.6262 167.659 93.6074 167.947 90.1687L168.656 81.4012C168.761 80.2462 169.759 79.3799 170.914 79.4849L179.104 80.1412C180.6 80.2724 181.729 81.5587 181.597 83.0549L180.941 91.2187C180.652 94.6312 177.607 97.2037 174.169 96.9412Z" fill="#FC9D9D"/>
<path d="M174.773 89.1188C175.15 89.1188 175.455 88.8132 175.455 88.4363C175.455 88.0593 175.15 87.7538 174.773 87.7538C174.396 87.7538 174.09 88.0593 174.09 88.4363C174.09 88.8132 174.396 89.1188 174.773 89.1188Z" fill="#21252B"/>
<path d="M175.14 88.7775C175.227 88.7775 175.297 88.7069 175.297 88.62C175.297 88.5331 175.227 88.4625 175.14 88.4625C175.053 88.4625 174.982 88.5331 174.982 88.62C174.982 88.7069 175.053 88.7775 175.14 88.7775Z" fill="white"/>
<path d="M179.996 89.6174C180.373 89.6174 180.679 89.3119 180.679 88.9349C180.679 88.558 180.373 88.2524 179.996 88.2524C179.619 88.2524 179.314 88.558 179.314 88.9349C179.314 89.3119 179.619 89.6174 179.996 89.6174Z" fill="#21252B"/>
<path d="M180.311 89.3026C180.398 89.3026 180.469 89.2319 180.469 89.1451C180.469 89.0582 180.398 88.9875 180.311 88.9875C180.224 88.9875 180.154 89.0582 180.154 89.1451C180.154 89.2319 180.224 89.3026 180.311 89.3026Z" fill="white"/>
<g opacity="0.3">
<path opacity="0.3" d="M177.004 91.5862L176.085 91.5337C175.98 91.5337 175.901 91.4287 175.901 91.3237C175.901 91.2187 176.006 91.14 176.111 91.14L177.03 91.1925C177.266 91.1925 177.45 91.035 177.45 90.7987C177.45 90.5625 177.293 90.3787 177.056 90.3525C176.951 90.3525 176.873 90.2475 176.873 90.1425C176.873 90.0375 176.978 89.9587 177.083 89.9587C177.529 89.985 177.87 90.3525 177.844 90.7987C177.818 91.245 177.45 91.6125 177.004 91.5862Z" fill="black"/>
</g>
<path d="M184.301 87.4126C183.382 86.5988 183.934 85.3126 183.934 85.3126V85.3388C185.64 78.3563 181.177 73.8676 177.135 73.0276C174.825 72.5551 168.709 72.8438 166.74 79.8263C166.451 80.8238 166.372 81.9263 164.587 82.7663C164.587 82.7663 165.637 86.4413 165.926 87.78C166.057 88.3575 167.344 86.2051 167.842 85.9951C167.895 85.9688 168.262 86.6513 168.499 87.0713C168.656 87.3338 169.05 87.3601 169.181 87.0713L169.234 86.9663C169.68 85.995 169.942 84.9451 170.021 83.8688C172.987 83.1863 172.987 80.1676 172.987 80.1676C175.612 86.2838 181.466 84.7613 181.466 84.7613L181.151 88.0426C181.151 88.0426 181.807 87.5438 182.464 86.6776L183.409 87.5438L184.301 87.4126Z" fill="#21252B"/>
<path d="M168.341 90.5363C168.341 90.5363 165.349 90.6676 164.824 87.6751C164.299 84.6826 168 84.2888 168.394 87.2813L168.683 90.5626L168.341 90.5363Z" fill="#FC9D9D"/>
<path opacity="0.3" d="M165.821 86.1526C166.136 85.9426 166.451 85.8638 166.74 85.9426C167.029 86.0213 167.265 86.2051 167.449 86.5463C167.632 86.8876 167.764 87.2813 167.737 87.7013V88.0163C167.737 88.2526 167.344 88.3051 167.344 88.0426C167.344 87.7013 167.344 87.7013 167.344 87.7013C167.344 87.5963 167.291 87.0451 167.107 86.7301C166.976 86.4938 166.819 86.3626 166.661 86.3101C166.477 86.2576 166.294 86.3101 166.057 86.4676C165.979 86.5201 165.847 86.4938 165.795 86.4151C165.69 86.3101 165.716 86.2051 165.821 86.1526Z" fill="black"/>
<path d="M180.285 86.2838C179.419 86.2576 178.658 86.5988 178.106 87.2026C177.398 86.8351 176.715 86.94 176.426 87.0188C176.006 86.1 175.14 85.4438 174.064 85.3913C172.568 85.3125 171.281 86.4938 171.229 87.9901C171.15 89.4863 172.331 90.7725 173.828 90.825C175.324 90.8775 176.61 89.7225 176.663 88.2263C176.689 87.9113 176.636 87.5963 176.558 87.3338C176.82 87.2813 177.345 87.2288 177.896 87.4913C177.634 87.885 177.45 88.3575 177.424 88.8825C177.345 90.3788 178.526 91.665 180.023 91.7175C181.519 91.7963 182.805 90.615 182.858 89.1188C182.936 87.6225 181.781 86.3626 180.285 86.2838ZM173.854 90.51C172.541 90.4575 171.518 89.3288 171.596 88.0163C171.649 86.7038 172.778 85.6801 174.09 85.7588C175.403 85.8113 176.426 86.9401 176.348 88.2526C176.269 89.5388 175.14 90.5625 173.854 90.51ZM180.049 91.3763C178.736 91.3238 177.713 90.195 177.791 88.8825C177.844 87.57 178.973 86.5463 180.285 86.625C181.598 86.6775 182.621 87.8063 182.543 89.1188C182.464 90.4313 181.361 91.455 180.049 91.3763Z" fill="white"/>
<path d="M167.58 90.0637C167.913 90.0637 168.184 89.7933 168.184 89.4599C168.184 89.1266 167.913 88.8562 167.58 88.8562C167.247 88.8562 166.976 89.1266 166.976 89.4599C166.976 89.7933 167.247 90.0637 167.58 90.0637Z" fill="#8F8AD9"/>
<path opacity="0.15" d="M167.764 89.9588C167.396 89.9326 167.134 89.6438 167.16 89.2763C167.16 89.1451 167.212 89.0401 167.265 88.9351C167.107 89.0401 167.002 89.1976 166.976 89.4076C166.95 89.7488 167.212 90.0113 167.554 90.0376C167.685 90.0376 167.79 90.0113 167.895 89.9326C167.869 89.9588 167.816 89.9851 167.764 89.9588Z" fill="black"/>
<path opacity="0.15" d="M167.816 90.51L168.735 90.615L167.659 91.7963L167.816 90.51Z" fill="black"/>
<path opacity="0.15" d="M177.161 98.5688C176.794 98.595 174.536 98.8313 172.804 96.915C171.517 96.6 170.625 96.075 170.047 95.6288C169.969 95.5763 169.942 95.445 170.021 95.3663C170.074 95.2875 170.205 95.2613 170.284 95.34C170.73 95.6813 171.439 96.1013 172.384 96.4163C172.436 96.4425 172.489 96.4425 172.541 96.4688C172.672 96.495 172.83 96.5475 172.961 96.5738C172.987 96.5738 173.014 96.5738 173.014 96.5738C173.092 96.6 173.197 96.6 173.302 96.6263C173.539 96.6788 173.801 96.705 174.064 96.7313C175.166 96.81 176.19 96.7575 177.135 96.4163L177.161 98.5688Z" fill="black"/>
<path d="M177.371 92.715C177.45 92.715 177.502 92.82 177.45 92.8987C177.03 93.5025 176.321 93.87 175.586 93.7912C174.851 93.6862 174.247 93.1875 173.985 92.4787C173.959 92.4 174.011 92.295 174.116 92.3213L177.371 92.715Z" fill="white"/>
<path d="M180.784 85.89C175.613 85.8112 173.591 81.1649 173.565 81.1124C173.513 81.0074 173.565 80.8762 173.67 80.8237C173.775 80.7712 173.906 80.8237 173.959 80.9287C173.985 80.9812 175.901 85.3649 180.758 85.4437C180.863 85.4437 180.968 85.5487 180.968 85.6537C180.968 85.8112 180.889 85.89 180.784 85.89Z" fill="#21252B"/>
<path d="M196.56 108.307L211.654 114.87L201.364 118.44L191.73 116.419L196.56 108.307Z" fill="#FC9D9D"/>
<path d="M195.668 117.731L183.383 113.951L185.929 103.215L201.705 110.486L195.668 117.731Z" fill="#8F8AD9"/>
<path d="M155.295 103.346L165.716 101.089L178.815 101.272L185.062 102.9C186.847 103.372 188.186 104.895 188.37 106.732C188.659 109.856 188.16 112.744 188.16 112.744L188.475 115.5C189.84 118.204 190.942 122.272 187.136 126.21C186.506 126.866 186.165 127.706 186.165 128.625C186.165 135.66 186.27 149.572 186.27 149.572L157.001 149.704C156.214 149.704 155.636 148.995 155.767 148.234C156.319 145.084 157.132 140.831 157.736 137.576C158.34 134.4 158.235 131.145 157.421 128.021L154.586 117.022L150.071 110.46C149.887 107.074 152.04 104.107 155.295 103.346Z" fill="#8F8AD9"/>
<path d="M166.53 101.325L175.061 109.121L178.5 105.105L179.156 101.272L178.474 101.089L169.024 97.1775L166.53 101.325Z" fill="#FC9D9D"/>
<path d="M174.51 118.204L180.232 118.414C180.574 118.414 180.81 118.282 180.889 117.967C180.941 117.757 180.81 117.39 180.416 117.337L175.14 116.655C174.589 116.602 174.037 116.602 173.381 116.707L168.262 117.521C167.422 117.652 166.635 118.02 165.979 118.597L150.727 132.09C148.706 133.875 148.785 137.051 150.911 138.705C152.801 140.227 155.584 139.86 157.054 137.944L169.26 121.826L173.119 122.876C173.617 122.902 174.064 122.64 174.3 122.22L175.192 120.514C175.481 119.989 176.111 119.516 176.715 119.411L178.342 119.149L174.51 118.204Z" fill="#FC9D9D"/>
<path opacity="0.15" d="M178.369 119.149L176.925 119.359C176.216 119.49 175.586 119.936 175.219 120.566L174.3 122.22C174.09 122.614 173.67 122.876 173.197 122.876H173.145L174.037 121.669C174.037 121.669 172.777 121.222 172.62 121.117C172.541 121.065 172.62 120.881 172.725 120.881C172.882 120.881 174.221 121.406 174.221 121.406L175.192 120.094C175.192 120.094 173.801 119.726 173.591 119.674C173.512 119.647 173.565 119.332 173.775 119.385C174.3 119.49 175.402 119.831 175.402 119.831L176.032 118.991L174.536 118.44L174.51 118.23L178.369 119.149Z" fill="black"/>
<path d="M178.5 105.105L177.188 99.4875L179.156 101.273L178.5 105.105Z" fill="white"/>
<path d="M169.365 102.585L166.976 106.312L169.916 104.449L169.365 102.585Z" fill="#8F8AD9"/>
<path opacity="0.15" d="M169.365 102.585L166.976 106.759L169.916 104.449L169.365 102.585Z" fill="black"/>
<path opacity="0.15" d="M179.156 101.272L181.571 105.472L178.657 104.16L179.156 101.272Z" fill="black"/>
<path d="M169.365 102.585L166.714 98.595L165.323 101.771L166.976 106.759L169.365 102.585Z" fill="white"/>
<path d="M149.809 116.891L159.705 116.366L158.918 129.465L149.31 135.896L149.809 116.891Z" fill="#FC9D9D"/>
<path d="M160.834 102.113L155.085 103.32C152.145 103.924 149.992 106.47 149.887 109.489L149.441 121.905L159.705 122.168L160.834 102.113Z" fill="#8F8AD9"/>
<path d="M195.405 118.072L194.171 117.259L200.287 109.83L201.705 110.486L195.405 118.072Z" fill="white"/>
<path d="M177.161 123.769C177.161 123.769 177.424 123.874 177.739 123.847C177.975 123.821 178.133 123.742 178.29 123.637C178.29 123.637 178.421 123.454 178.264 123.375C177.923 123.191 177.319 122.981 177.214 122.929L175.928 122.299L175.613 123.454L177.03 124.057L177.161 123.769Z" fill="#FC9D9D"/>
<path d="M178.946 124.11C178.894 123.795 178.579 123.585 178.264 123.637L177.397 123.769C177.24 123.795 177.082 123.769 176.951 123.664L176.557 123.401C176.4 123.296 176.295 123.112 176.269 122.929L175.271 123.611L176.925 124.897C176.925 124.897 178.999 124.32 178.946 124.11Z" fill="#FC9D9D"/>
<path opacity="0.15" d="M178.264 123.637C178.264 123.637 178.369 123.506 178.29 123.401L175.901 122.299L175.586 123.401L175.271 123.611L176.925 124.897C176.925 124.897 178.972 124.32 178.946 124.11C178.894 123.795 178.579 123.585 178.264 123.637Z" fill="black"/>
<path d="M213.885 118.571C213.885 119.385 213.701 120.172 213.334 120.802C212.625 122.062 211.312 122.902 209.501 122.876L184.616 123.165H183.96L183.934 123.217L183.724 123.664C183.697 123.716 183.671 123.742 183.671 123.795C183.645 123.821 183.645 123.847 183.619 123.874C183.225 124.53 182.49 124.871 181.729 124.792C181.676 124.792 181.624 124.792 181.571 124.766C181.44 124.74 181.335 124.714 181.204 124.661L176.925 122.85C176.61 122.719 176.242 122.85 176.111 123.165C176.085 123.244 176.059 123.322 176.059 123.427C176.059 123.637 176.164 123.821 176.347 123.952L176.741 124.215C176.872 124.294 177.03 124.346 177.187 124.32L178.054 124.189C178.369 124.136 178.657 124.346 178.736 124.661C178.736 124.687 178.736 124.74 178.736 124.766C178.736 125.029 178.579 125.239 178.342 125.317L176.321 125.974C176.137 126.026 175.927 126 175.77 125.895L173.749 124.451C173.486 124.267 173.407 123.926 173.565 123.664L175.14 120.697C175.481 120.067 176.085 119.621 176.794 119.49L196.849 116.34L208.635 114.502C210.761 114.24 212.257 115.054 213.097 116.261C213.649 116.891 213.885 117.731 213.885 118.571Z" fill="#FC9D9D"/>
<path opacity="0.15" d="M177.161 123.769C177.161 123.769 176.505 123.48 176.295 122.955C176.295 122.955 176.4 122.876 176.426 122.85C176.426 122.85 176.662 123.349 177.214 123.585C177.214 123.585 177.949 123.585 178.342 123.454C178.342 123.559 178.29 123.611 178.29 123.611C178.132 123.664 177.975 123.769 177.161 123.769Z" fill="black"/>
<path d="M185.351 123.165L183.776 118.23L185.141 117.941L186.769 123.165H185.351Z" fill="#3F4249"/>
<path d="M182.411 118.125C182.359 117.889 182.49 117.652 182.726 117.6L185.692 117.075C185.902 117.022 186.112 117.18 186.165 117.39V117.416C186.217 117.652 186.06 117.889 185.824 117.915L182.857 118.414C182.674 118.44 182.464 118.309 182.411 118.125Z" fill="#21252B"/>
<path opacity="0.15" d="M204.54 114.581L200.392 115.237L188.816 111.562C188.396 111.431 187.95 111.772 188.029 112.219L188.475 115.5L192.937 116.891L196.901 116.261H196.927L204.592 115.027C204.724 115.001 204.802 114.896 204.776 114.765C204.776 114.66 204.645 114.555 204.54 114.581Z" fill="black"/>
<path opacity="0.15" d="M159.364 122.141L156.214 122.062L156.004 126.814L154.639 127.995C154.56 128.074 154.534 128.205 154.612 128.31C154.691 128.415 154.822 128.415 154.927 128.336L159.206 124.609L159.364 122.141Z" fill="black"/>
<path d="M149.441 121.905V120.172L159.416 120.435L159.337 122.141L149.441 121.905Z" fill="white"/>
<path opacity="0.15" d="M160.44 114.109L161.989 122.167L159.206 124.635L159.81 114.161C159.836 113.767 160.388 113.741 160.44 114.109Z" fill="black"/>
<path d="M237.037 191.179L261.056 172.41C264.101 170.047 265.886 166.267 265.886 162.277V125.606L231.157 125.58L231.105 126.551V125.58L196.376 125.606V162.277C196.376 166.267 198.161 170.021 201.206 172.41L225.225 191.179C226.222 191.966 226.826 193.2 226.826 194.539C226.826 195.851 226.222 197.111 225.225 197.899L201.206 216.667C198.161 219.03 196.376 222.81 196.376 226.8V263.471L231.105 263.497V262.526L231.157 263.497L265.886 263.471V226.774C265.886 222.784 264.101 219.03 261.056 216.641L237.037 197.872C236.04 197.085 235.436 195.851 235.436 194.512C235.436 193.2 236.014 191.966 237.037 191.179Z" fill="#8F8AD9"/>
<path opacity="0.6" d="M237.037 191.179L261.056 172.41C264.101 170.047 265.886 166.267 265.886 162.277V125.606L231.157 125.58L231.105 126.551V125.58L196.376 125.606V162.277C196.376 166.267 198.161 170.021 201.206 172.41L225.225 191.179C226.222 191.966 226.826 193.2 226.826 194.539C226.826 195.851 226.222 197.111 225.225 197.899L201.206 216.667C198.161 219.03 196.376 222.81 196.376 226.8V263.471L231.105 263.497V262.526L231.157 263.497L265.886 263.471V226.774C265.886 222.784 264.101 219.03 261.056 216.641L237.037 197.872C236.04 197.085 235.436 195.851 235.436 194.512C235.436 193.2 236.014 191.966 237.037 191.179Z" fill="white"/>
<path opacity="0.4" d="M235.856 192.649C236.119 192.071 236.539 191.572 237.037 191.179L252.945 178.762C254.336 176.662 255.097 174.142 255.097 171.544V125.606L231.157 125.58L231.105 126.551V125.58L196.376 125.606V162.277C196.376 166.267 198.161 170.021 201.206 172.41L225.225 191.179C226.222 191.966 226.826 193.2 226.826 194.539C226.826 195.195 226.669 195.851 226.406 196.429C226.144 197.006 225.724 197.505 225.225 197.899L201.206 216.667C200.156 217.481 199.264 218.479 198.529 219.581C197.137 221.681 196.376 224.201 196.376 226.8V263.471L231.105 263.497V262.526L231.157 263.497L255.097 263.471L255.045 222.941C255.045 216.247 254.494 211.549 250.556 208.477L237.037 197.872C234.596 195.851 235.699 193.016 235.699 193.016C235.725 192.911 235.777 192.78 235.856 192.649Z" fill="white"/>
<path opacity="0.5" d="M265.886 263.471H196.98V265.755H265.886V263.471Z" fill="black"/>
<path d="M256.541 140.989C250.162 140.989 244.309 148.05 231.079 151.121C224.175 152.959 215.539 152.723 205.065 150.649C202.545 150.15 200.209 152.093 200.209 154.665V161.989C200.209 164.955 201.574 167.764 203.91 169.575C220.999 183.015 222.232 183.304 227.955 188.029C228.874 188.79 229.425 189.971 229.425 191.205V241.789C229.425 245.149 228.139 248.325 225.829 250.635L218.479 260.033C215.854 263.393 215.854 263.393 215.854 263.393H246.435L235.83 250.163C234.019 248.299 232.995 245.726 232.995 243.049V191.625C232.995 190.391 233.52 189.236 234.439 188.449C240.161 183.593 233.914 189.236 258.326 169.68C260.61 167.843 261.949 165.06 261.949 162.146V147.053C261.975 144.139 260.794 140.989 256.541 140.989Z" fill="#FF9B35"/>
<path d="M272.711 270.795H199.29C197.374 270.795 195.799 269.141 195.799 267.12C195.799 265.099 197.348 263.445 199.29 263.445H272.711C274.628 263.445 276.203 265.099 276.203 267.12C276.203 269.168 274.628 270.795 272.711 270.795Z" fill="#21252B"/>
<path d="M268.065 270.795H194.644C192.728 270.795 191.153 269.141 191.153 267.12C191.153 265.099 192.701 263.445 194.644 263.445H268.065C269.981 263.445 271.556 265.099 271.556 267.12C271.53 269.168 269.981 270.795 268.065 270.795Z" fill="#3F4249"/>
<path d="M272.711 130.279H199.29C197.374 130.279 195.799 128.625 195.799 126.604C195.799 124.582 197.348 122.929 199.29 122.929H272.711C274.628 122.929 276.203 124.582 276.203 126.604C276.203 128.625 274.628 130.279 272.711 130.279Z" fill="#21252B"/>
<path d="M268.065 130.279H194.644C192.728 130.279 191.153 128.625 191.153 126.604C191.153 124.582 192.701 122.929 194.644 122.929H268.065C269.981 122.929 271.556 124.582 271.556 126.604C271.53 128.625 269.981 130.279 268.065 130.279Z" fill="#3F4249"/>
</svg>
