<svg width="420" height="315" viewBox="0 0 420 315" fill="none" xmlns="http://www.w3.org/2000/svg">
<path d="M367.658 129.281L329.175 51.8701C326.603 46.7251 321.221 43.6013 315.499 43.9163L118.335 55.2563C113.951 55.5188 109.909 57.7501 107.389 61.3726L53.4187 138.653C51.6337 141.225 50.715 144.296 50.8462 147.42L55.6237 270.769H362.408L369.18 136.395C369.285 133.928 368.76 131.486 367.658 129.281Z" fill="#F3F3F3"/>
<path d="M156.187 204.382C155.794 201.836 153.668 200.051 151.174 199.998H148.444L147.368 200.261V200.418L124.215 203.358C121.301 203.726 118.913 205.826 118.178 208.661L102.034 270.742H105.919L121.826 209.606C122.167 208.241 123.296 207.269 124.687 207.086L150.885 203.752C151.646 203.647 152.329 204.172 152.434 204.933L162.461 270.742H166.268L156.187 204.382Z" fill="#858990"/>
<path d="M103.478 270.768H99.5925L115.736 208.687C116.471 205.826 118.86 203.752 121.774 203.385L147.971 200.051C150.78 199.683 153.3 201.6 153.72 204.382L163.853 270.768H160.046L150.019 204.96C149.914 204.198 149.231 203.7 148.47 203.778L122.246 207.112C120.855 207.296 119.726 208.267 119.385 209.632L103.478 270.768Z" fill="#B1B5BA"/>
<path d="M78.6975 222.81L65.5463 168C65.1525 166.346 66.4125 164.771 68.0925 164.771H64.5225C62.8163 164.771 61.5825 166.346 61.9763 168L75.1275 222.81L117.836 222.889L78.6975 222.81Z" fill="#858990"/>
<path d="M106.811 166.74C106.522 165.559 105.472 164.745 104.265 164.745H68.0925C66.3862 164.745 65.1525 166.32 65.5462 167.974L78.6975 222.784L120.645 222.863L106.811 166.74Z" fill="#61656D"/>
<path d="M163.695 226.59H106.916C105.866 226.59 105.026 225.75 105.026 224.7C105.026 223.65 105.866 222.81 106.916 222.81H163.695C164.745 222.81 165.585 223.65 165.585 224.7C165.585 225.75 164.719 226.59 163.695 226.59Z" fill="#61656D"/>
<path d="M121.511 226.59H73.08C72.03 226.59 71.19 225.75 71.19 224.7C71.19 223.65 72.03 222.81 73.08 222.81H121.511C122.561 222.81 123.401 223.65 123.401 224.7C123.401 225.75 122.561 226.59 121.511 226.59Z" fill="#858990"/>
<path d="M128.809 224.043C129.071 224.805 128.835 225.54 128.362 226.038C128.021 226.38 127.549 226.59 127.024 226.59H73.08C72.8437 226.59 72.6075 226.537 72.3975 226.458L73.3425 222.81H127.024C127.811 222.81 128.573 223.282 128.809 224.043Z" fill="#858990"/>
<path d="M79.5638 223.86L82.7662 211.602H83.1862L80.0625 223.86H79.5638Z" fill="#858990"/>
<path d="M117.626 204.382C117.233 201.836 115.106 200.051 112.613 199.998H109.883L108.806 200.261V200.418L85.6537 203.358C82.74 203.726 80.3512 205.826 79.6162 208.661L63.4725 270.742H67.3575L83.265 209.606C83.6063 208.241 84.735 207.269 86.1263 207.086L112.324 203.752C113.085 203.647 113.767 204.172 113.872 204.933L123.9 270.742H127.706L117.626 204.382Z" fill="#858990"/>
<path d="M64.9163 270.768H61.0312L77.1487 208.687C77.8837 205.826 80.2725 203.752 83.1862 203.385L109.384 200.051C112.193 199.683 114.713 201.6 115.133 204.382L125.265 270.768H121.459L111.431 204.96C111.326 204.198 110.644 203.7 109.883 203.778L83.685 207.112C82.2937 207.296 81.165 208.267 80.8237 209.632L64.9163 270.768Z" fill="#B1B5BA"/>
<g opacity="0.1">
<path opacity="0.1" d="M253.103 84.499H239.978V96.784H253.103V84.499Z" fill="black"/>
</g>
<path d="M322.901 65.8613H220.946V133.481H322.901V65.8613Z" fill="white"/>
<path d="M324.424 65.8613H322.901V133.481H324.424V65.8613Z" fill="#E2E2E2"/>
<path d="M320.355 68.5391H223.86V131.067H320.355V68.5391Z" fill="#ECECEC"/>
<path d="M225.724 68.5391H223.86V131.067H225.724V68.5391Z" fill="#E2E2E2"/>
<path d="M252.079 82.8711H238.954V95.1561H252.079V82.8711Z" fill="white"/>
<path d="M240.581 86.7822H250.162C250.267 86.7822 250.346 86.861 250.346 86.966C250.346 87.071 250.267 87.1497 250.162 87.1497H240.607C240.502 87.1497 240.424 87.071 240.424 86.966C240.397 86.861 240.476 86.7822 240.581 86.7822Z" fill="#ECECEC"/>
<path d="M240.581 88.7246H250.162C250.267 88.7246 250.346 88.8034 250.346 88.9084C250.346 89.0134 250.267 89.0921 250.162 89.0921H240.607C240.502 89.0921 240.424 89.0134 240.424 88.9084C240.397 88.8034 240.476 88.7246 240.581 88.7246Z" fill="#ECECEC"/>
<path d="M240.581 90.6416H250.162C250.267 90.6416 250.346 90.7204 250.346 90.8254C250.346 90.9304 250.267 91.0091 250.162 91.0091H240.607C240.502 91.0091 240.424 90.9304 240.424 90.8254C240.397 90.7466 240.476 90.6416 240.581 90.6416Z" fill="#ECECEC"/>
<path d="M241.579 92.584H248.876C248.981 92.584 249.06 92.6627 249.06 92.7677C249.06 92.8727 248.981 92.9515 248.876 92.9515H241.579C241.474 92.9515 241.395 92.8727 241.395 92.7677C241.395 92.6627 241.474 92.584 241.579 92.584Z" fill="#ECECEC"/>
<g opacity="0.1">
<path opacity="0.1" d="M248.378 106.995H263.182V120.855C263.182 120.855 254.179 123.428 251.58 120.803C249.113 118.361 248.378 106.995 248.378 106.995Z" fill="black"/>
</g>
<path d="M247.721 106.129H262.526V119.989C262.526 119.989 253.207 119.989 250.687 117.521C248.299 115.211 247.721 106.129 247.721 106.129Z" fill="white"/>
<path d="M249.559 110.565H260.347C260.452 110.565 260.557 110.67 260.557 110.775C260.557 110.88 260.452 110.985 260.347 110.985H249.559C249.454 110.985 249.349 110.88 249.349 110.775C249.349 110.644 249.454 110.565 249.559 110.565Z" fill="#ECECEC"/>
<path d="M249.559 111.222H260.347C260.452 111.222 260.557 111.327 260.557 111.432C260.557 111.537 260.452 111.642 260.347 111.642H249.559C249.454 111.642 249.349 111.537 249.349 111.432C249.349 111.3 249.454 111.222 249.559 111.222Z" fill="#ECECEC"/>
<path d="M249.559 114.923H260.347C260.452 114.923 260.557 115.028 260.557 115.133C260.557 115.238 260.452 115.343 260.347 115.343H249.559C249.454 115.343 249.349 115.238 249.349 115.133C249.349 115.028 249.454 114.923 249.559 114.923Z" fill="#ECECEC"/>
<path d="M250.688 117.102H258.904C259.009 117.102 259.114 117.207 259.114 117.312C259.114 117.417 259.009 117.522 258.904 117.522H250.688C250.583 117.522 250.478 117.417 250.478 117.312C250.478 117.207 250.556 117.102 250.688 117.102Z" fill="#ECECEC"/>
<path opacity="0.1" d="M300.562 100.932H285.259V116.235H300.562V100.932Z" fill="black"/>
<path d="M298.882 99.5137H283.579V114.817H298.882V99.5137Z" fill="white"/>
<path opacity="0.15" d="M291.9 101.588C291.9 101.955 291.611 102.244 291.244 102.244C290.876 102.244 290.588 101.955 290.588 101.588C290.588 101.22 290.876 100.932 291.244 100.932C291.585 100.932 291.9 101.22 291.9 101.588Z" fill="black"/>
<path opacity="0.15" d="M255.622 107.677C255.622 108.045 255.334 108.334 254.966 108.334C254.599 108.334 254.31 108.045 254.31 107.677C254.31 107.31 254.599 107.021 254.966 107.021C255.334 106.995 255.622 107.31 255.622 107.677Z" fill="black"/>
<path opacity="0.1" d="M257.302 76.9389C257.302 76.9389 267.829 74.9964 270.454 77.6214C273.079 80.2464 272.16 91.7964 272.16 91.7964H257.302V76.9389Z" fill="black"/>
<path d="M255.596 74.8129C255.596 74.8129 264.469 73.5267 267.094 76.1779C269.719 78.8029 270.454 89.6967 270.454 89.6967H255.596V74.8129Z" fill="#E2E2E2"/>
<path opacity="0.15" d="M245.726 84.367C245.726 84.6295 245.516 84.8395 245.254 84.8395C244.991 84.8395 244.781 84.6295 244.781 84.367C244.781 84.1045 244.991 83.8945 245.254 83.8945C245.49 83.8945 245.726 84.1045 245.726 84.367Z" fill="black"/>
<path opacity="0.15" d="M263.55 76.1775C263.55 76.4662 263.314 76.6762 263.051 76.6762C262.762 76.6762 262.552 76.44 262.552 76.1775C262.552 75.915 262.789 75.6787 263.051 75.6787C263.314 75.6787 263.55 75.8887 263.55 76.1775Z" fill="black"/>
<path d="M267.435 79.9048H258.799C258.458 79.9048 258.195 79.6423 258.195 79.301C258.195 78.9598 258.458 78.6973 258.799 78.6973H267.435C267.776 78.6973 268.039 78.9598 268.039 79.301C268.039 79.616 267.776 79.9048 267.435 79.9048Z" fill="#B1B5BA"/>
<path d="M267.855 82.0579H258.353C258.248 82.0579 258.169 81.9792 258.169 81.8742C258.169 81.7692 258.248 81.6904 258.353 81.6904H267.855C267.96 81.6904 268.039 81.7692 268.039 81.8742C268.039 81.9792 267.96 82.0579 267.855 82.0579Z" fill="#B1B5BA"/>
<path d="M267.855 84.1839H258.353C258.248 84.1839 258.169 84.1052 258.169 84.0002C258.169 83.8952 258.248 83.8164 258.353 83.8164H267.855C267.96 83.8164 268.039 83.8952 268.039 84.0002C268.039 84.1052 267.96 84.1839 267.855 84.1839Z" fill="#B1B5BA"/>
<path d="M267.855 86.3362H258.353C258.248 86.3362 258.169 86.2575 258.169 86.1525C258.169 86.0475 258.248 85.9688 258.353 85.9688H267.855C267.96 85.9688 268.039 86.0475 268.039 86.1525C268.039 86.2575 267.96 86.3362 267.855 86.3362Z" fill="#B1B5BA"/>
<path d="M295.312 105.184H285.81C285.705 105.184 285.626 105.105 285.626 105C285.626 104.895 285.705 104.816 285.81 104.816H295.312C295.417 104.816 295.496 104.895 295.496 105C295.496 105.105 295.417 105.184 295.312 105.184Z" fill="#B1B5BA"/>
<path d="M295.312 107.336H285.81C285.705 107.336 285.626 107.258 285.626 107.153C285.626 107.048 285.705 106.969 285.81 106.969H295.312C295.417 106.969 295.496 107.048 295.496 107.153C295.496 107.258 295.417 107.336 295.312 107.336Z" fill="#B1B5BA"/>
<path d="M294 109.489H285.81C285.705 109.489 285.626 109.41 285.626 109.305C285.626 109.2 285.705 109.121 285.81 109.121H294C294.105 109.121 294.184 109.2 294.184 109.305C294.157 109.41 294.079 109.489 294 109.489Z" fill="#B1B5BA"/>
<path opacity="0.1" d="M313.11 79.0654H286.703V91.3242H313.11V79.0654Z" fill="black"/>
<path d="M312.034 77.9883H285.626V90.247H312.034V77.9883Z" fill="#E2E2E2"/>
<path d="M366.555 271.084H51.6338C51.555 271.084 51.4763 271.031 51.4763 270.926C51.4763 270.847 51.5288 270.769 51.6338 270.769H366.581C366.66 270.769 366.739 270.821 366.739 270.926C366.739 271.031 366.66 271.084 366.555 271.084Z" fill="#B2B6BB"/>
<path d="M101.018 137.434H129.919V97.4551H101.018V137.434Z" fill="white"/>
<path d="M104.877 133.733H126.061V101.156H104.877V133.733Z" fill="#DDDDDD"/>
<path d="M130.778 97.4404H129.938V137.419H130.778V97.4404Z" fill="#DADDDF"/>
<path d="M110.521 128.431H120.443V112.681H110.521V128.431Z" fill="#B1B5BA"/>
<path d="M115.474 110.722C118.177 110.722 120.356 108.544 120.356 105.84H110.565C110.591 108.517 112.77 110.722 115.474 110.722Z" fill="#8F8AD9"/>
<path d="M292.635 188.239L288.461 167.764" stroke="#868A91" stroke-width="0.4628" stroke-miterlimit="10"/>
<path d="M293.79 160.86L293.213 187.478" stroke="#868A91" stroke-width="0.4628" stroke-miterlimit="10"/>
<path d="M299.854 165.795L293.501 173.775" stroke="#868A91" stroke-width="0.4628" stroke-miterlimit="10"/>
<path d="M295.785 193.331L295.155 192.386C294.525 191.441 294.184 190.312 294.184 189.183V186.926H291.743V189.183C291.743 190.338 291.401 191.441 290.771 192.386L290.141 193.331C288.829 195.326 288.409 197.767 288.986 200.103L289.695 202.912H296.205L296.914 200.103C297.518 197.793 297.098 195.326 295.785 193.331Z" fill="#61656D"/>
<path opacity="0.2" d="M295.785 193.331L295.155 192.386C294.525 191.441 294.184 190.312 294.184 189.183V186.926H293.475V189.183C293.475 190.338 293.764 191.283 294.289 192.386L294.997 193.751C296.782 197.767 293.422 202.912 293.422 202.912H296.205L296.914 200.103C297.517 197.793 297.097 195.326 295.785 193.331Z" fill="black"/>
<path d="M291.008 180.233L298.568 173.985" stroke="#868A91" stroke-width="0.4628" stroke-miterlimit="10"/>
<path d="M285.311 178.841L292.005 185.141" stroke="#868A91" stroke-width="0.4628" stroke-miterlimit="10"/>
<path d="M296.074 170.546L297.124 165.953C297.491 164.325 299.46 163.642 300.772 164.666C302.085 165.716 301.849 167.764 300.326 168.499L296.074 170.546Z" fill="#78D494"/>
<path d="M301.612 166.504C301.612 167.317 301.166 168.131 300.326 168.525L296.074 170.572L300.746 164.719C301.35 165.139 301.612 165.821 301.612 166.504Z" fill="#66B47D"/>
<path d="M293.659 168.499L290.666 162.278C289.59 160.073 291.217 157.5 293.659 157.5C296.126 157.5 297.728 160.073 296.651 162.278L293.659 168.499Z" fill="#78D494"/>
<path opacity="0.3" d="M293.79 157.526L293.659 168.499L296.651 162.278C297.701 160.125 296.179 157.631 293.79 157.526Z" fill="white"/>
<path d="M290.325 176.793L285.941 171.596C284.393 169.732 285.311 166.897 287.648 166.293C289.984 165.69 292.162 167.763 291.664 170.126L290.325 176.793Z" fill="#66B47D"/>
<path opacity="0.3" d="M291.69 170.126C292.162 167.763 290.01 165.69 287.674 166.293L290.351 176.767L291.69 170.126Z" fill="white"/>
<path d="M289.721 182.989L287.726 178.001C287.018 176.216 284.708 175.796 283.421 177.214C282.135 178.631 282.765 180.889 284.576 181.44L289.721 182.989Z" fill="#78D494"/>
<path opacity="0.3" d="M283.5 177.135L289.695 182.989L287.7 178.001C287.044 176.269 284.812 175.823 283.5 177.135Z" fill="#78D494"/>
<path d="M293.029 178.632L295.207 173.382C295.969 171.518 298.436 171.098 299.775 172.594C301.114 174.09 300.431 176.505 298.489 177.057L293.029 178.632Z" fill="#66B47D"/>
<path d="M293.239 185.01L303.555 179.34" stroke="#868A91" stroke-width="0.4628" stroke-miterlimit="10"/>
<path d="M294.919 184.065L298.646 178.946C299.985 177.135 302.768 177.319 303.818 179.314C304.868 181.309 303.503 183.724 301.245 183.829L294.919 184.065Z" fill="#78D494"/>
<path d="M303.949 182.017C303.503 183.015 302.505 183.776 301.271 183.829L294.945 184.091L303.87 179.34C304.316 180.206 304.316 181.204 303.949 182.017Z" fill="#66B47D"/>
<path opacity="0.3" d="M295.207 173.382L293.029 178.632L299.775 172.594C298.41 171.098 295.969 171.518 295.207 173.382Z" fill="white"/>
<path d="M331.774 205.223H328.729L337.89 270.769H339.071L331.774 205.223Z" fill="#B1B5BA"/>
<path d="M271.162 270.769H272.37L281.505 205.223H278.46L271.162 270.769Z" fill="#B1B5BA"/>
<path d="M339.071 270.769H338.546L330.698 207.034C330.645 206.588 330.278 206.246 329.831 206.194L328.834 206.089L328.703 205.196H331.748L339.071 270.769Z" fill="#858990"/>
<path d="M271.924 270.769L280.088 207.113C280.14 206.64 279.825 206.194 279.379 206.115L278.408 205.905L278.486 205.196H281.531L272.37 270.769H271.924Z" fill="#858990"/>
<path d="M341.145 205.223H338.1L347.261 270.769H348.442L341.145 205.223Z" fill="#B1B5BA"/>
<path d="M280.534 270.769H281.741L290.903 205.223H287.858L280.534 270.769Z" fill="#B1B5BA"/>
<path d="M348.442 270.769H347.917L344.846 247.511C344.846 247.511 344.846 247.511 343.901 246.96L338.179 206.089L338.047 205.196H341.092L348.442 270.769Z" fill="#858990"/>
<path d="M281.295 270.769L284.261 247.721C283.185 246.986 283.185 246.986 283.185 246.986L287.831 205.196H290.876L281.715 270.769H281.295Z" fill="#858990"/>
<path d="M282.214 204.042C282.214 204.672 282.739 205.197 283.369 205.197H346.159C346.789 205.197 347.314 204.672 347.314 204.042C347.314 203.412 346.789 202.887 346.159 202.887H283.369C282.739 202.887 282.214 203.412 282.214 204.042Z" fill="#858990"/>
<path d="M273.079 204.042C273.079 204.672 273.604 205.197 274.234 205.197H324.004C324.634 205.197 325.159 204.672 325.159 204.042C325.159 203.412 324.634 202.887 324.004 202.887H274.234C273.604 202.887 273.079 203.412 273.079 204.042Z" fill="#B1B5BA"/>
<path d="M325.972 202.886H307.702C306.39 202.886 305.314 201.81 305.314 200.497C305.314 199.185 306.39 198.108 307.702 198.108H325.972V202.886Z" fill="#858990"/>
<path d="M324.45 202.886H333.664V202.177H330.803V198.791H333.664V198.082H324.45C323.138 198.082 322.061 199.158 322.061 200.471C322.061 201.836 323.138 202.886 324.45 202.886Z" fill="#61656D"/>
<path d="M324.476 202.177H333.008V198.791H324.476C323.558 198.791 322.796 199.552 322.796 200.471C322.796 201.442 323.531 202.177 324.476 202.177Z" fill="white"/>
<path d="M320.224 198.109H304.973C304.631 198.109 304.343 197.82 304.343 197.479V195.064C304.343 194.722 304.631 194.434 304.973 194.434H320.224V198.109Z" fill="#B1B5BA"/>
<path d="M313.635 197.007H308.359C308.228 197.007 308.096 196.902 308.096 196.744V195.904C308.096 195.773 308.201 195.642 308.359 195.642H313.635C313.766 195.642 313.898 195.747 313.898 195.904V196.744C313.898 196.875 313.766 197.007 313.635 197.007Z" fill="#858990"/>
<path d="M317.835 198.109H326.13V194.434H317.835C317.494 194.434 317.205 194.722 317.205 195.064V197.479C317.205 197.82 317.494 198.109 317.835 198.109Z" fill="#858990"/>
<path d="M318.071 197.558H326.13V194.959H318.071C317.914 194.959 317.756 195.09 317.756 195.274V197.243C317.756 197.426 317.887 197.558 318.071 197.558Z" fill="white"/>
<path d="M312.795 194.434H330.829C331.301 194.434 331.695 194.04 331.695 193.567V191.599C331.695 191.126 331.301 190.732 330.829 190.732H312.795V194.434Z" fill="#61656D"/>
<path d="M314.921 193.883H306.626V191.284H314.921C315.079 191.284 315.236 191.415 315.236 191.599V193.568C315.236 193.752 315.105 193.883 314.921 193.883Z" fill="white"/>
<path d="M315.158 190.759H306.023V191.31H314.948C315.105 191.31 315.263 191.441 315.263 191.625V193.594C315.263 193.751 315.131 193.909 314.948 193.909H306.023V194.46H315.158C315.499 194.46 315.788 194.171 315.788 193.83V191.415C315.788 191.048 315.499 190.759 315.158 190.759Z" fill="#858990"/>
<path d="M161.7 255.99C161.989 257.093 162.068 257.513 162.015 258.589L162.041 265.886C161.989 267.146 161.648 268.406 161.018 269.483L160.86 269.745C160.493 270.401 159.784 270.795 159.049 270.795H156.975C156.004 270.795 155.19 270.139 154.954 269.22C154.691 268.144 154.639 267.015 154.849 265.913L156.634 258.116C156.765 257.46 156.922 256.699 157.264 255.99H161.7Z" fill="#8F8AD9"/>
<path d="M189.971 238.875L191.257 252.787C191.336 254.415 191.756 255.412 192.229 256.121L197.269 266.411L195.851 268.327L190.339 265.571L185.482 256.725C185.509 255.228 185.351 254.31 185.062 252.288L182.647 237.273L189.971 238.875Z" fill="#FC9D9D"/>
<path opacity="0.15" d="M191.415 257.46C190.864 256.62 190.129 254.677 189.998 253.785L188.318 248.614C188.265 248.246 187.976 247.957 187.609 247.905L184.249 247.432L184.196 246.697H190.733L191.31 252.787C191.441 253.837 191.678 255.202 192.281 256.121L197.321 266.411L196.455 267.855L191.415 257.46Z" fill="black"/>
<path d="M200.209 268.143L197.321 266.385C195.221 266.726 193.121 265.938 191.756 264.285L185.483 256.725C184.354 259.14 183.96 261.843 184.328 264.495L185.246 270.795H185.955L186.165 264.337C186.191 263.865 186.769 263.655 187.058 264.022L190.864 268.695C191.94 270.033 193.568 270.795 195.3 270.795H201.259C201.731 270.795 202.046 270.322 201.863 269.876C201.548 269.115 200.944 268.511 200.209 268.143Z" fill="#8F8AD9"/>
<path d="M161.989 252.709C161.674 255.334 161.542 257.959 161.595 260.61L161.647 263.76C161.595 265.152 160.466 266.228 159.075 266.228H158.655C157.106 266.228 155.899 264.837 156.109 263.314L156.844 259.587C157.211 257.697 157.342 255.754 157.237 253.838L156.529 241.133L163.091 241.238L161.989 252.709Z" fill="#FC9D9D"/>
<path d="M186.27 150.176L187.189 161.385L188.029 170.756C188.475 175.77 188.764 180.757 188.895 185.797L191.1 246.723H183.934L171.649 166.346C171.57 165.795 171.098 165.401 170.546 165.401C169.969 165.401 169.496 165.847 169.444 166.425L163.013 246.723L156.503 246.671L153.274 188.737C152.591 176.373 153.51 163.983 156.056 151.882L156.476 150.176H186.27Z" fill="#3F4249"/>
<path opacity="0.15" d="M162.566 246.724C162.566 246.724 161.779 254.887 161.726 255.964V255.99C161.621 257.512 161.595 259.061 161.621 260.61L161.674 263.76C161.621 265.099 160.571 266.175 159.232 266.227C160.44 265.309 160.335 263.786 160.361 262.657L160.571 248.85C160.571 248.404 160.256 248.01 159.81 247.931L156.896 247.406L156.87 246.75L162.566 246.724Z" fill="black"/>
<path opacity="0.2" d="M170.52 165.401C170.231 165.401 169.969 165.506 169.759 165.69C169.549 165.874 169.418 166.136 169.418 166.425L163.013 246.724L160.676 246.698L164.614 170.993C164.798 167.869 167.37 165.401 170.52 165.401Z" fill="black"/>
<path opacity="0.2" d="M186.506 152.906L187.189 161.359L187.714 167.186C188.37 174.536 188.79 181.939 189 189.315L191.1 246.697H187.898L183.776 166.819L183.015 152.46H186.48L186.506 152.906Z" fill="black"/>
<path d="M186.454 152.46L186.244 149.598L156.66 149.52L155.925 152.46H186.454Z" fill="#21252B"/>
<path d="M164.587 82.7922C164.587 82.7922 159.547 84.7347 160.571 91.4284C160.939 93.9484 158.524 94.2372 157.185 95.2872C153.694 98.0434 155.321 104.186 157.159 104.317L179.681 116.445C179.681 116.445 188.527 104.37 185.587 98.5159C184.275 95.9172 184.616 95.5759 185.535 93.0822C186.926 89.2497 184.301 87.4384 184.301 87.4384L182.91 87.1497L177.896 75.8359L168.184 82.3722L166.74 82.4247L164.587 82.7922Z" fill="#21252B"/>
<path d="M167.869 90.116L166.504 100.879C166.477 101.771 167.212 101.955 167.212 101.955C170.1 103.74 172.226 105.42 175.324 104.239C175.901 104.029 176.426 103.766 176.977 103.425L178.5 102.06L178.684 101.167C178.001 100.984 177.607 100.59 177.397 99.986C177.345 99.8023 177.161 99.5923 177.161 99.4085L177.004 87.2285L167.869 90.116Z" fill="#FC9D9D"/>
<path d="M174.169 96.9414L173.696 96.9152C170.231 96.6264 167.659 93.6077 167.948 90.1689L168.656 81.4014C168.761 80.2464 169.759 79.3802 170.914 79.4852L179.104 80.1414C180.6 80.2727 181.729 81.5589 181.598 83.0552L180.941 91.2189C180.653 94.6314 177.608 97.2039 174.169 96.9414Z" fill="#FC9D9D"/>
<path d="M174.772 89.1189C175.149 89.1189 175.455 88.8134 175.455 88.4364C175.455 88.0595 175.149 87.7539 174.772 87.7539C174.396 87.7539 174.09 88.0595 174.09 88.4364C174.09 88.8134 174.396 89.1189 174.772 89.1189Z" fill="#21252B"/>
<path d="M175.14 88.7779C175.227 88.7779 175.297 88.7073 175.297 88.6204C175.297 88.5335 175.227 88.4629 175.14 88.4629C175.053 88.4629 174.982 88.5335 174.982 88.6204C174.982 88.7073 175.053 88.7779 175.14 88.7779Z" fill="white"/>
<path d="M179.996 89.6179C180.373 89.6179 180.679 89.3124 180.679 88.9354C180.679 88.5585 180.373 88.2529 179.996 88.2529C179.619 88.2529 179.314 88.5585 179.314 88.9354C179.314 89.3124 179.619 89.6179 179.996 89.6179Z" fill="#21252B"/>
<path d="M180.311 89.3023C180.398 89.3023 180.469 89.2317 180.469 89.1448C180.469 89.0579 180.398 88.9873 180.311 88.9873C180.224 88.9873 180.154 89.0579 180.154 89.1448C180.154 89.2317 180.224 89.3023 180.311 89.3023Z" fill="white"/>
<g opacity="0.3">
<path opacity="0.3" d="M177.004 91.5865L176.085 91.534C175.98 91.534 175.901 91.429 175.901 91.324C175.901 91.219 176.006 91.1402 176.111 91.1402L177.03 91.1927C177.266 91.1927 177.45 91.0352 177.45 90.799C177.45 90.5627 177.293 90.379 177.056 90.3527C176.951 90.3527 176.872 90.2477 176.872 90.1427C176.872 90.0377 176.977 89.959 177.082 89.959C177.529 89.9852 177.87 90.3527 177.844 90.799C177.818 91.2452 177.45 91.6127 177.004 91.5865Z" fill="black"/>
</g>
<path d="M184.301 87.4124C183.383 86.5987 183.934 85.3124 183.934 85.3124V85.3387C185.64 78.3562 181.178 73.8674 177.135 73.0274C174.825 72.5549 168.709 72.8437 166.74 79.8262C166.451 80.8237 166.373 81.9262 164.588 82.7662C164.588 82.7662 165.638 86.4412 165.926 87.7799C166.058 88.3574 167.344 86.2049 167.843 85.9949C167.895 85.9687 168.263 86.6512 168.499 87.0712C168.656 87.3337 169.05 87.3599 169.181 87.0712L169.234 86.9662C169.68 85.9949 169.943 84.9449 170.021 83.8687C172.988 83.1862 172.988 80.1674 172.988 80.1674C175.613 86.2837 181.466 84.7612 181.466 84.7612L181.151 88.0424C181.151 88.0424 181.808 87.5437 182.464 86.6774L183.409 87.5437L184.301 87.4124Z" fill="#21252B"/>
<path d="M168.341 90.5358C168.341 90.5358 165.349 90.6671 164.824 87.6746C164.299 84.6821 168 84.2883 168.394 87.2808L168.683 90.5621L168.341 90.5358Z" fill="#FC9D9D"/>
<path opacity="0.3" d="M165.821 86.1521C166.136 85.9421 166.451 85.8633 166.74 85.9421C167.029 86.0208 167.265 86.2046 167.449 86.5458C167.633 86.8871 167.764 87.2808 167.737 87.7008V88.0158C167.737 88.2521 167.344 88.3046 167.344 88.0421C167.344 87.7008 167.344 87.7008 167.344 87.7008C167.344 87.5958 167.291 87.0446 167.107 86.7296C166.976 86.4933 166.819 86.3621 166.661 86.3096C166.478 86.2571 166.294 86.3096 166.057 86.4671C165.979 86.5196 165.847 86.4933 165.795 86.4146C165.69 86.3096 165.716 86.2046 165.821 86.1521Z" fill="black"/>
<path d="M180.285 86.2839C179.419 86.2577 178.658 86.5989 178.106 87.2027C177.398 86.8352 176.715 86.9402 176.426 87.0189C176.006 86.1002 175.14 85.4439 174.064 85.3914C172.568 85.3127 171.281 86.4939 171.229 87.9902C171.15 89.4864 172.331 90.7727 173.828 90.8252C175.324 90.8777 176.61 89.7227 176.663 88.2264C176.689 87.9114 176.636 87.5964 176.558 87.3339C176.82 87.2814 177.345 87.2289 177.896 87.4914C177.634 87.8852 177.45 88.3577 177.424 88.8827C177.345 90.3789 178.526 91.6652 180.023 91.7177C181.519 91.7964 182.805 90.6152 182.858 89.1189C182.936 87.6227 181.781 86.3627 180.285 86.2839ZM173.854 90.5102C172.541 90.4577 171.518 89.3289 171.596 88.0164C171.649 86.7039 172.778 85.6802 174.09 85.7589C175.403 85.8114 176.426 86.9402 176.348 88.2527C176.269 89.5389 175.14 90.5627 173.854 90.5102ZM180.049 91.3764C178.736 91.3239 177.713 90.1952 177.791 88.8827C177.844 87.5702 178.973 86.5464 180.285 86.6252C181.598 86.6777 182.621 87.8064 182.543 89.1189C182.464 90.4314 181.361 91.4552 180.049 91.3764Z" fill="white"/>
<path d="M167.58 90.0639C167.913 90.0639 168.184 89.7936 168.184 89.4602C168.184 89.1268 167.913 88.8564 167.58 88.8564C167.247 88.8564 166.976 89.1268 166.976 89.4602C166.976 89.7936 167.247 90.0639 167.58 90.0639Z" fill="#8F8AD9"/>
<path opacity="0.15" d="M167.764 89.9583C167.396 89.9321 167.134 89.6433 167.16 89.2758C167.16 89.1446 167.212 89.0396 167.265 88.9346C167.107 89.0396 167.002 89.1971 166.976 89.4071C166.95 89.7483 167.212 90.0108 167.554 90.0371C167.685 90.0371 167.79 90.0108 167.895 89.9321C167.869 89.9583 167.816 89.9846 167.764 89.9583Z" fill="black"/>
<path opacity="0.15" d="M167.816 90.5098L168.735 90.6148L167.659 91.796L167.816 90.5098Z" fill="black"/>
<path opacity="0.15" d="M177.161 98.5683C176.794 98.5945 174.536 98.8308 172.804 96.9145C171.517 96.5995 170.625 96.0745 170.047 95.6283C169.969 95.5758 169.942 95.4445 170.021 95.3658C170.074 95.287 170.205 95.2608 170.284 95.3395C170.73 95.6808 171.439 96.1008 172.384 96.4158C172.436 96.442 172.489 96.442 172.541 96.4683C172.672 96.4945 172.83 96.547 172.961 96.5733C172.987 96.5733 173.014 96.5733 173.014 96.5733C173.092 96.5995 173.197 96.5995 173.302 96.6258C173.539 96.6783 173.801 96.7045 174.064 96.7308C175.166 96.8095 176.19 96.757 177.135 96.4158L177.161 98.5683Z" fill="black"/>
<path d="M177.371 92.7152C177.45 92.7152 177.502 92.8202 177.45 92.899C177.03 93.5027 176.321 93.8702 175.586 93.7915C174.851 93.6865 174.247 93.1877 173.985 92.479C173.959 92.4002 174.011 92.2952 174.116 92.3215L177.371 92.7152Z" fill="white"/>
<path d="M180.784 85.8896C175.613 85.8108 173.591 81.1646 173.565 81.1121C173.513 81.0071 173.565 80.8758 173.67 80.8233C173.775 80.7708 173.906 80.8233 173.959 80.9283C173.985 80.9808 175.901 85.3646 180.758 85.4433C180.863 85.4433 180.968 85.5483 180.968 85.6533C180.968 85.8108 180.889 85.8896 180.784 85.8896Z" fill="#21252B"/>
<path d="M196.56 108.308L211.654 114.87L201.364 118.44L191.73 116.419L196.56 108.308Z" fill="#FC9D9D"/>
<path d="M195.668 117.731L183.383 113.951L185.929 103.215L201.705 110.486L195.668 117.731Z" fill="#8F8AD9"/>
<path d="M155.295 103.346L165.716 101.089L178.815 101.273L185.063 102.9C186.848 103.373 188.186 104.895 188.37 106.733C188.659 109.856 188.16 112.744 188.16 112.744L188.475 115.5C189.84 118.204 190.943 122.273 187.136 126.21C186.506 126.866 186.165 127.706 186.165 128.625C186.165 135.66 186.27 149.573 186.27 149.573L157.001 149.704C156.214 149.704 155.636 148.995 155.768 148.234C156.319 145.084 157.133 140.831 157.736 137.576C158.34 134.4 158.235 131.145 157.421 128.021L154.586 117.023L150.071 110.46C149.888 107.074 152.04 104.108 155.295 103.346Z" fill="#8F8AD9"/>
<path d="M166.53 101.325L175.061 109.121L178.5 105.105L179.156 101.273L178.474 101.089L169.024 97.1777L166.53 101.325Z" fill="#FC9D9D"/>
<path d="M174.51 118.203L180.232 118.413C180.574 118.413 180.81 118.282 180.889 117.967C180.941 117.757 180.81 117.39 180.416 117.337L175.14 116.655C174.589 116.602 174.038 116.602 173.381 116.707L168.263 117.521C167.423 117.652 166.635 118.02 165.979 118.597L150.728 132.09C148.706 133.875 148.785 137.051 150.911 138.705C152.801 140.227 155.584 139.86 157.054 137.943L169.26 121.826L173.119 122.876C173.618 122.902 174.064 122.64 174.3 122.22L175.193 120.513C175.481 119.988 176.111 119.516 176.715 119.411L178.343 119.148L174.51 118.203Z" fill="#FC9D9D"/>
<path opacity="0.15" d="M178.369 119.149L176.925 119.359C176.216 119.49 175.586 119.937 175.219 120.567L174.3 122.22C174.09 122.614 173.67 122.877 173.198 122.877H173.145L174.038 121.669C174.038 121.669 172.778 121.223 172.62 121.118C172.541 121.065 172.62 120.882 172.725 120.882C172.883 120.882 174.221 121.407 174.221 121.407L175.193 120.094C175.193 120.094 173.801 119.727 173.591 119.674C173.513 119.648 173.565 119.333 173.775 119.385C174.3 119.49 175.403 119.832 175.403 119.832L176.033 118.992L174.536 118.44L174.51 118.23L178.369 119.149Z" fill="black"/>
<path d="M178.5 105.105L177.188 99.4873L179.156 101.272L178.5 105.105Z" fill="white"/>
<path d="M169.365 102.585L166.976 106.312L169.916 104.449L169.365 102.585Z" fill="#8F8AD9"/>
<path opacity="0.15" d="M169.365 102.585L166.976 106.759L169.916 104.449L169.365 102.585Z" fill="black"/>
<path opacity="0.15" d="M179.156 101.272L181.571 105.472L178.657 104.16L179.156 101.272Z" fill="black"/>
<path d="M169.365 102.585L166.714 98.5947L165.323 101.771L166.976 106.758L169.365 102.585Z" fill="white"/>
<path d="M149.809 116.891L159.705 116.366L158.918 129.465L149.31 135.896L149.809 116.891Z" fill="#FC9D9D"/>
<path d="M160.834 102.112L155.085 103.32C152.145 103.924 149.993 106.47 149.888 109.489L149.441 121.905L159.705 122.167L160.834 102.112Z" fill="#8F8AD9"/>
<path d="M195.405 118.073L194.171 117.259L200.288 109.83L201.705 110.486L195.405 118.073Z" fill="white"/>
<path d="M177.161 123.769C177.161 123.769 177.424 123.874 177.739 123.848C177.975 123.821 178.132 123.743 178.29 123.638C178.29 123.638 178.421 123.454 178.264 123.375C177.922 123.191 177.319 122.981 177.214 122.929L175.927 122.299L175.612 123.454L177.03 124.058L177.161 123.769Z" fill="#FC9D9D"/>
<path d="M178.946 124.11C178.894 123.795 178.579 123.585 178.264 123.637L177.397 123.769C177.24 123.795 177.082 123.769 176.951 123.664L176.557 123.401C176.4 123.296 176.295 123.112 176.269 122.929L175.271 123.611L176.925 124.897C176.925 124.897 178.999 124.32 178.946 124.11Z" fill="#FC9D9D"/>
<path opacity="0.15" d="M178.264 123.638C178.264 123.638 178.369 123.506 178.29 123.401L175.901 122.299L175.586 123.401L175.271 123.611L176.925 124.898C176.925 124.898 178.972 124.32 178.946 124.11C178.894 123.795 178.579 123.585 178.264 123.638Z" fill="black"/>
<path d="M213.885 118.571C213.885 119.385 213.701 120.172 213.334 120.802C212.625 122.062 211.312 122.902 209.501 122.876L184.616 123.165H183.96L183.934 123.217L183.724 123.664C183.698 123.716 183.671 123.742 183.671 123.795C183.645 123.821 183.645 123.847 183.619 123.874C183.225 124.53 182.49 124.871 181.729 124.792C181.676 124.792 181.624 124.792 181.571 124.766C181.44 124.74 181.335 124.714 181.204 124.661L176.925 122.85C176.61 122.719 176.243 122.85 176.111 123.165C176.085 123.244 176.059 123.322 176.059 123.427C176.059 123.637 176.164 123.821 176.347 123.952L176.741 124.215C176.872 124.294 177.03 124.346 177.187 124.32L178.054 124.189C178.369 124.136 178.658 124.346 178.736 124.661C178.736 124.687 178.736 124.74 178.736 124.766C178.736 125.029 178.579 125.239 178.343 125.317L176.321 125.974C176.138 126.026 175.927 126 175.77 125.895L173.749 124.451C173.486 124.267 173.408 123.926 173.565 123.664L175.14 120.697C175.481 120.067 176.085 119.621 176.794 119.49L196.849 116.34L208.635 114.502C210.761 114.24 212.257 115.054 213.097 116.261C213.649 116.891 213.885 117.731 213.885 118.571Z" fill="#FC9D9D"/>
<path opacity="0.15" d="M177.161 123.768C177.161 123.768 176.505 123.48 176.295 122.955C176.295 122.955 176.4 122.876 176.426 122.85C176.426 122.85 176.662 123.348 177.214 123.585C177.214 123.585 177.949 123.585 178.342 123.453C178.342 123.558 178.29 123.611 178.29 123.611C178.132 123.663 177.975 123.768 177.161 123.768Z" fill="black"/>
<path d="M185.351 123.165L183.776 118.23L185.141 117.941L186.769 123.165H185.351Z" fill="#3F4249"/>
<path d="M182.411 118.125C182.359 117.888 182.49 117.652 182.726 117.6L185.693 117.075C185.903 117.022 186.113 117.18 186.165 117.39V117.416C186.218 117.652 186.06 117.888 185.824 117.915L182.858 118.413C182.674 118.44 182.464 118.308 182.411 118.125Z" fill="#21252B"/>
<path opacity="0.15" d="M204.54 114.581L200.393 115.238L188.816 111.563C188.396 111.431 187.95 111.773 188.029 112.219L188.475 115.5L192.938 116.891L196.901 116.261H196.928L204.593 115.028C204.724 115.001 204.803 114.896 204.776 114.765C204.776 114.66 204.645 114.555 204.54 114.581Z" fill="black"/>
<path opacity="0.15" d="M159.364 122.141L156.214 122.062L156.004 126.814L154.639 127.995C154.56 128.074 154.534 128.205 154.612 128.31C154.691 128.415 154.822 128.415 154.927 128.336L159.206 124.609L159.364 122.141Z" fill="black"/>
<path d="M149.441 121.905V120.173L159.416 120.435L159.338 122.142L149.441 121.905Z" fill="white"/>
<path opacity="0.15" d="M160.44 114.109L161.989 122.167L159.206 124.635L159.81 114.161C159.836 113.767 160.387 113.741 160.44 114.109Z" fill="black"/>
<path d="M237.037 191.179L261.056 172.41C264.101 170.048 265.886 166.268 265.886 162.278V125.606L231.157 125.58L231.105 126.551V125.58L196.376 125.606V162.278C196.376 166.268 198.161 170.021 201.206 172.41L225.225 191.179C226.222 191.966 226.826 193.2 226.826 194.539C226.826 195.851 226.222 197.111 225.225 197.899L201.206 216.668C198.161 219.03 196.376 222.81 196.376 226.8V263.471L231.105 263.498V262.526L231.157 263.498L265.886 263.471V226.774C265.886 222.784 264.101 219.03 261.056 216.641L237.037 197.873C236.04 197.085 235.436 195.851 235.436 194.513C235.436 193.2 236.014 191.966 237.037 191.179Z" fill="#8F8AD9"/>
<path opacity="0.6" d="M237.037 191.179L261.056 172.41C264.101 170.048 265.886 166.268 265.886 162.278V125.606L231.157 125.58L231.105 126.551V125.58L196.376 125.606V162.278C196.376 166.268 198.161 170.021 201.206 172.41L225.225 191.179C226.222 191.966 226.826 193.2 226.826 194.539C226.826 195.851 226.222 197.111 225.225 197.899L201.206 216.668C198.161 219.03 196.376 222.81 196.376 226.8V263.471L231.105 263.498V262.526L231.157 263.498L265.886 263.471V226.774C265.886 222.784 264.101 219.03 261.056 216.641L237.037 197.873C236.04 197.085 235.436 195.851 235.436 194.513C235.436 193.2 236.014 191.966 237.037 191.179Z" fill="white"/>
<path opacity="0.4" d="M235.856 192.649C236.119 192.071 236.539 191.573 237.037 191.179L252.945 178.763C254.336 176.663 255.097 174.143 255.097 171.544V125.606L231.157 125.58L231.105 126.551V125.58L196.376 125.606V162.278C196.376 166.268 198.161 170.021 201.206 172.41L225.225 191.179C226.222 191.966 226.826 193.2 226.826 194.539C226.826 195.195 226.669 195.851 226.406 196.429C226.144 197.006 225.724 197.505 225.225 197.899L201.206 216.668C200.156 217.481 199.264 218.479 198.529 219.581C197.137 221.681 196.376 224.201 196.376 226.8V263.471L231.105 263.498V262.526L231.157 263.498L255.097 263.471L255.045 222.941C255.045 216.248 254.494 211.549 250.556 208.478L237.037 197.873C234.596 195.851 235.699 193.016 235.699 193.016C235.725 192.911 235.777 192.78 235.856 192.649Z" fill="white"/>
<path opacity="0.5" d="M265.886 263.472H196.98V265.755H265.886V263.472Z" fill="black"/>
<path d="M256.541 140.988C250.162 140.988 244.309 148.05 231.079 151.121C224.175 152.958 215.539 152.722 205.065 150.648C202.545 150.15 200.209 152.092 200.209 154.665V161.988C200.209 164.955 201.574 167.763 203.91 169.575C220.999 183.015 222.232 183.303 227.955 188.028C228.874 188.79 229.425 189.971 229.425 191.205V241.788C229.425 245.148 228.139 248.325 225.829 250.635L218.479 260.032C215.854 263.392 215.854 263.392 215.854 263.392H246.435L235.83 250.162C234.019 248.298 232.995 245.726 232.995 243.048V191.625C232.995 190.391 233.52 189.236 234.439 188.448C240.161 183.592 233.914 189.236 258.326 169.68C260.61 167.842 261.949 165.06 261.949 162.146V147.052C261.975 144.138 260.794 140.988 256.541 140.988Z" fill="#FF9B35"/>
<path d="M272.711 270.795H199.29C197.374 270.795 195.799 269.142 195.799 267.12C195.799 265.099 197.348 263.445 199.29 263.445H272.711C274.628 263.445 276.203 265.099 276.203 267.12C276.203 269.168 274.628 270.795 272.711 270.795Z" fill="#21252B"/>
<path d="M268.065 270.795H194.644C192.727 270.795 191.152 269.142 191.152 267.12C191.152 265.099 192.701 263.445 194.644 263.445H268.065C269.981 263.445 271.556 265.099 271.556 267.12C271.53 269.168 269.981 270.795 268.065 270.795Z" fill="#3F4249"/>
<path d="M272.711 130.279H199.29C197.374 130.279 195.799 128.625 195.799 126.604C195.799 124.582 197.348 122.929 199.29 122.929H272.711C274.628 122.929 276.203 124.582 276.203 126.604C276.203 128.625 274.628 130.279 272.711 130.279Z" fill="#21252B"/>
<path d="M268.065 130.279H194.644C192.727 130.279 191.152 128.625 191.152 126.604C191.152 124.582 192.701 122.929 194.644 122.929H268.065C269.981 122.929 271.556 124.582 271.556 126.604C271.53 128.625 269.981 130.279 268.065 130.279Z" fill="#3F4249"/>
</svg>
