<svg width="249" height="28" viewBox="0 0 249 28" fill="none" xmlns="http://www.w3.org/2000/svg">
<path d="M11.788 27V17.028C11.788 15.996 11.464 15.156 10.816 14.508C10.168 13.86 9.328 13.536 8.296 13.536C7.624 13.536 7.024 13.68 6.496 13.968C5.968 14.256 5.548 14.664 5.236 15.192C4.948 15.72 4.804 16.332 4.804 17.028L2.968 16.092C2.968 14.724 3.256 13.536 3.832 12.528C4.408 11.496 5.2 10.692 6.208 10.116C7.24 9.54 8.416 9.252 9.736 9.252C11.056 9.252 12.22 9.54 13.228 10.116C14.26 10.692 15.064 11.484 15.64 12.492C16.216 13.5 16.504 14.664 16.504 15.984V27H11.788ZM0.0880001 27V0.971998H4.804V27H0.0880001ZM28.4748 27.36C26.7228 27.36 25.1388 26.964 23.7228 26.172C22.3308 25.356 21.2148 24.264 20.3748 22.896C19.5588 21.504 19.1508 19.956 19.1508 18.252C19.1508 16.548 19.5588 15.024 20.3748 13.68C21.1908 12.312 22.3068 11.232 23.7228 10.44C25.1388 9.624 26.7108 9.216 28.4388 9.216C30.2148 9.216 31.7988 9.624 33.1908 10.44C34.6068 11.232 35.7228 12.312 36.5388 13.68C37.3548 15.024 37.7628 16.548 37.7628 18.252C37.7628 19.956 37.3548 21.504 36.5388 22.896C35.7228 24.264 34.6068 25.356 33.1908 26.172C31.7988 26.964 30.2268 27.36 28.4748 27.36ZM28.4388 22.968C29.3268 22.968 30.1068 22.776 30.7788 22.392C31.4748 21.984 32.0028 21.432 32.3628 20.736C32.7468 20.016 32.9388 19.2 32.9388 18.288C32.9388 17.376 32.7468 16.572 32.3628 15.876C31.9788 15.18 31.4508 14.64 30.7788 14.256C30.1068 13.848 29.3268 13.644 28.4388 13.644C27.5748 13.644 26.8068 13.848 26.1348 14.256C25.4628 14.64 24.9348 15.18 24.5508 15.876C24.1668 16.572 23.9748 17.376 23.9748 18.288C23.9748 19.2 24.1668 20.016 24.5508 20.736C24.9348 21.432 25.4628 21.984 26.1348 22.392C26.8068 22.776 27.5748 22.968 28.4388 22.968ZM40.7989 27V9.612H45.5149V27H40.7989ZM52.1389 27V16.74C52.1389 15.732 51.8149 14.952 51.1669 14.4C50.5429 13.824 49.7629 13.536 48.8269 13.536C48.2029 13.536 47.6389 13.668 47.1349 13.932C46.6309 14.172 46.2349 14.532 45.9469 15.012C45.6589 15.492 45.5149 16.068 45.5149 16.74L43.6789 15.84C43.6789 14.496 43.9669 13.332 44.5429 12.348C45.1429 11.364 45.9469 10.608 46.9549 10.08C47.9629 9.528 49.1029 9.252 50.3749 9.252C51.5749 9.252 52.6669 9.528 53.6509 10.08C54.6349 10.608 55.4149 11.364 55.9909 12.348C56.5669 13.308 56.8549 14.472 56.8549 15.84V27H52.1389ZM63.4789 27V16.74C63.4789 15.732 63.1549 14.952 62.5069 14.4C61.8829 13.824 61.1029 13.536 60.1669 13.536C59.5669 13.536 59.0029 13.668 58.4749 13.932C57.9709 14.172 57.5749 14.532 57.2869 15.012C56.9989 15.492 56.8549 16.068 56.8549 16.74L54.1549 16.092C54.2509 14.7 54.6229 13.5 55.2709 12.492C55.9189 11.46 56.7709 10.668 57.8269 10.116C58.8829 9.54 60.0589 9.252 61.3549 9.252C62.6509 9.252 63.8149 9.528 64.8469 10.08C65.8789 10.608 66.6949 11.376 67.2949 12.384C67.8949 13.392 68.1949 14.592 68.1949 15.984V27H63.4789ZM80.3337 27.36C78.5097 27.36 76.8897 26.976 75.4737 26.208C74.0577 25.416 72.9297 24.336 72.0897 22.968C71.2737 21.6 70.8657 20.04 70.8657 18.288C70.8657 16.56 71.2617 15.024 72.0537 13.68C72.8697 12.312 73.9737 11.232 75.3657 10.44C76.7577 9.624 78.3057 9.216 80.0097 9.216C81.6897 9.216 83.1657 9.6 84.4377 10.368C85.7337 11.112 86.7417 12.144 87.4617 13.464C88.2057 14.76 88.5777 16.236 88.5777 17.892C88.5777 18.204 88.5537 18.528 88.5057 18.864C88.4817 19.176 88.4217 19.536 88.3257 19.944L73.7097 19.98V16.452L86.1297 16.416L84.2217 17.892C84.1737 16.86 83.9817 15.996 83.6457 15.3C83.3337 14.604 82.8657 14.076 82.2417 13.716C81.6417 13.332 80.8977 13.14 80.0097 13.14C79.0737 13.14 78.2577 13.356 77.5617 13.788C76.8657 14.196 76.3257 14.784 75.9417 15.552C75.5817 16.296 75.4017 17.184 75.4017 18.216C75.4017 19.272 75.5937 20.196 75.9777 20.988C76.3857 21.756 76.9617 22.356 77.7057 22.788C78.4497 23.196 79.3137 23.4 80.2977 23.4C81.1857 23.4 81.9897 23.256 82.7097 22.968C83.4297 22.656 84.0537 22.2 84.5817 21.6L87.3537 24.372C86.5137 25.356 85.4817 26.1 84.2577 26.604C83.0577 27.108 81.7497 27.36 80.3337 27.36ZM95.9273 27L89.4113 9.612H94.1633L98.4113 22.248L96.9713 22.284L101.327 9.612H104.747L109.103 22.284L107.663 22.248L111.911 9.612H116.663L110.183 27H106.763L102.371 14.976H103.703L99.3113 27H95.9273ZM126.737 27.36C124.985 27.36 123.401 26.964 121.985 26.172C120.593 25.356 119.477 24.264 118.637 22.896C117.821 21.504 117.413 19.956 117.413 18.252C117.413 16.548 117.821 15.024 118.637 13.68C119.453 12.312 120.569 11.232 121.985 10.44C123.401 9.624 124.973 9.216 126.701 9.216C128.477 9.216 130.061 9.624 131.453 10.44C132.869 11.232 133.985 12.312 134.801 13.68C135.617 15.024 136.025 16.548 136.025 18.252C136.025 19.956 135.617 21.504 134.801 22.896C133.985 24.264 132.869 25.356 131.453 26.172C130.061 26.964 128.489 27.36 126.737 27.36ZM126.701 22.968C127.589 22.968 128.369 22.776 129.041 22.392C129.737 21.984 130.265 21.432 130.625 20.736C131.009 20.016 131.201 19.2 131.201 18.288C131.201 17.376 131.009 16.572 130.625 15.876C130.241 15.18 129.713 14.64 129.041 14.256C128.369 13.848 127.589 13.644 126.701 13.644C125.837 13.644 125.069 13.848 124.397 14.256C123.725 14.64 123.197 15.18 122.813 15.876C122.429 16.572 122.237 17.376 122.237 18.288C122.237 19.2 122.429 20.016 122.813 20.736C123.197 21.432 123.725 21.984 124.397 22.392C125.069 22.776 125.837 22.968 126.701 22.968ZM139.061 27V9.612H143.777V27H139.061ZM143.777 17.388L141.941 16.164C142.157 14.028 142.781 12.348 143.813 11.124C144.845 9.876 146.333 9.252 148.277 9.252C149.117 9.252 149.873 9.396 150.545 9.684C151.217 9.948 151.829 10.392 152.381 11.016L149.429 14.4C149.165 14.112 148.841 13.896 148.457 13.752C148.097 13.608 147.677 13.536 147.197 13.536C146.189 13.536 145.361 13.86 144.713 14.508C144.089 15.132 143.777 16.092 143.777 17.388ZM165.125 27L158.393 18.036L165.089 9.612H170.525L162.677 19.116L162.857 16.812L170.885 27H165.125ZM154.037 27V0.971998H158.753V27H154.037ZM191.882 27.36C190.106 27.36 188.51 26.964 187.094 26.172C185.678 25.38 184.562 24.3 183.746 22.932C182.93 21.564 182.522 20.028 182.522 18.324C182.522 16.596 182.93 15.048 183.746 13.68C184.562 12.312 185.678 11.232 187.094 10.44C188.534 9.624 190.13 9.216 191.882 9.216C193.25 9.216 194.51 9.468 195.662 9.972C196.814 10.476 197.81 11.196 198.65 12.132L195.626 15.192C195.17 14.688 194.618 14.304 193.97 14.04C193.346 13.776 192.65 13.644 191.882 13.644C191.018 13.644 190.238 13.848 189.542 14.256C188.87 14.64 188.33 15.18 187.922 15.876C187.538 16.548 187.346 17.352 187.346 18.288C187.346 19.2 187.538 20.016 187.922 20.736C188.33 21.432 188.87 21.984 189.542 22.392C190.238 22.776 191.018 22.968 191.882 22.968C192.674 22.968 193.382 22.836 194.006 22.572C194.654 22.284 195.206 21.876 195.662 21.348L198.722 24.408C197.834 25.368 196.814 26.1 195.662 26.604C194.51 27.108 193.25 27.36 191.882 27.36ZM209.178 27.36C207.426 27.36 205.842 26.964 204.426 26.172C203.034 25.356 201.918 24.264 201.078 22.896C200.262 21.504 199.854 19.956 199.854 18.252C199.854 16.548 200.262 15.024 201.078 13.68C201.894 12.312 203.01 11.232 204.426 10.44C205.842 9.624 207.414 9.216 209.142 9.216C210.918 9.216 212.502 9.624 213.894 10.44C215.31 11.232 216.426 12.312 217.242 13.68C218.058 15.024 218.466 16.548 218.466 18.252C218.466 19.956 218.058 21.504 217.242 22.896C216.426 24.264 215.31 25.356 213.894 26.172C212.502 26.964 210.93 27.36 209.178 27.36ZM209.142 22.968C210.03 22.968 210.81 22.776 211.482 22.392C212.178 21.984 212.706 21.432 213.066 20.736C213.45 20.016 213.642 19.2 213.642 18.288C213.642 17.376 213.45 16.572 213.066 15.876C212.682 15.18 212.154 14.64 211.482 14.256C210.81 13.848 210.03 13.644 209.142 13.644C208.278 13.644 207.51 13.848 206.838 14.256C206.166 14.64 205.638 15.18 205.254 15.876C204.87 16.572 204.678 17.376 204.678 18.288C204.678 19.2 204.87 20.016 205.254 20.736C205.638 21.432 206.166 21.984 206.838 22.392C207.51 22.776 208.278 22.968 209.142 22.968ZM221.502 27V9.612H226.218V27H221.502ZM232.842 27V16.74C232.842 15.732 232.518 14.952 231.87 14.4C231.246 13.824 230.466 13.536 229.53 13.536C228.906 13.536 228.342 13.668 227.838 13.932C227.334 14.172 226.938 14.532 226.65 15.012C226.362 15.492 226.218 16.068 226.218 16.74L224.382 15.84C224.382 14.496 224.67 13.332 225.246 12.348C225.846 11.364 226.65 10.608 227.658 10.08C228.666 9.528 229.806 9.252 231.078 9.252C232.278 9.252 233.37 9.528 234.354 10.08C235.338 10.608 236.118 11.364 236.694 12.348C237.27 13.308 237.558 14.472 237.558 15.84V27H232.842ZM244.182 27V16.74C244.182 15.732 243.858 14.952 243.21 14.4C242.586 13.824 241.806 13.536 240.87 13.536C240.27 13.536 239.706 13.668 239.178 13.932C238.674 14.172 238.278 14.532 237.99 15.012C237.702 15.492 237.558 16.068 237.558 16.74L234.858 16.092C234.954 14.7 235.326 13.5 235.974 12.492C236.622 11.46 237.474 10.668 238.53 10.116C239.586 9.54 240.762 9.252 242.058 9.252C243.354 9.252 244.518 9.528 245.55 10.08C246.582 10.608 247.398 11.376 247.998 12.384C248.598 13.392 248.898 14.592 248.898 15.984V27H244.182Z" fill="#1D1D1F"/>
<path d="M176.297 27.36C175.433 27.36 174.725 27.072 174.173 26.496C173.621 25.92 173.345 25.212 173.345 24.372C173.345 23.532 173.621 22.824 174.173 22.248C174.725 21.672 175.433 21.384 176.297 21.384C177.137 21.384 177.833 21.672 178.385 22.248C178.937 22.824 179.213 23.532 179.213 24.372C179.213 25.212 178.937 25.92 178.385 26.496C177.833 27.072 177.137 27.36 176.297 27.36Z" fill="#FF8100"/>
</svg>
