<svg width="640" height="752" viewBox="0 0 640 752" fill="none" xmlns="http://www.w3.org/2000/svg">
<g clip-path="url(#clip0_1233_3600)">
<path d="M77.4961 534.054H14.1116C10.7644 534.051 7.55541 532.719 5.1897 530.351C2.82398 527.983 1.49512 524.773 1.49512 521.426V521.426C1.49512 518.08 2.82435 514.871 5.1904 512.505C7.55645 510.139 10.7655 508.81 14.1116 508.81H77.4961C80.8433 508.81 84.0535 510.138 86.4214 512.504C88.7893 514.87 90.1211 518.079 90.1242 521.426V521.426C90.1242 523.084 89.7976 524.727 89.1629 526.259C88.5283 527.791 87.5981 529.183 86.4255 530.355C85.2529 531.528 83.8608 532.458 82.3287 533.093C80.7966 533.728 79.1544 534.054 77.4961 534.054V534.054Z" stroke="#DDDDDD" stroke-miterlimit="10"/>
<path d="M240.813 259H206.321C197.23 259 189.859 266.371 189.859 275.462V275.474C189.859 284.566 197.23 291.936 206.321 291.936H240.813C249.905 291.936 257.275 284.566 257.275 275.474V275.462C257.275 266.371 249.905 259 240.813 259Z" stroke="#DDDDDD" stroke-miterlimit="10"/>
<path d="M369.906 125.18H306.521C303.175 125.18 299.966 123.851 297.6 121.485C295.234 119.119 293.905 115.91 293.905 112.564V112.564C293.903 110.906 294.228 109.264 294.862 107.732C295.495 106.2 296.424 104.808 297.596 103.635C298.768 102.462 300.159 101.532 301.69 100.897C303.222 100.262 304.863 99.9356 306.521 99.9356H369.906C371.565 99.934 373.208 100.26 374.742 100.893C376.275 101.527 377.669 102.457 378.843 103.63C380.017 104.803 380.948 106.196 381.583 107.728C382.218 109.261 382.545 110.904 382.545 112.564V112.564C382.544 114.222 382.216 115.864 381.58 117.395C380.944 118.927 380.012 120.318 378.839 121.49C377.665 122.661 376.272 123.59 374.739 124.223C373.207 124.857 371.564 125.182 369.906 125.18V125.18Z" stroke="#DDDDDD" stroke-miterlimit="10"/>
<path d="M646.725 275.462H626.987V317.424H576.753V365.845" stroke="#DDDDDD" stroke-width="2" stroke-linecap="round" stroke-linejoin="round"/>
<path d="M253.174 548.181H202.929V589.817H128.241V617.13H-24.6675" stroke="#DDDDDD" stroke-width="2" stroke-linecap="round" stroke-linejoin="round"/>
<path d="M451.599 406.554V441.208H388.563V478.547H325.678V515.978H262.956V548.181" stroke="#EDEDED" stroke-width="2" stroke-linecap="round" stroke-linejoin="round"/>
<path d="M562.545 366.578H509.953V406.554H470.222" stroke="#DDDDDD" stroke-width="2" stroke-linecap="round" stroke-linejoin="round"/>
<path d="M77.4961 534.054H14.1116C10.7644 534.051 7.55541 532.719 5.1897 530.351C2.82398 527.983 1.49512 524.773 1.49512 521.426V521.426C1.49512 518.08 2.82435 514.871 5.1904 512.505C7.55645 510.139 10.7655 508.81 14.1116 508.81H77.4961C80.8433 508.81 84.0535 510.138 86.4214 512.504C88.7893 514.87 90.1211 518.079 90.1242 521.426V521.426C90.1242 523.084 89.7976 524.727 89.1629 526.259C88.5283 527.791 87.5981 529.183 86.4255 530.355C85.2529 531.528 83.8608 532.458 82.3287 533.093C80.7966 533.728 79.1544 534.054 77.4961 534.054V534.054Z" stroke="#DDDDDD" stroke-miterlimit="10"/>
<path d="M240.813 259H206.321C197.23 259 189.859 266.371 189.859 275.462V275.474C189.859 284.566 197.23 291.936 206.321 291.936H240.813C249.905 291.936 257.275 284.566 257.275 275.474V275.462C257.275 266.371 249.905 259 240.813 259Z" stroke="#DDDDDD" stroke-miterlimit="10"/>
<path d="M369.906 125.18H306.521C303.175 125.18 299.966 123.851 297.6 121.485C295.234 119.119 293.905 115.91 293.905 112.564V112.564C293.903 110.906 294.228 109.264 294.862 107.732C295.495 106.2 296.424 104.808 297.596 103.635C298.768 102.462 300.159 101.532 301.69 100.897C303.222 100.262 304.863 99.9356 306.521 99.9356H369.906C371.565 99.934 373.208 100.26 374.742 100.893C376.275 101.527 377.669 102.457 378.843 103.63C380.017 104.803 380.948 106.196 381.583 107.728C382.218 109.261 382.545 110.904 382.545 112.564V112.564C382.544 114.222 382.216 115.864 381.58 117.395C380.944 118.927 380.012 120.318 378.839 121.49C377.665 122.661 376.272 123.59 374.739 124.223C373.207 124.857 371.564 125.182 369.906 125.18V125.18Z" stroke="#DDDDDD" stroke-miterlimit="10"/>
<path d="M581.023 80.7204C596.544 88.1439 606.779 79.5587 615.771 75.2602C619.553 73.4367 623.852 72.9842 627.932 73.9802C632.011 74.9762 635.618 77.3588 638.134 80.7204L637.437 114.155C637.437 114.155 624.739 109.648 617.513 114.155C610.287 118.663 601.644 129.769 581 114.771L581.023 80.7204Z" fill="#EDEDED" stroke="#DDDDDD" stroke-width="2" stroke-linecap="round" stroke-linejoin="round"/>
<path d="M640.772 219.444C639.914 219.444 639.091 219.104 638.484 218.498C637.876 217.893 637.533 217.072 637.53 216.214V74.7257C637.53 74.3006 637.614 73.8797 637.777 73.4871C637.94 73.0945 638.179 72.738 638.48 72.4379C638.781 72.1379 639.139 71.9002 639.532 71.7386C639.925 71.577 640.346 71.4946 640.772 71.4961V71.4961C641.197 71.4946 641.618 71.577 642.011 71.7386C642.404 71.9002 642.762 72.1379 643.063 72.4379C643.364 72.738 643.603 73.0945 643.766 73.4871C643.929 73.8797 644.013 74.3006 644.013 74.7257V216.214C644.01 217.072 643.667 217.893 643.059 218.498C642.452 219.104 641.629 219.444 640.772 219.444V219.444Z" fill="#F9F9F9" stroke="#EDEDED" stroke-width="2" stroke-linecap="round" stroke-linejoin="round"/>
<path d="M612 220.512H661.118" stroke="#DDDDDD" stroke-width="2" stroke-linecap="round" stroke-linejoin="round"/>
<path d="M646.725 275.462H626.987V317.424H576.753V365.845" stroke="#DDDDDD" stroke-width="2" stroke-linecap="round" stroke-linejoin="round"/>
<path d="M451.599 406.554V441.208H388.563V478.547H325.678V515.978H262.956V548.181" stroke="#EDEDED" stroke-width="2" stroke-linecap="round" stroke-linejoin="round"/>
<path d="M562.545 366.578H509.953V406.554H470.222" stroke="#DDDDDD" stroke-width="2" stroke-linecap="round" stroke-linejoin="round"/>
<path d="M537.789 101.573C537.789 101.573 537.557 102.108 537.139 103.014C536.721 103.92 536.314 104.721 535.71 105.86C535.303 106.65 534.85 107.498 534.339 108.393C534.037 108.939 533.712 109.554 533.363 110.077L533.026 110.623C532.26 111.889 531.411 113.202 530.482 114.492C529.831 115.398 529.146 116.304 528.426 117.175C522.78 124.018 518.04 121.148 518.04 121.148C516.716 122.3 515.617 123.686 514.799 125.238C513.651 127.363 512.821 129.645 512.336 132.011C499.01 141.723 490.553 128.921 494.515 117.535C499.905 112.458 504.713 106.797 508.85 100.655C504.552 94.9396 511.708 89.9558 514.996 93.2319L522.118 89.9325C537.127 85.9594 537.789 101.573 537.789 101.573Z" fill="#FEBD9D"/>
<path d="M510.767 94.6724C512.649 94.6724 514.252 95.4391 513.892 98.3318" stroke="#EF8A66" stroke-width="0.75" stroke-linecap="round" stroke-linejoin="round"/>
<path d="M512.661 99.703C509.931 98.0068 512.324 95.7763 513.823 97.182" stroke="#EF8A66" stroke-width="0.75" stroke-linecap="round" stroke-linejoin="round"/>
<path d="M526.021 114.155C524.058 113.539 523.21 111.053 523.698 108.904C518.47 112.552 522.373 116.873 526.021 114.155Z" fill="white" stroke="#EF8A66" stroke-width="0.75" stroke-linecap="round" stroke-linejoin="round"/>
<path d="M527.369 111.123C529.134 111.123 530.68 111.425 531.098 108.091C531.202 107.141 531.534 106.231 532.066 105.438C532.598 104.645 533.314 103.993 534.153 103.537" stroke="#EF8A66" stroke-width="0.75" stroke-linecap="round" stroke-linejoin="round"/>
<path d="M508.851 100.655C509.492 101.553 510.392 102.234 511.43 102.607" stroke="#EF8A66" stroke-width="0.75" stroke-linecap="round" stroke-linejoin="round"/>
<path d="M527.229 104.931C527.229 105.161 527.297 105.385 527.425 105.576C527.553 105.767 527.734 105.916 527.946 106.004C528.158 106.092 528.392 106.115 528.617 106.07C528.843 106.025 529.05 105.915 529.212 105.752C529.375 105.59 529.485 105.383 529.53 105.157C529.575 104.932 529.552 104.698 529.464 104.486C529.376 104.274 529.227 104.092 529.036 103.965C528.845 103.837 528.621 103.769 528.391 103.769C528.083 103.769 527.787 103.891 527.569 104.109C527.351 104.327 527.229 104.623 527.229 104.931Z" fill="#683F1D"/>
<path d="M534.339 108.416C534.037 108.962 533.712 109.578 533.363 110.101H533.282C532.974 110.101 532.678 109.978 532.46 109.76C532.243 109.542 532.12 109.247 532.12 108.939C532.12 108.631 532.243 108.335 532.46 108.117C532.678 107.899 532.974 107.777 533.282 107.777C533.5 107.773 533.715 107.831 533.902 107.944C534.089 108.057 534.241 108.221 534.339 108.416Z" fill="#683F1D"/>
<path d="M526.788 99.1219C526.23 100.806 531.435 102.607 532.213 100.865C532.992 99.1219 527.496 96.9262 526.788 99.1219Z" fill="#604730"/>
<path d="M537.139 103.014C536.79 103.746 536.314 104.722 535.71 105.86C534.676 104.699 533.723 103.165 534.06 102.573C534.595 101.632 536.047 102.294 537.139 103.014Z" fill="#604730"/>
<path d="M518.04 121.195C516.716 122.346 515.617 123.733 514.799 125.284C508.061 120.207 512.347 114.422 512.347 114.422C513.523 117.199 515.506 119.559 518.04 121.195V121.195Z" fill="#F4A789"/>
<path d="M544.678 100.47C544.585 102.363 542.843 104.257 539.904 104.304C537.173 104.304 535.164 101.225 535.617 98.1928C535.617 98.1928 530.97 99.2732 530.191 93.2206C530.191 93.2206 526.404 96.3108 524.383 91.2921C522.095 93.3137 520.002 95.5464 518.133 97.9605C515.809 101.213 514.647 100.76 514.578 99.3778C514.508 97.9953 515.96 95.7067 516.134 95.4279C517.642 94.5055 518.902 93.2294 519.805 91.7103C522.756 87.3073 525.788 84.5889 528.402 87.8417C531.016 91.0946 534.037 87.8417 535.187 91.78C536.279 95.5557 538.742 101.376 544.678 100.47Z" fill="#473526"/>
<path d="M527.764 82.3813C527.915 85.7852 524.906 89.8746 524.906 89.8746" stroke="#896442" stroke-width="0.75" stroke-linecap="round" stroke-linejoin="round"/>
<path d="M531.133 91.9074C531.751 90.7788 532.609 89.7995 533.647 89.0388C534.685 88.278 535.877 87.7542 537.139 87.5044" stroke="#896442" stroke-width="0.75" stroke-linecap="round" stroke-linejoin="round"/>
<path d="M536.198 97.1705C537.878 96.1445 539.831 95.6542 541.797 95.7648" stroke="#896442" stroke-width="0.75" stroke-linecap="round" stroke-linejoin="round"/>
<path d="M517.831 90.9902C518.457 91.2623 519.006 91.6845 519.429 92.2195C519.853 92.7545 520.138 93.3857 520.259 94.0572" stroke="#896442" stroke-width="0.75" stroke-linecap="round" stroke-linejoin="round"/>
<path d="M522.768 106.755C521.223 107.185 519.538 105.907 518.992 103.92C518.446 101.934 519.259 99.9702 520.805 99.552C522.35 99.1338 524.046 100.4 524.58 102.387C525.115 104.373 524.278 106.337 522.768 106.755Z" fill="#F4AF90"/>
<path d="M533.026 110.623C532.26 111.889 531.412 113.202 530.482 114.492C530.38 114.283 530.313 114.06 530.285 113.829C530.286 113.056 530.563 112.309 531.065 111.722C531.568 111.134 532.263 110.745 533.026 110.623V110.623Z" fill="#F4AF90"/>
<path d="M555.169 258.919C553.461 274.59 541.821 267.051 525.568 264.89L516.553 264.53L456.595 262.206L451.588 262.009L469.014 212.867C507.549 224.299 557.33 238.96 555.169 258.919Z" fill="#FED81D"/>
<path d="M516.553 264.53L456.595 262.206L458.384 249.102L466.575 228.074C466.575 228.074 480.399 227.238 476.194 239.332C471.988 251.425 473.673 259.999 495.513 254.295C508.711 250.821 514.241 258.175 516.553 264.53Z" fill="#FCC71F"/>
<path d="M484.21 194.385C473.998 207.686 468.469 236.509 467.191 253.808C466.273 266.261 464.402 298.337 459.721 325.162C443.561 359.816 421.29 343.447 422.545 319.028V318.9C424.717 301.009 423.707 285.697 421.72 279.296C419.025 270.792 412.368 242.446 411.265 230.817C408.778 205.258 414.529 183.464 422.882 171.022L484.21 194.385Z" fill="#FED81D"/>
<path d="M466.575 262.567C466.819 259.082 467.028 256.142 467.19 253.854C468.006 243.848 469.615 233.923 472 224.171" stroke="#F7AD2B" stroke-width="0.75" stroke-linecap="round" stroke-linejoin="round"/>
<path d="M429.016 189.517C419.606 252.809 437.706 276.648 434.952 312.104C433.961 321.876 432.169 331.551 429.597 341.031" stroke="#F7AD2B" stroke-width="0.75" stroke-linecap="round" stroke-linejoin="round"/>
<path d="M426.355 219.444C433.244 212.136 437.245 202.575 437.613 192.538" stroke="#F7AD2B" stroke-width="0.75" stroke-linecap="round" stroke-linejoin="round"/>
<path d="M467.481 203.946C467.481 203.946 464.53 217.538 463.345 221.372C463.345 221.372 467.481 222.034 468.956 219.432C470.432 216.829 473.197 205.491 473.197 205.491" stroke="#F7AD2B" stroke-width="0.75" stroke-linecap="round" stroke-linejoin="round"/>
<path d="M536.209 177.272L530.285 202.482C528.658 210.812 528.217 217.585 527.299 222.51C526.033 229.388 523.814 232.873 516.367 232.478L516.065 232.397L514.996 232.106L514.287 231.897L513.358 231.584C512.951 231.433 512.556 231.282 512.196 231.119C511.522 230.848 510.863 230.541 510.221 230.201L509.524 229.818C508.492 229.239 507.516 228.566 506.608 227.808C506.43 227.67 506.259 227.523 506.097 227.366C504.753 226.191 503.597 224.816 502.67 223.289C502.412 222.875 502.175 222.449 501.961 222.011C501.397 220.9 500.953 219.731 500.637 218.526C500.579 218.317 500.532 218.119 500.486 217.922C500.44 217.724 500.381 217.457 500.347 217.236C500.312 217.015 500.277 216.841 500.242 216.644C500.08 215.626 500.037 214.593 500.114 213.565C500.509 209.313 505.772 165.446 505.772 165.446L507.7 160.683L510.279 154.305L536.209 177.272Z" fill="#8F8AD9"/>
<path d="M527.299 222.51C526.032 229.388 523.814 232.873 516.367 232.478L516.041 232.397L514.973 232.106L514.264 231.897L513.335 231.584C512.928 231.433 512.533 231.281 512.173 231.119C511.499 230.848 510.84 230.541 510.198 230.201L509.501 229.818C508.469 229.239 507.493 228.566 506.585 227.808C506.406 227.67 506.236 227.523 506.074 227.366C504.729 226.191 503.573 224.816 502.647 223.289C502.388 222.875 502.152 222.449 501.938 222.011C501.373 220.9 500.929 219.731 500.614 218.526C500.555 218.316 500.509 218.119 500.463 217.921C500.416 217.724 500.358 217.457 500.323 217.236C500.288 217.015 500.253 216.841 500.219 216.644C500.057 215.626 500.014 214.593 500.091 213.565C500.486 209.313 505.748 165.446 505.748 165.446L507.677 160.683C511.848 168.664 516.785 181.594 511.034 190.388C502.182 203.934 503.483 225.914 521.037 223.056C523.107 222.714 525.2 222.531 527.299 222.51Z" fill="#807CBF"/>
<path d="M519.004 157.302C517.455 158.51 515.906 159.811 514.357 161.205C499.533 174.67 486.069 196.058 482.27 198.381C476.798 201.657 463.973 199.775 451.67 196.65C442.412 194.349 433.34 191.355 424.531 187.693C417.085 184.208 415.238 182.059 416.481 179.294C417.724 176.529 425.124 159.254 425.124 159.254L423.3 157.453L403.121 137.564C415.075 128.549 430.724 118.477 445.094 112.877C454.841 109.09 463.984 107.37 470.989 109.392L519.004 157.302Z" fill="#8F8AD9"/>
<path d="M519.004 157.302C517.455 158.51 515.906 159.811 514.357 161.205C498.766 161.461 483.896 172.079 470.757 160.671C454.493 146.556 469.212 136.1 459.139 122.334C455.589 117.767 450.685 114.441 445.129 112.831C454.876 109.043 464.019 107.324 471.024 109.345L519.004 157.302Z" fill="#807CBF"/>
<path d="M451.681 196.627C442.423 194.326 433.352 191.332 424.543 187.67C417.096 184.185 415.249 182.036 416.492 179.271C417.735 176.506 425.135 159.231 425.135 159.231L423.311 157.43C429.12 151.319 437.171 142.839 437.612 142.327C438.321 141.491 455.317 147.16 455.317 147.16C455.317 147.16 454.748 166.178 439.192 167.99C423.637 169.803 426.413 182.187 440.203 183.871C449.067 184.928 451.251 191.806 451.681 196.627Z" fill="#807CBF"/>
<path d="M404.236 136.716C379.595 151.017 400.495 199.868 454.806 151.087C460.534 123.635 429.678 120.185 404.236 136.716Z" fill="#807CBF"/>
<path d="M519.004 157.302C514.495 160.887 510.305 164.856 506.48 169.163" stroke="#83ADDF" stroke-width="0.75" stroke-linecap="round" stroke-linejoin="round"/>
<path d="M399.972 416.485C399.972 416.485 389.517 430.136 391.004 441.207H440.796C440.796 441.207 418.653 428.265 417.503 418.786L399.972 416.485Z" fill="#683F1D"/>
<path d="M460.22 322.234C460.057 323.233 459.895 324.221 459.721 325.196C457.908 335.652 455.666 345.248 452.889 352.625C442.957 378.997 426.169 420.25 426.169 420.25L394.164 417.59C396.487 411.351 408.104 384.852 419.246 337.348C420.669 331.288 421.751 325.152 422.487 318.97C422.545 318.528 422.591 318.075 422.638 317.634C425.043 303.24 455.515 289.38 460.22 322.234Z" fill="#FED81D"/>
<path d="M435.243 303.705C435.243 306.446 435.185 309.234 434.964 312.104C432.199 347.583 404.178 417.044 403.958 418.415" stroke="#F7AD2B" stroke-width="0.75" stroke-linecap="round" stroke-linejoin="round"/>
<path d="M521.722 341.845C521.722 341.845 516.982 355.507 518.411 366.578H562.557C562.557 366.578 540.426 353.636 539.322 344.145L521.722 341.845Z" fill="#683F1D"/>
<path d="M555.54 268.236C551.904 295.444 544.945 345.7 544.945 345.7H516.03L525.568 264.89C525.695 250.821 535.245 235.846 545.004 242.399C558.445 251.483 556.249 262.926 555.54 268.236Z" fill="#FED81D"/>
<path d="M578.021 234.138C578.021 234.138 566.404 234.556 552.776 234.556C541.542 234.556 528.961 234.277 520.515 233.232C519.864 233.151 519.237 233.058 518.621 232.941C518.342 232.941 518.064 232.849 517.796 232.79C517.529 232.732 517.332 232.709 517.099 232.651C516.693 232.57 516.298 232.465 515.938 232.372L514.776 232.035L514.509 231.954L513.521 231.617L513.347 231.559L512.185 231.118C512.142 231.108 512.103 231.088 512.069 231.059C498.895 222.672 498.5 213.459 505.691 207.825C510.745 203.805 519.562 201.551 530.332 202.539L576.011 211.682L578.021 234.138Z" fill="#8F8AD9"/>
<path d="M552.776 234.557C541.542 234.557 528.961 234.278 520.515 233.232C519.864 233.151 519.237 233.058 518.621 232.942C518.342 232.942 518.064 232.849 517.796 232.791C517.529 232.733 517.332 232.71 517.099 232.652C516.693 232.57 516.298 232.466 515.938 232.373L514.776 232.036L514.509 231.955L513.521 231.618L513.347 231.56L512.185 231.118C512.142 231.108 512.103 231.088 512.069 231.06C498.895 222.672 498.5 213.46 505.691 207.825C505.575 217.119 510.21 224.868 521.049 223.102C535.896 220.616 548.734 226.518 552.776 234.557Z" fill="#807CBF"/>
<path d="M530.297 202.516C527.219 201.999 524.117 201.639 521.003 201.436" stroke="#807CBF" stroke-width="0.75" stroke-linecap="round" stroke-linejoin="round"/>
<path d="M646.726 275.462L633.377 270.223L613.186 262.277C613.186 262.277 510.837 160.961 461.812 112.296C448.324 98.9012 438.867 89.5028 436.695 87.2954C429.469 79.93 446.581 60.5754 455.724 68.6379C456.433 69.2769 465.924 78.4778 480.19 92.3606C529.204 139.992 634.702 242.876 634.702 242.876L641.765 261.975L646.726 275.462Z" fill="#F9F9F9" stroke="#DDDDDD" stroke-width="2" stroke-linecap="round" stroke-linejoin="round"/>
<path d="M488.613 113.4L620.191 240.692" stroke="#EDEDED" stroke-linecap="round" stroke-linejoin="round"/>
<path d="M483.002 122.008L613.419 248.185" stroke="#EDEDED" stroke-linecap="round" stroke-linejoin="round"/>
<path d="M641.73 261.974C638.076 263.675 635.124 266.59 633.377 270.223L613.187 262.277C613.187 262.277 613.744 255.55 621.202 256.584C619.599 252.227 622.817 247.29 628.324 250.845C628.324 250.845 627.162 243.747 634.667 242.875L641.73 261.974Z" fill="#F9F9F9" stroke="#EDEDED" stroke-width="2" stroke-linecap="round" stroke-linejoin="round"/>
<path d="M646.726 275.462L633.377 270.223C635.124 266.59 638.076 263.675 641.73 261.975L646.726 275.462Z" fill="#DDDDDD" stroke="#DDDDDD" stroke-width="2" stroke-linecap="round" stroke-linejoin="round"/>
<path d="M480.19 92.3606C474.068 98.9942 467.353 106.302 461.812 112.296C448.324 98.9012 438.867 89.5028 436.695 87.2955C429.469 79.93 446.581 60.5754 455.724 68.6379C456.433 69.2769 465.924 78.4778 480.19 92.3606Z" stroke="#EDEDED" stroke-width="2" stroke-linecap="round" stroke-linejoin="round"/>
<path d="M473.476 85.8315L454.667 105.209" stroke="#EDEDED" stroke-width="2" stroke-linecap="round" stroke-linejoin="round"/>
<path d="M567.6 219.443C577.742 210.939 580.042 211.044 580.983 212.159C581.924 213.275 577.718 218.154 576.336 219.443C576.336 219.443 584.921 213.007 587.407 214.552C589.893 216.098 586.629 219.443 586.629 219.443C586.629 219.443 591.415 219.362 588.337 224.509C588.337 224.509 590.823 224.509 589.371 227.076C587.918 229.643 578.996 235.766 575.743 234.209C572.49 232.652 562.697 223.568 567.6 219.443Z" fill="#FEBD9D"/>
<path d="M572.002 215.912C578.462 210.998 580.135 211.265 580.983 212.16C581.831 213.054 577.718 218.154 576.336 219.444C576.336 219.444 584.921 213.008 587.407 214.553C589.893 216.098 586.629 219.444 586.629 219.444C586.629 219.444 591.415 219.362 588.336 224.509C588.336 224.509 590.823 224.509 589.37 227.076" stroke="#EF8A66" stroke-width="0.75" stroke-linecap="round" stroke-linejoin="round"/>
<path d="M586.641 219.443L577.579 225.298" stroke="#EF8A66" stroke-width="0.75" stroke-linecap="round" stroke-linejoin="round"/>
<path d="M579.984 229.712L588.348 224.508" stroke="#EF8A66" stroke-width="0.75" stroke-linecap="round" stroke-linejoin="round"/>
<path d="M576.348 219.443L573.722 221.592" stroke="#EF8A66" stroke-width="0.75" stroke-linecap="round" stroke-linejoin="round"/>
<path d="M470.049 147.09C471.146 142.377 471.018 137.462 469.677 132.812L459.442 137.692C459.442 137.692 463.171 147.915 470.049 147.09Z" fill="#807CBF"/>
<path d="M459.302 119.813C462.176 119.524 465.028 119.051 467.841 118.395C468.457 118.047 472.871 114.515 474.812 113.237C476.752 111.959 484.64 106.859 485.383 107.335C486.127 107.812 486.394 110.124 484.977 111.82C484.977 111.82 493.585 108.16 497.303 107.719C500.335 107.359 499.742 110.217 497.709 111.529C500.962 110.089 504.831 111.529 500.428 114.666C503.402 114.155 504.947 116.444 500.288 119.813C502.868 118.395 504.622 120.324 502.252 122.729C498.395 126.655 490.46 129.699 487.951 130.652C485.441 131.604 469.537 135.136 463.368 138.621C463.368 138.621 458.059 129.083 459.302 119.813Z" fill="#FEBD9D"/>
<path d="M474.823 113.237C476.787 111.959 484.652 106.859 485.395 107.335C486.139 107.812 486.406 110.124 484.988 111.82C484.988 111.82 493.597 108.16 497.314 107.719C500.347 107.359 499.754 110.217 497.721 111.529C500.974 110.089 504.843 111.529 500.44 114.666C503.414 114.155 504.959 116.444 500.3 119.813C502.879 118.395 504.633 120.324 502.264 122.729" stroke="#EF8A66" stroke-width="0.75" stroke-linecap="round" stroke-linejoin="round"/>
<path d="M484.989 111.82L480.539 114.004" stroke="#EF8A66" stroke-width="0.75" stroke-linecap="round" stroke-linejoin="round"/>
<path d="M497.721 111.529L488.613 115.758" stroke="#EF8A66" stroke-width="0.75" stroke-linecap="round" stroke-linejoin="round"/>
<path d="M500.44 114.666L490.553 119.813" stroke="#EF8A66" stroke-width="0.75" stroke-linecap="round" stroke-linejoin="round"/>
<path d="M500.3 119.812L492.551 124.215" stroke="#EF8A66" stroke-width="0.75" stroke-linecap="round" stroke-linejoin="round"/>
<path d="M463.868 116.641C447.964 118.256 419.269 123.019 397.753 138.586C389.424 144.604 389.552 169.953 412.287 167.851C435.022 165.748 470.083 147.09 470.083 147.09C470.083 147.09 461.068 145.104 463.868 116.641Z" fill="#8F8AD9"/>
<path d="M426.355 165.062C447.139 159.254 470.049 147.09 470.049 147.09C470.049 147.09 461.068 145.104 463.833 116.641C451.668 117.818 439.655 120.236 427.982 123.856" stroke="#807CBF" stroke-width="0.75" stroke-linecap="round" stroke-linejoin="round"/>
<path d="M311.309 367.739C311.309 367.739 278.35 441.939 262.004 472.597C234.773 491.789 230.533 472.04 234.866 456.147C236.748 452.221 242.278 434.678 248.063 414.871C252.966 398.072 258.043 379.658 261.238 366.577L298.518 367.437L311.309 367.739Z" fill="#5FB0F9"/>
<path d="M299.516 372.131C296.24 395.621 267.545 382.029 264.769 395.621C263.386 402.417 258.124 409.213 248.063 414.917C252.966 398.119 258.042 379.705 261.237 366.624L298.517 367.484C299.44 368.845 299.798 370.511 299.516 372.131V372.131Z" fill="#469EEE"/>
<path d="M275.26 384.072C272.227 385.466 274.098 387.174 274.958 389.707C275.817 392.239 271.321 391.624 271.472 395.051C271.623 398.478 273.285 396.561 271.472 401.719C269.718 406.703 249.829 456.774 243.01 467.718" stroke="#C3DCF8" stroke-width="0.75" stroke-linecap="round" stroke-linejoin="round"/>
<path d="M351.737 368.167C351.737 368.167 311.076 376.532 283.45 379.111C266.57 380.703 255.231 375.161 249.702 366.831C247.95 364.167 246.741 361.184 246.143 358.053C245.545 354.921 245.57 351.703 246.216 348.581C259.948 332.316 275.969 327.507 289.294 326.984C298.739 326.625 308.154 328.268 316.92 331.805C350.401 328.959 369.105 330.376 379.177 334.721C396.487 355.4 375.843 363.009 351.737 368.167Z" fill="#5FB0F9"/>
<path d="M265.606 336.173C264.978 347.791 269.718 351.822 294.719 351.462C322.229 351.067 360.601 348.557 362.657 348.918C366.851 349.65 358.696 356.295 361.577 356.399C365.376 356.55 369.477 357.108 367.386 359.71C365.294 362.312 363.041 363.37 364.586 364.984" stroke="#C3DCF8" stroke-width="0.75" stroke-linecap="round" stroke-linejoin="round"/>
<path d="M258.67 374.977C264.793 378.369 273.076 380.089 283.45 379.124C294.522 378.091 307.673 376.127 319.464 374.141" stroke="#83ADDF" stroke-width="0.75" stroke-linecap="round" stroke-linejoin="round"/>
<path d="M360.973 317.528C360.171 320.734 357.941 323.743 353.526 326.171C353.003 326.334 352.469 326.485 351.934 326.624C351.4 326.763 350.947 326.845 350.447 326.938L349.518 327.065L348.879 327.135H348.565C348.031 327.135 347.497 327.193 346.962 327.193C338.33 327.193 329.013 321.675 322.031 306.665C322.031 306.665 317.64 315.007 316.432 320.362C316.253 321.074 316.148 321.802 316.118 322.535C316.066 325.655 316.355 328.771 316.978 331.829C316.978 331.829 299.772 332.014 288.306 335.383C276.84 338.753 263.979 344.991 246.274 348.604C246.274 348.604 247.146 340.472 250.143 336.266C249.016 335.855 248.06 335.077 247.428 334.057C246.796 333.038 246.525 331.836 246.658 330.644C247.053 327.321 250.352 325.834 254.534 319.386C255.887 317.281 257.09 315.084 258.136 312.811C264.734 298.603 263.236 294.978 262.376 293.607L254.465 302.111C240.256 317.365 211.701 347.977 209.749 349.847C207.124 352.345 203.034 353.332 201.547 352.333C200.641 351.729 194.577 356.562 189.93 360.465C186.898 363.021 184.458 365.182 184.458 365.182L167.125 354.726C167.125 354.726 172.004 350.684 177.046 346.397C182.379 341.878 187.897 337.103 188.071 336.522C188.443 335.36 187.316 332.491 189.802 329.888C192.021 327.565 234.274 280.096 248.888 263.274C250.782 261.09 252.222 259.429 253.036 258.442C260.157 249.856 264.444 245.662 274.69 243.118L324.727 244.199C324.727 244.199 339.12 241.561 342.153 250.577C342.582 251.901 343.036 253.713 343.5 255.862C346.195 268.479 348.995 292.48 348.995 292.48C348.995 292.48 363.761 306.212 360.973 317.528Z" fill="#FF9B35"/>
<path d="M189.86 360.512C186.828 363.068 184.388 365.229 184.388 365.229L167.055 354.773C167.055 354.773 171.934 350.73 176.976 346.443C182.245 350.138 186.642 354.94 189.86 360.512V360.512Z" fill="#B25E47"/>
<path d="M275.039 279.818C275.039 285.754 271.972 294.27 268.393 297.453C264.025 301.31 270.601 315.309 263.293 319.34C261.976 320.169 260.452 320.608 258.896 320.608C257.34 320.608 255.816 320.169 254.499 319.34C255.852 317.235 257.055 315.038 258.1 312.765C264.699 298.557 263.2 294.932 262.341 293.561C267.325 288.415 271.983 283.245 275.039 279.818Z" fill="#FF8100"/>
<path d="M360.973 317.528C360.171 320.734 357.941 323.743 353.526 326.171C353.003 326.334 352.469 326.485 351.934 326.624C351.4 326.764 350.947 326.845 350.447 326.938L349.518 327.066L348.879 327.136H348.565C348.031 327.136 347.497 327.194 346.962 327.194C338.33 327.194 329.013 321.675 322.031 306.666C329.757 289.82 330.105 281.433 328.305 273.44C330.171 273.881 331.883 274.817 333.261 276.151C334.639 277.484 335.632 279.164 336.135 281.014C339.167 291.203 324.343 303.517 332.196 311.057C339.167 317.691 351.423 307.363 355.838 315.042C356.296 315.968 357.049 316.715 357.979 317.166C358.909 317.616 359.962 317.743 360.973 317.528Z" fill="#FF8100"/>
<path d="M343.396 255.828C338.621 255.444 332.545 256.455 329.176 262.798C323.053 274.416 302.711 289.518 288.457 271.639C277.316 257.698 267.244 256.676 248.818 263.193C250.712 261.009 252.153 259.348 252.966 258.36C260.087 249.775 264.374 245.581 274.621 243.037L324.657 244.118C324.657 244.118 339.051 241.48 342.083 250.495C342.478 251.866 342.931 253.632 343.396 255.828Z" fill="#FF8100"/>
<path d="M180.822 349.372L191.347 340.577" stroke="#F7AD2B" stroke-width="0.75" stroke-linecap="round" stroke-linejoin="round"/>
<path d="M184.679 353.252L194.844 344.585" stroke="#F7AD2B" stroke-width="0.75" stroke-linecap="round" stroke-linejoin="round"/>
<path d="M187.722 357.084L196.807 350.253" stroke="#F7AD2B" stroke-width="0.75" stroke-linecap="round" stroke-linejoin="round"/>
<path d="M251.839 347.316L254.499 336.883" stroke="#F7AD2B" stroke-width="0.75" stroke-linecap="round" stroke-linejoin="round"/>
<path d="M256.648 346.048L259.076 335.302" stroke="#F7AD2B" stroke-width="0.75" stroke-linecap="round" stroke-linejoin="round"/>
<path d="M261.237 344.678L263.294 335.303" stroke="#F7AD2B" stroke-width="0.75" stroke-linecap="round" stroke-linejoin="round"/>
<path d="M266.698 342.889L268.382 334.594" stroke="#F7AD2B" stroke-width="0.75" stroke-linecap="round" stroke-linejoin="round"/>
<path d="M272.042 341.007L273.134 333.537" stroke="#F7AD2B" stroke-width="0.75" stroke-linecap="round" stroke-linejoin="round"/>
<path d="M276.909 339.229L277.351 334.246" stroke="#F7AD2B" stroke-width="0.75" stroke-linecap="round" stroke-linejoin="round"/>
<path d="M278.582 275.705C278.582 275.705 277.234 277.273 275.039 279.771C271.983 283.256 267.325 288.368 262.341 293.537" stroke="#F7AD2B" stroke-width="0.75" stroke-linecap="round" stroke-linejoin="round"/>
<path d="M322.008 306.654C329.734 289.809 330.082 281.421 328.282 273.429C327.538 270.025 326.388 266.714 325.273 262.845" stroke="#F7AD2B" stroke-width="0.75" stroke-linecap="round" stroke-linejoin="round"/>
<path d="M270.892 251.727L278.582 246.569" stroke="#F7AD2B" stroke-width="0.75" stroke-linecap="round" stroke-linejoin="round"/>
<path d="M279.244 256.188L283.392 249.345" stroke="#F7AD2B" stroke-width="0.75" stroke-linecap="round" stroke-linejoin="round"/>
<path d="M286.47 257.907L288.457 251.285" stroke="#F7AD2B" stroke-width="0.75" stroke-linecap="round" stroke-linejoin="round"/>
<path d="M291.292 258.593L292.72 252.308" stroke="#F7AD2B" stroke-width="0.75" stroke-linecap="round" stroke-linejoin="round"/>
<path d="M296.031 259.615L296.891 252.935" stroke="#F7AD2B" stroke-width="0.75" stroke-linecap="round" stroke-linejoin="round"/>
<path d="M304.001 259.615V253.4" stroke="#F7AD2B" stroke-width="0.75" stroke-linecap="round" stroke-linejoin="round"/>
<path d="M310.054 253.4L310.971 259.615" stroke="#F7AD2B" stroke-width="0.75" stroke-linecap="round" stroke-linejoin="round"/>
<path d="M314.352 252.633L315.909 259.615" stroke="#F7AD2B" stroke-width="0.75" stroke-linecap="round" stroke-linejoin="round"/>
<path d="M318.232 251.727L320.382 257.396" stroke="#F7AD2B" stroke-width="0.75" stroke-linecap="round" stroke-linejoin="round"/>
<path d="M321.357 250.17L324.169 256.188" stroke="#F7AD2B" stroke-width="0.75" stroke-linecap="round" stroke-linejoin="round"/>
<path d="M324.854 250.17L328.386 252.935" stroke="#F7AD2B" stroke-width="0.75" stroke-linecap="round" stroke-linejoin="round"/>
<path d="M326.62 246.975L330.965 249.148" stroke="#F7AD2B" stroke-width="0.75" stroke-linecap="round" stroke-linejoin="round"/>
<path d="M315.084 238.355C314.224 237.96 313.283 237.554 312.273 237.193C309.823 236.28 307.217 235.861 304.605 235.962C295.636 236.067 274.621 243.142 274.621 243.142C275.074 243.769 280.569 249.868 291.768 252.18C302.967 254.492 314.445 253.342 319.359 251.39C320.796 250.768 322.043 249.778 322.973 248.519C323.903 247.26 324.484 245.778 324.657 244.222C324.657 244.222 322.322 241.655 315.084 238.355Z" fill="#B25E47"/>
<path d="M368.664 459.04C374.902 454.568 380.699 460.957 366.34 464.675" stroke="#83ADDF" stroke-width="0.75" stroke-linecap="round" stroke-linejoin="round"/>
<path d="M362.797 462.747C365.736 455.637 370.058 449.666 372.091 451.199C374.577 453.093 365.051 463.328 365.051 463.328" stroke="#83ADDF" stroke-width="0.75" stroke-linecap="round" stroke-linejoin="round"/>
<path d="M376.343 478.545H337.122C336.971 473.189 343.012 461.2 343.675 457.297C343.675 457.215 343.675 457.134 343.675 457.03C344.407 452.696 346.463 436.688 346.463 436.688L367.502 438.012L361.844 457.215C363.852 460.148 366.106 462.904 368.582 465.452C373.067 470.18 381.884 470.854 382.709 474.177C383.534 477.499 378.748 478.545 376.343 478.545Z" fill="#C3DCF8"/>
<path d="M367.537 438.012L361.879 457.215C361.879 457.215 350.471 457.122 343.709 457.03C344.441 452.696 346.498 436.688 346.498 436.688L367.537 438.012Z" fill="#B25E47"/>
<path d="M389.575 355.762C387.182 373.838 370.662 441.207 370.662 441.207H343.57L351.702 368.32C351.717 368.271 351.717 368.218 351.702 368.169C351.551 367.228 346.649 336.488 373.125 332.736C375.19 333.232 377.21 333.896 379.166 334.722V334.722C389.517 339.16 390.772 346.642 389.575 355.762Z" fill="#5FB0F9"/>
<path d="M353.131 349.197C358.533 348.942 362.077 348.814 362.658 348.918C366.852 349.65 358.696 356.295 361.577 356.4C365.376 356.551 369.477 357.109 367.386 359.711C365.062 362.522 362.89 363.44 364.772 365.171C368.339 368.436 362.251 371.537 361.833 375.29C361.415 379.042 354.584 435.514 354.584 435.514" stroke="#C3DCF8" stroke-width="0.75" stroke-linecap="round" stroke-linejoin="round"/>
<path d="M383.87 251.704C382.151 256.351 380.304 260.452 380.304 260.452L380.118 261.184L376.633 275.345C376.633 275.345 379.374 276.077 379.305 278.482C379.235 280.887 374.17 300.636 369.279 311.777C369.07 312.277 368.814 312.765 368.559 313.264C368.303 313.764 368.175 313.985 367.966 314.333C367.532 315.061 367.068 315.77 366.572 316.459C366.34 316.785 366.107 317.098 365.863 317.4C365.619 317.702 365.329 318.062 365.039 318.376C364.748 318.69 364.493 318.992 364.214 319.294C363.621 319.91 363.052 320.456 362.343 321.06L361.356 321.873C359.71 323.181 357.911 324.284 356 325.161H355.919L354.757 325.649C354.362 325.8 353.967 325.951 353.595 326.078C345.568 324.022 342.931 318.759 342.745 312.997C342.431 303.401 348.972 292.411 348.972 292.411C348.967 292.392 348.967 292.372 348.972 292.353C349.355 291.261 355.663 273.672 356.953 272.22C358.242 270.768 360.798 271.721 360.798 271.721L365.317 257.35L366.305 254.202C366.305 254.202 365.945 253.446 365.457 252.343C364.4 250.079 363.62 247.695 363.133 245.245C362.866 242.445 365.457 240.691 367.548 240.365C367.548 240.365 367.745 235.556 369.349 233.604C369.598 233.211 369.953 232.897 370.374 232.697C370.794 232.498 371.263 232.422 371.725 232.478C372.187 232.534 372.623 232.719 372.984 233.013C373.345 233.307 373.615 233.697 373.763 234.138C374.263 232.465 377.922 232.233 378.015 235.532C378.156 234.959 378.509 234.46 379.004 234.138C379.499 233.816 380.098 233.694 380.68 233.798C381.261 233.901 381.781 234.222 382.134 234.695C382.487 235.169 382.647 235.759 382.581 236.346C382.581 236.346 385.265 233.743 386.659 238.669C387.298 241.248 385.66 246.825 383.87 251.704Z" fill="#FF9B35"/>
<path d="M368.675 259.615C368.675 259.615 364.969 271.906 364.969 271.686" stroke="#F7AD2B" stroke-width="0.75" stroke-linecap="round" stroke-linejoin="round"/>
<path d="M371.567 260.776L369 271.441" stroke="#F7AD2B" stroke-width="0.75" stroke-linecap="round" stroke-linejoin="round"/>
<path d="M375.889 261.417L373.601 272.441" stroke="#F7AD2B" stroke-width="0.75" stroke-linecap="round" stroke-linejoin="round"/>
<path d="M348.855 292.445C346.532 299.149 344.975 304.132 345.254 305.829" stroke="#F7AD2B" stroke-width="0.75" stroke-linecap="round" stroke-linejoin="round"/>
<path d="M368.605 313.265C368.419 313.625 368.222 313.985 368.013 314.334C367.579 315.062 367.114 315.771 366.619 316.46C366.386 316.785 366.154 317.099 365.91 317.401C365.666 317.703 365.376 318.063 365.085 318.377C364.795 318.69 364.539 318.992 364.26 319.294C363.668 319.91 363.099 320.456 362.39 321.06L361.403 321.874C359.76 323.187 357.961 324.291 356.047 325.161H355.966L354.804 325.649C354.409 325.8 354.014 325.951 353.642 326.079C345.615 324.023 342.977 318.76 342.792 312.998C348.101 312.161 353.363 310.512 355.942 314.996C358.789 320.201 364.876 316.367 368.605 313.265Z" fill="#FF8100"/>
<path d="M380.304 260.452L380.118 261.183C377.756 261.557 375.349 261.529 372.996 261.102C370.146 260.532 367.485 259.254 365.259 257.385L366.247 254.236C366.247 254.236 363.319 248.079 363.052 245.279C362.785 242.479 365.375 240.725 367.466 240.4C367.466 240.4 367.664 235.59 369.267 233.639C369.516 233.246 369.872 232.931 370.292 232.732C370.713 232.533 371.181 232.457 371.643 232.512C372.105 232.568 372.542 232.754 372.903 233.048C373.263 233.342 373.533 233.732 373.682 234.173C374.181 232.5 377.841 232.256 377.934 235.567C378.074 234.994 378.428 234.495 378.923 234.173C379.418 233.85 380.017 233.729 380.598 233.832C381.179 233.936 381.7 234.257 382.053 234.73C382.406 235.203 382.566 235.794 382.499 236.38C382.499 236.38 385.183 233.778 386.577 238.704C387.971 243.63 380.304 260.452 380.304 260.452Z" fill="#B25E47"/>
<path d="M364.969 251.309C364.089 249.371 363.446 247.335 363.052 245.245C362.785 242.433 365.375 240.691 367.466 240.365C367.466 240.365 367.664 235.556 369.267 233.604C369.516 233.211 369.872 232.897 370.292 232.697C370.713 232.498 371.181 232.422 371.643 232.478C372.105 232.534 372.542 232.719 372.903 233.013C373.263 233.307 373.533 233.697 373.682 234.138C374.181 232.465 377.841 232.222 377.934 235.532C378.074 234.959 378.428 234.46 378.923 234.138C379.418 233.816 380.017 233.694 380.598 233.798C381.179 233.901 381.7 234.222 382.053 234.695C382.406 235.169 382.566 235.759 382.499 236.346C382.499 236.346 385.183 233.743 386.577 238.669" stroke="#934735" stroke-width="0.75" stroke-linecap="round" stroke-linejoin="round"/>
<path d="M367.443 240.4C371.103 239.738 374.228 240.087 374.332 241.33C374.437 242.573 370.08 244.339 370.08 244.339C370.08 244.339 375.645 245.082 373.763 251.727" stroke="#934735" stroke-width="0.75" stroke-linecap="round" stroke-linejoin="round"/>
<path d="M373.601 233.941C373.601 233.941 372.811 239.157 372.439 240.179" stroke="#934735" stroke-width="0.75" stroke-linecap="round" stroke-linejoin="round"/>
<path d="M374.542 241.353C375.947 241.736 377.295 240.307 378.027 235.126" stroke="#934735" stroke-width="0.75" stroke-linecap="round" stroke-linejoin="round"/>
<path d="M376.272 240.69C376.398 241.322 376.749 241.885 377.26 242.277C377.771 242.668 378.407 242.86 379.049 242.816" stroke="#934735" stroke-width="0.75" stroke-linecap="round" stroke-linejoin="round"/>
<path d="M382.546 236.38C381.384 237.275 378.364 242.723 379.967 244.071C381.837 245.628 383.336 241.748 383.336 241.748" stroke="#934735" stroke-width="0.75" stroke-linecap="round" stroke-linejoin="round"/>
<path d="M173.816 562.562C179.207 559.135 184.272 558.484 185.434 559.321C187.072 560.599 182.1 564.037 178.045 564.583" stroke="#83ADDF" stroke-width="0.75" stroke-linecap="round" stroke-linejoin="round"/>
<path d="M169.018 565.873C177.081 562.841 185.282 565.873 184.365 568.603C183.331 571.751 170.598 567.209 170.598 567.209" stroke="#83ADDF" stroke-width="0.75" stroke-linecap="round" stroke-linejoin="round"/>
<path d="M172.538 578.92C174.92 581.302 179.509 586.436 178.87 587.923C178.231 589.41 175.803 589.864 175.803 589.864H158.609C158.609 589.864 155.844 588.214 155.74 586.634C155.635 585.054 150.21 553.315 151.093 550.55C151.848 548.227 162.64 543.94 167.74 541.094C168.454 540.71 169.134 540.267 169.773 539.769C172.933 537.109 182.622 527.211 182.622 527.211L194.693 542.046C187.722 545.938 179.915 551.236 176.302 555.987C175.333 557.146 174.655 558.52 174.328 559.995C173.433 565.328 170.168 576.504 172.538 578.92Z" fill="#C3DCF8"/>
<path d="M194.693 541.999C187.722 545.891 179.915 551.189 176.302 555.94L167.74 541.047C168.454 540.663 169.134 540.22 169.773 539.722C172.933 537.062 182.622 527.164 182.622 527.164L194.693 541.999Z" fill="#B25E47"/>
<path d="M262.004 472.597C260.095 476.328 257.981 479.95 255.673 483.447C244.299 499.445 193.984 546.983 193.984 546.983L177.058 525.177L234.877 456.135C244.787 443.379 270.671 446.411 262.004 472.597Z" fill="#5FB0F9"/>
<path d="M239.42 472.446C226.571 487.851 183.923 534.018 183.923 534.018" stroke="#C3DCF8" stroke-width="0.75" stroke-linecap="round" stroke-linejoin="round"/>
<path d="M252.141 448.979C249.463 455.389 246.43 461.645 243.056 467.717" stroke="#C3DCF8" stroke-width="0.75" stroke-linecap="round" stroke-linejoin="round"/>
<path d="M330.721 234.685C326.701 233.523 326.62 236.66 328.514 237.938C330.407 239.215 329.443 243.2 324.726 243.746C324.297 243.804 323.181 243.967 321.834 244.106C319.313 244.362 316.025 244.571 315.049 244.025C314.073 243.479 314.015 241.957 314.364 240.354C314.422 240.029 314.526 239.703 314.619 239.355C315.161 237.661 315.857 236.02 316.699 234.452C318.937 234.404 321.121 233.762 323.03 232.594C327.34 229.724 327.456 223.973 325.714 217.979C325.277 216.48 324.749 215.01 324.134 213.576C323.658 212.414 323.123 211.252 322.554 210.172C317.303 199.937 309.856 199.949 309.856 199.949C313.155 205.595 310.019 209.428 308.09 210.404C306.162 211.38 304.059 212.042 304.164 215.923C304.268 219.803 302.526 220.384 301.364 220.186C297.704 219.512 295.102 222.289 296.717 225.333C298.332 228.376 302.862 227.424 304.21 225.983C304.21 225.983 306.894 227.784 307.045 229.933C307.196 232.082 303.048 234.661 305.012 238.007C305.385 238.595 305.588 239.275 305.6 239.972C305.611 240.668 305.431 241.354 305.078 241.955C304.725 242.555 304.213 243.046 303.599 243.375C302.984 243.703 302.291 243.856 301.596 243.816C299.896 243.613 298.173 243.878 296.612 244.583C296.237 244.766 295.879 244.984 295.543 245.233C295.306 245.411 295.08 245.605 294.87 245.814C293.104 247.603 291.791 249.799 287.586 248.835C283.38 247.87 282.637 242.015 282.637 242.015C276.677 242.282 272.692 243.003 272.309 238.147C271.995 234.29 276.317 232.907 278.605 232.489C279.054 232.429 279.475 232.238 279.818 231.942C280.16 231.645 280.408 231.255 280.531 230.819C280.655 230.384 280.648 229.922 280.512 229.49C280.376 229.058 280.117 228.675 279.767 228.388C277.548 226.692 279.209 224.066 282.451 222.951C285.692 221.836 284.484 214.633 284.774 211.125C285.227 204.851 291.036 199.391 298.831 199.019C298.831 199.019 302.862 190.295 312.621 191.793C322.38 193.292 326.806 202.725 326.353 207.07C325.9 211.415 325.842 216.039 330.547 216.259C335.252 216.48 337.9 219.373 336.204 222.266C334.508 225.158 333.3 227.331 336.867 229.712C340.433 232.094 334.741 235.812 330.721 234.685Z" fill="#604730"/>
<path d="M309.844 199.891C313.144 205.537 310.007 209.371 308.079 210.347C306.15 211.322 304.047 211.985 304.152 215.865C304.256 219.745 302.514 220.326 301.352 220.128C297.693 219.455 295.09 222.231 296.705 225.275C298.32 228.319 302.851 227.366 304.198 225.926C304.198 225.926 306.882 227.726 307.033 229.875C307.184 232.025 303.037 234.604 305 237.95C305.373 238.538 305.576 239.218 305.588 239.914C305.599 240.61 305.419 241.296 305.066 241.897C304.713 242.497 304.201 242.989 303.587 243.317C302.973 243.645 302.28 243.798 301.584 243.758C299.884 243.555 298.161 243.82 296.601 244.525C296.225 244.708 295.867 244.926 295.532 245.176C289.467 242.504 284.855 238.298 287.307 235.022C290.513 230.747 292.732 233.093 290.896 226.274C289.061 219.455 290.838 215.087 295.311 214.657C299.784 214.227 304.012 211.171 301.782 206.676C299.551 202.18 306.661 192.526 315.723 196.568C320.486 198.694 322.229 204.282 322.624 210.068C317.291 199.879 309.844 199.891 309.844 199.891Z" fill="#473526"/>
<path d="M323.03 232.559C322.577 235.974 320.463 239.308 314.364 240.331C314.422 240.005 314.526 239.68 314.619 239.332C315.161 237.637 315.858 235.996 316.699 234.429C318.938 234.377 321.123 233.731 323.03 232.559V232.559Z" fill="#473526"/>
<path d="M314.619 239.332C314.027 241.295 313.852 243.258 315.049 243.979C315.978 244.525 319.313 244.315 321.834 244.06C312.435 251.797 304.617 250.612 296.566 244.571C298.126 243.866 299.85 243.601 301.55 243.804C302.245 243.844 302.938 243.691 303.552 243.363C304.166 243.035 304.678 242.543 305.031 241.943C305.384 241.342 305.565 240.656 305.553 239.96C305.542 239.264 305.338 238.584 304.965 237.996C303.002 234.65 307.149 232.082 306.998 229.922C306.847 227.761 304.164 225.972 304.164 225.972C302.816 227.412 298.25 228.365 296.67 225.321C295.09 222.277 297.693 219.512 301.317 220.175C302.479 220.372 304.233 219.791 304.117 215.911C304.001 212.031 306.115 211.438 308.044 210.393C309.972 209.347 313.109 205.537 309.81 199.937C309.81 199.937 317.268 199.937 322.519 210.184C323.088 211.287 323.623 212.426 324.099 213.587C324.715 215.022 325.242 216.492 325.679 217.99C328.002 226.123 326.98 233.802 316.664 234.464C315.823 236.031 315.127 237.672 314.584 239.366L314.619 239.332Z" fill="#B25E47"/>
<path d="M325.713 217.944C325.272 218.106 324.794 218.136 324.336 218.03C323.878 217.925 323.461 217.69 323.134 217.352C322.368 216.364 322.809 214.692 324.133 213.53C324.747 214.969 325.275 216.443 325.713 217.944Z" fill="#A0503D"/>
<path d="M314.097 214.737C314.096 214.895 314.128 215.051 314.19 215.196C314.252 215.341 314.343 215.471 314.457 215.58C314.571 215.689 314.706 215.773 314.854 215.828C315.002 215.883 315.159 215.907 315.317 215.899C315.543 215.888 315.762 215.81 315.945 215.676C316.129 215.541 316.268 215.356 316.348 215.143C316.427 214.93 316.442 214.699 316.39 214.477C316.339 214.256 316.224 214.054 316.06 213.898C315.895 213.741 315.688 213.636 315.465 213.596C315.241 213.555 315.01 213.581 314.801 213.671C314.593 213.76 314.414 213.909 314.289 214.098C314.164 214.288 314.097 214.51 314.097 214.737Z" fill="#683F1D"/>
<path d="M319.289 212.217C319.289 212.526 319.411 212.821 319.629 213.039C319.847 213.257 320.143 213.379 320.451 213.379C320.608 213.379 320.764 213.347 320.909 213.285C321.054 213.223 321.185 213.133 321.294 213.019C321.402 212.904 321.487 212.769 321.541 212.622C321.596 212.474 321.62 212.317 321.613 212.159C321.613 211.851 321.49 211.556 321.272 211.338C321.054 211.12 320.759 210.998 320.451 210.998C320.293 210.997 320.137 211.029 319.992 211.091C319.848 211.153 319.717 211.244 319.608 211.358C319.499 211.472 319.415 211.607 319.36 211.755C319.305 211.903 319.281 212.06 319.289 212.217Z" fill="#683F1D"/>
<path d="M316.699 234.417C315.857 235.984 315.161 237.625 314.619 239.319C313.378 238.897 312.321 238.06 311.625 236.949C310.928 235.838 310.636 234.521 310.797 233.22C312.693 233.912 314.683 234.316 316.699 234.417V234.417Z" fill="#914839"/>
<path d="M298.831 224.043C299.633 221.975 302.316 222.359 303.478 223.567" stroke="#934735" stroke-width="0.75" stroke-linecap="round" stroke-linejoin="round"/>
<path d="M300.783 225.089C300.706 224.83 300.692 224.557 300.74 224.291C300.789 224.025 300.899 223.775 301.061 223.559C301.224 223.343 301.435 223.169 301.677 223.049C301.919 222.93 302.185 222.868 302.456 222.87" stroke="#934735" stroke-width="0.75" stroke-linecap="round" stroke-linejoin="round"/>
<path d="M304.175 225.972C304.578 225.474 304.867 224.896 305.023 224.275" stroke="#934735" stroke-width="0.75" stroke-linecap="round" stroke-linejoin="round"/>
<path d="M315.165 220.616C316.017 221.336 317.063 221.788 318.171 221.914C319.279 222.04 320.4 221.835 321.392 221.325" stroke="#934735" stroke-width="0.75" stroke-linecap="round" stroke-linejoin="round"/>
<path d="M322.542 217.793C323.077 216.074 322.728 214.843 320.742 214.517C319.785 214.299 318.936 213.749 318.347 212.964C317.758 212.179 317.466 211.21 317.524 210.23" stroke="#934735" stroke-width="0.75" stroke-linecap="round" stroke-linejoin="round"/>
<path d="M309.786 210.649C309.786 212.031 314.944 211.392 315.374 209.859C315.723 208.65 309.751 208.046 309.786 210.649Z" fill="#604730"/>
<path d="M319.894 204.329C318.639 203.736 316.92 208.72 318.476 209.103C319.243 209.301 322.833 205.734 319.894 204.329Z" fill="#604730"/>
<path d="M298.762 199.031C300.708 199.172 302.609 199.685 304.361 200.542" stroke="#896442" stroke-width="0.75" stroke-linecap="round" stroke-linejoin="round"/>
<path d="M302.037 208.011C298.18 209.44 293.545 211.857 293.406 216.492C293.266 221.127 295.253 225.333 289.119 228.353C282.985 231.374 288.794 239.111 288.794 239.111" stroke="#896442" stroke-width="0.75" stroke-linecap="round" stroke-linejoin="round"/>
<path d="M295.625 240.377C299.366 237.322 295.3 233.476 299.366 230.607" stroke="#896442" stroke-width="0.75" stroke-linecap="round" stroke-linejoin="round"/>
<path d="M306.081 204.654C299.807 202.18 292.558 205.293 290.978 207.942" stroke="#896442" stroke-width="0.75" stroke-linecap="round" stroke-linejoin="round"/>
<path d="M314.073 218.781C313.818 220.082 312.098 220.825 310.263 220.442C308.427 220.059 307.138 218.711 307.393 217.421C307.649 216.132 309.368 215.377 311.215 215.76C313.062 216.143 314.34 217.514 314.073 218.781Z" fill="#A0503D"/>
<path d="M16.7022 581.396C8.30282 590.411 6.24654 597.59 4.89893 602.307L23.7656 617.107H51.2756C51.2756 617.107 50.7876 610.462 45.4669 609.37C40.1461 608.278 36.9513 607.79 36.9513 607.79L31.7003 596.452L16.7022 581.396Z" fill="#FED81D"/>
<path d="M97.1179 456.787C97.873 508.949 101.172 519.765 90.496 537.819C79.8196 555.872 31.7004 596.452 31.7004 596.452L11.4048 581.244C11.4048 581.244 35.8013 554.176 47.198 539.747C58.5946 525.318 60.2792 519.451 59.9771 510.576C59.675 501.7 51.2524 434.191 51.2524 434.191L97.1179 456.787Z" fill="#9C9C9C"/>
<path d="M230.509 528.688C230.509 528.688 248.551 539.666 252.129 541.536C255.707 543.407 256.207 548.181 256.207 548.181H212.641C212.641 548.181 210.574 537.273 211.677 530.755L230.509 528.688Z" fill="#FED81D"/>
<path d="M230.509 528.687L208.494 533.044L180.403 457.623C173.863 440.128 166.823 424.549 181.24 419.054C197.4 419.611 205.102 424.758 211.701 443.241C218.625 462.747 230.509 528.687 230.509 528.687Z" fill="#9C9C9C"/>
<path d="M180.403 457.623C180.403 457.623 115.938 463.49 96.0604 464.234C76.183 464.977 56.8168 462.747 47.9644 431.531L98.6743 413.884L105.168 418.995C134.154 419.46 160.467 418.902 178.521 418.995C179.462 418.995 180.368 418.995 181.251 419.054C207.599 423.445 197.631 452.349 180.403 457.623Z" fill="#9C9C9C"/>
<path d="M92.7141 464.315C78.1691 464.57 64.2282 462.421 54.7949 447.644" stroke="#91613D" stroke-width="0.75" stroke-linecap="round" stroke-linejoin="round"/>
<path d="M135.537 380.436L120.887 392.972L108.573 419.169C108.573 419.169 90.0663 418.518 79.0646 426.441C68.063 434.364 52.1007 437.78 45.9318 437.675C45.4876 424.955 46.3714 412.223 48.569 399.686C52.2052 379.658 61.1274 349.128 61.1274 349.128C61.0228 348.175 60.9763 347.222 60.9415 346.293C60.4419 330.354 68.8529 317.737 82.5847 318.562C97.1181 319.457 111.977 324.836 111.977 324.836C111.977 324.836 128.055 327.38 136.524 332.108C140.37 334.257 142.995 337.917 143.588 344.225C144.308 351.8 142.066 363.208 135.537 380.436Z" fill="#FF9B35"/>
<path d="M103.183 395.573L98.3032 388.835C101.974 387.244 105.03 385.803 106.238 385.222C104.635 377.834 103.148 371.34 101.695 365.821C104.333 366.309 108.039 368.749 109.061 378.031C109.828 385.106 120.156 373.814 123.943 383.027C127.73 392.239 103.183 395.573 103.183 395.573Z" fill="#FF8100"/>
<path d="M134.143 353.251C132.133 355.354 129.263 366.762 125.127 380.285" stroke="#83ADDF" stroke-width="0.75" stroke-linecap="round" stroke-linejoin="round"/>
<path d="M190.917 363.72C190.743 367.786 183.528 366.764 183.528 366.764C185.364 369.993 180.043 372.096 177.418 372.247C175.655 372.295 173.9 372.003 172.248 371.387C172.248 371.387 146.422 394.355 136.768 402.998C127.114 411.642 109.224 425.071 97.1298 423.422C85.0361 421.772 81.6787 409.481 76.2998 395.54C79.1629 395.311 81.996 394.797 84.7573 394.006C91.902 392.02 103.589 386.513 106.238 385.247C106.575 386.827 106.935 388.465 107.283 390.138C128.938 377.916 153.033 362.256 155.054 360.316C157.076 358.376 165.638 351.684 168.17 348.942C170.703 346.201 175.489 348.745 173.561 350.267C171.632 351.789 170.703 353.299 178.463 358.085C188.233 364.103 191.114 358.84 190.917 363.72Z" fill="#FEBD9D"/>
<path d="M143.588 344.248C139.568 341.716 134.642 340.67 129.647 344.713C117.797 354.263 106.412 353.81 90.3685 335.326C74.7663 317.366 61.6967 344.736 60.9532 346.316C60.4537 330.377 68.8647 317.761 82.5964 318.586C97.1298 319.48 111.988 324.859 111.988 324.859C111.988 324.859 128.067 327.403 136.536 332.132C140.37 334.257 142.995 337.917 143.588 344.248Z" fill="#FF9B35"/>
<path d="M108.492 343.714C108.492 344.199 108.635 344.673 108.905 345.076C109.174 345.479 109.557 345.793 110.005 345.979C110.453 346.164 110.946 346.213 111.421 346.118C111.897 346.024 112.333 345.79 112.676 345.447C113.019 345.104 113.253 344.668 113.347 344.192C113.442 343.717 113.393 343.224 113.208 342.776C113.022 342.328 112.708 341.945 112.305 341.676C111.902 341.406 111.428 341.263 110.943 341.263C110.293 341.263 109.669 341.521 109.21 341.981C108.75 342.44 108.492 343.064 108.492 343.714V343.714Z" fill="white"/>
<path d="M60.9067 348.894C60.9067 348.894 69.6198 388.638 72.5241 395.364C73.7676 395.536 75.0268 395.563 76.2765 395.445C79.1396 395.216 81.9728 394.703 84.734 393.912C89.3531 392.483 93.8773 390.764 98.2799 388.765C101.951 387.174 105.006 385.733 106.215 385.152C104.611 377.764 103.124 371.27 101.672 365.751C98.3496 353.123 95.1897 345.676 91.0887 344.515" stroke="#83ADDF" stroke-width="0.75" stroke-linecap="round" stroke-linejoin="round"/>
<path d="M107.283 390.113C100.986 394.121 99.9873 397.397 99.9873 397.397" stroke="#EF8A66" stroke-width="0.75" stroke-linecap="round" stroke-linejoin="round"/>
<path d="M183.517 366.763C178.87 366.356 176.709 366.02 176.709 366.02" stroke="#EF8A66" stroke-width="0.75" stroke-linecap="round" stroke-linejoin="round"/>
<path d="M172.271 371.375C173.926 371.997 175.686 372.292 177.453 372.246C180.102 372.095 185.399 370.004 183.552 366.763C183.552 366.763 190.778 367.774 190.952 363.719C191.15 358.84 188.257 364.103 178.498 358.062C170.738 353.275 171.667 351.788 173.596 350.255C175.524 348.721 170.75 346.177 168.205 348.919C166.904 350.324 164.035 352.776 161.235 355.076" stroke="#EF8A66" stroke-width="0.75" stroke-linecap="round" stroke-linejoin="round"/>
<path d="M159.085 351.87C161.896 347.943 165.753 350.708 165.835 353.996C165.916 357.283 159.341 361.547 157.47 359.804C155.6 358.062 157.505 354.065 159.085 351.87Z" fill="#B25E47"/>
<path d="M166.462 374.976C163.477 373.489 161.362 375.743 163.848 378.461C166.334 381.18 170.888 379.948 171.748 377.241L166.462 374.976Z" fill="#B25E47"/>
<path d="M166.462 374.976C163.477 373.489 161.362 375.743 163.848 378.461C166.334 381.18 170.888 379.948 171.748 377.241L166.462 374.976Z" stroke="#934735" stroke-width="0.75" stroke-linecap="round" stroke-linejoin="round"/>
<path d="M170.284 372.13C167.159 371.549 164.545 372.583 165.533 375.07C166.52 377.556 173.665 380.355 176.709 375.07L170.284 372.13Z" fill="#B25E47"/>
<path d="M170.284 372.13C167.159 371.549 164.545 372.583 165.533 375.07C166.52 377.556 173.665 380.355 176.709 375.07L170.284 372.13Z" stroke="#934735" stroke-width="0.75" stroke-linecap="round" stroke-linejoin="round"/>
<path d="M159.085 351.87C161.896 347.943 165.753 350.708 165.835 353.996C165.916 357.283 159.341 361.547 157.47 359.804C155.6 358.062 157.505 354.065 159.085 351.87Z" stroke="#934735" stroke-width="0.75" stroke-linecap="round" stroke-linejoin="round"/>
<path d="M170.145 373.291C168.054 371.2 169.285 368.179 172.12 368.9C174.954 369.62 175.535 371.304 180.414 371.595C183.656 371.734 175.756 378.914 170.145 373.291Z" fill="#B25E47"/>
<path d="M170.145 373.291C168.054 371.2 169.285 368.179 172.12 368.9C174.954 369.62 175.535 371.304 180.414 371.595C183.656 371.734 175.756 378.914 170.145 373.291Z" stroke="#934735" stroke-width="0.75" stroke-linecap="round" stroke-linejoin="round"/>
<path d="M121.526 300.905L117.506 302.426L111.349 304.692C109.344 302.677 107.571 300.444 106.063 298.035C103.658 294.12 102.45 289.961 106.412 288.741C101.823 288.741 101.288 284.861 105.041 284.094C99.8478 283.966 101.811 278.843 107.178 279.447C107.178 279.447 103.856 274.951 112.627 274.022C118.819 273.371 123.64 274.916 126.568 277.042L126.8 277.228C127.993 278.058 128.93 279.205 129.507 280.539C130.785 283.908 121.526 300.905 121.526 300.905Z" fill="#D39933"/>
<path d="M121.526 300.904L117.506 302.426L111.349 304.691C109.344 302.677 107.571 300.444 106.063 298.035C108.282 295.653 111.872 296.094 112.429 294.433C113.243 292.11 107.062 281.015 117.227 281.271C122.955 281.41 125.603 279.18 126.812 277.205C128.005 278.035 128.942 279.181 129.519 280.516C130.785 283.908 121.526 300.904 121.526 300.904Z" fill="#C4892A"/>
<path d="M107.213 279.389C107.213 279.389 115.485 279.749 118.052 280.168C121.538 280.737 122.026 282.096 122.026 282.096" stroke="#EDB65F" stroke-width="0.75" stroke-linecap="round" stroke-linejoin="round"/>
<path d="M115.322 286.639L112.081 286.302" stroke="#EDB65F" stroke-width="0.75" stroke-linecap="round" stroke-linejoin="round"/>
<path d="M105.041 283.978C107.457 284.175 109.595 284.558 109.595 284.558" stroke="#EDB65F" stroke-width="0.75" stroke-linecap="round" stroke-linejoin="round"/>
<path d="M106.412 288.683C107.702 288.667 108.991 288.744 110.269 288.915" stroke="#EDB65F" stroke-width="0.75" stroke-linecap="round" stroke-linejoin="round"/>
<path d="M117.332 294.399C113.428 294.26 108.386 294.272 107.933 293.493" stroke="#EDB65F" stroke-width="0.75" stroke-linecap="round" stroke-linejoin="round"/>
<path d="M125.801 316.205C125.035 318.494 124.387 320.82 123.861 323.176C123.768 323.586 123.675 324.004 123.582 324.43C121.816 329.681 119.655 335.92 112.476 335.025C107.922 334.468 102.671 331.378 100.057 323.803C99.0462 320.864 101.881 318.052 102.241 317.518C105.029 313.475 107.631 309.281 108.514 306.145C108.514 306.145 106.342 303.415 107.841 300.557C108.066 300.139 108.339 299.749 108.654 299.395C111.035 296.746 115.462 297.966 116.937 300.011C117.3 299.752 117.631 299.452 117.924 299.116C118.199 298.88 118.424 298.591 118.585 298.266C118.746 297.941 118.84 297.587 118.862 297.225C118.884 296.863 118.832 296.501 118.711 296.159C118.59 295.817 118.402 295.503 118.157 295.236C117.886 294.926 117.619 294.636 117.355 294.365L117.251 294.26C115.415 292.32 113.858 290.775 114.648 288.114C114.798 287.577 115.034 287.067 115.345 286.604C116.565 284.885 118.831 284.664 122.223 285.117C126.486 285.675 128.624 284.455 129.542 280.47C129.658 280.644 130.587 282.143 131.865 284.525C132.237 285.21 132.632 285.965 133.027 286.79C133.98 288.672 135.025 290.903 136.001 293.319C136.388 294.241 136.749 295.182 137.082 296.142C137.446 297.138 137.753 298.154 137.999 299.186C140.09 307.667 138.766 317.96 125.801 316.205Z" fill="#FEBD9D"/>
<path d="M124.43 298.5C123.908 300.011 121.596 300.58 119.237 299.778C118.769 299.621 118.321 299.411 117.901 299.151C118.176 298.915 118.401 298.625 118.562 298.301C118.723 297.976 118.817 297.622 118.839 297.26C118.861 296.898 118.809 296.535 118.688 296.194C118.567 295.852 118.378 295.538 118.134 295.271C117.832 294.922 117.53 294.597 117.228 294.295C118.477 293.816 119.859 293.816 121.108 294.295C123.478 295.12 124.953 296.99 124.43 298.5Z" fill="#F4AF90"/>
<path d="M123.722 293.493C123.722 293.723 123.79 293.947 123.917 294.138C124.045 294.329 124.227 294.478 124.439 294.566C124.651 294.654 124.885 294.677 125.11 294.632C125.335 294.587 125.542 294.477 125.705 294.314C125.867 294.152 125.978 293.945 126.023 293.719C126.068 293.494 126.045 293.26 125.957 293.048C125.869 292.836 125.72 292.654 125.529 292.527C125.338 292.399 125.113 292.331 124.883 292.331C124.575 292.331 124.28 292.453 124.062 292.671C123.844 292.889 123.722 293.185 123.722 293.493Z" fill="#683F1D"/>
<path d="M132.237 292.388C132.891 292.388 133.422 291.858 133.422 291.204C133.422 290.549 132.891 290.019 132.237 290.019C131.582 290.019 131.052 290.549 131.052 291.204C131.052 291.858 131.582 292.388 132.237 292.388Z" fill="#683F1D"/>
<path d="M125.801 316.205C125.034 318.494 124.387 320.821 123.86 323.176C114.125 321.166 118.18 311.826 118.18 311.826C118.18 311.826 122.954 315.45 125.801 316.205Z" fill="#F4A789"/>
<path d="M108.491 306.156C110.268 308.654 114.834 308.584 116.379 307.318" stroke="#EF8A66" stroke-width="0.75" stroke-linecap="round" stroke-linejoin="round"/>
<path d="M110.269 302.938C112.162 300.707 114.753 301.776 116.193 304.413" stroke="#EF8A66" stroke-width="0.75" stroke-linecap="round" stroke-linejoin="round"/>
<path d="M114.532 305.679C111.442 305.598 112.429 301.927 115.322 303.147" stroke="#EF8A66" stroke-width="0.75" stroke-linecap="round" stroke-linejoin="round"/>
<path d="M126.068 299.197C127.288 301.288 128.624 302.346 131.587 301.718" stroke="#EF8A66" stroke-width="0.75" stroke-linecap="round" stroke-linejoin="round"/>
<path d="M129.054 288.172C128.648 290.751 128.38 292.993 131.122 294.259C133.864 295.526 133.329 298.035 130.762 298.802" stroke="#EF8A66" stroke-width="0.75" stroke-linecap="round" stroke-linejoin="round"/>
<path d="M119.4 289.647C120.434 291.041 125.743 288.567 124.79 286.696C124.198 285.523 117.576 287.149 119.4 289.647Z" fill="#D39933"/>
<path d="M133.027 286.824C131.633 287.405 128.81 286.987 128.81 286.139C128.81 285.291 130.46 284.606 131.854 284.559C132.226 285.245 132.621 286 133.027 286.824Z" fill="#D39933"/>
<path d="M137.999 299.219C137.563 299.51 137.052 299.671 136.527 299.681C136.002 299.691 135.485 299.551 135.037 299.277C133.782 298.313 133.968 295.932 135.478 293.945C135.653 293.736 135.827 293.527 136.001 293.353C136.388 294.274 136.749 295.215 137.082 296.176C137.446 297.171 137.753 298.188 137.999 299.219V299.219Z" fill="#F4AF90"/>
<path d="M102.218 317.529C99.3019 316.891 95.5262 318.273 95.0964 320.097C94.6665 321.921 94.1786 337.116 97.5709 337.163C100.963 337.209 106.621 330.297 109.572 335.746C113.231 342.495 114.381 333.596 119.086 338.162C120.748 339.777 122.746 343.041 124.802 340.485C126.858 337.93 128.392 328.868 127.753 327.381C127.114 325.894 125.534 324.07 123.536 324.442C122.188 324.686 120.051 333.968 112.836 334.351C111.349 334.433 101.312 323.896 100.708 321.747C100.103 319.597 102.218 317.529 102.218 317.529Z" fill="white"/>
</g>
<g opacity="0.25" clip-path="url(#clip1_1233_3600)">
<g filter="url(#filter0_d_1233_3600)">
<path d="M14.0966 625.492L-55.6187 695.197" stroke="#8F8AD9" stroke-width="18" stroke-linecap="round"/>
</g>
<g filter="url(#filter1_d_1233_3600)">
<path d="M14.0967 625.492L83.8119 695.197" stroke="#8F8AD9" stroke-width="18" stroke-linecap="round"/>
</g>
<g filter="url(#filter2_d_1233_3600)">
<path d="M83.812 625.492L153.527 695.197" stroke="#8F8AD9" stroke-width="18" stroke-linecap="round"/>
</g>
<g filter="url(#filter3_d_1233_3600)">
<path d="M153.527 625.492L223.242 695.197" stroke="#8F8AD9" stroke-width="18" stroke-linecap="round"/>
</g>
<g filter="url(#filter4_d_1233_3600)">
<path d="M292.957 625.492L223.242 695.197" stroke="#8F8AD9" stroke-width="18" stroke-linecap="round"/>
</g>
<g filter="url(#filter5_d_1233_3600)">
<path d="M-55.6187 695.195L14.0966 764.9" stroke="#8F8AD9" stroke-width="18" stroke-linecap="round"/>
</g>
<g filter="url(#filter6_d_1233_3600)">
<path d="M83.8114 695.195L14.0962 764.9" stroke="#8F8AD9" stroke-width="18" stroke-linecap="round"/>
</g>
<g filter="url(#filter7_d_1233_3600)">
<path d="M153.527 695.195L83.812 764.9" stroke="#8F8AD9" stroke-width="18" stroke-linecap="round"/>
</g>
<g filter="url(#filter8_d_1233_3600)">
<path d="M153.527 695.195L223.242 764.9" stroke="#8F8AD9" stroke-width="18" stroke-linecap="round"/>
</g>
<g filter="url(#filter9_d_1233_3600)">
<path d="M223.242 695.195L292.957 764.9" stroke="#8F8AD9" stroke-width="18" stroke-linecap="round"/>
</g>
</g>
<g opacity="0.25" clip-path="url(#clip2_1233_3600)">
<g filter="url(#filter10_d_1233_3600)">
<path d="M545.163 428.001L475.448 497.705" stroke="#8F8AD9" stroke-width="18" stroke-linecap="round"/>
</g>
<g filter="url(#filter11_d_1233_3600)">
<path d="M545.163 428.001L614.878 497.705" stroke="#8F8AD9" stroke-width="18" stroke-linecap="round"/>
</g>
<g filter="url(#filter12_d_1233_3600)">
<path d="M614.878 428.001L684.594 497.705" stroke="#8F8AD9" stroke-width="18" stroke-linecap="round"/>
</g>
<g filter="url(#filter13_d_1233_3600)">
<path d="M475.448 497.704L545.163 567.408" stroke="#8F8AD9" stroke-width="18" stroke-linecap="round"/>
</g>
<g filter="url(#filter14_d_1233_3600)">
<path d="M614.878 497.704L545.163 567.408" stroke="#8F8AD9" stroke-width="18" stroke-linecap="round"/>
</g>
<g filter="url(#filter15_d_1233_3600)">
<path d="M684.594 497.704L614.878 567.408" stroke="#8F8AD9" stroke-width="18" stroke-linecap="round"/>
</g>
<g filter="url(#filter16_d_1233_3600)">
<path d="M475.448 567.41L545.163 637.115" stroke="#8F8AD9" stroke-width="18" stroke-linecap="round"/>
</g>
<g filter="url(#filter17_d_1233_3600)">
<path d="M545.163 567.41L614.878 637.115" stroke="#8F8AD9" stroke-width="18" stroke-linecap="round"/>
</g>
<g filter="url(#filter18_d_1233_3600)">
<path d="M614.878 567.41L684.594 637.115" stroke="#8F8AD9" stroke-width="18" stroke-linecap="round"/>
</g>
<g filter="url(#filter19_d_1233_3600)">
<path d="M545.163 637.113L475.448 706.818" stroke="#8F8AD9" stroke-width="18" stroke-linecap="round"/>
</g>
<g filter="url(#filter20_d_1233_3600)">
<path d="M614.879 637.113L545.164 706.818" stroke="#8F8AD9" stroke-width="18" stroke-linecap="round"/>
</g>
<g filter="url(#filter21_d_1233_3600)">
<path d="M614.878 637.113L684.594 706.818" stroke="#8F8AD9" stroke-width="18" stroke-linecap="round"/>
</g>
<g filter="url(#filter22_d_1233_3600)">
<path d="M475.448 706.818L545.163 776.523" stroke="#8F8AD9" stroke-width="18" stroke-linecap="round"/>
</g>
<g filter="url(#filter23_d_1233_3600)">
<path d="M545.164 706.818L614.879 776.523" stroke="#8F8AD9" stroke-width="18" stroke-linecap="round"/>
</g>
<g filter="url(#filter24_d_1233_3600)">
<path d="M684.594 706.818L614.878 776.523" stroke="#8F8AD9" stroke-width="18" stroke-linecap="round"/>
</g>
</g>
<g opacity="0.25" clip-path="url(#clip3_1233_3600)">
<g filter="url(#filter25_d_1233_3600)">
<path d="M483.704 550.28L413.999 480.564" stroke="#FF9B35" stroke-width="18" stroke-linecap="round"/>
</g>
<g filter="url(#filter26_d_1233_3600)">
<path d="M483.704 550.279L413.999 619.995" stroke="#FF9B35" stroke-width="18" stroke-linecap="round"/>
</g>
<g filter="url(#filter27_d_1233_3600)">
<path d="M483.704 619.995L413.999 689.71" stroke="#FF9B35" stroke-width="18" stroke-linecap="round"/>
</g>
<g filter="url(#filter28_d_1233_3600)">
<path d="M483.704 689.71L413.999 759.425" stroke="#FF9B35" stroke-width="18" stroke-linecap="round"/>
</g>
<g filter="url(#filter29_d_1233_3600)">
<path d="M483.704 829.141L413.999 759.426" stroke="#FF9B35" stroke-width="18" stroke-linecap="round"/>
</g>
<g filter="url(#filter30_d_1233_3600)">
<path d="M414 480.564L344.296 550.28" stroke="#FF9B35" stroke-width="18" stroke-linecap="round"/>
</g>
<g filter="url(#filter31_d_1233_3600)">
<path d="M414 619.995L344.296 550.279" stroke="#FF9B35" stroke-width="18" stroke-linecap="round"/>
</g>
<g filter="url(#filter32_d_1233_3600)">
<path d="M414 689.71L344.296 619.995" stroke="#FF9B35" stroke-width="18" stroke-linecap="round"/>
</g>
<g filter="url(#filter33_d_1233_3600)">
<path d="M414 689.71L344.296 759.425" stroke="#FF9B35" stroke-width="18" stroke-linecap="round"/>
</g>
<g filter="url(#filter34_d_1233_3600)">
<path d="M414 759.425L344.296 829.14" stroke="#FF9B35" stroke-width="18" stroke-linecap="round"/>
</g>
<g filter="url(#filter35_d_1233_3600)">
<path d="M344.295 480.564L274.591 550.28" stroke="#FF9B35" stroke-width="18" stroke-linecap="round"/>
</g>
<g filter="url(#filter36_d_1233_3600)">
<path d="M344.295 550.279L274.591 619.995" stroke="#FF9B35" stroke-width="18" stroke-linecap="round"/>
</g>
<g filter="url(#filter37_d_1233_3600)">
<path d="M344.295 619.995L274.591 689.71" stroke="#FF9B35" stroke-width="18" stroke-linecap="round"/>
</g>
<g filter="url(#filter38_d_1233_3600)">
<path d="M344.295 689.71L274.591 759.425" stroke="#FF9B35" stroke-width="18" stroke-linecap="round"/>
</g>
<g filter="url(#filter39_d_1233_3600)">
<path d="M344.295 759.426L274.591 829.141" stroke="#FF9B35" stroke-width="18" stroke-linecap="round"/>
</g>
</g>
<defs>
<filter id="filter0_d_1233_3600" x="-64.6187" y="616.492" width="87.7153" height="98.7041" filterUnits="userSpaceOnUse" color-interpolation-filters="sRGB">
<feFlood flood-opacity="0" result="BackgroundImageFix"/>
<feColorMatrix in="SourceAlpha" type="matrix" values="0 0 0 0 0 0 0 0 0 0 0 0 0 0 0 0 0 0 127 0" result="hardAlpha"/>
<feOffset dy="11"/>
<feComposite in2="hardAlpha" operator="out"/>
<feColorMatrix type="matrix" values="0 0 0 0 0.501961 0 0 0 0 0.486275 0 0 0 0 0.74902 0 0 0 1 0"/>
<feBlend mode="normal" in2="BackgroundImageFix" result="effect1_dropShadow_1233_3600"/>
<feBlend mode="normal" in="SourceGraphic" in2="effect1_dropShadow_1233_3600" result="shape"/>
</filter>
<filter id="filter1_d_1233_3600" x="5.09668" y="616.492" width="87.7153" height="98.7041" filterUnits="userSpaceOnUse" color-interpolation-filters="sRGB">
<feFlood flood-opacity="0" result="BackgroundImageFix"/>
<feColorMatrix in="SourceAlpha" type="matrix" values="0 0 0 0 0 0 0 0 0 0 0 0 0 0 0 0 0 0 127 0" result="hardAlpha"/>
<feOffset dy="11"/>
<feComposite in2="hardAlpha" operator="out"/>
<feColorMatrix type="matrix" values="0 0 0 0 0.501961 0 0 0 0 0.486275 0 0 0 0 0.74902 0 0 0 1 0"/>
<feBlend mode="normal" in2="BackgroundImageFix" result="effect1_dropShadow_1233_3600"/>
<feBlend mode="normal" in="SourceGraphic" in2="effect1_dropShadow_1233_3600" result="shape"/>
</filter>
<filter id="filter2_d_1233_3600" x="74.812" y="616.492" width="87.7153" height="98.7041" filterUnits="userSpaceOnUse" color-interpolation-filters="sRGB">
<feFlood flood-opacity="0" result="BackgroundImageFix"/>
<feColorMatrix in="SourceAlpha" type="matrix" values="0 0 0 0 0 0 0 0 0 0 0 0 0 0 0 0 0 0 127 0" result="hardAlpha"/>
<feOffset dy="11"/>
<feComposite in2="hardAlpha" operator="out"/>
<feColorMatrix type="matrix" values="0 0 0 0 0.501961 0 0 0 0 0.486275 0 0 0 0 0.74902 0 0 0 1 0"/>
<feBlend mode="normal" in2="BackgroundImageFix" result="effect1_dropShadow_1233_3600"/>
<feBlend mode="normal" in="SourceGraphic" in2="effect1_dropShadow_1233_3600" result="shape"/>
</filter>
<filter id="filter3_d_1233_3600" x="144.527" y="616.492" width="87.7153" height="98.7041" filterUnits="userSpaceOnUse" color-interpolation-filters="sRGB">
<feFlood flood-opacity="0" result="BackgroundImageFix"/>
<feColorMatrix in="SourceAlpha" type="matrix" values="0 0 0 0 0 0 0 0 0 0 0 0 0 0 0 0 0 0 127 0" result="hardAlpha"/>
<feOffset dy="11"/>
<feComposite in2="hardAlpha" operator="out"/>
<feColorMatrix type="matrix" values="0 0 0 0 0.501961 0 0 0 0 0.486275 0 0 0 0 0.74902 0 0 0 1 0"/>
<feBlend mode="normal" in2="BackgroundImageFix" result="effect1_dropShadow_1233_3600"/>
<feBlend mode="normal" in="SourceGraphic" in2="effect1_dropShadow_1233_3600" result="shape"/>
</filter>
<filter id="filter4_d_1233_3600" x="214.242" y="616.492" width="87.7153" height="98.7041" filterUnits="userSpaceOnUse" color-interpolation-filters="sRGB">
<feFlood flood-opacity="0" result="BackgroundImageFix"/>
<feColorMatrix in="SourceAlpha" type="matrix" values="0 0 0 0 0 0 0 0 0 0 0 0 0 0 0 0 0 0 127 0" result="hardAlpha"/>
<feOffset dy="11"/>
<feComposite in2="hardAlpha" operator="out"/>
<feColorMatrix type="matrix" values="0 0 0 0 0.501961 0 0 0 0 0.486275 0 0 0 0 0.74902 0 0 0 1 0"/>
<feBlend mode="normal" in2="BackgroundImageFix" result="effect1_dropShadow_1233_3600"/>
<feBlend mode="normal" in="SourceGraphic" in2="effect1_dropShadow_1233_3600" result="shape"/>
</filter>
<filter id="filter5_d_1233_3600" x="-64.6187" y="686.195" width="87.7153" height="98.7041" filterUnits="userSpaceOnUse" color-interpolation-filters="sRGB">
<feFlood flood-opacity="0" result="BackgroundImageFix"/>
<feColorMatrix in="SourceAlpha" type="matrix" values="0 0 0 0 0 0 0 0 0 0 0 0 0 0 0 0 0 0 127 0" result="hardAlpha"/>
<feOffset dy="11"/>
<feComposite in2="hardAlpha" operator="out"/>
<feColorMatrix type="matrix" values="0 0 0 0 0.501961 0 0 0 0 0.486275 0 0 0 0 0.74902 0 0 0 1 0"/>
<feBlend mode="normal" in2="BackgroundImageFix" result="effect1_dropShadow_1233_3600"/>
<feBlend mode="normal" in="SourceGraphic" in2="effect1_dropShadow_1233_3600" result="shape"/>
</filter>
<filter id="filter6_d_1233_3600" x="5.09619" y="686.195" width="87.7153" height="98.7041" filterUnits="userSpaceOnUse" color-interpolation-filters="sRGB">
<feFlood flood-opacity="0" result="BackgroundImageFix"/>
<feColorMatrix in="SourceAlpha" type="matrix" values="0 0 0 0 0 0 0 0 0 0 0 0 0 0 0 0 0 0 127 0" result="hardAlpha"/>
<feOffset dy="11"/>
<feComposite in2="hardAlpha" operator="out"/>
<feColorMatrix type="matrix" values="0 0 0 0 0.501961 0 0 0 0 0.486275 0 0 0 0 0.74902 0 0 0 1 0"/>
<feBlend mode="normal" in2="BackgroundImageFix" result="effect1_dropShadow_1233_3600"/>
<feBlend mode="normal" in="SourceGraphic" in2="effect1_dropShadow_1233_3600" result="shape"/>
</filter>
<filter id="filter7_d_1233_3600" x="74.812" y="686.195" width="87.7153" height="98.7041" filterUnits="userSpaceOnUse" color-interpolation-filters="sRGB">
<feFlood flood-opacity="0" result="BackgroundImageFix"/>
<feColorMatrix in="SourceAlpha" type="matrix" values="0 0 0 0 0 0 0 0 0 0 0 0 0 0 0 0 0 0 127 0" result="hardAlpha"/>
<feOffset dy="11"/>
<feComposite in2="hardAlpha" operator="out"/>
<feColorMatrix type="matrix" values="0 0 0 0 0.501961 0 0 0 0 0.486275 0 0 0 0 0.74902 0 0 0 1 0"/>
<feBlend mode="normal" in2="BackgroundImageFix" result="effect1_dropShadow_1233_3600"/>
<feBlend mode="normal" in="SourceGraphic" in2="effect1_dropShadow_1233_3600" result="shape"/>
</filter>
<filter id="filter8_d_1233_3600" x="144.527" y="686.195" width="87.7153" height="98.7041" filterUnits="userSpaceOnUse" color-interpolation-filters="sRGB">
<feFlood flood-opacity="0" result="BackgroundImageFix"/>
<feColorMatrix in="SourceAlpha" type="matrix" values="0 0 0 0 0 0 0 0 0 0 0 0 0 0 0 0 0 0 127 0" result="hardAlpha"/>
<feOffset dy="11"/>
<feComposite in2="hardAlpha" operator="out"/>
<feColorMatrix type="matrix" values="0 0 0 0 0.501961 0 0 0 0 0.486275 0 0 0 0 0.74902 0 0 0 1 0"/>
<feBlend mode="normal" in2="BackgroundImageFix" result="effect1_dropShadow_1233_3600"/>
<feBlend mode="normal" in="SourceGraphic" in2="effect1_dropShadow_1233_3600" result="shape"/>
</filter>
<filter id="filter9_d_1233_3600" x="214.242" y="686.195" width="87.7153" height="98.7041" filterUnits="userSpaceOnUse" color-interpolation-filters="sRGB">
<feFlood flood-opacity="0" result="BackgroundImageFix"/>
<feColorMatrix in="SourceAlpha" type="matrix" values="0 0 0 0 0 0 0 0 0 0 0 0 0 0 0 0 0 0 127 0" result="hardAlpha"/>
<feOffset dy="11"/>
<feComposite in2="hardAlpha" operator="out"/>
<feColorMatrix type="matrix" values="0 0 0 0 0.501961 0 0 0 0 0.486275 0 0 0 0 0.74902 0 0 0 1 0"/>
<feBlend mode="normal" in2="BackgroundImageFix" result="effect1_dropShadow_1233_3600"/>
<feBlend mode="normal" in="SourceGraphic" in2="effect1_dropShadow_1233_3600" result="shape"/>
</filter>
<filter id="filter10_d_1233_3600" x="466.448" y="419.001" width="87.7153" height="98.7041" filterUnits="userSpaceOnUse" color-interpolation-filters="sRGB">
<feFlood flood-opacity="0" result="BackgroundImageFix"/>
<feColorMatrix in="SourceAlpha" type="matrix" values="0 0 0 0 0 0 0 0 0 0 0 0 0 0 0 0 0 0 127 0" result="hardAlpha"/>
<feOffset dy="11"/>
<feComposite in2="hardAlpha" operator="out"/>
<feColorMatrix type="matrix" values="0 0 0 0 0.501961 0 0 0 0 0.486275 0 0 0 0 0.74902 0 0 0 1 0"/>
<feBlend mode="normal" in2="BackgroundImageFix" result="effect1_dropShadow_1233_3600"/>
<feBlend mode="normal" in="SourceGraphic" in2="effect1_dropShadow_1233_3600" result="shape"/>
</filter>
<filter id="filter11_d_1233_3600" x="536.163" y="419.001" width="87.7153" height="98.7041" filterUnits="userSpaceOnUse" color-interpolation-filters="sRGB">
<feFlood flood-opacity="0" result="BackgroundImageFix"/>
<feColorMatrix in="SourceAlpha" type="matrix" values="0 0 0 0 0 0 0 0 0 0 0 0 0 0 0 0 0 0 127 0" result="hardAlpha"/>
<feOffset dy="11"/>
<feComposite in2="hardAlpha" operator="out"/>
<feColorMatrix type="matrix" values="0 0 0 0 0.501961 0 0 0 0 0.486275 0 0 0 0 0.74902 0 0 0 1 0"/>
<feBlend mode="normal" in2="BackgroundImageFix" result="effect1_dropShadow_1233_3600"/>
<feBlend mode="normal" in="SourceGraphic" in2="effect1_dropShadow_1233_3600" result="shape"/>
</filter>
<filter id="filter12_d_1233_3600" x="605.878" y="419.001" width="87.7153" height="98.7041" filterUnits="userSpaceOnUse" color-interpolation-filters="sRGB">
<feFlood flood-opacity="0" result="BackgroundImageFix"/>
<feColorMatrix in="SourceAlpha" type="matrix" values="0 0 0 0 0 0 0 0 0 0 0 0 0 0 0 0 0 0 127 0" result="hardAlpha"/>
<feOffset dy="11"/>
<feComposite in2="hardAlpha" operator="out"/>
<feColorMatrix type="matrix" values="0 0 0 0 0.501961 0 0 0 0 0.486275 0 0 0 0 0.74902 0 0 0 1 0"/>
<feBlend mode="normal" in2="BackgroundImageFix" result="effect1_dropShadow_1233_3600"/>
<feBlend mode="normal" in="SourceGraphic" in2="effect1_dropShadow_1233_3600" result="shape"/>
</filter>
<filter id="filter13_d_1233_3600" x="466.448" y="488.704" width="87.7153" height="98.7041" filterUnits="userSpaceOnUse" color-interpolation-filters="sRGB">
<feFlood flood-opacity="0" result="BackgroundImageFix"/>
<feColorMatrix in="SourceAlpha" type="matrix" values="0 0 0 0 0 0 0 0 0 0 0 0 0 0 0 0 0 0 127 0" result="hardAlpha"/>
<feOffset dy="11"/>
<feComposite in2="hardAlpha" operator="out"/>
<feColorMatrix type="matrix" values="0 0 0 0 0.501961 0 0 0 0 0.486275 0 0 0 0 0.74902 0 0 0 1 0"/>
<feBlend mode="normal" in2="BackgroundImageFix" result="effect1_dropShadow_1233_3600"/>
<feBlend mode="normal" in="SourceGraphic" in2="effect1_dropShadow_1233_3600" result="shape"/>
</filter>
<filter id="filter14_d_1233_3600" x="536.163" y="488.704" width="87.7153" height="98.7041" filterUnits="userSpaceOnUse" color-interpolation-filters="sRGB">
<feFlood flood-opacity="0" result="BackgroundImageFix"/>
<feColorMatrix in="SourceAlpha" type="matrix" values="0 0 0 0 0 0 0 0 0 0 0 0 0 0 0 0 0 0 127 0" result="hardAlpha"/>
<feOffset dy="11"/>
<feComposite in2="hardAlpha" operator="out"/>
<feColorMatrix type="matrix" values="0 0 0 0 0.501961 0 0 0 0 0.486275 0 0 0 0 0.74902 0 0 0 1 0"/>
<feBlend mode="normal" in2="BackgroundImageFix" result="effect1_dropShadow_1233_3600"/>
<feBlend mode="normal" in="SourceGraphic" in2="effect1_dropShadow_1233_3600" result="shape"/>
</filter>
<filter id="filter15_d_1233_3600" x="605.878" y="488.704" width="87.7153" height="98.7041" filterUnits="userSpaceOnUse" color-interpolation-filters="sRGB">
<feFlood flood-opacity="0" result="BackgroundImageFix"/>
<feColorMatrix in="SourceAlpha" type="matrix" values="0 0 0 0 0 0 0 0 0 0 0 0 0 0 0 0 0 0 127 0" result="hardAlpha"/>
<feOffset dy="11"/>
<feComposite in2="hardAlpha" operator="out"/>
<feColorMatrix type="matrix" values="0 0 0 0 0.501961 0 0 0 0 0.486275 0 0 0 0 0.74902 0 0 0 1 0"/>
<feBlend mode="normal" in2="BackgroundImageFix" result="effect1_dropShadow_1233_3600"/>
<feBlend mode="normal" in="SourceGraphic" in2="effect1_dropShadow_1233_3600" result="shape"/>
</filter>
<filter id="filter16_d_1233_3600" x="466.448" y="558.41" width="87.7153" height="98.7041" filterUnits="userSpaceOnUse" color-interpolation-filters="sRGB">
<feFlood flood-opacity="0" result="BackgroundImageFix"/>
<feColorMatrix in="SourceAlpha" type="matrix" values="0 0 0 0 0 0 0 0 0 0 0 0 0 0 0 0 0 0 127 0" result="hardAlpha"/>
<feOffset dy="11"/>
<feComposite in2="hardAlpha" operator="out"/>
<feColorMatrix type="matrix" values="0 0 0 0 0.501961 0 0 0 0 0.486275 0 0 0 0 0.74902 0 0 0 1 0"/>
<feBlend mode="normal" in2="BackgroundImageFix" result="effect1_dropShadow_1233_3600"/>
<feBlend mode="normal" in="SourceGraphic" in2="effect1_dropShadow_1233_3600" result="shape"/>
</filter>
<filter id="filter17_d_1233_3600" x="536.163" y="558.41" width="87.7153" height="98.7041" filterUnits="userSpaceOnUse" color-interpolation-filters="sRGB">
<feFlood flood-opacity="0" result="BackgroundImageFix"/>
<feColorMatrix in="SourceAlpha" type="matrix" values="0 0 0 0 0 0 0 0 0 0 0 0 0 0 0 0 0 0 127 0" result="hardAlpha"/>
<feOffset dy="11"/>
<feComposite in2="hardAlpha" operator="out"/>
<feColorMatrix type="matrix" values="0 0 0 0 0.501961 0 0 0 0 0.486275 0 0 0 0 0.74902 0 0 0 1 0"/>
<feBlend mode="normal" in2="BackgroundImageFix" result="effect1_dropShadow_1233_3600"/>
<feBlend mode="normal" in="SourceGraphic" in2="effect1_dropShadow_1233_3600" result="shape"/>
</filter>
<filter id="filter18_d_1233_3600" x="605.878" y="558.41" width="87.7153" height="98.7041" filterUnits="userSpaceOnUse" color-interpolation-filters="sRGB">
<feFlood flood-opacity="0" result="BackgroundImageFix"/>
<feColorMatrix in="SourceAlpha" type="matrix" values="0 0 0 0 0 0 0 0 0 0 0 0 0 0 0 0 0 0 127 0" result="hardAlpha"/>
<feOffset dy="11"/>
<feComposite in2="hardAlpha" operator="out"/>
<feColorMatrix type="matrix" values="0 0 0 0 0.501961 0 0 0 0 0.486275 0 0 0 0 0.74902 0 0 0 1 0"/>
<feBlend mode="normal" in2="BackgroundImageFix" result="effect1_dropShadow_1233_3600"/>
<feBlend mode="normal" in="SourceGraphic" in2="effect1_dropShadow_1233_3600" result="shape"/>
</filter>
<filter id="filter19_d_1233_3600" x="466.448" y="628.113" width="87.7153" height="98.7041" filterUnits="userSpaceOnUse" color-interpolation-filters="sRGB">
<feFlood flood-opacity="0" result="BackgroundImageFix"/>
<feColorMatrix in="SourceAlpha" type="matrix" values="0 0 0 0 0 0 0 0 0 0 0 0 0 0 0 0 0 0 127 0" result="hardAlpha"/>
<feOffset dy="11"/>
<feComposite in2="hardAlpha" operator="out"/>
<feColorMatrix type="matrix" values="0 0 0 0 0.501961 0 0 0 0 0.486275 0 0 0 0 0.74902 0 0 0 1 0"/>
<feBlend mode="normal" in2="BackgroundImageFix" result="effect1_dropShadow_1233_3600"/>
<feBlend mode="normal" in="SourceGraphic" in2="effect1_dropShadow_1233_3600" result="shape"/>
</filter>
<filter id="filter20_d_1233_3600" x="536.164" y="628.113" width="87.7153" height="98.7041" filterUnits="userSpaceOnUse" color-interpolation-filters="sRGB">
<feFlood flood-opacity="0" result="BackgroundImageFix"/>
<feColorMatrix in="SourceAlpha" type="matrix" values="0 0 0 0 0 0 0 0 0 0 0 0 0 0 0 0 0 0 127 0" result="hardAlpha"/>
<feOffset dy="11"/>
<feComposite in2="hardAlpha" operator="out"/>
<feColorMatrix type="matrix" values="0 0 0 0 0.501961 0 0 0 0 0.486275 0 0 0 0 0.74902 0 0 0 1 0"/>
<feBlend mode="normal" in2="BackgroundImageFix" result="effect1_dropShadow_1233_3600"/>
<feBlend mode="normal" in="SourceGraphic" in2="effect1_dropShadow_1233_3600" result="shape"/>
</filter>
<filter id="filter21_d_1233_3600" x="605.878" y="628.113" width="87.7153" height="98.7041" filterUnits="userSpaceOnUse" color-interpolation-filters="sRGB">
<feFlood flood-opacity="0" result="BackgroundImageFix"/>
<feColorMatrix in="SourceAlpha" type="matrix" values="0 0 0 0 0 0 0 0 0 0 0 0 0 0 0 0 0 0 127 0" result="hardAlpha"/>
<feOffset dy="11"/>
<feComposite in2="hardAlpha" operator="out"/>
<feColorMatrix type="matrix" values="0 0 0 0 0.501961 0 0 0 0 0.486275 0 0 0 0 0.74902 0 0 0 1 0"/>
<feBlend mode="normal" in2="BackgroundImageFix" result="effect1_dropShadow_1233_3600"/>
<feBlend mode="normal" in="SourceGraphic" in2="effect1_dropShadow_1233_3600" result="shape"/>
</filter>
<filter id="filter22_d_1233_3600" x="466.448" y="697.818" width="87.7153" height="98.7041" filterUnits="userSpaceOnUse" color-interpolation-filters="sRGB">
<feFlood flood-opacity="0" result="BackgroundImageFix"/>
<feColorMatrix in="SourceAlpha" type="matrix" values="0 0 0 0 0 0 0 0 0 0 0 0 0 0 0 0 0 0 127 0" result="hardAlpha"/>
<feOffset dy="11"/>
<feComposite in2="hardAlpha" operator="out"/>
<feColorMatrix type="matrix" values="0 0 0 0 0.501961 0 0 0 0 0.486275 0 0 0 0 0.74902 0 0 0 1 0"/>
<feBlend mode="normal" in2="BackgroundImageFix" result="effect1_dropShadow_1233_3600"/>
<feBlend mode="normal" in="SourceGraphic" in2="effect1_dropShadow_1233_3600" result="shape"/>
</filter>
<filter id="filter23_d_1233_3600" x="536.164" y="697.818" width="87.7153" height="98.7041" filterUnits="userSpaceOnUse" color-interpolation-filters="sRGB">
<feFlood flood-opacity="0" result="BackgroundImageFix"/>
<feColorMatrix in="SourceAlpha" type="matrix" values="0 0 0 0 0 0 0 0 0 0 0 0 0 0 0 0 0 0 127 0" result="hardAlpha"/>
<feOffset dy="11"/>
<feComposite in2="hardAlpha" operator="out"/>
<feColorMatrix type="matrix" values="0 0 0 0 0.501961 0 0 0 0 0.486275 0 0 0 0 0.74902 0 0 0 1 0"/>
<feBlend mode="normal" in2="BackgroundImageFix" result="effect1_dropShadow_1233_3600"/>
<feBlend mode="normal" in="SourceGraphic" in2="effect1_dropShadow_1233_3600" result="shape"/>
</filter>
<filter id="filter24_d_1233_3600" x="605.878" y="697.818" width="87.7153" height="98.7041" filterUnits="userSpaceOnUse" color-interpolation-filters="sRGB">
<feFlood flood-opacity="0" result="BackgroundImageFix"/>
<feColorMatrix in="SourceAlpha" type="matrix" values="0 0 0 0 0 0 0 0 0 0 0 0 0 0 0 0 0 0 127 0" result="hardAlpha"/>
<feOffset dy="11"/>
<feComposite in2="hardAlpha" operator="out"/>
<feColorMatrix type="matrix" values="0 0 0 0 0.501961 0 0 0 0 0.486275 0 0 0 0 0.74902 0 0 0 1 0"/>
<feBlend mode="normal" in2="BackgroundImageFix" result="effect1_dropShadow_1233_3600"/>
<feBlend mode="normal" in="SourceGraphic" in2="effect1_dropShadow_1233_3600" result="shape"/>
</filter>
<filter id="filter25_d_1233_3600" x="404.999" y="471.564" width="87.7046" height="98.7148" filterUnits="userSpaceOnUse" color-interpolation-filters="sRGB">
<feFlood flood-opacity="0" result="BackgroundImageFix"/>
<feColorMatrix in="SourceAlpha" type="matrix" values="0 0 0 0 0 0 0 0 0 0 0 0 0 0 0 0 0 0 127 0" result="hardAlpha"/>
<feOffset dy="11"/>
<feComposite in2="hardAlpha" operator="out"/>
<feColorMatrix type="matrix" values="0 0 0 0 1 0 0 0 0 0.505882 0 0 0 0 0 0 0 0 1 0"/>
<feBlend mode="normal" in2="BackgroundImageFix" result="effect1_dropShadow_1233_3600"/>
<feBlend mode="normal" in="SourceGraphic" in2="effect1_dropShadow_1233_3600" result="shape"/>
</filter>
<filter id="filter26_d_1233_3600" x="404.999" y="541.279" width="87.7046" height="98.7148" filterUnits="userSpaceOnUse" color-interpolation-filters="sRGB">
<feFlood flood-opacity="0" result="BackgroundImageFix"/>
<feColorMatrix in="SourceAlpha" type="matrix" values="0 0 0 0 0 0 0 0 0 0 0 0 0 0 0 0 0 0 127 0" result="hardAlpha"/>
<feOffset dy="11"/>
<feComposite in2="hardAlpha" operator="out"/>
<feColorMatrix type="matrix" values="0 0 0 0 1 0 0 0 0 0.505882 0 0 0 0 0 0 0 0 1 0"/>
<feBlend mode="normal" in2="BackgroundImageFix" result="effect1_dropShadow_1233_3600"/>
<feBlend mode="normal" in="SourceGraphic" in2="effect1_dropShadow_1233_3600" result="shape"/>
</filter>
<filter id="filter27_d_1233_3600" x="404.999" y="610.995" width="87.7046" height="98.7148" filterUnits="userSpaceOnUse" color-interpolation-filters="sRGB">
<feFlood flood-opacity="0" result="BackgroundImageFix"/>
<feColorMatrix in="SourceAlpha" type="matrix" values="0 0 0 0 0 0 0 0 0 0 0 0 0 0 0 0 0 0 127 0" result="hardAlpha"/>
<feOffset dy="11"/>
<feComposite in2="hardAlpha" operator="out"/>
<feColorMatrix type="matrix" values="0 0 0 0 1 0 0 0 0 0.505882 0 0 0 0 0 0 0 0 1 0"/>
<feBlend mode="normal" in2="BackgroundImageFix" result="effect1_dropShadow_1233_3600"/>
<feBlend mode="normal" in="SourceGraphic" in2="effect1_dropShadow_1233_3600" result="shape"/>
</filter>
<filter id="filter28_d_1233_3600" x="404.999" y="680.71" width="87.7046" height="98.7148" filterUnits="userSpaceOnUse" color-interpolation-filters="sRGB">
<feFlood flood-opacity="0" result="BackgroundImageFix"/>
<feColorMatrix in="SourceAlpha" type="matrix" values="0 0 0 0 0 0 0 0 0 0 0 0 0 0 0 0 0 0 127 0" result="hardAlpha"/>
<feOffset dy="11"/>
<feComposite in2="hardAlpha" operator="out"/>
<feColorMatrix type="matrix" values="0 0 0 0 1 0 0 0 0 0.505882 0 0 0 0 0 0 0 0 1 0"/>
<feBlend mode="normal" in2="BackgroundImageFix" result="effect1_dropShadow_1233_3600"/>
<feBlend mode="normal" in="SourceGraphic" in2="effect1_dropShadow_1233_3600" result="shape"/>
</filter>
<filter id="filter29_d_1233_3600" x="404.999" y="750.426" width="87.7046" height="98.7148" filterUnits="userSpaceOnUse" color-interpolation-filters="sRGB">
<feFlood flood-opacity="0" result="BackgroundImageFix"/>
<feColorMatrix in="SourceAlpha" type="matrix" values="0 0 0 0 0 0 0 0 0 0 0 0 0 0 0 0 0 0 127 0" result="hardAlpha"/>
<feOffset dy="11"/>
<feComposite in2="hardAlpha" operator="out"/>
<feColorMatrix type="matrix" values="0 0 0 0 1 0 0 0 0 0.505882 0 0 0 0 0 0 0 0 1 0"/>
<feBlend mode="normal" in2="BackgroundImageFix" result="effect1_dropShadow_1233_3600"/>
<feBlend mode="normal" in="SourceGraphic" in2="effect1_dropShadow_1233_3600" result="shape"/>
</filter>
<filter id="filter30_d_1233_3600" x="335.295" y="471.564" width="87.7046" height="98.7148" filterUnits="userSpaceOnUse" color-interpolation-filters="sRGB">
<feFlood flood-opacity="0" result="BackgroundImageFix"/>
<feColorMatrix in="SourceAlpha" type="matrix" values="0 0 0 0 0 0 0 0 0 0 0 0 0 0 0 0 0 0 127 0" result="hardAlpha"/>
<feOffset dy="11"/>
<feComposite in2="hardAlpha" operator="out"/>
<feColorMatrix type="matrix" values="0 0 0 0 1 0 0 0 0 0.505882 0 0 0 0 0 0 0 0 1 0"/>
<feBlend mode="normal" in2="BackgroundImageFix" result="effect1_dropShadow_1233_3600"/>
<feBlend mode="normal" in="SourceGraphic" in2="effect1_dropShadow_1233_3600" result="shape"/>
</filter>
<filter id="filter31_d_1233_3600" x="335.295" y="541.279" width="87.7046" height="98.7148" filterUnits="userSpaceOnUse" color-interpolation-filters="sRGB">
<feFlood flood-opacity="0" result="BackgroundImageFix"/>
<feColorMatrix in="SourceAlpha" type="matrix" values="0 0 0 0 0 0 0 0 0 0 0 0 0 0 0 0 0 0 127 0" result="hardAlpha"/>
<feOffset dy="11"/>
<feComposite in2="hardAlpha" operator="out"/>
<feColorMatrix type="matrix" values="0 0 0 0 1 0 0 0 0 0.505882 0 0 0 0 0 0 0 0 1 0"/>
<feBlend mode="normal" in2="BackgroundImageFix" result="effect1_dropShadow_1233_3600"/>
<feBlend mode="normal" in="SourceGraphic" in2="effect1_dropShadow_1233_3600" result="shape"/>
</filter>
<filter id="filter32_d_1233_3600" x="335.295" y="610.995" width="87.7046" height="98.7148" filterUnits="userSpaceOnUse" color-interpolation-filters="sRGB">
<feFlood flood-opacity="0" result="BackgroundImageFix"/>
<feColorMatrix in="SourceAlpha" type="matrix" values="0 0 0 0 0 0 0 0 0 0 0 0 0 0 0 0 0 0 127 0" result="hardAlpha"/>
<feOffset dy="11"/>
<feComposite in2="hardAlpha" operator="out"/>
<feColorMatrix type="matrix" values="0 0 0 0 1 0 0 0 0 0.505882 0 0 0 0 0 0 0 0 1 0"/>
<feBlend mode="normal" in2="BackgroundImageFix" result="effect1_dropShadow_1233_3600"/>
<feBlend mode="normal" in="SourceGraphic" in2="effect1_dropShadow_1233_3600" result="shape"/>
</filter>
<filter id="filter33_d_1233_3600" x="335.295" y="680.71" width="87.7046" height="98.7148" filterUnits="userSpaceOnUse" color-interpolation-filters="sRGB">
<feFlood flood-opacity="0" result="BackgroundImageFix"/>
<feColorMatrix in="SourceAlpha" type="matrix" values="0 0 0 0 0 0 0 0 0 0 0 0 0 0 0 0 0 0 127 0" result="hardAlpha"/>
<feOffset dy="11"/>
<feComposite in2="hardAlpha" operator="out"/>
<feColorMatrix type="matrix" values="0 0 0 0 1 0 0 0 0 0.505882 0 0 0 0 0 0 0 0 1 0"/>
<feBlend mode="normal" in2="BackgroundImageFix" result="effect1_dropShadow_1233_3600"/>
<feBlend mode="normal" in="SourceGraphic" in2="effect1_dropShadow_1233_3600" result="shape"/>
</filter>
<filter id="filter34_d_1233_3600" x="335.295" y="750.425" width="87.7046" height="98.7148" filterUnits="userSpaceOnUse" color-interpolation-filters="sRGB">
<feFlood flood-opacity="0" result="BackgroundImageFix"/>
<feColorMatrix in="SourceAlpha" type="matrix" values="0 0 0 0 0 0 0 0 0 0 0 0 0 0 0 0 0 0 127 0" result="hardAlpha"/>
<feOffset dy="11"/>
<feComposite in2="hardAlpha" operator="out"/>
<feColorMatrix type="matrix" values="0 0 0 0 1 0 0 0 0 0.505882 0 0 0 0 0 0 0 0 1 0"/>
<feBlend mode="normal" in2="BackgroundImageFix" result="effect1_dropShadow_1233_3600"/>
<feBlend mode="normal" in="SourceGraphic" in2="effect1_dropShadow_1233_3600" result="shape"/>
</filter>
<filter id="filter35_d_1233_3600" x="265.59" y="471.564" width="87.7046" height="98.7148" filterUnits="userSpaceOnUse" color-interpolation-filters="sRGB">
<feFlood flood-opacity="0" result="BackgroundImageFix"/>
<feColorMatrix in="SourceAlpha" type="matrix" values="0 0 0 0 0 0 0 0 0 0 0 0 0 0 0 0 0 0 127 0" result="hardAlpha"/>
<feOffset dy="11"/>
<feComposite in2="hardAlpha" operator="out"/>
<feColorMatrix type="matrix" values="0 0 0 0 1 0 0 0 0 0.505882 0 0 0 0 0 0 0 0 1 0"/>
<feBlend mode="normal" in2="BackgroundImageFix" result="effect1_dropShadow_1233_3600"/>
<feBlend mode="normal" in="SourceGraphic" in2="effect1_dropShadow_1233_3600" result="shape"/>
</filter>
<filter id="filter36_d_1233_3600" x="265.59" y="541.279" width="87.7046" height="98.7148" filterUnits="userSpaceOnUse" color-interpolation-filters="sRGB">
<feFlood flood-opacity="0" result="BackgroundImageFix"/>
<feColorMatrix in="SourceAlpha" type="matrix" values="0 0 0 0 0 0 0 0 0 0 0 0 0 0 0 0 0 0 127 0" result="hardAlpha"/>
<feOffset dy="11"/>
<feComposite in2="hardAlpha" operator="out"/>
<feColorMatrix type="matrix" values="0 0 0 0 1 0 0 0 0 0.505882 0 0 0 0 0 0 0 0 1 0"/>
<feBlend mode="normal" in2="BackgroundImageFix" result="effect1_dropShadow_1233_3600"/>
<feBlend mode="normal" in="SourceGraphic" in2="effect1_dropShadow_1233_3600" result="shape"/>
</filter>
<filter id="filter37_d_1233_3600" x="265.59" y="610.995" width="87.7046" height="98.7148" filterUnits="userSpaceOnUse" color-interpolation-filters="sRGB">
<feFlood flood-opacity="0" result="BackgroundImageFix"/>
<feColorMatrix in="SourceAlpha" type="matrix" values="0 0 0 0 0 0 0 0 0 0 0 0 0 0 0 0 0 0 127 0" result="hardAlpha"/>
<feOffset dy="11"/>
<feComposite in2="hardAlpha" operator="out"/>
<feColorMatrix type="matrix" values="0 0 0 0 1 0 0 0 0 0.505882 0 0 0 0 0 0 0 0 1 0"/>
<feBlend mode="normal" in2="BackgroundImageFix" result="effect1_dropShadow_1233_3600"/>
<feBlend mode="normal" in="SourceGraphic" in2="effect1_dropShadow_1233_3600" result="shape"/>
</filter>
<filter id="filter38_d_1233_3600" x="265.59" y="680.71" width="87.7046" height="98.7148" filterUnits="userSpaceOnUse" color-interpolation-filters="sRGB">
<feFlood flood-opacity="0" result="BackgroundImageFix"/>
<feColorMatrix in="SourceAlpha" type="matrix" values="0 0 0 0 0 0 0 0 0 0 0 0 0 0 0 0 0 0 127 0" result="hardAlpha"/>
<feOffset dy="11"/>
<feComposite in2="hardAlpha" operator="out"/>
<feColorMatrix type="matrix" values="0 0 0 0 1 0 0 0 0 0.505882 0 0 0 0 0 0 0 0 1 0"/>
<feBlend mode="normal" in2="BackgroundImageFix" result="effect1_dropShadow_1233_3600"/>
<feBlend mode="normal" in="SourceGraphic" in2="effect1_dropShadow_1233_3600" result="shape"/>
</filter>
<filter id="filter39_d_1233_3600" x="265.59" y="750.426" width="87.7046" height="98.7148" filterUnits="userSpaceOnUse" color-interpolation-filters="sRGB">
<feFlood flood-opacity="0" result="BackgroundImageFix"/>
<feColorMatrix in="SourceAlpha" type="matrix" values="0 0 0 0 0 0 0 0 0 0 0 0 0 0 0 0 0 0 127 0" result="hardAlpha"/>
<feOffset dy="11"/>
<feComposite in2="hardAlpha" operator="out"/>
<feColorMatrix type="matrix" values="0 0 0 0 1 0 0 0 0 0.505882 0 0 0 0 0 0 0 0 1 0"/>
<feBlend mode="normal" in2="BackgroundImageFix" result="effect1_dropShadow_1233_3600"/>
<feBlend mode="normal" in="SourceGraphic" in2="effect1_dropShadow_1233_3600" result="shape"/>
</filter>
<clipPath id="clip0_1233_3600">
<rect width="640" height="666" fill="white"/>
</clipPath>
<clipPath id="clip1_1233_3600">
<rect width="264.52" height="120" fill="white" transform="translate(0 632)"/>
</clipPath>
<clipPath id="clip2_1233_3600">
<rect width="143.653" height="336" fill="white" transform="translate(494.365 416)"/>
</clipPath>
<clipPath id="clip3_1233_3600">
<rect width="220" height="166.44" fill="white" transform="matrix(0 1 -1 0 462.663 532)"/>
</clipPath>
</defs>
</svg>
