<svg width="32" height="33" viewBox="0 0 32 33" fill="none" xmlns="http://www.w3.org/2000/svg">
<path d="M28 27.1667L28 5.83333C28 5.47971 27.8595 5.14057 27.6095 4.89052C27.3594 4.64047 27.0203 4.5 26.6667 4.5L5.33333 4.5C4.97971 4.5 4.64057 4.64047 4.39052 4.89052C4.14047 5.14057 4 5.47971 4 5.83333L4 27.1667C4 27.5203 4.14047 27.8594 4.39052 28.1095C4.64057 28.3595 4.97971 28.5 5.33333 28.5L26.6667 28.5C27.0203 28.5 27.3594 28.3595 27.6095 28.1095C27.8595 27.8594 28 27.5203 28 27.1667ZM17.3333 23.1667H14.6667L14.6667 20.5H17.3333V23.1667ZM17.3333 17.8333H14.6667V9.83333H17.3333V17.8333Z" fill="#EA4E2C"/>
</svg>
