<svg width="256" height="750" viewBox="0 0 256 750" fill="none" xmlns="http://www.w3.org/2000/svg">
<g clip-path="url(#clip0_1289_3880)">
<path d="M-33.999 0L15.2577 49.28" stroke="#8F8AD9" stroke-linecap="round" stroke-linejoin="round" stroke-dasharray="240 64"/>
<path d="M64.5143 0L15.2576 49.28" stroke="#8F8AD9" stroke-linecap="round" stroke-linejoin="round" stroke-dasharray="240 64"/>
<path d="M64.5144 0L113.771 49.28" stroke="#8F8AD9" stroke-linecap="round" stroke-linejoin="round" stroke-dasharray="240 64"/>
<path d="M163.028 0L113.771 49.28" stroke="#8F8AD9" stroke-linecap="round" stroke-linejoin="round" stroke-dasharray="240 64"/>
<path d="M212.285 0L163.028 49.28" stroke="#8F8AD9" stroke-linecap="round" stroke-linejoin="round" stroke-dasharray="240 64"/>
<path d="M212.285 0L261.541 49.28" stroke="#8F8AD9" stroke-linecap="round" stroke-linejoin="round" stroke-dasharray="240 64"/>
<path d="M-33.999 49.2793L15.2577 98.5593" stroke="#8F8AD9" stroke-linecap="round" stroke-linejoin="round" stroke-dasharray="240 64"/>
<path d="M15.2576 49.2793L64.5143 98.5593" stroke="#8F8AD9" stroke-linecap="round" stroke-linejoin="round" stroke-dasharray="240 64"/>
<path d="M113.771 49.2793L64.5144 98.5593" stroke="#8F8AD9" stroke-linecap="round" stroke-linejoin="round" stroke-dasharray="240 64"/>
<path d="M163.028 49.2793L113.771 98.5593" stroke="#8F8AD9" stroke-linecap="round" stroke-linejoin="round" stroke-dasharray="240 64"/>
<path d="M163.028 49.2793L212.285 98.5593" stroke="#8F8AD9" stroke-linecap="round" stroke-linejoin="round" stroke-dasharray="240 64"/>
<path d="M261.541 49.2793L212.285 98.5593" stroke="#8F8AD9" stroke-linecap="round" stroke-linejoin="round" stroke-dasharray="240 64"/>
<path d="M-33.999 98.5596L15.2577 147.84" stroke="#8F8AD9" stroke-linecap="round" stroke-linejoin="round" stroke-dasharray="240 64"/>
<path d="M15.2576 98.5596L64.5143 147.84" stroke="#8F8AD9" stroke-linecap="round" stroke-linejoin="round" stroke-dasharray="240 64"/>
<path d="M64.5144 98.5596L113.771 147.84" stroke="#8F8AD9" stroke-linecap="round" stroke-linejoin="round" stroke-dasharray="240 64"/>
<path d="M113.771 98.5596L163.028 147.84" stroke="#8F8AD9" stroke-linecap="round" stroke-linejoin="round" stroke-dasharray="240 64"/>
<path d="M212.285 98.5596L163.028 147.84" stroke="#8F8AD9" stroke-linecap="round" stroke-linejoin="round" stroke-dasharray="240 64"/>
<path d="M261.541 98.5596L212.285 147.84" stroke="#8F8AD9" stroke-linecap="round" stroke-linejoin="round" stroke-dasharray="240 64"/>
<path d="M15.2577 147.84L-33.999 197.12" stroke="#8F8AD9" stroke-linecap="round" stroke-linejoin="round" stroke-dasharray="240 64"/>
<path d="M64.5143 147.84L15.2576 197.12" stroke="#8F8AD9" stroke-linecap="round" stroke-linejoin="round" stroke-dasharray="240 64"/>
<path d="M64.5144 147.84L113.771 197.12" stroke="#8F8AD9" stroke-linecap="round" stroke-linejoin="round" stroke-dasharray="240 64"/>
<path d="M113.771 147.84L163.028 197.12" stroke="#8F8AD9" stroke-linecap="round" stroke-linejoin="round" stroke-dasharray="240 64"/>
<path d="M212.285 147.84L163.028 197.12" stroke="#8F8AD9" stroke-linecap="round" stroke-linejoin="round" stroke-dasharray="240 64"/>
<path d="M261.541 147.84L212.285 197.12" stroke="#8F8AD9" stroke-linecap="round" stroke-linejoin="round" stroke-dasharray="240 64"/>
<path d="M15.2577 197.12L-33.999 246.4" stroke="#8F8AD9" stroke-linecap="round" stroke-linejoin="round" stroke-dasharray="240 64"/>
<path d="M15.2576 197.12L64.5143 246.4" stroke="#8F8AD9" stroke-linecap="round" stroke-linejoin="round" stroke-dasharray="240 64"/>
<path d="M64.5144 197.12L113.771 246.4" stroke="#8F8AD9" stroke-linecap="round" stroke-linejoin="round" stroke-dasharray="240 64"/>
<path d="M163.028 197.12L113.771 246.4" stroke="#8F8AD9" stroke-linecap="round" stroke-linejoin="round" stroke-dasharray="240 64"/>
<path d="M163.028 197.12L212.285 246.4" stroke="#8F8AD9" stroke-linecap="round" stroke-linejoin="round" stroke-dasharray="240 64"/>
<path d="M261.541 197.12L212.285 246.4" stroke="#8F8AD9" stroke-linecap="round" stroke-linejoin="round" stroke-dasharray="240 64"/>
<path d="M-33.999 246.4L15.2577 295.68" stroke="#8F8AD9" stroke-linecap="round" stroke-linejoin="round" stroke-dasharray="240 64"/>
<path d="M64.5143 246.4L15.2576 295.68" stroke="#8F8AD9" stroke-linecap="round" stroke-linejoin="round" stroke-dasharray="240 64"/>
<path d="M113.771 246.4L64.5144 295.68" stroke="#8F8AD9" stroke-linecap="round" stroke-linejoin="round" stroke-dasharray="240 64"/>
<path d="M163.028 246.4L113.771 295.68" stroke="#8F8AD9" stroke-linecap="round" stroke-linejoin="round" stroke-dasharray="240 64"/>
<path d="M163.028 246.4L212.285 295.68" stroke="#8F8AD9" stroke-linecap="round" stroke-linejoin="round" stroke-dasharray="240 64"/>
<path d="M212.285 246.4L261.541 295.68" stroke="#8F8AD9" stroke-linecap="round" stroke-linejoin="round" stroke-dasharray="240 64"/>
<path d="M15.2577 295.68L-33.999 344.96" stroke="#8F8AD9" stroke-linecap="round" stroke-linejoin="round" stroke-dasharray="240 64"/>
<path d="M15.2576 295.68L64.5143 344.96" stroke="#8F8AD9" stroke-linecap="round" stroke-linejoin="round" stroke-dasharray="240 64"/>
<path d="M64.5144 295.68L113.771 344.96" stroke="#8F8AD9" stroke-linecap="round" stroke-linejoin="round" stroke-dasharray="240 64"/>
<path d="M163.028 295.68L113.771 344.96" stroke="#8F8AD9" stroke-linecap="round" stroke-linejoin="round" stroke-dasharray="240 64"/>
<path d="M163.028 295.68L212.285 344.96" stroke="#8F8AD9" stroke-linecap="round" stroke-linejoin="round" stroke-dasharray="240 64"/>
<path d="M212.285 295.68L261.541 344.96" stroke="#8F8AD9" stroke-linecap="round" stroke-linejoin="round" stroke-dasharray="240 64"/>
<path d="M15.2577 344.96L-33.999 394.24" stroke="#8F8AD9" stroke-linecap="round" stroke-linejoin="round" stroke-dasharray="240 64"/>
<path d="M15.2576 344.96L64.5143 394.24" stroke="#8F8AD9" stroke-linecap="round" stroke-linejoin="round" stroke-dasharray="240 64"/>
<path d="M64.5144 344.96L113.771 394.24" stroke="#8F8AD9" stroke-linecap="round" stroke-linejoin="round" stroke-dasharray="240 64"/>
<path d="M113.771 344.96L163.028 394.24" stroke="#8F8AD9" stroke-linecap="round" stroke-linejoin="round" stroke-dasharray="240 64"/>
<path d="M212.285 344.96L163.028 394.24" stroke="#8F8AD9" stroke-linecap="round" stroke-linejoin="round" stroke-dasharray="240 64"/>
<path d="M261.541 344.96L212.285 394.24" stroke="#8F8AD9" stroke-linecap="round" stroke-linejoin="round" stroke-dasharray="240 64"/>
<path d="M15.2577 394.24L-33.999 443.52" stroke="#8F8AD9" stroke-linecap="round" stroke-linejoin="round" stroke-dasharray="240 64"/>
<path d="M64.5143 394.24L15.2576 443.52" stroke="#8F8AD9" stroke-linecap="round" stroke-linejoin="round" stroke-dasharray="240 64"/>
<path d="M113.771 394.24L64.5144 443.52" stroke="#8F8AD9" stroke-linecap="round" stroke-linejoin="round" stroke-dasharray="240 64"/>
<path d="M113.771 394.24L163.028 443.52" stroke="#8F8AD9" stroke-linecap="round" stroke-linejoin="round" stroke-dasharray="240 64"/>
<path d="M212.285 394.24L163.028 443.52" stroke="#8F8AD9" stroke-linecap="round" stroke-linejoin="round" stroke-dasharray="240 64"/>
<path d="M261.541 394.24L212.285 443.52" stroke="#8F8AD9" stroke-linecap="round" stroke-linejoin="round" stroke-dasharray="240 64"/>
<path d="M15.2577 443.521L-33.999 492.801" stroke="#8F8AD9" stroke-linecap="round" stroke-linejoin="round" stroke-dasharray="240 64"/>
<path d="M15.2576 443.521L64.5143 492.801" stroke="#8F8AD9" stroke-linecap="round" stroke-linejoin="round" stroke-dasharray="240 64"/>
<path d="M64.5144 443.521L113.771 492.801" stroke="#8F8AD9" stroke-linecap="round" stroke-linejoin="round" stroke-dasharray="240 64"/>
<path d="M113.771 443.521L163.028 492.801" stroke="#8F8AD9" stroke-linecap="round" stroke-linejoin="round" stroke-dasharray="240 64"/>
<path d="M212.285 443.521L163.028 492.801" stroke="#8F8AD9" stroke-linecap="round" stroke-linejoin="round" stroke-dasharray="240 64"/>
<path d="M212.285 443.521L261.541 492.801" stroke="#8F8AD9" stroke-linecap="round" stroke-linejoin="round" stroke-dasharray="240 64"/>
<path d="M-33.999 492.8L15.2577 542.08" stroke="#8F8AD9" stroke-linecap="round" stroke-linejoin="round" stroke-dasharray="240 64"/>
<path d="M15.2576 492.8L64.5143 542.08" stroke="#8F8AD9" stroke-linecap="round" stroke-linejoin="round" stroke-dasharray="240 64"/>
<path d="M113.771 492.8L64.5144 542.08" stroke="#8F8AD9" stroke-linecap="round" stroke-linejoin="round" stroke-dasharray="240 64"/>
<path d="M163.028 492.8L113.771 542.08" stroke="#8F8AD9" stroke-linecap="round" stroke-linejoin="round" stroke-dasharray="240 64"/>
<path d="M212.285 492.8L163.028 542.08" stroke="#8F8AD9" stroke-linecap="round" stroke-linejoin="round" stroke-dasharray="240 64"/>
<path d="M261.541 492.8L212.285 542.08" stroke="#8F8AD9" stroke-linecap="round" stroke-linejoin="round" stroke-dasharray="240 64"/>
<path d="M-33.999 542.08L15.2577 591.36" stroke="#8F8AD9" stroke-linecap="round" stroke-linejoin="round" stroke-dasharray="240 64"/>
<path d="M64.5143 542.08L15.2576 591.36" stroke="#8F8AD9" stroke-linecap="round" stroke-linejoin="round" stroke-dasharray="240 64"/>
<path d="M64.5144 542.08L113.771 591.36" stroke="#8F8AD9" stroke-linecap="round" stroke-linejoin="round" stroke-dasharray="240 64"/>
<path d="M113.771 542.08L163.028 591.36" stroke="#8F8AD9" stroke-linecap="round" stroke-linejoin="round" stroke-dasharray="240 64"/>
<path d="M212.285 542.08L163.028 591.36" stroke="#8F8AD9" stroke-linecap="round" stroke-linejoin="round" stroke-dasharray="240 64"/>
<path d="M261.541 542.08L212.285 591.36" stroke="#8F8AD9" stroke-linecap="round" stroke-linejoin="round" stroke-dasharray="240 64"/>
<path d="M-33.999 591.36L15.2577 640.64" stroke="#8F8AD9" stroke-linecap="round" stroke-linejoin="round" stroke-dasharray="240 64"/>
<path d="M64.5143 591.36L15.2576 640.64" stroke="#8F8AD9" stroke-linecap="round" stroke-linejoin="round" stroke-dasharray="240 64"/>
<path d="M64.5144 591.36L113.771 640.64" stroke="#8F8AD9" stroke-linecap="round" stroke-linejoin="round" stroke-dasharray="240 64"/>
<path d="M113.771 591.36L163.028 640.64" stroke="#8F8AD9" stroke-linecap="round" stroke-linejoin="round" stroke-dasharray="240 64"/>
<path d="M212.285 591.36L163.028 640.64" stroke="#8F8AD9" stroke-linecap="round" stroke-linejoin="round" stroke-dasharray="240 64"/>
<path d="M212.285 591.36L261.541 640.64" stroke="#8F8AD9" stroke-linecap="round" stroke-linejoin="round" stroke-dasharray="240 64"/>
<path d="M-33.999 640.64L15.2577 689.92" stroke="#8F8AD9" stroke-linecap="round" stroke-linejoin="round" stroke-dasharray="240 64"/>
<path d="M64.5143 640.64L15.2576 689.92" stroke="#8F8AD9" stroke-linecap="round" stroke-linejoin="round" stroke-dasharray="240 64"/>
<path d="M64.5144 640.64L113.771 689.92" stroke="#8F8AD9" stroke-linecap="round" stroke-linejoin="round" stroke-dasharray="240 64"/>
<path d="M163.028 640.64L113.771 689.92" stroke="#8F8AD9" stroke-linecap="round" stroke-linejoin="round" stroke-dasharray="240 64"/>
<path d="M163.028 640.64L212.285 689.92" stroke="#8F8AD9" stroke-linecap="round" stroke-linejoin="round" stroke-dasharray="240 64"/>
<path d="M212.285 640.64L261.541 689.92" stroke="#8F8AD9" stroke-linecap="round" stroke-linejoin="round" stroke-dasharray="240 64"/>
<path d="M-33.999 689.92L15.2577 739.2" stroke="#8F8AD9" stroke-linecap="round" stroke-linejoin="round" stroke-dasharray="240 64"/>
<path d="M64.5143 689.92L15.2576 739.2" stroke="#8F8AD9" stroke-linecap="round" stroke-linejoin="round" stroke-dasharray="240 64"/>
<path d="M64.5144 689.92L113.771 739.2" stroke="#8F8AD9" stroke-linecap="round" stroke-linejoin="round" stroke-dasharray="240 64"/>
<path d="M113.771 689.92L163.028 739.2" stroke="#8F8AD9" stroke-linecap="round" stroke-linejoin="round" stroke-dasharray="240 64"/>
<path d="M212.285 689.92L163.028 739.2" stroke="#8F8AD9" stroke-linecap="round" stroke-linejoin="round" stroke-dasharray="240 64"/>
<path d="M261.541 689.92L212.285 739.2" stroke="#8F8AD9" stroke-linecap="round" stroke-linejoin="round" stroke-dasharray="240 64"/>
</g>
<defs>
<clipPath id="clip0_1289_3880">
<rect width="256" height="750" fill="white"/>
</clipPath>
</defs>
</svg>
