<?xml version="1.0" encoding="UTF-8"?>
<svg xmlns="http://www.w3.org/2000/svg" width="57" height="12" viewBox="0 0 57 12" fill="none">
  <path d="M1.00039 10.6362C2.05078 8.31387 5.11856 -0.482361 6.02562 5.87087C6.12066 6.53651 6.19545 10.1125 6.64019 10.2384C7.03728 10.3508 8.51589 2.51215 9.79233 1.57032C11.7331 0.138313 11.972 4.18959 12.443 5.92021C13.8794 11.1983 13.4998 7.70787 14.7676 4.27922C15.988 0.978843 16.771 5.8668 17.1942 7.12343C18.1535 9.97132 18.7752 4.35582 19.943 2.78354C21.0862 1.24459 21.9795 2.17244 22.4293 3.87866C23.3841 7.5012 23.5712 8.11733 24.8249 3.89122C26.3918 -1.39141 26.8643 5.49284 27.5781 7.41388C28.6311 10.2476 29.5109 0.821252 30.9142 1.58629C31.3438 1.82055 32.7362 10.2702 33.539 8.2386C35.1489 4.16452 34.7161 5.86931 35.7457 9.69602C36.9609 14.2127 38.6582 4.53123 39.5757 3.72512C40.4982 2.91475 40.3003 11.7645 42.4852 5.88258C45.0069 -0.905944 44.1935 2.76353 45.8014 7.0656C47.1761 10.7439 48.3858 -2.10185 49.7023 3.28871C51.161 9.26191 52.0957 7.35036 55.5429 8.60403" stroke="#1D1D1F" stroke-width="2" stroke-linecap="round"></path>
</svg>